<svg width="40" height="40" viewBox="0 0 40 40" fill="none"
    xmlns="http://www.w3.org/2000/svg">
    <path d="M36.6666 35.0001C37.5871 35.0001 38.3333 34.2539 38.3333 33.3334C38.3333 32.4129 37.5871 31.6667 36.6666 31.6667V35.0001ZM4.99998 6.66675C4.99998 5.74627 4.25379 5.00008 3.33331 5.00008C2.41284 5.00008 1.66665 5.74627 1.66665 6.66675H4.99998ZM6.97338 32.6068L7.73003 31.1218H7.73003L6.97338 32.6068ZM4.05994 29.6934L2.57493 30.45L4.05994 29.6934ZM18.9226 15.5893L20.1011 14.4108V14.4108L18.9226 15.5893ZM24.4107 21.0775L23.2322 22.256L24.4107 21.0775ZM25.5892 21.0775L26.7677 22.256L26.7677 22.256L25.5892 21.0775ZM36.1785 12.8453C36.8294 12.1944 36.8294 11.1391 36.1785 10.4882C35.5276 9.83736 34.4723 9.83736 33.8215 10.4882L36.1785 12.8453ZM8.82147 22.1549C8.17059 22.8058 8.17059 23.8611 8.82147 24.5119C9.47234 25.1628 10.5276 25.1628 11.1785 24.5119L8.82147 22.1549ZM17.7441 15.5893L18.9226 16.7678L18.9226 16.7678L17.7441 15.5893ZM36.6666 31.6667H14V35.0001H36.6666V31.6667ZM4.99998 22.6667V6.66675H1.66665V22.6667H4.99998ZM14 31.6667C12.1056 31.6667 10.7851 31.6655 9.75705 31.5815C8.74843 31.4991 8.16895 31.3454 7.73003 31.1218L6.21673 34.0918C7.20388 34.5948 8.27086 34.8045 9.48561 34.9037C10.6809 35.0014 12.1606 35.0001 14 35.0001V31.6667ZM1.66665 22.6667C1.66665 24.5061 1.66535 25.9858 1.76301 27.1811C1.86226 28.3959 2.07195 29.4629 2.57493 30.45L5.54495 28.9367C5.3213 28.4978 5.16768 27.9183 5.08527 26.9097C5.00128 25.8816 4.99998 24.5611 4.99998 22.6667H1.66665ZM7.73003 31.1218C6.78922 30.6424 6.02431 29.8775 5.54495 28.9367L2.57493 30.45C3.37387 32.018 4.64871 33.2929 6.21673 34.0918L7.73003 31.1218ZM17.7441 16.7678L23.2322 22.256L25.5892 19.899L20.1011 14.4108L17.7441 16.7678ZM26.7677 22.256L36.1785 12.8453L33.8215 10.4882L24.4107 19.899L26.7677 22.256ZM11.1785 24.5119L18.9226 16.7678L16.5655 14.4108L8.82147 22.1549L11.1785 24.5119ZM23.2322 22.256C24.2085 23.2323 25.7914 23.2323 26.7677 22.256L24.4107 19.899C24.7362 19.5736 25.2638 19.5735 25.5892 19.899L23.2322 22.256ZM20.1011 14.4108C19.1248 13.4345 17.5419 13.4345 16.5655 14.4108L18.9226 16.7678C18.5971 17.0933 18.0695 17.0933 17.7441 16.7678L20.1011 14.4108Z" fill="#272D37"/>
</svg>
