<svg width="204" height="66" viewBox="0 0 204 66" fill="none" xmlns="http://www.w3.org/2000/svg">
<path d="M114.961 55.8913L114.962 55.8928C113.809 57.1653 112.349 57.809 110.562 57.809C109.14 57.809 108.021 57.3864 107.182 56.5769C106.345 55.751 105.917 54.6451 105.917 53.2319C105.917 51.2863 106.501 49.658 107.681 48.3128C108.861 46.9679 110.271 46.3056 111.942 46.3056C113.446 46.3056 114.602 46.7308 115.439 47.5386C116.274 48.3447 116.703 49.4489 116.703 50.901C116.703 52.9426 116.117 54.6049 114.961 55.8913ZM112.116 38.8862C107.654 38.8862 103.977 40.2068 101.107 42.881C98.2368 45.5558 96.793 48.9822 96.793 53.1218C96.793 56.7817 98.0214 59.715 100.469 61.9333C102.914 64.1502 106.184 65.2467 110.213 65.2467C114.77 65.2467 118.525 63.9273 121.434 61.272C124.343 58.6164 125.808 55.2263 125.808 51.1213C125.808 47.4251 124.56 44.4356 122.073 42.2166C119.589 40.0009 116.261 38.8862 112.136 38.8862H112.116Z" fill="url(#paint0_linear_18474_22050)" stroke="url(#paint1_linear_18474_22050)" stroke-width="0.5"/>
<path d="M141.722 40.3534C140.696 40.9661 139.82 41.792 139.102 42.8347L139.533 39.9999L139.577 39.7123H139.286H130.661H130.45L130.415 39.921L126.375 64.0011L126.326 64.2925H126.621H135.498H135.71L135.745 64.0835L137.57 53.0909C137.57 53.0907 137.57 53.0904 137.57 53.0902C137.935 50.9686 138.601 49.447 139.561 48.4702C140.515 47.4993 141.806 47.0032 143.481 47.0032C143.896 47.0032 144.351 47.0389 144.812 47.0933C145.265 47.1467 145.798 47.2544 146.38 47.3828L146.621 47.4358L146.677 47.1962L148.464 39.6344L148.527 39.3688L148.257 39.3295C148.216 39.3235 148.175 39.3176 148.136 39.3118C147.696 39.2478 147.357 39.1984 147.133 39.1808C147.112 39.1791 147.09 39.1774 147.068 39.1757C146.957 39.1668 146.847 39.1581 146.742 39.1519V39.125H146.492C144.686 39.125 143.086 39.5381 141.722 40.3534Z" fill="url(#paint2_linear_18474_22050)" stroke="url(#paint3_linear_18474_22050)" stroke-width="0.5"/>
<path d="M167.713 39.9213L166.155 49.2199H166.149L166.104 49.4127C166.063 49.5885 166.023 49.8167 165.983 50.1316C165.529 52.8878 164.871 54.9263 164.024 56.2697C163.181 57.605 162.169 58.2316 160.986 58.2316C159.92 58.2316 159.144 57.9494 158.644 57.412L158.644 57.412L158.641 57.409C158.118 56.8647 157.837 56.055 157.837 54.9577C157.837 54.702 157.893 54.1503 158.01 53.2652C158.126 52.3863 158.281 51.2877 158.494 49.9694C158.494 49.9691 158.494 49.9689 158.494 49.9687L160.164 40.004L160.213 39.7126H159.918H150.983H150.772L150.736 39.9206L149.163 49.1516C149.163 49.1517 149.163 49.1519 149.163 49.1521C148.813 51.1533 148.579 52.6449 148.462 53.6059C148.345 54.566 148.285 55.3844 148.285 56.0222C148.285 58.8533 149.409 61.0935 151.629 62.7563C153.843 64.4148 156.856 65.2105 160.637 65.2105C162.833 65.2105 164.802 64.9326 166.559 64.3728C168.317 63.8129 169.807 62.9889 171.022 61.8781L171.023 61.8779C172.973 60.092 174.362 56.5666 175.257 51.3845L175.257 51.3845L175.258 51.3807L175.335 50.8878L175.335 50.8852L177.161 40.004L177.21 39.7126H176.914H167.96H167.748L167.713 39.9213Z" fill="url(#paint4_linear_18474_22050)" stroke="url(#paint5_linear_18474_22050)" stroke-width="0.5"/>
<path d="M181.12 64.4313C182.908 64.9142 184.795 65.174 186.779 65.174C190.253 65.174 193.068 64.3949 195.201 62.8314L195.203 62.8299C197.323 61.2431 198.411 59.1514 198.411 56.5363C198.411 54.8844 197.907 53.4833 196.891 52.3499L196.889 52.3483C195.88 51.2426 194.13 50.1793 191.67 49.1833L191.327 49.0441V49.0622C190.926 48.9021 190.432 48.7122 189.836 48.5008C188.972 48.1834 188.345 47.864 187.938 47.5456C187.529 47.2261 187.378 46.9374 187.378 46.6803C187.378 46.2739 187.586 45.9211 188.063 45.6037C188.538 45.2882 189.166 45.1133 189.925 45.1133C190.845 45.1133 191.788 45.2906 192.735 45.6309C193.681 45.9705 194.731 46.528 195.885 47.3095L196.124 47.4715L196.25 47.2114L198.872 41.7971L198.97 41.5938L198.778 41.4753C197.417 40.6368 195.959 40.0038 194.404 39.5574C192.845 39.1099 191.248 38.9053 189.615 38.9053C186.369 38.9053 183.71 39.6865 181.618 41.2492C179.522 42.8145 178.468 44.7944 178.468 47.1942C178.468 48.6927 178.89 49.9653 179.771 50.9726C180.625 51.9895 182.066 52.9072 184.06 53.7387L184.063 53.7397C184.473 53.9057 185.038 54.1267 185.777 54.4024C187.001 54.876 187.903 55.3386 188.496 55.784C189.096 56.2359 189.326 56.6299 189.326 56.9585C189.326 57.4514 189.105 57.8576 188.615 58.2044C188.127 58.5508 187.483 58.7274 186.623 58.7274C185.627 58.7274 184.568 58.5321 183.426 58.1183C182.28 57.7031 180.857 57.0137 179.155 56.009L178.929 55.8751L178.807 56.1085L175.796 61.8716L175.686 62.0816L175.89 62.2024C177.579 63.2042 179.309 63.9477 181.12 64.4313Z" fill="url(#paint6_linear_18474_22050)" stroke="url(#paint7_linear_18474_22050)" stroke-width="0.5"/>
<mask id="path-5-outside-1_18474_22050" maskUnits="userSpaceOnUse" x="53.2598" y="0.0366211" width="71" height="65" fill="black">
<rect fill="white" x="53.2598" y="0.0366211" width="71" height="65"/>
<path fill-rule="evenodd" clip-rule="evenodd" d="M88.3688 1.03662L122.949 1.03662L120.014 15.146L117.13 13.2037L113.822 15.146L110.127 13.2037L106.217 15.146L102.062 13.2038L99.6243 24.6765L104.042 23.1192L107.738 24.9883L112.408 23.1192L116.104 25.0482L119.232 23.1192L117.023 34.2432H97.8508L90.5797 64.1004H55.2598L73.3032 51.9258L70.4709 42.0235L77.6393 34.9505L73.3032 24.9883L82.4565 17.7319L77.6393 7.10179L88.3688 1.03662ZM97.5515 8.5999C97.5515 10.1463 96.2842 11.3999 94.7208 11.3999C93.1575 11.3999 91.8902 10.1463 91.8902 8.5999C91.8902 7.0535 93.1575 5.7999 94.7208 5.7999C96.2842 5.7999 97.5515 7.0535 97.5515 8.5999Z"/>
</mask>
<path fill-rule="evenodd" clip-rule="evenodd" d="M88.3688 1.03662L122.949 1.03662L120.014 15.146L117.13 13.2037L113.822 15.146L110.127 13.2037L106.217 15.146L102.062 13.2038L99.6243 24.6765L104.042 23.1192L107.738 24.9883L112.408 23.1192L116.104 25.0482L119.232 23.1192L117.023 34.2432H97.8508L90.5797 64.1004H55.2598L73.3032 51.9258L70.4709 42.0235L77.6393 34.9505L73.3032 24.9883L82.4565 17.7319L77.6393 7.10179L88.3688 1.03662ZM97.5515 8.5999C97.5515 10.1463 96.2842 11.3999 94.7208 11.3999C93.1575 11.3999 91.8902 10.1463 91.8902 8.5999C91.8902 7.0535 93.1575 5.7999 94.7208 5.7999C96.2842 5.7999 97.5515 7.0535 97.5515 8.5999Z" fill="url(#paint8_linear_18474_22050)"/>
<path d="M122.949 1.03662L123.439 1.13846L123.564 0.536624L122.949 0.536624V1.03662ZM88.3688 1.03662V0.536621H88.2373L88.1228 0.601351L88.3688 1.03662ZM120.014 15.146L119.735 15.5607L120.352 15.9764L120.503 15.2478L120.014 15.146ZM117.13 13.2037L117.409 12.7889L117.148 12.6131L116.877 12.7725L117.13 13.2037ZM113.822 15.146L113.59 15.5886L113.836 15.7179L114.076 15.5771L113.822 15.146ZM110.127 13.2037L110.359 12.7611L110.133 12.6422L109.904 12.7559L110.127 13.2037ZM106.217 15.146L106.005 15.5989L106.224 15.701L106.439 15.5938L106.217 15.146ZM102.062 13.2038L102.274 12.7508L101.704 12.4844L101.573 13.0999L102.062 13.2038ZM99.6243 24.6765L99.1352 24.5726L98.95 25.4443L99.7905 25.148L99.6243 24.6765ZM104.042 23.1192L104.268 22.673L104.077 22.5767L103.876 22.6476L104.042 23.1192ZM107.738 24.9883L107.512 25.4345L107.714 25.5365L107.924 25.4525L107.738 24.9883ZM112.408 23.1192L112.64 22.6759L112.436 22.5696L112.223 22.655L112.408 23.1192ZM116.104 25.0482L115.873 25.4915L116.125 25.623L116.367 25.4738L116.104 25.0482ZM119.232 23.1192L119.723 23.2166L119.946 22.0915L118.97 22.6936L119.232 23.1192ZM117.023 34.2432V34.7432H117.433L117.513 34.3406L117.023 34.2432ZM97.8508 34.2432V33.7432H97.458L97.365 34.1249L97.8508 34.2432ZM90.5797 64.1004V64.6004H90.9725L91.0655 64.2187L90.5797 64.1004ZM55.2598 64.1004L54.9801 63.686L53.6248 64.6004H55.2598V64.1004ZM73.3032 51.9258L73.5829 52.3402L73.8838 52.1372L73.784 51.7883L73.3032 51.9258ZM70.4709 42.0235L70.1197 41.6676L69.9086 41.8759L69.9901 42.161L70.4709 42.0235ZM77.6393 34.9505L77.9905 35.3064L78.2346 35.0655L78.0977 34.7509L77.6393 34.9505ZM73.3032 24.9883L72.9926 24.5965L72.6914 24.8354L72.8448 25.1879L73.3032 24.9883ZM82.4565 17.7319L82.7671 18.1237L83.0731 17.8811L82.9119 17.5255L82.4565 17.7319ZM77.6393 7.10179L77.3932 6.66652L76.9951 6.89159L77.1839 7.30817L77.6393 7.10179ZM122.949 0.536624L88.3688 0.536621V1.53662L122.949 1.53662V0.536624ZM120.503 15.2478L123.439 1.13846L122.46 0.934786L119.524 15.0441L120.503 15.2478ZM116.851 13.6184L119.735 15.5607L120.293 14.7313L117.409 12.7889L116.851 13.6184ZM114.076 15.5771L117.383 13.6348L116.877 12.7725L113.569 14.7148L114.076 15.5771ZM109.894 13.6463L113.59 15.5886L114.055 14.7034L110.359 12.7611L109.894 13.6463ZM106.439 15.5938L110.349 13.6514L109.904 12.7559L105.994 14.6982L106.439 15.5938ZM101.85 13.6568L106.005 15.5989L106.429 14.693L102.274 12.7508L101.85 13.6568ZM100.113 24.7804L102.551 13.3077L101.573 13.0999L99.1352 24.5726L100.113 24.7804ZM103.876 22.6476L99.4581 24.2049L99.7905 25.148L104.208 23.5908L103.876 22.6476ZM107.964 24.5422L104.268 22.673L103.817 23.5654L107.512 25.4345L107.964 24.5422ZM112.223 22.655L107.552 24.5241L107.924 25.4525L112.594 23.5834L112.223 22.655ZM116.335 24.605L112.64 22.6759L112.177 23.5625L115.873 25.4915L116.335 24.605ZM118.97 22.6936L115.842 24.6227L116.367 25.4738L119.495 23.5448L118.97 22.6936ZM117.513 34.3406L119.723 23.2166L118.742 23.0218L116.533 34.1458L117.513 34.3406ZM97.8508 34.7432H117.023V33.7432H97.8508V34.7432ZM91.0655 64.2187L98.3366 34.3615L97.365 34.1249L90.0939 63.9821L91.0655 64.2187ZM55.2598 64.6004H90.5797V63.6004H55.2598V64.6004ZM73.0236 51.5113L54.9801 63.686L55.5394 64.5149L73.5829 52.3402L73.0236 51.5113ZM69.9901 42.161L72.8225 52.0633L73.784 51.7883L70.9516 41.886L69.9901 42.161ZM77.2881 34.5946L70.1197 41.6676L70.822 42.3794L77.9905 35.3064L77.2881 34.5946ZM72.8448 25.1879L77.1808 35.15L78.0977 34.7509L73.7617 24.7888L72.8448 25.1879ZM82.1459 17.3401L72.9926 24.5965L73.6139 25.3801L82.7671 18.1237L82.1459 17.3401ZM77.1839 7.30817L82.0011 17.9383L82.9119 17.5255L78.0947 6.89541L77.1839 7.30817ZM88.1228 0.601351L77.3932 6.66652L77.8853 7.53706L88.6149 1.47189L88.1228 0.601351ZM94.7208 11.8999C96.5552 11.8999 98.0515 10.4276 98.0515 8.5999H97.0515C97.0515 9.86503 96.0132 10.8999 94.7208 10.8999V11.8999ZM91.3902 8.5999C91.3902 10.4276 92.8865 11.8999 94.7208 11.8999V10.8999C93.4285 10.8999 92.3902 9.86503 92.3902 8.5999H91.3902ZM94.7208 5.2999C92.8865 5.2999 91.3902 6.77224 91.3902 8.5999H92.3902C92.3902 7.33477 93.4285 6.2999 94.7208 6.2999V5.2999ZM98.0515 8.5999C98.0515 6.77224 96.5552 5.2999 94.7208 5.2999V6.2999C96.0132 6.2999 97.0515 7.33477 97.0515 8.5999H98.0515Z" fill="url(#paint9_linear_18474_22050)" mask="url(#path-5-outside-1_18474_22050)"/>
<path d="M20.4926 42.0154C21.3636 42.4361 22.0682 42.7872 22.5616 43.0667C25.1567 44.413 27.0025 45.8111 28.0458 47.2707C29.0922 48.7348 29.6075 50.5506 29.6075 52.702C29.6075 56.5171 28.1978 59.563 25.3977 61.8522L25.397 61.8528C22.6009 64.12 18.8097 65.249 14.0705 65.249C11.569 65.249 9.22167 64.7463 7.03151 63.7395C4.84017 62.7322 2.8705 61.2232 1.12171 59.2551L0.987534 59.1041L1.10699 58.9412L6.23501 51.9485L6.4087 51.7116L6.61477 51.9209C8.15648 53.4869 9.61164 54.6059 10.9793 55.3059C12.3433 56.004 13.7612 56.343 15.2165 56.343C16.4211 56.343 17.353 56.0587 18.0358 55.5323C18.7122 55.0109 19.0456 54.3317 19.0456 53.4728C19.0456 52.9326 18.7308 52.3338 18.0049 51.668C17.2821 51.0049 16.1841 50.306 14.6973 49.5671L14.6961 49.5665C14.6583 49.5474 14.622 49.5291 14.5871 49.5115C14.3483 49.3909 14.1755 49.3036 14.0319 49.2434L14.0251 49.2405L14.0185 49.2372C11.0971 47.8018 9.05538 46.4058 7.95156 45.0404C6.84393 43.6704 6.28377 42.0167 6.28377 40.0746C6.28377 36.5571 7.53482 33.6608 10.0587 31.4263C12.5788 29.195 15.8073 28.0781 19.7424 28.0781C21.8301 28.0781 23.8401 28.4318 25.7516 29.1207C27.6632 29.8097 29.4737 30.833 31.1833 32.1884L31.3572 32.3263L31.2409 32.5153L27.0064 39.398L26.8563 39.6418L26.6349 39.4603C25.3261 38.3873 24.1185 37.6094 23.0512 37.0872C22.0882 36.616 21.1989 36.3713 20.3809 36.3298V36.3418H20.1309C19.1694 36.3418 18.392 36.6025 17.763 37.112C17.1371 37.6189 16.8456 38.2286 16.8456 38.9366C16.8456 39.3127 17.0926 39.7679 17.7069 40.3037C18.3141 40.8333 19.2385 41.4047 20.4926 42.0154ZM20.4926 42.0154C20.4927 42.0154 20.4928 42.0155 20.4929 42.0155L20.3834 42.2403L20.4921 42.0152C20.4923 42.0153 20.4924 42.0153 20.4926 42.0154Z" fill="url(#paint10_linear_18474_22050)" stroke="url(#paint11_linear_18474_22050)" stroke-width="0.5"/>
<path d="M53.8205 42.9184C52.7641 41.6625 51.5908 40.7162 50.2993 40.0722C48.8604 39.3546 47.2476 39.0181 45.4482 39.0181C41.5723 39.0181 38.3392 40.423 35.7466 43.228C33.1543 46.0327 31.873 49.5462 31.873 53.7676C31.873 57.1392 32.8208 59.9007 34.7538 62.0472L34.7546 62.048C36.6878 64.1761 39.1451 65.2501 42.1461 65.2501C43.9097 65.2501 45.5568 64.8941 47.1044 64.2004C48.4365 63.6033 49.6478 62.7444 50.7511 61.6393L50.4255 64.0861L50.3879 64.3691H50.6734H59.0453H59.2953V64.1216L63.3321 40.0619L63.381 39.7706H63.0856H54.5582H54.3465L54.3117 39.9794L53.8205 42.9184ZM50.8769 55.8936L50.8119 55.9651V55.9825C49.6857 57.1868 48.2975 57.794 46.6137 57.794C45.0352 57.794 43.798 57.3344 42.8413 56.4482C41.9075 55.5654 41.4248 54.3865 41.4248 52.9049C41.4248 51.0149 42.0081 49.4441 43.1456 48.2107C44.2811 46.9795 45.7092 46.364 47.4683 46.364C49.0105 46.364 50.2461 46.8067 51.1815 47.6906C52.1182 48.5757 52.5989 49.7194 52.5989 51.143C52.5989 53.052 52.0152 54.6417 50.8769 55.8936Z" fill="url(#paint12_linear_18474_22050)" stroke="url(#paint13_linear_18474_22050)" stroke-width="0.5"/>
<defs>
<linearGradient id="paint0_linear_18474_22050" x1="111.301" y1="39.1362" x2="111.301" y2="64.9967" gradientUnits="userSpaceOnUse">
<stop stop-color="#9B32EE"/>
<stop offset="1" stop-color="#3056C9"/>
</linearGradient>
<linearGradient id="paint1_linear_18474_22050" x1="111.301" y1="39.1362" x2="111.301" y2="64.9967" gradientUnits="userSpaceOnUse">
<stop stop-color="#9B31EE"/>
<stop offset="1" stop-color="#3C44BD"/>
</linearGradient>
<linearGradient id="paint2_linear_18474_22050" x1="137.421" y1="39.375" x2="137.421" y2="64.0425" gradientUnits="userSpaceOnUse">
<stop stop-color="#9B32EE"/>
<stop offset="1" stop-color="#3056C9"/>
</linearGradient>
<linearGradient id="paint3_linear_18474_22050" x1="137.421" y1="39.375" x2="137.421" y2="64.0425" gradientUnits="userSpaceOnUse">
<stop stop-color="#9B31EE"/>
<stop offset="1" stop-color="#3C44BD"/>
</linearGradient>
<linearGradient id="paint4_linear_18474_22050" x1="162.725" y1="39.9626" x2="162.725" y2="64.9605" gradientUnits="userSpaceOnUse">
<stop stop-color="#9B32EE"/>
<stop offset="1" stop-color="#3056C9"/>
</linearGradient>
<linearGradient id="paint5_linear_18474_22050" x1="162.725" y1="39.9626" x2="162.725" y2="64.9605" gradientUnits="userSpaceOnUse">
<stop stop-color="#9B31EE"/>
<stop offset="1" stop-color="#3C44BD"/>
</linearGradient>
<linearGradient id="paint6_linear_18474_22050" x1="187.332" y1="39.1553" x2="187.332" y2="64.924" gradientUnits="userSpaceOnUse">
<stop stop-color="#9B32EE"/>
<stop offset="1" stop-color="#3056C9"/>
</linearGradient>
<linearGradient id="paint7_linear_18474_22050" x1="187.332" y1="39.1553" x2="187.332" y2="64.924" gradientUnits="userSpaceOnUse">
<stop stop-color="#9B31EE"/>
<stop offset="1" stop-color="#3C44BD"/>
</linearGradient>
<linearGradient id="paint8_linear_18474_22050" x1="92.1129" y1="2.34198" x2="85.6482" y2="64.3599" gradientUnits="userSpaceOnUse">
<stop stop-color="#A032F6"/>
<stop offset="1" stop-color="#2E58C9"/>
</linearGradient>
<linearGradient id="paint9_linear_18474_22050" x1="101.999" y1="1.6893" x2="88.414" y2="63.75" gradientUnits="userSpaceOnUse">
<stop stop-color="#A032F6"/>
<stop offset="1" stop-color="#2E58C9"/>
</linearGradient>
<linearGradient id="paint10_linear_18474_22050" x1="16.1683" y1="28.3281" x2="16.1683" y2="64.999" gradientUnits="userSpaceOnUse">
<stop stop-color="#9B32EE"/>
<stop offset="1" stop-color="#3056C9"/>
</linearGradient>
<linearGradient id="paint11_linear_18474_22050" x1="16.1683" y1="28.3281" x2="16.1683" y2="64.999" gradientUnits="userSpaceOnUse">
<stop stop-color="#9B31EE"/>
<stop offset="1" stop-color="#3C44BD"/>
</linearGradient>
<linearGradient id="paint12_linear_18474_22050" x1="47.6043" y1="39.2681" x2="47.6043" y2="65.0001" gradientUnits="userSpaceOnUse">
<stop stop-color="#9B32EE"/>
<stop offset="1" stop-color="#3056C9"/>
</linearGradient>
<linearGradient id="paint13_linear_18474_22050" x1="47.6043" y1="39.2681" x2="47.6043" y2="65.0001" gradientUnits="userSpaceOnUse">
<stop stop-color="#9B31EE"/>
<stop offset="1" stop-color="#3C44BD"/>
</linearGradient>
</defs>
</svg>
