<svg width="20" height="20" viewBox="0 0 20 20" fill="none" xmlns="http://www.w3.org/2000/svg">
<g id="floppy disk">
<path id="Icon" d="M9.6873 9.68745H10.3123M9.6873 10.3124H10.3123M3.33333 14.1667H16.6667M7.5 2.5V5C7.5 5.46024 7.8731 5.83333 8.33333 5.83333H13.3333C13.7936 5.83333 14.1667 5.46024 14.1667 5V2.5M4.16667 17.5H15.8333C16.7538 17.5 17.5 16.7538 17.5 15.8333V4.16667C17.5 3.24619 16.7538 2.5 15.8333 2.5H7.35702C6.915 2.5 6.49107 2.67559 6.17851 2.98816L2.98815 6.17851C2.67559 6.49107 2.5 6.915 2.5 7.35702V15.8333C2.5 16.7538 3.24619 17.5 4.16667 17.5ZM10.8333 10C10.8333 10.4602 10.4602 10.8333 10 10.8333C9.53976 10.8333 9.16667 10.4602 9.16667 10C9.16667 9.53976 9.53976 9.16667 10 9.16667C10.4602 9.16667 10.8333 9.53976 10.8333 10Z" stroke="#272D37" stroke-width="1.5" stroke-linecap="round"/>
</g>
</svg>
