<svg width="11" height="14" viewBox="0 0 11 14" fill="none" xmlns="http://www.w3.org/2000/svg">
<path d="M4.91634 5.66667C4.91634 5.25245 4.58055 4.91667 4.16634 4.91667C3.75213 4.91667 3.41634 5.25245 3.41634 5.66667H4.91634ZM3.41634 11C3.41634 11.4142 3.75213 11.75 4.16634 11.75C4.58055 11.75 4.91634 11.4142 4.91634 11H3.41634ZM7.58301 5.66667C7.58301 5.25245 7.24722 4.91667 6.83301 4.91667C6.41879 4.91667 6.08301 5.25245 6.08301 5.66667H7.58301ZM6.08301 11C6.08301 11.4142 6.41879 11.75 6.83301 11.75C7.24722 11.75 7.58301 11.4142 7.58301 11H6.08301ZM2.22769 12.8547L2.56818 12.1864H2.56818L2.22769 12.8547ZM1.645 12.272L2.31325 11.9315L2.31325 11.9315L1.645 12.272ZM9.35435 12.272L8.6861 11.9315L8.68609 11.9315L9.35435 12.272ZM8.77166 12.8547L8.43117 12.1864L8.43117 12.1864L8.77166 12.8547ZM0.833008 2.91667C0.418794 2.91667 0.0830078 3.25245 0.0830078 3.66667C0.0830078 4.08088 0.418794 4.41667 0.833008 4.41667V2.91667ZM10.1663 4.41667C10.5806 4.41667 10.9163 4.08088 10.9163 3.66667C10.9163 3.25245 10.5806 2.91667 10.1663 2.91667V4.41667ZM2.41634 3.66667C2.41634 4.08088 2.75213 4.41667 3.16634 4.41667C3.58055 4.41667 3.91634 4.08088 3.91634 3.66667H2.41634ZM7.08301 3.66667C7.08301 4.08088 7.41879 4.41667 7.83301 4.41667C8.24722 4.41667 8.58301 4.08088 8.58301 3.66667H7.08301ZM3.41634 5.66667V11H4.91634V5.66667H3.41634ZM6.08301 5.66667V11H7.58301V5.66667H6.08301ZM8.74967 3.66667V10.8667H10.2497V3.66667H8.74967ZM7.36634 12.25H3.63301V13.75H7.36634V12.25ZM0.749674 3.66667V10.8667H2.24967V3.66667H0.749674ZM3.63301 12.25C3.24726 12.25 3.00306 12.2494 2.81835 12.2343C2.6424 12.2199 2.58744 12.1962 2.56818 12.1864L1.88719 13.5229C2.15315 13.6584 2.42749 13.7074 2.6962 13.7293C2.95616 13.7506 3.27202 13.75 3.63301 13.75V12.25ZM0.749674 10.8667C0.749674 11.2277 0.749091 11.5435 0.770331 11.8035C0.792286 12.0722 0.841232 12.3465 0.976744 12.6125L2.31325 11.9315C2.30344 11.9122 2.27973 11.8573 2.26535 11.6813C2.25026 11.4966 2.24967 11.2524 2.24967 10.8667H0.749674ZM2.56818 12.1864C2.45842 12.1305 2.36918 12.0413 2.31325 11.9315L0.976744 12.6125C1.17648 13.0045 1.49519 13.3232 1.88719 13.5229L2.56818 12.1864ZM8.74967 10.8667C8.74967 11.2524 8.74909 11.4966 8.734 11.6813C8.71962 11.8573 8.69591 11.9122 8.6861 11.9315L10.0226 12.6125C10.1581 12.3465 10.2071 12.0722 10.229 11.8035C10.2503 11.5435 10.2497 11.2277 10.2497 10.8667H8.74967ZM7.36634 13.75C7.72733 13.75 8.04318 13.7506 8.30315 13.7293C8.57186 13.7074 8.8462 13.6584 9.11215 13.5229L8.43117 12.1864C8.41191 12.1962 8.35695 12.2199 8.181 12.2343C7.99629 12.2494 7.75209 12.25 7.36634 12.25V13.75ZM8.68609 11.9315C8.63017 12.0413 8.54093 12.1305 8.43117 12.1864L9.11215 13.5229C9.50416 13.3232 9.82287 13.0045 10.0226 12.6125L8.68609 11.9315ZM0.833008 4.41667H1.49967V2.91667H0.833008V4.41667ZM1.49967 4.41667H9.49967V2.91667H1.49967V4.41667ZM9.49967 4.41667H10.1663V2.91667H9.49967V4.41667ZM3.91634 3.13333C3.91634 2.43118 4.56055 1.75 5.49967 1.75V0.25C3.86147 0.25 2.41634 1.47907 2.41634 3.13333H3.91634ZM5.49967 1.75C6.4388 1.75 7.08301 2.43118 7.08301 3.13333H8.58301C8.58301 1.47907 7.13788 0.25 5.49967 0.25V1.75ZM2.41634 3.13333V3.66667H3.91634V3.13333H2.41634ZM7.08301 3.13333V3.66667H8.58301V3.13333H7.08301Z" fill="#F15146"/>
</svg>
