<svg width="40" height="40" viewBox="0 0 40 40" fill="none" xmlns="http://www.w3.org/2000/svg">
<rect width="40" height="40" rx="6.36735" fill="url(#paint0_linear_17123_152252)"/>
<path d="M33.2935 7.01533L19.861 7V7.01533L15.6932 9.54868L17.5644 13.9887L14.0089 17.0197L15.6932 21.1808L12.9087 24.1351L14.0089 28.2711L7 33.3564H20.7198L23.5442 20.8853H30.9915L31.8497 16.239L30.6346 17.0447L29.199 16.239L27.3848 17.0197L25.9492 16.239L24.2331 16.8894L25.18 12.0974L26.794 12.9087L28.3127 12.0974L29.7483 12.9087L31.0331 12.0974L32.1533 12.9087L33.2935 7.01533Z" fill="white"/>
<path d="M22.6583 10.5452C23.1478 10.5452 23.5446 10.1484 23.5446 9.65894C23.5446 9.16945 23.1478 8.77264 22.6583 8.77264C22.1688 8.77264 21.772 9.16945 21.772 9.65894C21.772 10.1484 22.1688 10.5452 22.6583 10.5452Z" fill="#883BED"/>
<defs>
<linearGradient id="paint0_linear_17123_152252" x1="0" y1="0" x2="7.80428e-09" y2="47.5773" gradientUnits="userSpaceOnUse">
<stop stop-color="#A032F6"/>
<stop offset="1" stop-color="#2E58C9"/>
</linearGradient>
</defs>
</svg>
