<svg width="110" height="35" viewBox="0 0 110 35" fill="none" xmlns="http://www.w3.org/2000/svg">
<g id="Logo=SaForus, Theme=Default">
<g id="SF.Company_Logo">
<path id="Vector" d="M60.9193 20.8558C58.53 20.8558 56.5723 21.5685 55.0461 23.0038C53.5199 24.4391 52.7515 26.2759 52.7515 28.5042C52.7515 30.4715 53.4041 32.0373 54.6987 33.2217C55.9933 34.4061 57.7301 34.9983 59.8878 34.9983C62.3297 34.9983 64.3296 34.2857 65.8768 32.8604C67.4241 31.4351 68.203 29.6183 68.203 27.4102C68.203 25.4228 67.5399 23.8269 66.2242 22.6425C64.9085 21.4581 63.1402 20.8558 60.9298 20.8558H60.9193ZM62.5718 30.1001C61.9192 30.8328 61.0877 31.2042 60.0773 31.2042C59.2773 31.2042 58.6353 30.9633 58.1511 30.4916C57.6669 30.0098 57.4248 29.3674 57.4248 28.5644C57.4248 27.4704 57.7511 26.5469 58.4142 25.7841C59.0773 25.0213 59.8773 24.6399 60.8246 24.6399C61.6666 24.6399 62.3297 24.8808 62.8139 25.3525C63.2981 25.8243 63.5402 26.4666 63.5402 27.2897C63.5402 28.4339 63.2139 29.3774 62.5613 30.1102L62.5718 30.1001Z" fill="url(#paint0_linear_303_144897)"/>
<path id="Vector_2" d="M80.4239 20.9863C79.466 20.9863 78.624 21.2071 77.9083 21.6387C77.1925 22.0703 76.6136 22.7027 76.1821 23.5458L76.5189 21.3075H71.8456L69.6562 34.4764H74.4664L75.4558 28.4641C75.6558 27.2897 76.0242 26.4265 76.5715 25.8644C77.1188 25.3023 77.8556 25.0213 78.7924 25.0213C79.024 25.0213 79.2766 25.0414 79.5292 25.0715C79.7818 25.1016 80.0765 25.1618 80.3923 25.2321L81.3607 21.0967C81.087 21.0566 80.887 21.0265 80.7607 21.0164C80.6344 21.0064 80.5186 20.9964 80.4239 20.9964V20.9863Z" fill="url(#paint1_linear_303_144897)"/>
<path id="Vector_3" d="M91.6212 26.507C91.6001 26.5974 91.5791 26.7178 91.558 26.8884C91.0633 29.9197 90.116 31.4353 88.7161 31.4353C88.1162 31.4353 87.6531 31.2747 87.3478 30.9435C87.032 30.6123 86.8742 30.1305 86.8742 29.5082C86.8742 29.3576 86.9057 29.0464 86.9689 28.5647C87.032 28.0829 87.1162 27.4806 87.232 26.758L88.1372 21.3077H83.2955L82.4429 26.3565C82.2534 27.4505 82.1271 28.2635 82.064 28.7855C82.0008 29.3074 81.9692 29.7491 81.9692 30.0903C81.9692 31.5959 82.5587 32.7803 83.727 33.6636C84.8954 34.5469 86.4952 34.9785 88.5267 34.9785C89.7055 34.9785 90.7581 34.8279 91.6948 34.5268C92.6316 34.2257 93.421 33.784 94.0631 33.1918C95.0841 32.2483 95.8314 30.3613 96.3156 27.5308L96.3577 27.2598L97.3471 21.3077H92.4948L91.6317 26.507H91.6212Z" fill="url(#paint2_linear_303_144897)"/>
<path id="Vector_4" d="M106.169 26.4869C105.927 26.3866 105.6 26.2561 105.179 26.1055C104.232 25.7542 103.758 25.3828 103.758 24.9814C103.758 24.7003 103.906 24.4695 104.19 24.2787C104.474 24.088 104.843 23.9877 105.274 23.9877C105.79 23.9877 106.316 24.088 106.842 24.2787C107.369 24.4695 107.948 24.7806 108.579 25.2122L110 22.2512C109.274 21.7996 108.495 21.4583 107.663 21.2174C106.832 20.9765 105.979 20.8661 105.106 20.8661C103.369 20.8661 101.959 21.2877 100.853 22.1207C99.7482 22.9538 99.2008 23.9977 99.2008 25.2624C99.2008 26.0553 99.4219 26.7178 99.8745 27.2397C100.317 27.7717 101.074 28.2635 102.148 28.7152C102.369 28.8055 102.674 28.926 103.074 29.0765C104.411 29.5985 105.085 30.1104 105.085 30.6022C105.085 30.9234 104.937 31.1844 104.643 31.3951C104.348 31.6059 103.969 31.7063 103.485 31.7063C102.927 31.7063 102.337 31.5959 101.706 31.365C101.074 31.1342 100.295 30.7528 99.3692 30.2007L97.7378 33.3524C98.643 33.8944 99.5692 34.2959 100.538 34.5569C101.495 34.8178 102.506 34.9584 103.569 34.9584C105.432 34.9584 106.927 34.5368 108.053 33.7037C109.169 32.8606 109.737 31.7565 109.737 30.3713C109.737 29.4981 109.474 28.7654 108.948 28.1732C108.421 27.591 107.495 27.0189 106.169 26.4769V26.4869Z" fill="url(#paint3_linear_303_144897)"/>
<path id="Vector_5" d="M66.3518 0.0200745L47.6137 0V0.0200745L41.7997 3.33696L44.41 9.15029L39.4501 13.1187L41.7997 18.5667L37.9153 22.4348L39.4501 27.8501L29.6729 34.5081H48.8117L52.7517 18.1799H63.1406L64.3377 12.0965L62.6427 13.1514L60.64 12.0965L58.1094 13.1187L56.1067 12.0965L53.7127 12.9481L55.0336 6.674L57.2851 7.73613L59.4037 6.67392L61.4063 7.73613L63.1986 6.67392L64.7613 7.73613L66.3518 0.0200745Z" fill="url(#paint4_linear_303_144897)"/>
<path id="Vector_6" d="M51.5147 4.64164C52.1975 4.64164 52.7511 4.1221 52.7511 3.48122C52.7511 2.84034 52.1975 2.3208 51.5147 2.3208C50.8319 2.3208 50.2783 2.84034 50.2783 3.48122C50.2783 4.1221 50.8319 4.64164 51.5147 4.64164Z" fill="white"/>
<path id="Vector_7" d="M10.1993 19.1808C10.7045 19.1808 11.2518 19.3213 11.8412 19.6124C12.4307 19.9035 13.0938 20.3351 13.8095 20.9273L16.1041 17.1633C15.1884 16.4306 14.22 15.8785 13.1991 15.5072C12.1781 15.1358 11.1044 14.9451 9.98874 14.9451C7.88363 14.9451 6.16797 15.5473 4.83123 16.7417C3.49448 17.9362 2.83138 19.4819 2.83138 21.3689C2.83138 22.4027 3.12608 23.276 3.70498 23.9987C4.28389 24.7213 5.36804 25.4741 6.94687 26.257C7.0416 26.2972 7.15739 26.3574 7.31527 26.4377C8.93621 27.2507 9.74667 27.9935 9.74667 28.6961C9.74667 29.208 9.54668 29.6195 9.14671 29.9307C8.74674 30.2418 8.20994 30.4024 7.5363 30.4024C6.72583 30.4024 5.93643 30.2117 5.17859 29.8202C4.42075 29.4288 3.62077 28.8065 2.77873 27.9433L0 31.7675C0.936774 32.8314 1.98933 33.6444 3.15767 34.1864C4.326 34.7285 5.57855 34.9995 6.9153 34.9995C9.46248 34.9995 11.4834 34.3872 12.9675 33.1727C14.4516 31.9481 15.1989 30.3221 15.1989 28.2745C15.1989 27.1202 14.9252 26.1567 14.3779 25.3838C13.8306 24.6109 12.8517 23.8581 11.4518 23.1254C11.1887 22.9749 10.8098 22.7841 10.3361 22.5533C8.96778 21.8808 8.28361 21.2786 8.28361 20.7466C8.28361 20.315 8.46253 19.9436 8.83092 19.6425C9.19932 19.3414 9.65194 19.1908 10.1993 19.1908V19.1808Z" fill="url(#paint5_linear_303_144897)"/>
<path id="Vector_8" d="M31.7246 34.5082L33.914 21.3393H29.2932L28.9775 23.2464C28.367 22.4535 27.6828 21.8713 26.925 21.4899C26.1671 21.1085 25.3146 20.9278 24.3567 20.9278C22.2937 20.9278 20.5781 21.6806 19.1992 23.1862C17.8204 24.6918 17.1362 26.5788 17.1362 28.8572C17.1362 30.6739 17.6415 32.1494 18.6624 33.2937C19.6834 34.4279 20.9781 35 22.5674 35C23.5042 35 24.3778 34.8093 25.1988 34.4379C26.0198 34.0665 26.7566 33.5044 27.4197 32.7617L27.1881 34.5182H31.7246V34.5082ZM27.3986 30.1219C26.7566 30.8345 25.9566 31.1959 24.9883 31.1959C24.1041 31.1959 23.3989 30.9349 22.8516 30.423C22.3148 29.9111 22.0411 29.2286 22.0411 28.3855C22.0411 27.3215 22.3674 26.4282 23.0095 25.7256C23.6515 25.023 24.462 24.6717 25.4514 24.6717C26.3145 24.6717 27.0197 24.9226 27.5565 25.4345C28.0933 25.9464 28.367 26.6089 28.367 27.4219C28.367 28.4959 28.0407 29.3992 27.3986 30.1119V30.1219Z" fill="url(#paint6_linear_303_144897)"/>
</g>
</g>
<defs>
<linearGradient id="paint0_linear_303_144897" x1="60.4772" y1="20.8558" x2="60.4772" y2="34.9983" gradientUnits="userSpaceOnUse">
<stop stop-color="#9B32EE"/>
<stop offset="1" stop-color="#3056C9"/>
</linearGradient>
<linearGradient id="paint1_linear_303_144897" x1="75.5085" y1="20.9863" x2="75.5085" y2="34.4764" gradientUnits="userSpaceOnUse">
<stop stop-color="#9B32EE"/>
<stop offset="1" stop-color="#3056C9"/>
</linearGradient>
<linearGradient id="paint2_linear_303_144897" x1="89.6582" y1="21.3077" x2="89.6582" y2="34.9785" gradientUnits="userSpaceOnUse">
<stop stop-color="#9B32EE"/>
<stop offset="1" stop-color="#3056C9"/>
</linearGradient>
<linearGradient id="paint3_linear_303_144897" x1="103.869" y1="20.8661" x2="103.869" y2="34.9584" gradientUnits="userSpaceOnUse">
<stop stop-color="#9B32EE"/>
<stop offset="1" stop-color="#3056C9"/>
</linearGradient>
<linearGradient id="paint4_linear_303_144897" x1="46.0582" y1="5.41529" x2="46.0582" y2="39.9233" gradientUnits="userSpaceOnUse">
<stop stop-color="#9B32EE"/>
<stop offset="1" stop-color="#3056C9"/>
</linearGradient>
<linearGradient id="paint5_linear_303_144897" x1="8.05204" y1="14.9451" x2="8.05204" y2="34.9995" gradientUnits="userSpaceOnUse">
<stop stop-color="#9B32EE"/>
<stop offset="1" stop-color="#3056C9"/>
</linearGradient>
<linearGradient id="paint6_linear_303_144897" x1="25.5251" y1="20.9278" x2="25.5251" y2="35" gradientUnits="userSpaceOnUse">
<stop stop-color="#9B32EE"/>
<stop offset="1" stop-color="#3056C9"/>
</linearGradient>
</defs>
</svg>
