<svg width="32" height="32" viewBox="0 0 32 32" fill="none" xmlns="http://www.w3.org/2000/svg">
<g id="keyhole/circle" clip-path="url(#clip0_2344_114898)">
<g id="Icon">
<path d="M16 9.3335C13.7909 9.3335 12 11.1244 12 13.3335C12 14.3473 12.3772 15.273 12.9989 15.978C13.1869 16.1913 13.2595 16.4908 13.1495 16.753L11.4432 20.8174C11.0743 21.696 11.7196 22.6668 12.6725 22.6668H19.3275C20.2805 22.6668 20.9258 21.696 20.5569 20.8174L18.8506 16.753C18.7405 16.4908 18.8132 16.1913 19.0012 15.978C19.6229 15.273 20 14.3473 20 13.3335C20 11.1244 18.2092 9.3335 16 9.3335Z" stroke="#272D37" stroke-width="2"/>
<path d="M1.33337 16.0002C1.33337 7.89998 7.89987 1.3335 16 1.3335C24.1002 1.3335 30.6667 7.89999 30.6667 16.0002C30.6667 24.1003 24.1002 30.6668 16 30.6668C7.89986 30.6668 1.33337 24.1003 1.33337 16.0002Z" stroke="#272D37" stroke-width="2"/>
</g>
</g>
<defs>
<clipPath id="clip0_2344_114898">
<rect width="32" height="32" fill="white"/>
</clipPath>
</defs>
</svg>
