<svg width="33" height="32" viewBox="0 0 33 32" fill="none" xmlns="http://www.w3.org/2000/svg">
<g id="offer check">
<path id="Icon" d="M20.5001 13.3332L15.3536 18.5189C15.1584 18.7157 14.8418 18.7157 14.6465 18.5189L12.5001 16.3561M27.7236 12.2883C27.3321 11.7658 27.1145 11.1998 27.0275 10.5468L26.6795 8.15222C26.5055 6.88963 25.505 5.88827 24.1999 5.67059L21.8073 5.32229C21.1983 5.23521 20.5893 4.97399 20.0672 4.62569L18.1967 3.23249C17.6746 2.84065 17.0656 2.6665 16.4566 2.6665C15.8476 2.6665 15.2385 2.84065 14.7165 3.23249L12.8024 4.66923C12.2804 5.06106 11.7149 5.27875 11.0623 5.36582L8.71324 5.71412C7.45169 5.88827 6.45114 6.88963 6.23363 8.19576L5.88562 10.5903C5.79861 11.1998 5.5376 11.8094 5.18959 12.3318L3.75402 14.2475C2.97099 15.2924 2.97099 16.7291 3.75402 17.7304L5.18959 19.6461C5.5811 20.1685 5.79861 20.7345 5.88562 21.3876L6.23363 23.7822C6.40764 25.0447 7.40818 26.0461 8.71324 26.2638L11.1058 26.6121C11.7149 26.6992 12.3239 26.9604 12.8459 27.3087L14.76 28.7454C15.8041 29.5291 17.2396 29.5291 18.2402 28.7454L20.1542 27.3087C20.6763 26.9168 21.2418 26.6992 21.8943 26.6121L24.2869 26.2638C25.5485 26.0896 26.549 25.0883 26.7665 23.7822L27.1145 21.3876C27.2015 20.7781 27.4626 20.1685 27.8106 19.6461L29.2461 17.7304C30.0292 16.6856 30.0292 15.2488 29.2461 14.2475L27.7236 12.2883Z" stroke="#5DC264" stroke-width="2" stroke-linecap="round"/>
</g>
</svg>
