<svg width="32" height="32" viewBox="0 0 32 32" fill="none" xmlns="http://www.w3.org/2000/svg">
<g id="Logo Glyphs">
<g id="Group 217">
<path id="Vector" d="M31.5399 0.838183L15.8461 0.820312V0.838183L10.9766 3.79096L13.1629 8.96614L9.00876 12.4989L10.9766 17.3489L7.72332 20.7923L9.00876 25.6132L0.819946 31.5403H16.8495L20.1494 17.0045H28.8504L29.853 11.5889L28.4334 12.528L26.7561 11.5889L24.6366 12.4989L22.9593 11.5889L20.9543 12.3471L22.0605 6.76168L23.9462 7.70722L25.7206 6.76161L27.3979 7.70722L28.899 6.76161L30.2078 7.70722L31.5399 0.838183Z" fill="url(#paint0_linear_1806_58309)"/>
<path id="Vector_2" d="M19.1144 4.95255C19.6863 4.95255 20.1499 4.49004 20.1499 3.91951C20.1499 3.34898 19.6863 2.88647 19.1144 2.88647C18.5425 2.88647 18.0789 3.34898 18.0789 3.91951C18.0789 4.49004 18.5425 4.95255 19.1144 4.95255Z" fill="white"/>
</g>
</g>
<defs>
<linearGradient id="paint0_linear_1806_58309" x1="16.1799" y1="0.820313" x2="16.1799" y2="31.5403" gradientUnits="userSpaceOnUse">
<stop stop-color="#9B31EE"/>
<stop offset="1" stop-color="#434FCF"/>
</linearGradient>
</defs>
</svg>
