<svg xmlns="http://www.w3.org/2000/svg" width="24" height="24" viewBox="0 0 24 24" fill="none">
  <path d="M22 15C22 12.5788 20.279 10.5595 17.9936 10.0987C17.4522 9.98957 17.0104 9.54777 16.9013 9.00638C16.4405 6.72096 14.4212 5 12 5C9.57879 5 7.55953 6.72096 7.09873 9.00638C6.98957 9.54777 6.54777 9.98957 6.00638 10.0987C3.72096 10.5595 2 12.5788 2 15C2 16.3019 2.49757 17.4876 3.31291 18.3772C4.2439 19.3931 5.71129 19.584 7.08924 19.584H16.9108C18.2887 19.584 19.7561 19.3931 20.6871 18.3772C21.5024 17.4876 22 16.3019 22 15Z" stroke="#5F6D7E" stroke-width="2" stroke-linecap="round"/>
</svg>