<svg xmlns="http://www.w3.org/2000/svg" width="24" height="24" viewBox="0 0 24 24" fill="none">
  <path d="M6 7H5C4.44772 7 4 7.44772 4 8C4 8.55228 4.44772 9 5 9H6M6 15H5C4.44772 15 4 15.4477 4 16C4 16.5523 4.44772 17 5 17H6M20 18.124C18.6353 15.6646 16.012 14 13 14C9.98797 14 7.36473 15.6646 6 18.124M9.2 21H16.8C17.9201 21 18.4802 21 18.908 20.782C19.2843 20.5903 19.5903 20.2843 19.782 19.908C20 19.4802 20 18.9201 20 17.8V6.2C20 5.0799 20 4.51984 19.782 4.09202C19.5903 3.71569 19.2843 3.40973 18.908 3.21799C18.4802 3 17.9201 3 16.8 3H9.2C8.07989 3 7.51984 3 7.09202 3.21799C6.71569 3.40973 6.40973 3.71569 6.21799 4.09202C6 4.51984 6 5.07989 6 6.2V17.8C6 18.9201 6 19.4802 6.21799 19.908C6.40973 20.2843 6.71569 20.5903 7.09202 20.782C7.51984 21 8.07989 21 9.2 21ZM16.0376 10.0377C16.0376 11.7153 14.6776 13.0754 12.9999 13.0754C11.3222 13.0754 9.96222 11.7153 9.96222 10.0377C9.96222 8.36001 11.3222 7 12.9999 7C14.6776 7 16.0376 8.36001 16.0376 10.0377Z" stroke="#5F6D7E" stroke-width="2"/>
</svg>