<svg xmlns="http://www.w3.org/2000/svg" width="24" height="24" viewBox="0 0 24 24" fill="none">
  <path d="M11 20C11 20.5523 11.4477 21 12 21C12.5523 21 13 20.5523 13 20H11ZM13 12C13 11.4477 12.5523 11 12 11C11.4477 11 11 11.4477 11 12H13ZM9.70711 17.2929C9.31658 16.9024 8.68342 16.9024 8.29289 17.2929C7.90237 17.6834 7.90237 18.3166 8.29289 18.7071L9.70711 17.2929ZM13.1314 19.8686L13.8385 20.5757L13.8385 20.5757L13.1314 19.8686ZM15.7071 18.7071C16.0976 18.3166 16.0976 17.6834 15.7071 17.2929C15.3166 16.9024 14.6834 16.9024 14.2929 17.2929L15.7071 18.7071ZM11.691 20.5368L12 19.5858V19.5858L11.691 20.5368ZM12.309 20.5368L12 19.5858L12.309 20.5368ZM17.9936 7.09873L18.1913 6.11845L17.9936 7.09873ZM7.09873 6.00638L6.11845 5.80874L6.11845 5.80874L7.09873 6.00638ZM16.9013 6.00638L15.921 6.20403V6.20403L16.9013 6.00638ZM6.00638 7.09873L5.80874 6.11845L5.80874 6.11845L6.00638 7.09873ZM18.5996 15.6676C18.0935 15.8887 17.8625 16.4782 18.0836 16.9843C18.3048 17.4904 18.8943 17.7214 19.4004 17.5003L18.5996 15.6676ZM4.59963 17.5003C5.10572 17.7214 5.69523 17.4904 5.91635 16.9843C6.13747 16.4782 5.90646 15.8887 5.40037 15.6676L4.59963 17.5003ZM13 20L13 12H11L11 20H13ZM8.29289 18.7071L10.1615 20.5757L11.5757 19.1615L9.70711 17.2929L8.29289 18.7071ZM13.8385 20.5757L15.7071 18.7071L14.2929 17.2929L12.4243 19.1615L13.8385 20.5757ZM10.1615 20.5757C10.3479 20.7621 10.5296 20.9449 10.6955 21.0858C10.8704 21.2342 11.0922 21.3938 11.382 21.4879L12 19.5858C12.0614 19.6057 12.0701 19.6292 11.9899 19.5611C11.9007 19.4854 11.7854 19.3712 11.5757 19.1615L10.1615 20.5757ZM12.4243 19.1615C12.2146 19.3712 12.0993 19.4854 12.0101 19.5611C11.9299 19.6292 11.9386 19.6057 12 19.5858L12.618 21.4879C12.9078 21.3938 13.1296 21.2342 13.3045 21.0858C13.4704 20.9449 13.6521 20.7621 13.8385 20.5757L12.4243 19.1615ZM11.382 21.4879C11.7836 21.6184 12.2163 21.6184 12.618 21.4879L12 19.5858H12L11.382 21.4879ZM17.796 8.079C19.6239 8.44755 21 10.0642 21 12H23C23 9.09339 20.9342 6.6715 18.1913 6.11845L17.796 8.079ZM8.079 6.20403C8.44755 4.37613 10.0642 3 12 3V1C9.09339 1 6.6715 3.0658 6.11845 5.80874L8.079 6.20403ZM12 3C13.9358 3 15.5524 4.37613 15.921 6.20403L17.8815 5.80874C17.3285 3.0658 14.9066 1 12 1V3ZM3 12C3 10.0642 4.37613 8.44755 6.20403 8.079L5.80874 6.11845C3.0658 6.6715 1 9.09339 1 12H3ZM21 12C21 13.6387 20.0144 15.0494 18.5996 15.6676L19.4004 17.5003C21.5174 16.5754 23 14.4619 23 12H21ZM5.40037 15.6676C3.98556 15.0494 3 13.6387 3 12H1C1 14.4619 2.48263 16.5754 4.59963 17.5003L5.40037 15.6676ZM6.11845 5.80874C6.08886 5.9555 5.9555 6.08886 5.80874 6.11845L6.20403 8.079C7.14005 7.89028 7.89028 7.14004 8.079 6.20403L6.11845 5.80874ZM18.1913 6.11845C18.0445 6.08886 17.9111 5.9555 17.8815 5.80874L15.921 6.20403C16.1097 7.14005 16.86 7.89028 17.796 8.079L18.1913 6.11845Z" fill="#5F6D7E"/>
</svg>