<svg xmlns="http://www.w3.org/2000/svg" width="24" height="24" viewBox="0 0 24 24" fill="none">
  <path d="M7.41519 15.3819L6.70808 14.6748L7.41519 15.3819ZM16.5849 15.3819L15.8778 16.089L16.5849 15.3819ZM13.1547 21.3585L13.6403 22.2327L13.6403 22.2327L13.1547 21.3585ZM12.7764 21.5686L12.2908 20.6945L12.2908 20.6945L12.7764 21.5686ZM11.2236 21.5686L11.7092 20.6945L11.7092 20.6945L11.2236 21.5686ZM10.8453 21.3585L10.3597 22.2327L10.3597 22.2327L10.8453 21.3585ZM8.1223 16.089C10.2639 13.9474 13.7362 13.9474 15.8778 16.089L17.292 14.6748C14.3694 11.7521 9.63076 11.7521 6.70808 14.6748L8.1223 16.089ZM15.8778 16.089C16.2967 16.5079 16.6326 16.9761 16.8868 17.4741L18.6682 16.5649C18.3199 15.8826 17.8608 15.2436 17.292 14.6748L15.8778 16.089ZM7.11335 17.4741C7.36754 16.9761 7.70342 16.5079 8.1223 16.089L6.70808 14.6748C6.13934 15.2436 5.68019 15.8827 5.33197 16.5649L7.11335 17.4741ZM14.0754 10.0377C14.0754 11.1631 13.1631 12.0754 12.0377 12.0754V14.0754C14.2676 14.0754 16.0754 12.2676 16.0754 10.0377H14.0754ZM12.0377 12.0754C10.9123 12.0754 10 11.1631 10 10.0377H8C8 12.2676 9.80773 14.0754 12.0377 14.0754V12.0754ZM10 10.0377C10 8.9123 10.9123 8 12.0377 8V6C9.80773 6 8 7.80773 8 10.0377H10ZM12.0377 8C13.1631 8 14.0754 8.9123 14.0754 10.0377H16.0754C16.0754 7.80773 14.2676 6 12.0377 6V8ZM7.58333 4H16.4167V2H7.58333V4ZM19.9167 7.5H20.3333V5.5H19.9167V7.5ZM20 7.16667V8.02527H22V7.16667H20ZM12.669 20.4844L12.2908 20.6945L13.2621 22.4428L13.6403 22.2327L12.669 20.4844ZM11.7092 20.6945L11.331 20.4844L10.3597 22.2327L10.7379 22.4428L11.7092 20.6945ZM4 8.02527V7.16667H2V8.02527H4ZM3.66667 7.5H4.08333V5.5H3.66667V7.5ZM4.08333 7.5C6.24645 7.5 8 5.74645 8 3.58333H6C6 4.64188 5.14188 5.5 4.08333 5.5V7.5ZM4 7.16667C4 7.35076 3.85076 7.5 3.66667 7.5V5.5C2.74619 5.5 2 6.24619 2 7.16667H4ZM11.331 20.4844C6.80624 17.9706 4 13.2014 4 8.02527H2C2 13.9277 5.20003 19.3662 10.3597 22.2327L11.331 20.4844ZM12.2908 20.6945C12.11 20.795 11.89 20.795 11.7092 20.6945L10.7379 22.4428C11.5228 22.8789 12.4772 22.8789 13.2621 22.4428L12.2908 20.6945ZM20 8.02527C20 13.2014 17.1938 17.9706 12.669 20.4844L13.6403 22.2327C18.8 19.3662 22 13.9277 22 8.02527H20ZM20.3333 7.5C20.1492 7.5 20 7.35076 20 7.16667H22C22 6.24619 21.2538 5.5 20.3333 5.5V7.5ZM16 3.58333C16 5.74645 17.7536 7.5 19.9167 7.5V5.5C18.8581 5.5 18 4.64188 18 3.58333H16ZM16.4167 4C16.1865 4 16 3.81345 16 3.58333H18C18 2.70888 17.2911 2 16.4167 2V4ZM7.58333 2C6.70888 2 6 2.70888 6 3.58333H8C8 3.81345 7.81345 4 7.58333 4V2Z" fill="#5F6D7E"/>
</svg>