<svg width="41" height="37" viewBox="0 0 41 37" fill="none" xmlns="http://www.w3.org/2000/svg">
<path d="M12.7 15.1677H8.8C6.06974 15.1677 4.70462 15.1677 3.6618 15.6089C2.74451 15.997 1.99873 16.6162 1.53134 17.3779C1 18.2438 1 19.3773 1 21.6443V33.5221C1 34.7483 1 35.3614 1.29201 35.6452C1.54538 35.8916 1.92545 36.0223 2.31438 35.9969C2.76262 35.9676 3.2847 35.5341 4.32887 34.667L7.17017 32.3078C7.59175 31.9577 7.80255 31.7826 8.04854 31.6575C8.26664 31.5465 8.50442 31.4647 8.75315 31.4151C9.03368 31.3592 9.33182 31.3592 9.92802 31.3592L12.7 31.3593C15.4303 31.3593 16.7954 31.3593 17.8382 30.9181C18.7555 30.53 19.5013 29.9108 19.9687 29.1491C20.5 28.2832 20.5 27.1497 20.5 24.8827V21.6443C20.5 19.3773 20.5 18.2438 19.9687 17.3779C19.5013 16.6162 18.7555 15.997 17.8382 15.6089C16.7954 15.1677 15.4303 15.1677 12.7 15.1677Z" fill="#EAEBF0"/>
<path d="M39.4687 17.0054L40.321 17.5284L39.4687 17.0054ZM37.3382 18.7744L36.9486 17.8534L36.9486 17.8534L37.3382 18.7744ZM13.4118 1.4412L13.0222 0.520229V0.520229L13.4118 1.4412ZM11.2813 3.2102L12.1337 3.73321V3.73321L11.2813 3.2102ZM37.3382 1.4412L37.7278 0.520229L37.3382 1.4412ZM39.4687 3.2102L38.6163 3.73321V3.73321L39.4687 3.2102ZM36.9275 18.9208L36.6439 17.9618L36.6439 17.9618L36.9275 18.9208ZM31.4688 25.2875L32.1076 24.5181L32.0845 24.499L32.0604 24.4813L31.4688 25.2875ZM35.5487 19.4007L34.9672 18.5871H34.9672L35.5487 19.4007ZM35.2069 19.803L36.1136 20.2248V20.2248L35.2069 19.803ZM30.25 10.0958C30.8023 10.0958 31.25 9.6481 31.25 9.09582C31.25 8.54353 30.8023 8.09582 30.25 8.09582V10.0958ZM20.5 8.09582C19.9477 8.09582 19.5 8.54353 19.5 9.09582C19.5 9.6481 19.9477 10.0958 20.5 10.0958V8.09582ZM30.25 16.1677C30.8023 16.1677 31.25 15.72 31.25 15.1677C31.25 14.6154 30.8023 14.1677 30.25 14.1677V16.1677ZM27.8125 14.1677C27.2602 14.1677 26.8125 14.6154 26.8125 15.1677C26.8125 15.72 27.2602 16.1677 27.8125 16.1677V14.1677ZM19.9687 29.1491L19.1163 28.6261L19.9687 29.1491ZM12.7 31.3593L12.7 32.3593H12.7V31.3593ZM17.8382 30.9181L17.4486 29.9972L17.8382 30.9181ZM17.8382 15.6089L18.2278 14.6879L17.8382 15.6089ZM19.9687 17.3779L19.1163 17.9009L19.9687 17.3779ZM3.6618 15.6089L4.05144 16.5298L3.6618 15.6089ZM1.53134 17.3779L2.38367 17.9009H2.38367L1.53134 17.3779ZM4.32887 34.667L3.69004 33.8977H3.69004L4.32887 34.667ZM7.17017 32.3078L7.809 33.0771H7.809L7.17017 32.3078ZM9.92802 31.3592L9.92804 30.3592H9.92804L9.92802 31.3592ZM8.04854 31.6575L8.50204 32.5487L8.50205 32.5487L8.04854 31.6575ZM8.75315 31.4151L8.94863 32.3959H8.94863L8.75315 31.4151ZM1.29201 35.6452L1.98908 34.9282L1.29201 35.6452ZM2.31438 35.9969L2.24917 34.999H2.24916L2.31438 35.9969ZM32.2 0H18.55V2H32.2V0ZM9.75 7.47665V10.9892H11.75V7.47665H9.75ZM41 12.7389V7.47665H39V12.7389H41ZM39 12.7389C39 13.8923 38.9989 14.6849 38.9384 15.2997C38.8797 15.8959 38.7721 16.2285 38.6163 16.4824L40.321 17.5284C40.6965 16.9164 40.8546 16.2493 40.9288 15.4955C41.0011 14.7602 41 13.8526 41 12.7389H39ZM37.7278 19.6954C38.8141 19.2358 39.7322 18.4878 40.321 17.5284L38.6163 16.4824C38.2703 17.0463 37.6969 17.5368 36.9486 17.8534L37.7278 19.6954ZM18.55 0C17.1986 0 16.1351 -0.000537395 15.2804 0.0574428C14.4185 0.115916 13.6906 0.237438 13.0222 0.520229L13.8014 2.36216C14.1758 2.20376 14.6519 2.10468 15.4158 2.05286C16.187 2.00054 17.1711 2 18.55 2V0ZM11.75 7.47665C11.75 6.32331 11.7511 5.53064 11.8116 4.91592C11.8703 4.31966 11.9779 3.98711 12.1337 3.73321L10.429 2.68718C10.0535 3.29918 9.89539 3.96633 9.82122 4.72007C9.74888 5.45534 9.75 6.36296 9.75 7.47665H11.75ZM13.0222 0.520229C11.9359 0.97979 11.0178 1.72775 10.429 2.68718L12.1337 3.73321C12.4797 3.16932 13.0531 2.67877 13.8014 2.36216L13.0222 0.520229ZM32.2 2C33.5788 2 34.563 2.00054 35.3342 2.05286C36.0981 2.10468 36.5742 2.20376 36.9486 2.36216L37.7278 0.520229C37.0594 0.237438 36.3315 0.115916 35.4696 0.0574428C34.6149 -0.000537395 33.5514 0 32.2 0V2ZM41 7.47665C41 6.36296 41.0011 5.45534 40.9288 4.72007C40.8546 3.96633 40.6965 3.29918 40.321 2.68718L38.6163 3.73321C38.7721 3.9871 38.8797 4.31966 38.9384 4.91592C38.9989 5.53064 39 6.32331 39 7.47665H41ZM36.9486 2.36216C37.6969 2.67877 38.2703 3.16932 38.6163 3.73321L40.321 2.68718C39.7322 1.72775 38.8141 0.97979 37.7278 0.520229L36.9486 2.36216ZM37.211 19.8797C37.3884 19.8273 37.5602 19.7663 37.7278 19.6954L36.9486 17.8534C36.854 17.8934 36.7533 17.9295 36.6439 17.9618L37.211 19.8797ZM34.125 20.7001V25.2875H36.125V20.7001H34.125ZM34.125 25.2875C34.125 25.3994 34.079 25.432 34.0077 25.4468C33.8476 25.48 33.2448 25.4624 32.1076 24.5181L30.8299 26.0568C32.1302 27.1365 33.3555 27.6248 34.4142 27.4051C35.5617 27.1669 36.125 26.1874 36.125 25.2875H34.125ZM32.0604 24.4813L25.8097 19.8939L24.6264 21.5063L30.8771 26.0936L32.0604 24.4813ZM36.6439 17.9618C36.2496 18.0784 35.9266 18.1737 35.6823 18.2559C35.4665 18.3285 35.1893 18.4283 34.9672 18.5871L36.1301 20.2142C36.0802 20.2499 36.0902 20.2288 36.3197 20.1516C36.5206 20.0841 36.8009 20.001 37.211 19.8797L36.6439 17.9618ZM36.125 20.7001C36.125 20.445 36.1256 20.3069 36.1327 20.209C36.1393 20.1172 36.1471 20.1526 36.1136 20.2248L34.3002 19.3812C34.1847 19.6293 34.1517 19.873 34.1378 20.0655C34.1244 20.2519 34.125 20.4744 34.125 20.7001H36.125ZM34.9672 18.5871C34.8501 18.6708 34.7089 18.7797 34.5788 18.9328C34.4448 19.0905 34.3618 19.2487 34.3002 19.3812L36.1136 20.2248C36.1203 20.2102 36.125 20.2007 36.1281 20.1948C36.1311 20.1891 36.1319 20.1879 36.1306 20.1899C36.1293 20.1921 36.1261 20.1973 36.121 20.2045C36.1159 20.2118 36.1098 20.2197 36.103 20.2277C36.0963 20.2356 36.0902 20.242 36.0855 20.2466C36.081 20.2511 36.0787 20.2531 36.0796 20.2523C36.0807 20.2513 36.0848 20.2478 36.0933 20.2413C36.1019 20.2347 36.1137 20.2259 36.1301 20.2142L34.9672 18.5871ZM30.25 8.09582H20.5V10.0958H30.25V8.09582ZM30.25 14.1677H27.8125V16.1677H30.25V14.1677ZM8.8 16.1677H12.7V14.1677H8.8V16.1677ZM19.5 21.6443V24.8827H21.5V21.6443H19.5ZM19.5 24.8827C19.5 26.036 19.4989 26.8287 19.4384 27.4434C19.3797 28.0396 19.2721 28.3722 19.1163 28.6261L20.821 29.6721C21.1965 29.0601 21.3546 28.393 21.4288 27.6392C21.5011 26.904 21.5 25.9964 21.5 24.8827H19.5ZM12.7 32.3593C14.0514 32.3593 15.1149 32.3598 15.9696 32.3019C16.8315 32.2434 17.5594 32.1219 18.2278 31.8391L17.4486 29.9972C17.0742 30.1556 16.5981 30.2546 15.8342 30.3065C15.063 30.3588 14.0789 30.3593 12.7 30.3593V32.3593ZM19.1163 28.6261C18.7703 29.19 18.1969 29.6805 17.4486 29.9972L18.2278 31.8391C19.3141 31.3795 20.2322 30.6316 20.821 29.6721L19.1163 28.6261ZM12.7 16.1677C14.0789 16.1677 15.063 16.1682 15.8342 16.2205C16.5981 16.2724 17.0742 16.3714 17.4486 16.5298L18.2278 14.6879C17.5594 14.4051 16.8315 14.2836 15.9696 14.2251C15.1149 14.1671 14.0514 14.1677 12.7 14.1677V16.1677ZM21.5 21.6443C21.5 20.5306 21.5011 19.623 21.4288 18.8878C21.3546 18.134 21.1965 17.4669 20.821 16.8549L19.1163 17.9009C19.2721 18.1548 19.3797 18.4873 19.4384 19.0836C19.4989 19.6983 19.5 20.491 19.5 21.6443H21.5ZM17.4486 16.5298C18.1969 16.8465 18.7703 17.337 19.1163 17.9009L20.821 16.8549C20.2322 15.8954 19.3141 15.1475 18.2278 14.6879L17.4486 16.5298ZM8.8 14.1677C7.4486 14.1677 6.38506 14.1671 5.53042 14.2251C4.66852 14.2836 3.94057 14.4051 3.27215 14.6879L4.05144 16.5298C4.42585 16.3714 4.90187 16.2724 5.6658 16.2205C6.43699 16.1682 7.42115 16.1677 8.8 16.1677V14.1677ZM2 21.6443C2 20.491 2.00112 19.6983 2.06161 19.0836C2.12028 18.4873 2.22787 18.1548 2.38367 17.9009L0.67902 16.8549C0.303475 17.4669 0.14539 18.134 0.071224 18.8878C-0.00112438 19.623 0 20.5306 0 21.6443H2ZM3.27215 14.6879C2.18593 15.1475 1.26776 15.8954 0.67902 16.8549L2.38367 17.9009C2.72969 17.337 3.30309 16.8465 4.05144 16.5298L3.27215 14.6879ZM4.9677 35.4364L7.809 33.0771L6.53134 31.5384L3.69004 33.8977L4.9677 35.4364ZM12.7 30.3593L9.92804 30.3592L9.92799 32.3592L12.7 32.3593L12.7 30.3593ZM7.809 33.0771C8.26273 32.7003 8.37798 32.6119 8.50204 32.5487L7.59505 30.7662C7.22712 30.9534 6.92078 31.215 6.53134 31.5384L7.809 33.0771ZM9.92804 30.3592C9.3719 30.3592 8.95763 30.3547 8.55766 30.4344L8.94863 32.3959C9.10973 32.3637 9.29173 32.3592 9.92799 32.3592L9.92804 30.3592ZM8.50205 32.5487C8.6357 32.4807 8.78631 32.4282 8.94863 32.3959L8.55766 30.4344C8.22254 30.5012 7.89759 30.6123 7.59504 30.7662L8.50205 32.5487ZM0 33.5221C0 34.1114 -0.00137687 34.6353 0.0421473 35.0432C0.0835647 35.4312 0.184106 35.9628 0.594938 36.3622L1.98908 34.9282C2.1079 35.0438 2.06244 35.1269 2.03085 34.8309C2.00138 34.5547 2 34.159 2 33.5221H0ZM3.69004 33.8977C3.15357 34.3431 2.80081 34.6349 2.52735 34.825C2.2406 35.0244 2.18761 35.003 2.24917 34.999L2.37959 36.9947C2.88939 36.9614 3.32156 36.7087 3.66895 36.4672C4.02963 36.2165 4.46 35.858 4.9677 35.4364L3.69004 33.8977ZM0.594938 36.3622C1.07342 36.8274 1.74073 37.0365 2.3796 36.9947L2.24916 34.999C2.11018 35.0081 2.01734 34.9557 1.98908 34.9282L0.594938 36.3622ZM2 33.5221V21.6443H0V33.5221H2Z" fill="#7C8B9D"/>
</svg>
