<svg xmlns="http://www.w3.org/2000/svg" width="24" height="24" viewBox="0 0 24 24" fill="none">
  <path d="M12 3.99983C12 3.44755 12.4477 2.99983 13 2.99983H20C20.5523 2.99983 21 3.44755 21 3.99983C21 4.55212 20.5523 4.99983 20 4.99983H13C12.4477 4.99983 12 4.55212 12 3.99983Z" fill="#5F6D7E"/>
  <path d="M12 7.99983C12 7.44755 12.4477 6.99983 13 6.99983H20C20.5523 6.99983 21 7.44755 21 7.99983C21 8.55212 20.5523 8.99983 20 8.99983H13C12.4477 8.99983 12 8.55212 12 7.99983Z" fill="#5F6D7E"/>
  <path d="M13 10.9998C12.4477 10.9998 12 11.4475 12 11.9998C12 12.5521 12.4477 12.9998 13 12.9998H20C20.5523 12.9998 21 12.5521 21 11.9998C21 11.4475 20.5523 10.9998 20 10.9998H13Z" fill="#5F6D7E"/>
  <path d="M12 15.9998C12 15.4475 12.4477 14.9998 13 14.9998H20C20.5523 14.9998 21 15.4475 21 15.9998C21 16.5521 20.5523 16.9998 20 16.9998H13C12.4477 16.9998 12 16.5521 12 15.9998Z" fill="#5F6D7E"/>
  <path d="M13 18.9998C12.4477 18.9998 12 19.4475 12 19.9998C12 20.5521 12.4477 20.9998 13 20.9998H20C20.5523 20.9998 21 20.5521 21 19.9998C21 19.4475 20.5523 18.9998 20 18.9998H13Z" fill="#5F6D7E"/>
  <path d="M5.93835 4.8342L5.31458 5.07039C5.21594 5.10737 5.09749 5.13982 4.96835 5.13982C4.46951 5.13982 4.05835 4.72234 4.05835 4.21982C4.05835 3.80555 4.32452 3.49825 4.66693 3.36128L4.6722 3.35918L6.61341 2.62499C6.68838 2.6 6.79297 2.56982 6.93835 2.56982C7.43083 2.56982 7.84835 2.98095 7.84835 3.46982V8.43982H8.40835C8.91094 8.43982 9.33835 8.86106 9.33835 9.35982C9.33835 9.87244 8.91709 10.2998 8.40835 10.2998H5.00835C4.49961 10.2998 4.07835 9.87244 4.07835 9.35982C4.07835 8.86106 4.50576 8.43982 5.00835 8.43982H5.93835V4.8342Z" fill="#5F6D7E"/>
  <path d="M5.58449 16.007L5.58391 16.0083C5.52284 16.1372 5.43048 16.2684 5.28982 16.3669C5.14657 16.4671 4.97249 16.5198 4.77278 16.5198C4.22759 16.5198 3.85278 16.0959 3.85278 15.5998C3.85278 15.4989 3.8764 15.3954 3.89639 15.324C3.91477 15.2583 3.93841 15.191 3.95936 15.1462C4.34275 14.2502 5.18305 13.5698 6.35278 13.5698C7.87464 13.5698 9.03278 14.6707 9.03278 16.1198C9.03278 16.7725 8.7513 17.4121 8.19327 18.0133L6.88497 19.4398H8.20278C8.71533 19.4398 9.13278 19.851 9.13278 20.3598C9.13278 20.8824 8.72155 21.2998 8.20278 21.2998H4.90278C4.35016 21.2998 3.94278 20.8886 3.94278 20.3598C3.94278 20.0687 4.08192 19.8605 4.18856 19.7405L6.69979 16.9291C7.03174 16.5603 7.10278 16.3489 7.10278 16.1198C7.10278 15.7283 6.7908 15.4298 6.35278 15.4298C6.16348 15.4298 6.02315 15.4812 5.90891 15.5677C5.78988 15.6579 5.68143 15.7999 5.58449 16.007Z" fill="#5F6D7E"/>
</svg>