<svg width="660" height="508" viewBox="0 0 660 508" fill="none" xmlns="http://www.w3.org/2000/svg">
<path d="M264.299 144.957C263.259 143.58 261.097 142.311 259.435 143.458C259.26 143.58 259.098 143.728 258.949 143.877C258.76 143.809 258.557 143.769 258.355 143.796C257.895 143.863 257.382 144.12 257.233 144.606C256.72 146.213 256.342 147.86 256.477 149.547C256.625 151.505 257.355 153.584 258.854 154.921C259.611 155.596 260.543 156.069 261.583 156.055C262.408 156.055 263.205 155.583 263.745 154.989C264.799 153.841 265.407 152.153 265.569 150.628C265.771 148.683 265.501 146.564 264.299 144.97V144.957Z" fill="black"/>
<path d="M356.756 135.142C356.053 134.062 354.743 133.224 353.432 133.103C352.622 132.428 350.892 131.834 350.028 132.819C349.082 133.899 348.447 135.088 348.15 136.505C347.88 137.774 347.893 139.125 348.096 140.394C348.218 141.163 348.407 141.919 348.623 142.662C348.798 143.297 348.961 143.972 349.244 144.552C350.176 146.523 352.46 147.496 354.499 146.659C355.972 146.051 356.756 144.701 357.215 143.256C357.634 141.96 357.823 140.623 357.85 139.26C357.863 137.842 357.539 136.316 356.769 135.128L356.756 135.142Z" fill="black"/>
<path d="M357.594 176.888C356.325 175.646 354.852 174.62 353.271 173.81C352.745 173.54 351.988 173.513 351.434 173.594C350.867 173.675 350.151 173.918 349.732 174.336C349.408 174.661 349.056 175.106 349.164 175.606C349.273 176.105 349.624 176.416 350.07 176.659C350.34 176.794 350.61 176.956 350.867 177.118C351.812 177.725 352.704 178.414 353.515 179.197C353.893 179.562 354.622 179.71 355.122 179.724C355.73 179.751 356.5 179.602 357.027 179.278C357.446 179.022 357.946 178.643 358.04 178.13L358.067 177.685C358.013 177.374 357.851 177.104 357.608 176.915L357.594 176.888Z" fill="black"/>
<path d="M369.47 172.716C369.403 172.257 369.092 171.879 368.754 171.569C368.295 171.15 367.66 170.772 367.079 170.569C366.593 170.407 365.998 170.205 365.485 170.353C365.174 170.434 364.782 170.623 364.85 171.029C365.026 172.163 364.999 173.324 364.809 174.458C364.701 174.944 364.58 175.417 364.404 175.876C364.256 176.267 364.445 176.632 364.688 176.942C365.039 177.401 365.606 177.82 366.12 178.063C366.66 178.319 367.268 178.589 367.863 178.589C368.187 178.589 368.768 178.589 368.903 178.198C369.538 176.456 369.754 174.552 369.47 172.716Z" fill="black"/>
<path d="M337.343 133.832C337.302 132.697 335.722 132.589 334.925 132.9C331.709 134.129 328.372 134.871 324.995 135.411C324.86 131.833 324.765 128.242 324.927 124.664C325.009 122.625 325.184 120.586 325.468 118.561C325.549 117.994 326.13 116.387 325.806 115.847C325.468 115.28 324.049 115.564 323.495 115.564C315.971 115.591 308.432 115.415 300.921 115.064C299.043 114.794 297.165 114.47 295.315 114.065C294.477 113.876 292.937 114.052 292.991 115.213C292.95 115.253 292.923 115.307 292.91 115.375C292.018 122.706 291.816 130.105 292.302 137.477C288.222 137.031 284.183 136.275 280.495 134.412C279.454 133.886 275.847 136.829 276.401 137.099C280.535 139.192 285.128 139.907 289.708 140.326C291.802 140.515 293.91 140.636 296.004 140.704C296.085 140.704 296.152 140.704 296.22 140.704C299.043 140.798 301.88 140.812 304.704 140.771C309.675 140.704 314.714 140.717 319.672 140.245C324.509 139.786 329.224 138.571 333.749 136.788C334.29 136.572 335.316 136.154 336.005 135.641C336.721 135.222 337.37 134.628 337.343 133.805V133.832Z" fill="black"/>
<path d="M347.518 245.935C341.952 246.489 336.616 248.19 331.212 249.513C325.93 250.809 320.431 251.822 315 252.213C312.717 252.375 310.785 256.088 314.095 255.845C319.526 255.454 325.025 254.441 330.307 253.145C335.724 251.822 341.047 250.12 346.613 249.567C347.707 249.459 349.139 248.527 349.369 247.393C349.612 246.192 348.491 245.827 347.518 245.935Z" fill="black"/>
<path d="M345.57 241.332C345.03 240.332 343.544 239.482 342.382 239.698L321.077 243.681C319.983 243.883 319.429 244.788 319.983 245.814C320.524 246.813 322.01 247.664 323.171 247.448C330.277 246.125 337.383 244.788 344.476 243.465C345.57 243.262 346.124 242.358 345.57 241.332Z" fill="black"/>
<path d="M231.672 155.745C230.321 158.405 229.037 161.092 227.808 163.805C222.229 163.832 216.609 164.899 211.461 167.073C207.057 168.936 203.18 171.569 201.735 176.375C200.411 180.75 201.248 185.313 204.018 188.945C206.382 192.037 209.732 194.144 212.448 196.871C208.665 197.154 204.909 197.748 201.451 199.396C197.33 201.353 193.764 204.972 192.697 209.495C191.535 214.396 193.696 219.446 197.074 222.956C199.587 225.562 202.775 227.303 206.139 228.613C201.478 229.086 197.006 231.219 194.71 235.539C193.399 238.01 192.953 241.048 193.696 243.762C194.615 247.124 196.925 249.824 199.803 251.714C201.302 252.7 202.923 253.375 204.612 253.888C198.074 256.44 193.413 262.705 193.507 270.13C193.629 279.474 200.586 285.32 206.314 291.76C200.613 294.744 196.763 300.361 196.101 306.922C195.358 314.389 199.357 320.734 203.775 326.378C201.302 326.486 198.844 326.972 196.547 327.89C193.804 328.984 190.873 330.55 189.387 333.223C186.266 338.894 188.252 346.563 190.94 351.991C191.656 353.422 192.467 354.812 193.345 356.149C194.169 357.405 195.034 359.011 196.101 360.105C196.074 360.132 196.034 360.132 196.007 360.173C195.844 360.186 195.493 360.497 195.358 360.591C194.791 360.969 194.237 361.388 193.71 361.82C192.535 362.778 191.454 363.859 190.468 365.02C186.563 369.61 184.659 375.645 185.05 381.64C185.293 385.313 186.361 388.823 188.144 392.036C189.387 394.278 190.846 396.37 192.075 398.598C191.602 403.918 191.251 409.264 191.022 414.598C190.954 416.326 192.278 417.743 193.926 418.135C195.304 418.459 197.439 417.878 197.52 416.137C198.641 389.89 202.707 363.791 209.692 338.462C211.664 331.293 213.893 324.191 216.338 317.157C216.622 316.346 216.541 315.55 216.203 314.875C216.487 314.51 216.636 314.065 216.568 313.552C213.988 294.42 213.366 275.099 214.717 255.846C214.785 254.833 214.15 254.226 213.312 253.983C214.271 253.983 215.069 253.686 215.041 252.943C214.258 227.357 218.473 201.664 227.416 177.672C229.997 170.745 232.969 163.994 236.319 157.406C237.332 155.421 232.496 154.098 231.672 155.731V155.745ZM199.776 248.082C197.56 246.489 196.885 243.964 197.493 241.345C198.871 235.377 204.801 232.731 210.435 232.785C210.029 238.942 209.894 245.126 210.07 251.296C209.827 251.174 209.57 251.093 209.313 251.039C206.085 250.513 202.505 250.04 199.776 248.069V248.082ZM198.29 272.385C197.574 265.337 202.842 259.073 209.624 257.925C208.976 268.227 208.895 278.555 209.354 288.857C204.747 283.997 198.979 279.15 198.29 272.399V272.385ZM192.913 340.204C193.264 336.599 194.818 334.25 198.006 332.535C200.222 331.333 202.653 330.658 205.125 330.429C202.532 339.191 200.289 348.048 198.371 356.986C194.98 352.099 192.305 346.279 192.899 340.204H192.913ZM190.251 385.461C189.225 379.777 190.643 373.917 194.007 369.246C194.75 368.206 195.588 367.274 196.506 366.397C194.939 374.862 193.669 383.382 192.751 391.942C192.751 391.955 192.751 391.969 192.751 391.982C191.643 389.957 190.697 387.837 190.265 385.448L190.251 385.461ZM210.286 314.24C209.192 317.386 208.138 320.559 207.138 323.732C203.68 319.371 200.411 314.564 200.802 308.772C201.181 303.155 204.774 298.376 209.786 296.081C210.178 301.765 210.732 307.449 211.461 313.106C210.935 313.309 210.502 313.673 210.3 314.24H210.286ZM211.07 225.44C207.395 224.347 203.599 222.969 200.789 220.283C198.195 217.812 196.466 214.193 197.533 210.602C198.492 207.308 201.437 204.891 204.464 203.541C207.773 202.069 211.475 201.704 215.082 201.529C213.258 209.4 211.907 217.393 211.07 225.44ZM216.717 194.913C212.218 190.161 204.126 186.191 206.274 178.576C207.409 174.553 210.772 172.622 214.461 171.177C218.081 169.76 221.85 168.936 225.701 168.653C222.093 177.186 219.094 185.975 216.717 194.913Z" fill="black"/>
<path d="M376.332 155.124C361.755 153.949 346.773 154.327 333.439 161.024C332.642 161.415 331.683 162.536 332.439 163.387C333.223 164.264 334.898 163.697 335.722 163.279C347.381 157.432 361.012 157.365 373.724 158.391C374.913 158.485 376.318 158.148 377.075 157.135C377.656 156.352 377.48 155.232 376.332 155.137V155.124Z" fill="black"/>
<path d="M488.65 280.864C488.65 280.864 488.65 280.864 488.637 280.864C488.65 280.891 488.677 280.945 488.691 280.959C488.677 280.932 488.664 280.891 488.65 280.864Z" fill="black"/>
<path d="M492.85 281.769C492.161 278.974 489.743 277.435 487.014 276.976C483.785 276.436 480.218 276.841 476.936 276.841C469.519 276.841 462.116 276.827 454.699 276.814C443.189 276.814 431.692 276.787 420.182 276.787C420.709 276.355 421.222 275.909 421.749 275.491C421.803 275.437 421.871 275.41 421.938 275.356C407.145 269.995 391.879 266.053 376.33 263.623C376.249 263.623 376.154 263.623 376.073 263.623C373.182 249.851 370.723 236.012 368.765 222.078C368.765 222.051 368.751 222.024 368.738 221.997C368.846 222.038 368.967 222.065 369.075 222.105C374.925 223.955 380.261 227.006 386.611 226.331C387.3 226.264 387.313 225.791 387.111 225.319C387.786 224.954 388.232 224.563 388.07 224.36C386.962 222.888 385.935 221.376 384.976 219.824C390.069 218.257 395.108 218.622 400.174 220.31C404.7 221.822 409.969 223.253 414.238 220.256C417.575 217.92 418.79 212.978 423.073 212.006C425.207 211.52 427.477 211.804 429.639 211.871C432.138 211.939 434.543 211.844 436.92 211.02C438.731 210.386 438.352 207.942 436.988 207.078C431.435 203.568 425.842 200.125 420.195 196.736C417.372 195.048 414.548 193.36 411.711 191.713C409.78 190.593 407.807 189.499 405.646 188.959C405.862 185.962 405.754 182.924 405.7 179.926C405.619 176.348 405.524 172.77 405.254 169.193C404.795 162.941 404.119 156.163 399.593 151.397C390.542 141.865 375.168 143.148 365.901 133.926C365.158 133.184 364.104 133.143 363.185 133.481C363.55 133.103 363.739 132.644 363.604 132.171C361.28 124.084 355.35 116.118 346.096 116.28C336.639 116.442 330.587 124.313 327.682 132.468C327.493 133.008 327.588 133.373 327.858 133.629L283.398 139.395C281.479 139.638 279.358 140.191 277.427 139.975C275.589 139.759 274.184 138.422 272.874 137.234C270.253 134.831 267.484 132.765 264.228 131.28C258.203 128.526 250.164 127.176 243.747 129.322C239.708 130.672 238.276 134.48 236.655 138.058C234.736 142.311 233.075 146.685 231.643 151.127C231.048 152.977 236.047 153.193 236.547 151.64C237.749 147.901 239.1 144.215 240.654 140.61C241.37 138.949 242.113 137.315 242.896 135.695C243.693 134.034 244.504 132.09 246.355 131.388C249.084 130.362 252.785 130.807 255.555 131.415C258.851 132.144 261.999 133.508 264.755 135.452C267.47 137.369 269.605 140.205 272.698 141.555C276.211 143.094 280.156 142.351 283.817 141.879C291.882 140.839 299.947 139.786 307.999 138.746C317.172 137.558 326.331 136.37 335.504 135.182C336.22 135.087 337.666 134.574 337.233 133.602C336.801 132.644 334.883 132.725 334.099 132.819C333.343 132.914 332.6 133.008 331.843 133.116C332.059 132.927 332.221 132.711 332.302 132.482C334.302 126.879 338.314 118.859 345.461 119.493C352.796 120.141 356.998 127.432 358.822 133.764C359.119 134.804 360.699 134.804 361.969 134.277C361.253 135.02 360.997 136.046 361.902 136.937C365.847 140.866 370.805 143.242 375.979 145.133C381.153 147.023 386.651 148.414 391.434 151.222C393.771 152.599 395.959 154.341 397.378 156.69C398.945 159.282 399.499 162.32 399.864 165.291C400.688 171.893 400.796 178.603 400.85 185.259C400.863 186.92 400.85 188.567 400.647 190.215C400.512 191.295 400.499 193.198 399.553 193.941C398.634 194.657 396.689 194.684 395.595 194.9C393.879 195.224 392.163 195.534 390.447 195.831C383.679 196.979 376.87 197.856 370.048 198.572C356.471 199.976 342.84 200.719 329.222 201.596C321.589 202.096 313.97 202.636 306.351 203.352C302.554 203.716 298.758 204.121 294.962 204.607C291.49 205.039 288.045 205.377 285.059 207.348C284.33 207.821 283.965 208.725 284.087 209.549C283.425 210.939 282.574 212.236 281.75 213.545C281.223 214.369 280.723 215.206 280.277 216.084C279.831 215.625 279.385 215.179 278.967 214.706C277.589 213.194 276.454 211.507 275.116 209.981C275.116 209.981 275.116 209.981 275.103 209.981C275.103 209.954 275.103 209.94 275.103 209.913C275.062 208.82 273.185 208.86 272.509 208.968C271.185 209.171 269.969 209.711 269.118 210.764C268.645 211.358 268.213 211.979 267.754 212.573C267.592 212.776 267.416 212.978 267.254 213.181C267.227 213.127 267.2 213.073 267.173 213.019C266.43 211.615 265.687 210.21 264.957 208.806C264.498 207.942 263.012 208.172 262.242 208.388C261.674 208.55 261.04 208.752 260.58 209.13C260.364 209.306 259.878 209.711 260.04 210.048C260.769 211.426 261.485 212.803 262.215 214.166C262.526 214.76 262.823 215.544 263.323 216.003C264.201 216.813 265.687 216.651 266.741 216.381C268.497 215.935 270.023 214.963 271.28 213.68C271.55 213.397 271.807 213.1 272.05 212.789C272.144 212.911 272.239 213.032 272.334 213.154C273.158 214.139 274.009 215.098 274.9 216.03C275.751 216.921 276.643 217.798 277.548 218.649C277.913 219 278.251 219.418 278.751 219.526C279.885 219.783 281.236 219.634 282.371 219.486C283.006 219.405 283.587 219.378 283.938 218.811C284.276 218.271 284.492 217.609 284.749 217.015C285.222 215.935 285.789 214.909 286.41 213.91C287.153 212.722 287.91 211.547 288.585 210.318C290.45 209.36 292.882 209.157 295.084 208.968C295.084 209.022 295.084 209.063 295.084 209.117C298.839 225.926 302.014 242.857 304.581 259.883C304.878 261.854 305.162 263.812 305.445 265.783C305.648 267.201 305.58 269.32 306.823 270.306C307.85 271.116 309.269 270.765 310.43 270.468C312.295 269.982 314.119 269.293 315.902 268.551C319.171 267.187 322.305 265.499 325.656 264.325C329.209 263.069 332.532 263.015 336.22 263.528C338.26 263.812 340.07 264.055 342.016 263.191C343.867 262.367 344.893 261.26 345.677 259.464C346.42 257.749 347.338 256.723 349.162 256.332C351.499 255.832 353.972 256.089 356.336 256.264C357.065 256.318 357.903 255.981 358.619 255.562C359.011 255.873 359.43 256.102 359.835 256.224C360.862 256.521 361.307 255.981 361.024 254.995C359.713 250.31 358.403 245.639 357.092 240.953C355.809 236.363 354.431 231.786 353.823 227.047C353.81 226.898 353.769 226.763 353.728 226.615C354.336 226.237 354.931 225.832 355.512 225.332C357.403 223.698 359.146 221.984 361.659 221.43C362.388 221.268 363.131 221.201 363.874 221.201C365.941 235.904 368.548 250.526 371.615 265.04C371.588 265.081 371.588 265.108 371.629 265.121C371.75 265.715 371.872 266.296 371.993 266.89C372.615 266.404 373.277 265.945 373.939 265.513C388.624 267.957 403.052 271.737 417.061 276.8H409.861L387.3 276.773C380.207 276.773 373.02 276.53 365.995 277.759C359.078 278.96 352.405 281.377 345.785 283.659C339.084 285.968 332.437 288.412 325.831 290.99C310.998 296.783 296.435 303.25 282.168 310.338C281.912 310.365 281.75 310.446 281.696 310.568C281.182 310.824 281.047 311.243 281.155 311.715C281.061 311.931 281.007 312.161 281.02 312.404C281.047 313.093 281.479 313.552 282.033 313.849C282.817 320.559 283.371 327.31 283.668 334.061C278.696 334.385 273.738 334.749 268.78 335.181C268.564 331.846 268.281 328.498 267.889 325.176C267.848 324.785 267.267 324.366 266.984 324.177C266.457 323.84 265.768 323.583 265.16 323.489C264.511 323.394 262.931 323.246 263.052 324.299C263.498 328.133 263.836 331.995 264.052 335.843C264.079 336.207 264.62 336.612 264.903 336.801C264.809 337.004 264.728 337.22 264.714 337.463C264.647 338.719 265.998 339.353 267.078 339.259C283.209 337.841 299.407 336.99 315.605 336.747C323.764 336.626 331.911 336.639 340.07 336.815C341.975 336.855 343.894 336.909 345.798 336.963C347.744 337.017 349.73 337.179 351.648 336.693C354.971 335.856 357.336 333.088 360.118 331.279C361.78 330.199 363.523 329.254 365.333 328.444C366.752 327.809 368.657 326.959 370.048 328.079C373.182 330.604 370.94 335.465 369.656 338.3C369.386 338.894 369.44 339.367 369.67 339.718C369.67 339.718 369.67 339.745 369.67 339.758C370.048 340.96 371.399 341.756 372.601 341.824C375.911 341.999 379.18 342.404 382.436 343.08C384.895 343.593 387.462 344.16 389.677 345.415C390.488 345.874 391.285 346.455 391.852 347.211C392.082 347.508 392.406 347.967 392.487 348.359C392.69 349.29 391.866 349.169 391.015 349.371C387.813 350.141 384.571 350.816 381.328 351.37C379.289 351.721 374.911 351.505 374.195 354.083C373.439 356.824 376.573 358.984 378.924 359.214C381.612 359.484 384.057 359.119 386.692 360.065C388.813 360.834 391.947 362.427 392.987 364.574C394.19 367.058 389.002 367.855 387.597 368.166C383.936 368.989 380.288 369.826 376.627 370.65C375.695 370.866 375.452 371.838 375.709 372.635C376.046 373.661 377.073 374.336 378.059 374.633C379.234 374.984 380.802 375.389 381.612 376.415C382.544 377.576 382.139 379.358 381.531 380.574C379.883 383.841 376.316 384.921 373.007 385.691C369.089 386.595 365.293 387.608 361.551 389.134C357.876 390.632 354.309 392.347 350.675 393.954C334.977 400.893 317.374 402.109 300.433 402.865C296.137 403.054 291.855 403.135 287.559 403.148C287.099 403.027 286.627 403.027 286.208 403.148C281.155 403.148 276.103 403.013 271.064 402.77C270.956 402.689 270.847 402.595 270.726 402.527C270.375 402.338 269.78 401.974 269.375 402.136C266.551 403.283 264.795 405.916 263.012 408.238C260.972 410.885 259 413.598 257.203 416.42C256.649 417.284 257.757 418.553 258.351 419.107C258.689 419.431 260.54 421.011 261.067 420.201C262.823 417.46 264.728 414.814 266.714 412.221C268.092 410.426 269.551 408.144 271.523 406.834C276.103 407.064 280.682 407.212 285.289 407.266C286.451 411.749 286.221 416.501 284.762 420.889C284.181 422.631 285.64 424.413 287.424 424.359C321.387 423.387 355.363 422.928 389.34 422.982C397.945 422.996 406.551 423.05 415.156 423.131C420.114 444.409 423.303 466.079 424.667 487.898C424.694 488.343 429.895 487.452 429.828 486.277C428.463 464.391 425.248 442.64 420.263 421.281C420.29 421.105 420.304 420.916 420.304 420.741C420.493 420.7 420.668 420.66 420.803 420.565C442.729 405.538 464.277 389.971 485.447 373.89C486.352 373.863 487.162 373.418 487.378 372.432C487.703 372.189 488.027 371.946 488.351 371.703C488.675 371.46 488.067 371.203 487.5 371.028C488.824 348.44 490.161 325.838 491.485 303.25C491.877 296.648 492.269 290.045 492.647 283.457C492.661 283.2 492.62 282.943 492.553 282.7C492.809 282.511 492.944 282.214 492.836 281.769H492.85ZM392.204 199.976C393.987 201.596 395.676 203.325 397.229 205.174C397.837 205.903 398.432 206.659 398.999 207.429C399.175 207.659 399.499 207.686 399.769 207.713C400.35 207.78 400.985 207.74 401.566 207.672C402.16 207.605 402.768 207.524 403.336 207.335C403.43 207.308 404.16 207.064 404.038 206.902C401.971 204.121 399.634 201.556 397.067 199.22C398.729 198.91 400.363 198.464 401.755 197.694C403.511 196.722 404.443 195.156 404.984 193.401C407.145 193.914 409.05 195.156 410.982 196.29C413.63 197.843 416.264 199.409 418.885 200.989C422.37 203.082 425.829 205.215 429.287 207.362C426.464 207.308 423.6 206.929 420.857 207.659C418.696 208.239 416.953 209.454 415.481 211.128C414.143 212.654 413.17 214.558 411.657 215.922C407.78 219.378 402.093 216.057 397.918 214.976C392.839 213.68 387.516 213.937 382.544 215.53C380.221 211.236 378.221 206.754 376.181 202.312C381.545 201.677 386.894 200.921 392.217 199.976H392.204ZM357.227 253.402C351.108 253.361 343.975 254.793 341.354 260.895C340.827 260.841 340.273 260.841 339.787 260.774C337.841 260.504 335.936 260.274 333.978 260.436C330.411 260.72 326.993 261.894 323.737 263.285C320.549 264.635 317.482 266.269 314.2 267.403C312.673 267.93 311.173 268.537 310.525 266.62C309.89 264.716 309.849 262.448 309.566 260.463C308.336 252.052 306.958 243.667 305.432 235.31C303.797 226.318 301.96 217.353 299.988 208.428C300.704 208.347 301.433 208.266 302.149 208.185C306.567 218.932 310.998 229.693 315.415 240.44C315.848 241.494 319.036 243.492 319.901 242.034C322.238 238.118 324.724 234.014 328.466 231.273C332.654 228.221 337.382 228.532 342.313 228.762C345.163 228.897 347.879 228.802 350.405 228.059C351.121 231.786 352.188 235.445 353.215 239.104C354.553 243.87 355.877 248.636 357.214 253.388L357.227 253.402ZM353.283 220.944C351.337 222.578 349.608 224.414 347.082 225.143C344.65 225.859 342.11 225.751 339.611 225.629C334.707 225.386 329.749 225.143 325.412 227.83C322.184 229.828 319.779 232.853 317.685 236.039C313.916 226.871 310.147 217.717 306.378 208.55C306.269 208.28 306.094 208.037 305.878 207.821C306.405 207.767 306.945 207.713 307.472 207.659C314.537 206.997 321.616 206.484 328.709 206.025C330.438 205.917 332.167 205.809 333.896 205.701C335.112 208.577 336.234 211.48 337.22 214.436C337.571 215.503 338.949 216.529 340.057 216.624C340.462 216.664 341.016 216.651 341.273 216.259C341.543 215.854 341.462 215.422 341.313 214.99C340.246 211.763 339.03 208.577 337.666 205.458C340.084 205.309 342.502 205.147 344.92 204.999C344.947 205.512 345.015 206.025 345.136 206.524C345.42 207.672 345.852 208.752 346.352 209.805C346.785 210.723 347.257 211.628 347.622 212.573C347.676 212.708 347.73 212.857 347.771 212.992C347.771 213.019 347.784 213.032 347.798 213.046C347.852 213.248 347.906 213.437 347.946 213.64C348 213.896 348.027 214.166 348.041 214.423C348.041 214.544 348.041 214.666 348.041 214.774C348.041 214.787 348.041 214.801 348.041 214.828C347.906 216.138 348.933 217.083 350.216 217.164C351.31 217.231 353.202 216.691 353.35 215.327C353.607 212.803 352.634 210.629 351.553 208.401C351.324 207.929 351.094 207.456 350.891 206.97C350.783 206.713 350.689 206.457 350.594 206.2C350.594 206.2 350.527 205.984 350.5 205.903C350.5 205.849 350.473 205.795 350.473 205.782C350.378 205.39 350.338 204.999 350.311 204.607C357.187 204.135 364.05 203.595 370.899 202.879C374.114 209.846 377.141 216.921 381.45 223.28C376.546 223.077 371.912 220.148 367.252 218.892C362.388 217.582 357.295 217.542 353.269 220.931L353.283 220.944ZM322.103 297.431C334.612 292.341 347.352 287.426 360.321 283.592C363.199 282.741 366.09 282.106 368.994 281.634C367.022 290.437 365.86 299.415 365.59 308.448C365.59 308.651 365.617 308.84 365.657 309.015C356.39 309.015 347.109 309.123 337.841 309.231C337.801 309.231 337.747 309.231 337.706 309.231C338.003 309.137 338.301 309.042 338.598 308.948H330.681C330.83 309.083 330.965 309.204 331.114 309.339C324.007 309.447 316.901 309.569 309.795 309.704C309.674 309.758 309.539 309.798 309.377 309.798H301.865C301.865 309.798 301.838 309.839 301.825 309.866C299.055 309.92 296.286 309.987 293.53 310.055C302.919 305.572 312.443 301.36 322.089 297.431H322.103ZM418.588 318.804C418.291 334.331 417.98 349.844 417.683 365.371C417.521 373.971 417.345 382.572 417.183 391.172C417.021 399.732 417.264 408.481 415.237 416.866C415.102 417.433 415.21 417.905 415.481 418.27C382.193 417.959 348.906 418.121 315.618 418.783C307.134 418.959 298.664 419.175 290.18 419.404C290.977 415.381 290.909 411.303 290.017 407.28C303.446 407.239 316.915 406.375 330.154 404.404C334.829 403.702 339.489 402.784 344.015 401.42C348.257 400.137 352.323 398.382 356.363 396.546C360.389 394.723 364.401 392.833 368.616 391.456C372.696 390.119 377.127 389.768 381.004 387.864C384.409 386.204 387.192 382.653 386.759 378.697C386.516 376.496 385.381 374.849 383.828 373.593C385.949 373.107 388.07 372.635 390.191 372.148C392.677 371.581 395.919 370.987 397.297 368.544C398.837 365.83 396.743 362.927 394.811 361.091C392.447 358.836 389.637 357.148 386.543 356.122C385.557 355.798 384.544 355.569 383.531 355.407C383.544 355.407 383.558 355.407 383.571 355.407C385.516 355.069 387.462 354.704 389.407 354.299C391.19 353.921 393.041 353.597 394.784 353.057C396.243 352.598 397.391 351.707 397.283 350.033C397.108 347.238 394.879 344.727 392.731 343.161C390.191 341.297 387.097 340.271 384.071 339.542C381.045 338.813 377.965 338.314 374.871 338.003C376.195 334.979 377.316 331.59 376.114 328.363C374.938 325.203 372.088 323.354 368.711 323.57C364.874 323.813 360.983 326.041 357.822 328.079C356.336 329.038 354.904 330.091 353.512 331.198C351.999 332.413 350.905 333.061 348.919 333.075C340.259 333.129 331.6 332.67 322.94 332.71C314.227 332.751 305.513 332.967 296.813 333.345C294.003 333.466 291.206 333.615 288.396 333.777C288.059 327.215 287.491 320.667 286.708 314.146C316.712 313.376 346.771 312.62 376.776 312.971C378.667 312.998 380.558 313.025 382.436 313.066C382.828 313.336 383.274 313.511 383.463 313.093C388.975 313.214 394.487 313.43 399.999 313.795C403.754 314.038 407.51 314.335 411.252 314.713C413.13 314.902 414.994 315.104 416.859 315.334C417.534 315.415 418.277 315.293 418.561 315.901C418.899 316.603 418.601 318.102 418.588 318.817V318.804ZM483.65 351.41C483.258 358.012 482.866 364.615 482.488 371.203C482.488 371.311 482.488 371.406 482.501 371.5C462.156 387 441.446 402.001 420.398 416.515C421.979 409.305 422.019 401.893 422.168 394.548C422.33 386.514 422.479 378.467 422.641 370.434C422.951 354.245 423.276 338.043 423.586 321.855C423.613 320.343 423.897 318.399 423.762 316.616C435.015 313.768 444.54 306.706 454.469 300.995C464.912 294.987 476.179 290.68 487.473 286.562L483.65 351.41ZM488.743 280.999C488.743 280.999 488.716 280.972 488.702 280.945C488.702 280.959 488.716 280.986 488.729 280.999C485.46 282.187 482.177 283.389 478.921 284.631C477.179 285.765 475.044 286.454 473.099 286.859C473.099 286.859 473.099 286.872 473.099 286.886C466.101 289.681 459.225 292.746 452.645 296.432C452.564 296.54 452.47 296.634 452.308 296.688C451.186 297.039 450.2 297.741 449.2 298.349C448.836 298.565 448.457 298.767 448.066 298.943C448.052 298.956 448.039 298.983 448.012 298.997C448.012 299.037 448.012 299.078 448.025 299.118C439.528 304.249 431.192 309.879 421.479 312.296C421.452 312.282 421.438 312.269 421.411 312.255C419.898 311.459 417.993 311.445 416.332 311.243C414.238 311 412.157 310.784 410.063 310.595C402.12 309.852 394.163 309.434 386.192 309.204C385.408 309.177 384.625 309.177 383.841 309.164C383.841 309.083 383.841 309.015 383.855 308.934H380.464C380.464 308.934 380.464 309.042 380.45 309.096C378.005 309.056 375.56 309.029 373.101 309.015V308.934H370.413C370.71 299.55 371.953 290.248 374.168 281.121C374.168 281.067 374.168 281.013 374.195 280.959C376.168 280.783 378.154 280.662 380.167 280.635C387.219 280.513 394.284 280.621 401.336 280.635C415.481 280.648 429.625 280.662 443.77 280.675C451.632 280.675 459.495 280.689 467.344 280.702C471.383 280.702 475.422 280.702 479.475 280.702C481.502 280.702 483.515 280.702 485.541 280.702C486.257 280.702 486.987 280.675 487.703 280.729C487.905 280.743 488.324 280.851 488.54 280.824C488.581 280.824 488.594 280.824 488.635 280.824C488.567 280.702 488.5 280.554 488.432 280.297C488.473 280.486 488.567 280.648 488.648 280.824C488.77 280.824 488.851 280.864 488.878 280.918C488.824 280.932 488.783 280.959 488.729 280.972L488.743 280.999Z" fill="black"/>
<path d="M459.71 376.456C459.804 376.348 458.197 375.119 456.873 374.417C456.508 369.557 455.9 364.723 455.09 359.916C455.13 359.903 455.157 359.889 455.198 359.876C455.427 359.795 455.279 359.592 454.995 359.363C454.995 359.336 454.995 359.309 454.995 359.295C454.792 358.121 453.509 356.987 452.307 357C451.712 357 451.32 357.27 451.077 357.648C450.983 357.648 450.902 357.662 450.821 357.689C446.7 359.201 442.796 361.186 438.649 362.644C434.987 363.926 431.272 365.196 428.233 367.693C428.098 367.801 428.516 368.112 429.016 368.409C428.922 368.53 428.841 368.666 428.841 368.882C428.678 376.645 428.53 384.395 428.368 392.158C428.341 393.346 429.313 394.305 430.327 394.791C430.813 395.021 432.218 395.372 432.664 394.764C433.15 394.994 433.664 395.156 433.934 394.98C441.391 389.823 449.753 385.759 456.495 379.669C456.508 379.669 456.522 379.642 456.535 379.629C457.629 378.63 458.697 377.59 459.696 376.469L459.71 376.456ZM432.907 390.295C433.042 383.882 433.164 377.455 433.299 371.042C433.299 370.556 433.15 370.11 432.88 369.719C435.92 367.194 439.702 365.992 443.363 364.696C446.011 363.764 448.565 362.617 451.145 361.51C451.928 366.519 452.469 371.555 452.739 376.604C446.876 382.127 439.689 385.961 432.893 390.295H432.907Z" fill="black"/>
<path d="M483.444 299.3C482.661 298.598 480.972 299.3 480.242 299.678C474.123 302.824 468.084 306.118 462.113 309.547C461.559 309.871 460.208 310.843 461.018 311.559C461.775 312.248 463.518 311.586 464.22 311.181C470.178 307.752 476.23 304.457 482.35 301.311C482.931 301.014 484.241 300.002 483.458 299.3H483.444Z" fill="black"/>
<path d="M484.038 304.389C483.254 303.687 481.566 304.389 480.836 304.767C474.716 307.913 468.677 311.208 462.706 314.637C462.152 314.961 460.801 315.933 461.612 316.649C462.369 317.337 464.111 316.676 464.814 316.271C470.771 312.841 476.824 309.547 482.944 306.401C483.524 306.104 484.835 305.092 484.051 304.389H484.038Z" fill="black"/>
<path d="M484.553 309.385C483.77 308.682 482.081 309.385 481.352 309.763C475.232 312.908 469.193 316.203 463.222 319.632C462.668 319.956 461.317 320.928 462.128 321.644C462.884 322.333 464.627 321.671 465.329 321.266C471.287 317.837 477.339 314.542 483.459 311.396C484.04 311.099 485.351 310.087 484.567 309.385H484.553Z" fill="black"/>
<path d="M420.005 113.713C419.06 108.812 417.506 103.951 414.453 99.9413C413.71 98.9557 412.521 98.2536 411.332 97.9295C410.886 97.808 409.117 97.6325 409.873 98.6181C412.913 102.601 414.345 107.367 415.25 112.241C416.25 117.601 416.804 123.056 417.074 128.497C417.141 129.928 421.991 131.778 421.924 130.468C421.64 124.865 421.059 119.235 419.992 113.713H420.005Z" fill="black"/>
<path d="M429.853 111.336C429.718 110.256 424.341 110.796 424.463 111.782C425.625 120.936 426.138 130.144 425.963 139.366C425.949 140.257 431.326 140.095 431.353 138.92C431.515 129.699 431.015 120.49 429.853 111.336Z" fill="black"/>
<path d="M434.164 180.491C433.92 179.789 433.191 179.519 432.569 179.263C431.34 178.763 429.989 178.588 428.665 178.696C428.219 178.736 427.814 178.844 427.409 178.993C426.247 178.804 424.774 179.479 424.031 180.329C422.586 182.004 421.505 183.975 421.113 186.162C420.924 187.242 420.735 188.457 421.073 189.537C421.384 190.564 422.478 190.955 423.464 191.063C424.72 191.212 425.99 191.293 427.247 191.05C428.868 190.739 430.408 189.888 431.556 188.7C433.191 187.013 433.961 184.636 434.231 182.341C434.299 181.72 434.38 181.085 434.164 180.478V180.491ZM429.287 184.272C429.287 184.38 429.26 184.474 429.246 184.582C429.233 184.636 429.192 184.866 429.192 184.866C429.138 185.122 429.07 185.392 428.989 185.649C428.841 186.162 428.638 186.635 428.436 187.134C428.381 187.229 428.341 187.31 428.287 187.404C428.246 187.472 428.206 187.526 428.165 187.58C428.084 187.58 427.99 187.58 427.895 187.58C427.611 187.58 427.341 187.566 427.058 187.553C426.936 187.553 426.814 187.539 426.706 187.526C426.706 187.526 426.72 187.526 426.733 187.526C426.733 187.526 426.72 187.526 426.706 187.526C426.706 187.526 426.706 187.526 426.693 187.526C426.49 187.512 426.49 187.499 426.558 187.499C426.423 187.472 426.274 187.445 426.139 187.418C426.139 187.418 426.125 187.418 426.112 187.418C426.071 187.391 426.031 187.364 426.004 187.323C425.977 187.269 425.936 187.215 425.923 187.161C425.842 186.608 425.855 186.027 425.923 185.473C425.936 185.311 425.963 185.149 425.977 184.987C425.977 184.933 426.004 184.825 426.017 184.758C426.085 184.447 426.166 184.15 426.26 183.853C426.355 183.556 426.463 183.259 426.585 182.976C426.639 182.841 426.706 182.706 426.76 182.584C426.774 182.557 426.787 182.53 426.828 182.476C426.855 182.422 426.882 182.382 426.909 182.328C427.058 182.328 427.206 182.314 427.355 182.328C427.382 182.328 427.409 182.328 427.449 182.328C427.476 182.328 427.503 182.328 427.557 182.341C427.706 182.368 427.868 182.395 428.017 182.422C428.327 182.49 428.625 182.584 428.922 182.692C428.962 182.706 429.003 182.719 429.016 182.719C429.03 182.719 429.057 182.746 429.097 182.76C429.206 182.814 429.287 182.881 429.381 182.949C429.422 183.394 429.381 183.853 429.327 184.285L429.287 184.272Z" fill="black"/>
<path d="M426.693 187.526C426.626 187.513 426.572 187.499 426.531 187.499C426.585 187.499 426.639 187.513 426.68 187.526H426.693Z" fill="black"/>
<path d="M455.873 185.946C455.36 192.44 455.144 198.962 455.211 205.483C455.211 206.644 460.048 207.333 460.034 207.022C459.967 200.501 460.196 193.98 460.696 187.485C460.777 186.419 455.9 185.501 455.873 185.946Z" fill="black"/>
<path d="M479.04 191.266C476.176 196.491 473.568 201.865 471.231 207.36C470.826 208.318 475.622 209.723 476.203 208.345C478.54 202.85 481.134 197.49 484.011 192.252C484.444 191.455 479.796 189.902 479.04 191.266Z" fill="black"/>
<path d="M502.317 199.259C501.696 199.057 501.061 198.895 500.413 198.841C500.061 198.814 499.48 198.733 499.183 198.962C493.671 203.188 488.159 207.414 482.647 211.627C481.986 212.14 483.877 212.828 484.147 212.923C484.768 213.125 485.403 213.287 486.052 213.341C486.403 213.368 486.984 213.449 487.281 213.22C492.793 208.994 498.305 204.768 503.817 200.555C504.479 200.042 502.588 199.354 502.317 199.259Z" fill="black"/>
</svg>
