<svg width="16" height="16" viewBox="0 0 16 16" fill="none" xmlns="http://www.w3.org/2000/svg">
<g id="user/block">
<path id="Icon" d="M10 10.667L13.3334 14.0003M8.00002 9.33366C9.84097 9.33366 11.3334 7.84127 11.3334 6.00033C11.3334 4.15938 9.84097 2.66699 8.00002 2.66699C6.15907 2.66699 4.66669 4.15938 4.66669 6.00033C4.66669 7.84127 6.15907 9.33366 8.00002 9.33366ZM8.00002 9.33366C5.0545 9.33366 2.66669 11.1245 2.66669 13.3337M14 12.3337C14 13.6223 12.9554 14.667 11.6667 14.667C10.378 14.667 9.33335 13.6223 9.33335 12.3337C9.33335 11.045 10.378 10.0003 11.6667 10.0003C12.9554 10.0003 14 11.045 14 12.3337Z" stroke="white" stroke-width="1.5" stroke-linecap="round"/>
</g>
</svg>
