<svg width="16" height="16" viewBox="0 0 16 16" fill="none" xmlns="http://www.w3.org/2000/svg">
<g id="user/block">
<path id="Icon" d="M10.0003 10.667L13.3337 14.0003M8.00033 9.33366C9.84127 9.33366 11.3337 7.84127 11.3337 6.00033C11.3337 4.15938 9.84127 2.66699 8.00033 2.66699C6.15938 2.66699 4.66699 4.15938 4.66699 6.00033C4.66699 7.84127 6.15938 9.33366 8.00033 9.33366ZM8.00033 9.33366C5.05481 9.33366 2.66699 11.1245 2.66699 13.3337M14.0003 12.3337C14.0003 13.6223 12.9557 14.667 11.667 14.667C10.3783 14.667 9.33366 13.6223 9.33366 12.3337C9.33366 11.045 10.3783 10.0003 11.667 10.0003C12.9557 10.0003 14.0003 11.045 14.0003 12.3337Z" stroke="#F15146" stroke-width="1.5" stroke-linecap="round"/>
</g>
</svg>
