<svg width="20" height="20" viewBox="0 0 20 20" fill="none" xmlns="http://www.w3.org/2000/svg">
<g id="external link">
<path id="Icon" d="M16.75 8.33333C16.75 8.74755 17.0858 9.08333 17.5 9.08333C17.9142 9.08333 18.25 8.74755 18.25 8.33333H16.75ZM11.6667 1.75C11.2525 1.75 10.9167 2.08579 10.9167 2.5C10.9167 2.91421 11.2525 3.25 11.6667 3.25V1.75ZM17.3728 3.13701L18.0411 2.79652V2.79652L17.3728 3.13701ZM16.863 2.62716L17.2035 1.9589V1.9589L16.863 2.62716ZM16.8637 4.197C17.1566 3.9041 17.1566 3.42923 16.8637 3.13634C16.5708 2.84344 16.0959 2.84344 15.803 3.13634L16.8637 4.197ZM9.46967 9.46967C9.17678 9.76256 9.17678 10.2374 9.46967 10.5303C9.76256 10.8232 10.2374 10.8232 10.5303 10.5303L9.46967 9.46967ZM4.05116 17.1904L4.39166 16.5221H4.39166L4.05116 17.1904ZM2.80964 15.9488L2.14139 16.2893H2.14139L2.80964 15.9488ZM14.6904 15.9488L14.0221 15.6083L14.6904 15.9488ZM13.4488 17.1904L13.1083 16.5221L13.4488 17.1904ZM4.05116 5.30964L3.71067 4.64139L4.05116 5.30964ZM2.80964 6.55116L2.14139 6.21067L2.80964 6.55116ZM8.75 5.75C9.16421 5.75 9.5 5.41421 9.5 5C9.5 4.58579 9.16421 4.25 8.75 4.25V5.75ZM15.75 11.25C15.75 10.8358 15.4142 10.5 15 10.5C14.5858 10.5 14.25 10.8358 14.25 11.25H15.75ZM18.25 8.33333V4.36667H16.75V8.33333H18.25ZM15.6333 1.75H11.6667V3.25H15.6333V1.75ZM18.25 4.36667C18.25 4.05234 18.2506 3.7715 18.2316 3.53933C18.2119 3.2984 18.1675 3.04465 18.0411 2.79652L16.7046 3.4775C16.7053 3.47894 16.7245 3.51331 16.7366 3.66148C16.7494 3.8184 16.75 4.02759 16.75 4.36667H18.25ZM15.6333 3.25C15.9724 3.25 16.1816 3.25058 16.3385 3.2634C16.4867 3.27551 16.5211 3.29469 16.5225 3.29541L17.2035 1.9589C16.9553 1.83247 16.7016 1.78807 16.4607 1.76839C16.2285 1.74942 15.9477 1.75 15.6333 1.75V3.25ZM18.0411 2.79652C17.8573 2.43588 17.5641 2.14266 17.2035 1.9589L16.5225 3.29541C16.6009 3.33536 16.6646 3.3991 16.7046 3.4775L18.0411 2.79652ZM15.803 3.13634L9.46967 9.46967L10.5303 10.5303L16.8637 4.197L15.803 3.13634ZM10.4545 16.75H7.04545V18.25H10.4545V16.75ZM3.25 12.9545V9.54545H1.75V12.9545H3.25ZM7.04545 16.75C6.23755 16.75 5.67673 16.7494 5.24063 16.7138C4.81328 16.6789 4.57216 16.6141 4.39166 16.5221L3.71067 17.8586C4.13787 18.0763 4.59837 18.1663 5.11848 18.2088C5.62983 18.2506 6.2623 18.25 7.04545 18.25V16.75ZM1.75 12.9545C1.75 13.7377 1.74942 14.3702 1.7912 14.8815C1.83369 15.4016 1.92371 15.8621 2.14139 16.2893L3.4779 15.6083C3.38593 15.4278 3.32113 15.1867 3.28621 14.7594C3.25058 14.3233 3.25 13.7624 3.25 12.9545H1.75ZM4.39166 16.5221C3.99823 16.3216 3.67836 16.0018 3.4779 15.6083L2.14139 16.2893C2.48566 16.965 3.035 17.5143 3.71067 17.8586L4.39166 16.5221ZM14.25 12.9545C14.25 13.7624 14.2494 14.3233 14.2138 14.7594C14.1789 15.1867 14.1141 15.4278 14.0221 15.6083L15.3586 16.2893C15.5763 15.8621 15.6663 15.4016 15.7088 14.8815C15.7506 14.3702 15.75 13.7377 15.75 12.9545H14.25ZM10.4545 18.25C11.2377 18.25 11.8702 18.2506 12.3815 18.2088C12.9016 18.1663 13.3621 18.0763 13.7893 17.8586L13.1083 16.5221C12.9278 16.6141 12.6867 16.6789 12.2594 16.7138C11.8233 16.7494 11.2624 16.75 10.4545 16.75V18.25ZM14.0221 15.6083C13.8216 16.0018 13.5018 16.3216 13.1083 16.5221L13.7893 17.8586C14.465 17.5143 15.0143 16.965 15.3586 16.2893L14.0221 15.6083ZM7.04545 4.25C6.2623 4.25 5.62983 4.24942 5.11848 4.2912C4.59837 4.33369 4.13787 4.42371 3.71067 4.64139L4.39166 5.9779C4.57216 5.88593 4.81328 5.82113 5.24062 5.78621C5.67673 5.75058 6.23755 5.75 7.04545 5.75V4.25ZM3.25 9.54545C3.25 8.73755 3.25058 8.17673 3.28621 7.74062C3.32113 7.31328 3.38593 7.07216 3.4779 6.89166L2.14139 6.21067C1.92371 6.63787 1.83369 7.09837 1.7912 7.61848C1.74942 8.12983 1.75 8.7623 1.75 9.54545H3.25ZM3.71067 4.64139C3.035 4.98566 2.48566 5.535 2.14139 6.21067L3.4779 6.89166C3.67836 6.49823 3.99823 6.17836 4.39166 5.9779L3.71067 4.64139ZM7.04545 5.75H8.75V4.25H7.04545V5.75ZM14.25 11.25V12.9545H15.75V11.25H14.25Z" fill="black"/>
</g>
</svg>
