<svg width="32" height="32" viewBox="0 0 32 32" fill="none" xmlns="http://www.w3.org/2000/svg">
  <path d="M26.3762 4.12204L27.2672 3.66805V3.66805L26.3762 4.12204ZM22.4002 2.66602V3.66602H22.4002L22.4002 2.66602ZM25.2108 2.95666L25.6648 2.06566L25.6648 2.06566L25.2108 2.95666ZM25.2108 29.042L25.6648 29.933H25.6648L25.2108 29.042ZM26.3762 27.8767L27.2672 28.3306V28.3306L26.3762 27.8767ZM6.78952 29.042L6.33553 29.933L6.33553 29.933L6.78952 29.042ZM5.62415 27.8767L6.51515 27.4227H6.51515L5.62415 27.8767ZM6.11455 11.2182L5.40745 10.5111H5.40745L6.11455 11.2182ZM13.8858 3.44706L13.1787 2.73995V2.73995L13.8858 3.44706ZM9.60016 30.3327H22.4002V28.3327H9.60016V30.3327ZM27.6668 25.066V6.93269H25.6668V25.066H27.6668ZM27.6668 6.93269C27.6668 6.20245 27.6676 5.59463 27.6272 5.09979C27.5858 4.59328 27.4963 4.11773 27.2672 3.66805L25.4852 4.57603C25.5467 4.69678 25.6025 4.87982 25.6338 5.26265C25.666 5.65716 25.6668 6.16945 25.6668 6.93269H27.6668ZM22.4002 3.66602C23.1634 3.66602 23.6757 3.66679 24.0702 3.69903C24.453 3.7303 24.6361 3.78615 24.7568 3.84767L25.6648 2.06566C25.2151 1.83653 24.7396 1.74705 24.2331 1.70567C23.7382 1.66524 23.1304 1.66602 22.4002 1.66602L22.4002 3.66602ZM27.2672 3.66805C26.9156 2.97812 26.3547 2.41719 25.6648 2.06566L24.7568 3.84767C25.0704 4.00746 25.3254 4.26243 25.4852 4.57603L27.2672 3.66805ZM22.4002 30.3327C23.1304 30.3327 23.7382 30.3335 24.2331 30.293C24.7396 30.2516 25.2151 30.1622 25.6648 29.933L24.7568 28.151C24.6361 28.2125 24.453 28.2684 24.0702 28.2997C23.6757 28.3319 23.1634 28.3327 22.4002 28.3327V30.3327ZM25.6668 25.066C25.6668 25.8293 25.666 26.3415 25.6338 26.736C25.6025 27.1189 25.5467 27.3019 25.4852 27.4227L27.2672 28.3306C27.4963 27.881 27.5858 27.4054 27.6272 26.8989C27.6676 26.4041 27.6668 25.7962 27.6668 25.066H25.6668ZM25.6648 29.933C26.3547 29.5815 26.9157 29.0206 27.2672 28.3306L25.4852 27.4227C25.3254 27.7363 25.0704 27.9912 24.7568 28.151L25.6648 29.933ZM9.60016 28.3327C8.83694 28.3327 8.32465 28.3319 7.93014 28.2997C7.5473 28.2684 7.36425 28.2125 7.24351 28.151L6.33553 29.933C6.78522 30.1622 7.26077 30.2516 7.76728 30.293C8.26212 30.3335 8.86994 30.3327 9.60016 30.3327V28.3327ZM4.3335 25.066C4.3335 25.7963 4.33272 26.4041 4.37315 26.8989C4.41453 27.4054 4.50401 27.881 4.73314 28.3306L6.51515 27.4227C6.45363 27.3019 6.39778 27.1189 6.36651 26.736C6.33427 26.3415 6.3335 25.8293 6.3335 25.066H4.3335ZM7.24352 28.151C6.92991 27.9912 6.67494 27.7363 6.51515 27.4227L4.73314 28.3306C5.08468 29.0206 5.6456 29.5815 6.33553 29.933L7.24352 28.151ZM4.3335 13.1039V25.066H6.3335V13.1039H4.3335ZM22.4002 1.66602H15.7714V3.66602H22.4002V1.66602ZM6.82166 11.9253L14.5929 4.15417L13.1787 2.73995L5.40745 10.5111L6.82166 11.9253ZM6.66683 12.9994H13.2309V10.9994H6.66683V12.9994ZM15.6668 10.5634V3.99935H13.6668V10.5634H15.6668ZM13.2309 12.9994C14.5763 12.9994 15.6668 11.9087 15.6668 10.5634H13.6668C13.6668 10.8042 13.4717 10.9994 13.2309 10.9994V12.9994ZM15.7714 1.66602C15.2423 1.66602 14.725 1.78038 14.2526 1.99535L15.081 3.81572C15.2958 3.71797 15.5309 3.66602 15.7714 3.66602V1.66602ZM14.2526 1.99535C13.8567 2.17552 13.4922 2.42644 13.1787 2.73995L14.5929 4.15417C14.7354 4.01164 14.901 3.89763 15.081 3.81572L14.2526 1.99535ZM15.6668 3.99935V2.90553H13.6668V3.99935H15.6668ZM6.3335 13.1039C6.3335 12.8634 6.38544 12.6283 6.48318 12.4135L4.66279 11.5852C4.44785 12.0575 4.3335 12.5748 4.3335 13.1039H6.3335ZM6.48318 12.4135C6.5651 12.2335 6.67912 12.0679 6.82166 11.9253L5.40745 10.5111C5.09391 10.8247 4.84298 11.1892 4.66279 11.5852L6.48318 12.4135ZM6.66683 10.9994H5.57299V12.9994H6.66683V10.9994Z" fill="#5D55F6"/>
</svg>
