<svg width="30" height="28" viewBox="0 0 30 28" fill="none" xmlns="http://www.w3.org/2000/svg">
<path d="M26.2191 18.3273L25.3344 18.7935H25.3344L26.2191 18.3273ZM20.649 7.75682L21.5337 7.29064V7.29064L20.649 7.75682ZM9.35161 7.75683L8.46692 7.29065L9.35161 7.75683ZM3.7816 18.3273L4.66629 18.7935L3.7816 18.3273ZM16.6918 2.02782L17.1022 1.11591V1.11591L16.6918 2.02782ZM13.3089 2.02782L13.7193 2.93973V2.93973L13.3089 2.02782ZM26.6646 26.3236L27.2176 27.1568H27.2176L26.6646 26.3236ZM28.3071 23.8019L27.319 23.648L28.3071 23.8019ZM3.33605 26.3236L2.78309 27.1568H2.78309L3.33605 26.3236ZM1.69356 23.8019L2.68165 23.6481L1.69356 23.8019ZM16.0003 10.9954C15.9978 10.4431 15.5481 9.99737 14.9958 9.99985C14.4436 10.0023 13.9979 10.452 14.0003 11.0043L16.0003 10.9954ZM14.0302 17.6709C14.0327 18.2232 14.4824 18.6689 15.0347 18.6664C15.587 18.6639 16.0327 18.2142 16.0302 17.6619L14.0302 17.6709ZM16.0003 21.6665C16.0003 21.1142 15.5526 20.6665 15.0003 20.6665C14.448 20.6665 14.0003 21.1142 14.0003 21.6665H16.0003ZM14.0003 21.6798C14.0003 22.2321 14.448 22.6798 15.0003 22.6798C15.5526 22.6798 16.0003 22.2321 16.0003 21.6798H14.0003ZM9.43031 27.9998H20.5703V25.9998H9.43031V27.9998ZM27.1037 17.8611L21.5337 7.29064L19.7644 8.223L25.3344 18.7935L27.1037 17.8611ZM8.46692 7.29065L2.8969 17.8611L4.66629 18.7935L10.2363 8.223L8.46692 7.29065ZM21.5337 7.29064C20.6342 5.5835 19.9273 4.23975 19.2873 3.25941C18.6529 2.28761 17.9875 1.51435 17.1022 1.11591L16.2814 2.93973C16.6262 3.09488 17.0304 3.46099 17.6126 4.35272C18.1891 5.23591 18.8458 6.47987 19.7644 8.223L21.5337 7.29064ZM10.2363 8.223C11.1548 6.47987 11.8115 5.23591 12.3881 4.35272C12.9702 3.46099 13.3745 3.09488 13.7193 2.93973L12.8985 1.11591C12.0131 1.51435 11.3478 2.28761 10.7134 3.25941C10.0734 4.23975 9.36648 5.58351 8.46692 7.29065L10.2363 8.223ZM17.1022 1.11591C15.7707 0.516703 14.23 0.516703 12.8985 1.11591L13.7193 2.93973C14.5288 2.57543 15.4719 2.57543 16.2814 2.93973L17.1022 1.11591ZM20.5703 27.9998C22.2436 27.9998 23.564 28.0007 24.5907 27.9116C25.6139 27.8227 26.496 27.6357 27.2176 27.1568L26.1116 25.4904C25.8144 25.6877 25.341 25.8389 24.4177 25.9191C23.498 25.9989 22.2807 25.9998 20.5703 25.9998V27.9998ZM25.3344 18.7935C26.1004 20.2473 26.6407 21.2748 26.9739 22.0844C27.3082 22.8965 27.3671 23.339 27.319 23.648L29.2952 23.9558C29.4288 23.0977 29.2003 22.2387 28.8234 21.3231C28.4455 20.4051 27.8509 19.279 27.1037 17.8611L25.3344 18.7935ZM27.2176 27.1568C28.3319 26.4173 29.0916 25.2633 29.2952 23.9558L27.319 23.648C27.2052 24.3788 26.7767 25.0491 26.1116 25.4904L27.2176 27.1568ZM9.43031 25.9998C7.72 25.9998 6.50268 25.9989 5.58295 25.9191C4.65962 25.8389 4.1863 25.6877 3.88901 25.4904L2.78309 27.1568C3.5047 27.6357 4.38672 27.8227 5.40991 27.9116C6.43668 28.0007 7.75705 27.9998 9.43031 27.9998V25.9998ZM2.8969 17.8611C2.14978 19.279 1.55516 20.4051 1.17727 21.3231C0.800394 22.2387 0.57186 23.0977 0.705464 23.9558L2.68165 23.6481C2.63352 23.339 2.69242 22.8965 3.0267 22.0844C3.35997 21.2748 3.90023 20.2473 4.66629 18.7935L2.8969 17.8611ZM3.88901 25.4904C3.22396 25.0491 2.79543 24.3788 2.68165 23.6481L0.705464 23.9558C0.909061 25.2633 1.66873 26.4173 2.78309 27.1568L3.88901 25.4904ZM14.0003 11.0043L14.0302 17.6709L16.0302 17.6619L16.0003 10.9954L14.0003 11.0043ZM14.0003 21.6665V21.6798H16.0003V21.6665H14.0003Z" fill="#F04438"/>
</svg>
