<svg width="48" height="48" viewBox="0 0 48 48" fill="none" xmlns="http://www.w3.org/2000/svg">
<rect width="48" height="48" rx="24" fill="#F9F8FB"/>
<path d="M12.9731 37.9401L13.4271 37.0491H13.4271L12.9731 37.9401ZM10.0596 35.0266L10.9506 34.5727H10.9506L10.0596 35.0266ZM35.0263 10.06L34.5723 10.951V10.951L35.0263 10.06ZM37.9397 12.9734L37.0487 13.4274V13.4274L37.9397 12.9734ZM12.9731 10.06L13.4271 10.951H13.4271L12.9731 10.06ZM10.0596 12.9734L10.9506 13.4274V13.4274L10.0596 12.9734ZM37.6663 24C37.6663 24.5523 38.1141 25 38.6663 25C39.2186 25 39.6663 24.5523 39.6663 24H37.6663ZM23.9997 39.6667C24.552 39.6667 24.9997 39.219 24.9997 38.6667C24.9997 38.1144 24.552 37.6667 23.9997 37.6667V39.6667ZM29.333 29.6667C28.7807 29.6667 28.333 30.1144 28.333 30.6667C28.333 31.219 28.7807 31.6667 29.333 31.6667V29.6667ZM32.1359 32.023L31.315 31.452L32.1359 32.023ZM35.5608 36.4473C35.8078 35.9533 35.6075 35.3526 35.1136 35.1056C34.6196 34.8586 34.0189 35.0588 33.7719 35.5528L35.5608 36.4473ZM31.4993 23.8333C30.9471 23.8333 30.4993 24.281 30.4993 24.8333C30.4993 25.3856 30.9471 25.8333 31.4993 25.8333V23.8333ZM32.4993 25.8333C33.0516 25.8333 33.4993 25.3856 33.4993 24.8333C33.4993 24.281 33.0516 23.8333 32.4993 23.8333V25.8333ZM31.4993 24.8333C30.9471 24.8333 30.4993 25.281 30.4993 25.8333C30.4993 26.3856 30.9471 26.8333 31.4993 26.8333V24.8333ZM32.4993 26.8333C33.0516 26.8333 33.4993 26.3856 33.4993 25.8333C33.4993 25.281 33.0516 24.8333 32.4993 24.8333V26.8333ZM9.33301 17.6667C8.78072 17.6667 8.33301 18.1144 8.33301 18.6667C8.33301 19.219 8.78072 19.6667 9.33301 19.6667V17.6667ZM38.6663 19.6667C39.2186 19.6667 39.6663 19.219 39.6663 18.6667C39.6663 18.1144 39.2186 17.6667 38.6663 17.6667V19.6667ZM15.6663 14.6667C15.6663 14.1144 15.2186 13.6667 14.6663 13.6667C14.1141 13.6667 13.6663 14.1144 13.6663 14.6667H15.6663ZM19.6663 14.6667C19.6663 14.1144 19.2186 13.6667 18.6663 13.6667C18.1141 13.6667 17.6663 14.1144 17.6663 14.6667H19.6663ZM23.6663 14.6667C23.6663 14.1144 23.2186 13.6667 22.6663 13.6667C22.1141 13.6667 21.6663 14.1144 21.6663 14.6667H23.6663ZM13.6663 14.68C13.6663 15.2323 14.1141 15.68 14.6663 15.68C15.2186 15.68 15.6663 15.2323 15.6663 14.68H13.6663ZM17.6663 14.68C17.6663 15.2323 18.1141 15.68 18.6663 15.68C19.2186 15.68 19.6663 15.2323 19.6663 14.68H17.6663ZM21.6663 14.68C21.6663 15.2323 22.1141 15.68 22.6663 15.68C23.2186 15.68 23.6663 15.2323 23.6663 14.68H21.6663ZM19.9997 10.3334H27.9997V8.33337H19.9997V10.3334ZM10.333 28V20H8.33301V28H10.333ZM19.9997 37.6667C18.1163 37.6667 16.764 37.6659 15.7025 37.5792C14.6526 37.4934 13.9756 37.3286 13.4271 37.0491L12.5191 38.8311C13.3966 39.2782 14.3661 39.4767 15.5396 39.5726C16.7014 39.6675 18.1493 39.6667 19.9997 39.6667V37.6667ZM8.33301 28C8.33301 29.8504 8.33223 31.2983 8.42716 32.4601C8.52304 33.6336 8.72151 34.6031 9.16862 35.4806L10.9506 34.5727C10.6711 34.0241 10.5063 33.3471 10.4205 32.2973C10.3338 31.2357 10.333 29.8834 10.333 28H8.33301ZM13.4271 37.0491C12.3608 36.5058 11.4939 35.6389 10.9506 34.5727L9.16862 35.4806C9.90365 36.9232 11.0765 38.0961 12.5191 38.8311L13.4271 37.0491ZM27.9997 10.3334C29.883 10.3334 31.2354 10.3342 32.2969 10.4209C33.3467 10.5067 34.0237 10.6715 34.5723 10.951L35.4803 9.16899C34.6028 8.72188 33.6333 8.5234 32.4598 8.42752C31.2979 8.3326 29.85 8.33337 27.9997 8.33337V10.3334ZM39.6663 20C39.6663 18.1497 39.6671 16.7018 39.5722 15.54C39.4763 14.3664 39.2778 13.397 38.8307 12.5194L37.0487 13.4274C37.3282 13.976 37.4931 14.653 37.5788 15.7028C37.6656 16.7643 37.6663 18.1167 37.6663 20H39.6663ZM34.5723 10.951C35.6385 11.4943 36.5054 12.3612 37.0487 13.4274L38.8307 12.5194C38.0957 11.0769 36.9228 9.90402 35.4803 9.16899L34.5723 10.951ZM19.9997 8.33337C18.1493 8.33337 16.7014 8.3326 15.5396 8.42752C14.3661 8.5234 13.3966 8.72188 12.5191 9.16899L13.4271 10.951C13.9756 10.6715 14.6526 10.5067 15.7025 10.4209C16.764 10.3342 18.1163 10.3334 19.9997 10.3334V8.33337ZM10.333 20C10.333 18.1167 10.3338 16.7643 10.4205 15.7028C10.5063 14.653 10.6711 13.976 10.9506 13.4274L9.16862 12.5194C8.72151 13.397 8.52304 14.3664 8.42716 15.54C8.33223 16.7018 8.33301 18.1497 8.33301 20H10.333ZM12.5191 9.16899C11.0765 9.90402 9.90365 11.0769 9.16862 12.5194L10.9506 13.4274C11.4939 12.3612 12.3608 11.4943 13.4271 10.951L12.5191 9.16899ZM37.6663 20V24H39.6663V20H37.6663ZM23.9997 37.6667H19.9997V39.6667H23.9997V37.6667ZM29.333 31.6667H31.5191V29.6667H29.333V31.6667ZM31.315 31.452C30.4192 32.7399 29.6663 34.4658 29.6663 36H31.6663C31.6663 35.0292 32.1863 33.7018 32.9569 32.594L31.315 31.452ZM29.6663 36C29.6663 37.5054 30.714 38.6098 32.0668 38.7451C33.4165 38.88 34.7598 38.0491 35.5608 36.4473L33.7719 35.5528C33.2395 36.6177 32.5828 36.7867 32.2658 36.755C31.952 36.7236 31.6663 36.4947 31.6663 36H29.6663ZM31.5191 31.6667C31.4353 31.6667 31.3638 31.6352 31.3206 31.6022C31.3014 31.5875 31.2902 31.5747 31.2847 31.5674C31.2792 31.5602 31.2774 31.5562 31.2774 31.556C31.2772 31.5557 31.2773 31.5557 31.2774 31.5561C31.2774 31.5563 31.2775 31.5564 31.2775 31.5566C31.2775 31.5566 31.2775 31.5567 31.2775 31.5567C31.2776 31.5567 31.2776 31.5568 31.2776 31.5568C31.2776 31.5568 31.2776 31.5568 31.2776 31.5568C31.2776 31.5568 31.2776 31.5568 31.2776 31.5568C31.2776 31.5568 31.2776 31.5567 31.2775 31.5567C31.2775 31.5567 31.2775 31.5566 31.2775 31.5564C31.2775 31.5562 31.2774 31.5557 31.2774 31.5551C31.2773 31.5539 31.2772 31.5517 31.2774 31.5484C31.278 31.536 31.2832 31.4976 31.315 31.452L32.9569 32.594C33.3737 31.9947 33.338 31.2743 33.1086 30.7518C32.8773 30.2253 32.3356 29.6667 31.5191 29.6667V31.6667ZM32.333 25.3334C32.333 25.5175 32.1838 25.6667 31.9997 25.6667V27.6667C33.2883 27.6667 34.333 26.622 34.333 25.3334H32.333ZM31.9997 25.6667C31.8156 25.6667 31.6663 25.5175 31.6663 25.3334H29.6663C29.6663 26.622 30.711 27.6667 31.9997 27.6667V25.6667ZM31.6663 25.3334C31.6663 25.1493 31.8156 25 31.9997 25V23C30.711 23 29.6663 24.0447 29.6663 25.3334H31.6663ZM31.9997 25C32.1838 25 32.333 25.1493 32.333 25.3334H34.333C34.333 24.0447 33.2883 23 31.9997 23V25ZM31.4993 25.8333H32.4993V23.8333H31.4993V25.8333ZM31.4993 26.8333H32.4993V24.8333H31.4993V26.8333ZM9.33301 19.6667H38.6663V17.6667H9.33301V19.6667ZM13.6663 14.6667V14.68H15.6663V14.6667H13.6663ZM17.6663 14.6667V14.68H19.6663V14.6667H17.6663ZM21.6663 14.6667V14.68H23.6663V14.6667H21.6663Z" fill="#574EFA"/>
</svg>
