<svg width="48" height="48" viewBox="0 0 48 48" fill="none" xmlns="http://www.w3.org/2000/svg">
<rect width="48" height="48" rx="24" fill="#F9F8FB"/>
<path d="M21.3333 24H23.5194C24.1397 24 24.4905 24.847 24.1362 25.3563C23.3031 26.5541 22.6667 28.0808 22.6667 29.3333C22.6667 31.3333 25.3333 32 26.6667 29.3333M23.4997 18.1666H24.4997M23.4997 19.1666H24.4997M36 24C36 30.6274 30.6274 36 24 36H12.9655C12.4991 36 12.1768 35.5333 12.3421 35.0971L13.5336 31.9523C13.8392 31.1457 13.7177 30.2499 13.323 29.4829C12.4774 27.8395 12 25.9755 12 24C12 17.3726 17.3726 12 24 12C30.6274 12 36 17.3726 36 24ZM25.3333 18.6667C25.3333 19.403 24.7364 20 24 20C23.2636 20 22.6667 19.403 22.6667 18.6667C22.6667 17.9303 23.2636 17.3333 24 17.3333C24.7364 17.3333 25.3333 17.9303 25.3333 18.6667Z" stroke="#574EFA" stroke-width="2" stroke-linecap="round"/>
</svg>
