<?xml version="1.0" encoding="utf-8"?>
<svg viewBox="0 466 1920 551.13" xmlns="http://www.w3.org/2000/svg">
  <defs>
    <linearGradient id="paint0_linear_11_71772" x1="-5.60723e-06" y1="703.101" x2="1920.01" y2="691.713" gradientUnits="userSpaceOnUse">
      <stop stop-color="#A532FF"/>
      <stop offset="1" stop-color="#2C58C8"/>
    </linearGradient>
  </defs>
  <path fill-rule="evenodd" clip-rule="evenodd" d="M1719.89 573.486L1661 466L1602.11 573.486H1630.4L1571.8 680.445H1607.6L1553.61 778.973H1324.92L1262.38 762.023L1253.43 729.681L1275.47 701.128L1239.39 678.889L1239.24 678.328L1269.28 639.321L1220.02 608.944L1219.78 608.172L1255.16 562.29L1198.29 544.12H1198.15L1111.46 543.98H1111.38H1072V598.491L1084.16 587.617L1096.32 598.491L1106.28 589.581L1116.24 598.491L1125.89 589.862L1135.93 634.27L1133.18 634.48L1124.56 626.763L1114.59 635.673L1104.63 626.763L1092.47 637.637L1080.31 626.763V639.04V656.158H1140.95L1144.64 671.102L1122.75 671.382L1149.19 690.815L1152.56 705.267C1130.99 718.316 1125.26 743.783 1137.81 763.075L1117.84 778.973H809.694L809.849 760.636L816.484 754.86L827.852 770.017C828.511 770.896 829.307 771.595 830.183 772.108C832.46 773.653 835.467 773.957 838.165 772.64L859.274 762.333C863.402 760.318 865.245 755.27 863.39 751.058C861.535 746.847 856.685 745.066 852.557 747.082L836.719 754.815L828.761 744.205C831.958 739.778 832.481 733.649 829.627 728.711L810.687 695.935L818.62 694.704L831.614 706.797C834.35 709.343 838.514 709.082 840.916 706.215C843.318 703.347 843.047 698.959 840.312 696.413L825.161 682.313C824.053 681.282 822.712 680.711 821.348 680.587C820.598 680.42 819.809 680.387 819.007 680.512L799.141 683.594C798.037 683.765 797.038 684.215 796.198 684.865C794.03 684.985 791.848 685.662 789.852 686.943C788.61 687.739 787.533 688.71 786.633 689.805C785.422 690.43 784.389 691.454 783.734 692.809L775.587 709.653L758.763 713.919C755.117 714.844 752.808 718.572 753.607 722.246C754.406 725.92 758.009 728.149 761.656 727.225L781.07 722.301C782.034 722.057 782.905 721.616 783.649 721.032C784.6 720.402 785.405 719.505 785.949 718.379L788.878 712.325L806.1 742.129L797.428 749.679C796.897 750.141 796.436 750.66 796.047 751.219C794.763 752.618 793.973 754.48 793.956 756.529L793.766 778.973H475.957L451.961 735.175H478.247L435.214 656.631H455.989L412.744 577.701L369.5 656.631H390.274L347.241 735.175H373.527L350.665 776.904L313.405 708.897H349.201L290.6 601.938H318.89L260 494.452L201.11 601.938H229.4L170.799 708.897H206.595L168.201 778.973H0V1017.13H1920V778.973H1768.39L1714.4 680.445H1750.2L1691.6 573.486H1719.89ZM1174.54 778.973H1232.12L1188.64 750.588L1174.54 778.973ZM1175.85 572.285C1172.4 572.285 1169.61 569.697 1169.61 566.505C1169.61 563.312 1172.4 560.724 1175.85 560.724C1179.3 560.724 1182.09 563.312 1182.09 566.505C1182.09 569.697 1179.3 572.285 1175.85 572.285ZM778.747 687.614C787.994 687.614 795.49 679.715 795.49 669.971C795.49 660.226 787.994 652.327 778.747 652.327C769.5 652.327 762.003 660.226 762.003 669.971C762.003 679.715 769.5 687.614 778.747 687.614ZM847.865 688.535C847.857 685.546 850.151 683.13 852.989 683.138L871.299 683.191C874.137 683.199 876.444 685.629 876.452 688.618C876.46 691.607 874.165 694.024 871.327 694.015L853.018 693.962C850.18 693.954 847.872 691.524 847.865 688.535ZM857.252 700.461C854.414 700.452 852.119 702.869 852.127 705.858C852.135 708.847 854.442 711.277 857.28 711.285L875.589 711.338C878.428 711.346 880.722 708.93 880.714 705.941C880.706 702.952 878.399 700.522 875.561 700.514L857.252 700.461ZM856.997 723.182C856.989 720.193 859.284 717.776 862.122 717.784L880.431 717.837C883.269 717.845 885.576 720.275 885.584 723.264C885.592 726.253 883.298 728.67 880.46 728.662L862.15 728.609C859.312 728.6 857.005 726.171 856.997 723.182Z" fill="url(#paint0_linear_11_71772)"/>
</svg>