<svg xmlns="http://www.w3.org/2000/svg"
  xmlns:xlink="http://www.w3.org/1999/xlink" style="display: none;">
  <symbol id="information" viewBox="0 0 24 24">
    <path id="Icon" d="M12 17V11M12 8V7.99M23 12C23 18.0751 18.0751 23 12 23C5.92487 23 1 18.0751 1 12C1 5.92487 5.92487 1 12 1C18.0751 1 23 5.92487 23 12Z" stroke-width="2" stroke-linecap="round" />
  </symbol>
  <symbol id="globe" viewBox="0 0 24 24">
    <path id="Icon" d="M12 23C18.0751 23 23 18.0751 23 12C23 5.92487 18.0751 1 12 1M12 23C5.92487 23 1 18.0751 1 12C1 5.92487 5.92487 1 12 1M12 23C14.2091 23 16 18.0751 16 12C16 5.92487 14.2091 1 12 1M12 23C9.79086 23 8 18.0751 8 12C8 5.92487 9.79086 1 12 1M2 8H22M2 15H22" stroke-width="2" stroke-linecap="round" />
  </symbol>
  <symbol id="burger-menu-big" viewBox="0 0 24 24">
    <path id="Icon" d="M6 8H18M6 12H18M6 16H18" stroke-width="2" stroke-linecap="round" />
  </symbol>
  <symbol id="bento_menu" viewBox="0 0 24 24" fill="none">
    <path d="M2 3.6C2 3.03995 2 2.75992 2.10899 2.54601C2.20487 2.35785 2.35785 2.20487 2.54601 2.10899C2.75992 2 3.03995 2 3.6 2H8.4C8.96005 2 9.24008 2 9.45399 2.10899C9.64215 2.20487 9.79513 2.35785 9.89101 2.54601C10 2.75992 10 3.03995 10 3.6V8.4C10 8.96005 10 9.24008 9.89101 9.45399C9.79513 9.64215 9.64215 9.79513 9.45399 9.89101C9.24008 10 8.96005 10 8.4 10H3.6C3.03995 10 2.75992 10 2.54601 9.89101C2.35785 9.79513 2.20487 9.64215 2.10899 9.45399C2 9.24008 2 8.96005 2 8.4V3.6Z" stroke-width="2"/>
    <path d="M2 15.6C2 15.0399 2 14.7599 2.10899 14.546C2.20487 14.3578 2.35785 14.2049 2.54601 14.109C2.75992 14 3.03995 14 3.6 14H8.4C8.96005 14 9.24008 14 9.45399 14.109C9.64215 14.2049 9.79513 14.3578 9.89101 14.546C10 14.7599 10 15.0399 10 15.6V20.4C10 20.9601 10 21.2401 9.89101 21.454C9.79513 21.6422 9.64215 21.7951 9.45399 21.891C9.24008 22 8.96005 22 8.4 22H3.6C3.03995 22 2.75992 22 2.54601 21.891C2.35785 21.7951 2.20487 21.6422 2.10899 21.454C2 21.2401 2 20.9601 2 20.4V15.6Z" stroke-width="2"/>
    <path d="M14 3.6C14 3.03995 14 2.75992 14.109 2.54601C14.2049 2.35785 14.3578 2.20487 14.546 2.10899C14.7599 2 15.0399 2 15.6 2H20.4C20.9601 2 21.2401 2 21.454 2.10899C21.6422 2.20487 21.7951 2.35785 21.891 2.54601C22 2.75992 22 3.03995 22 3.6V8.4C22 8.96005 22 9.24008 21.891 9.45399C21.7951 9.64215 21.6422 9.79513 21.454 9.89101C21.2401 10 20.9601 10 20.4 10H15.6C15.0399 10 14.7599 10 14.546 9.89101C14.3578 9.79513 14.2049 9.64215 14.109 9.45399C14 9.24008 14 8.96005 14 8.4V3.6Z" stroke-width="2"/>
    <path d="M14 15.6C14 15.0399 14 14.7599 14.109 14.546C14.2049 14.3578 14.3578 14.2049 14.546 14.109C14.7599 14 15.0399 14 15.6 14H20.4C20.9601 14 21.2401 14 21.454 14.109C21.6422 14.2049 21.7951 14.3578 21.891 14.546C22 14.7599 22 15.0399 22 15.6V20.4C22 20.9601 22 21.2401 21.891 21.454C21.7951 21.6422 21.6422 21.7951 21.454 21.891C21.2401 22 20.9601 22 20.4 22H15.6C15.0399 22 14.7599 22 14.546 21.891C14.3578 21.7951 14.2049 21.6422 14.109 21.454C14 21.2401 14 20.9601 14 20.4V15.6Z" stroke-width="2"/>
  </symbol>
  <symbol id="chevron_down" viewBox="0 0 24 24">
    <path id="Icon" d="M18 10L12.7071 15.2929C12.3166 15.6834 11.6834 15.6834 11.2929 15.2929L6 10" stroke-width="2" stroke-linecap="round" />
  </symbol>
  <symbol id="chevron_up" viewBox="0 0 16 16">
    <path d="M4 9.33335L7.5286 5.80476C7.78894 5.54441 8.21106 5.54441 8.4714 5.80476L12 9.33335" stroke-width="1.5" stroke-linecap="round"/>
  </symbol>
  <symbol id="arrow_left" viewBox="0 0 24 24">
    <path id="Icon" d="M19.0001 12H6.00009M11.0001 6L5.7072 11.2929C5.31668 11.6834 5.31668 12.3166 5.7072 12.7071L11.0001 18" stroke-width="2" stroke-linecap="round" />
  </symbol>
  <symbol id="arrow_right" viewBox="0 0 20 20">
    <path d="M4.16669 10H15M10.8334 5L15.2441 9.41074C15.5695 9.73618 15.5695 10.2638 15.2441 10.5893L10.8334 15" stroke-width="1.67" stroke-linecap="round"/>
  </symbol>
  <symbol id="square_checked" viewBox="0 0 24 24">
    <path fill="#574efa" style="fill: var(--color1, #574efa)" d="M6 0h12c3.314 0 6 2.686 6 6v12c0 3.314-2.686 6-6 6h-12c-3.314 0-6-2.686-6-6v-12c0-3.314 2.686-6 6-6z"></path>
    <path fill="none" stroke="#fff" style="stroke: var(--color2, #fff)" stroke-linejoin="miter" stroke-linecap="round" stroke-miterlimit="4" stroke-width="2.0040" d="M16.8 9.6l-6.176 6.176c-0.234 0.234-0.614 0.234-0.849 0l-2.576-2.576"></path>
  </symbol>
  <symbol id="square_uncheck" viewBox="0 0 24 24">
    <path fill="#fff" style="fill: var(--color1, #fff)" d="M6 1.2h12c2.651 0 4.8 2.149 4.8 4.8v12c0 2.651-2.149 4.8-4.8 4.8h-12c-2.651 0-4.8-2.149-4.8-4.8v-12c0-2.651 2.149-4.8 4.8-4.8z"></path>
    <path fill="none" stroke="#dae0e6" style="stroke: var(--color2, #dae0e6)" stroke-linejoin="miter" stroke-linecap="butt" stroke-miterlimit="4" stroke-width="2.4" d="M6 1.2h12c2.651 0 4.8 2.149 4.8 4.8v12c0 2.651-2.149 4.8-4.8 4.8h-12c-2.651 0-4.8-2.149-4.8-4.8v-12c0-2.651 2.149-4.8 4.8-4.8z"></path>
  </symbol>
  <symbol id="close_cross" width="24" height="24" viewBox="0 0 24 24" fill="none">
    <path id="Icon" d="M18 6L6 18M18 18L6 6.00001" stroke-width="2" stroke-linecap="round" />
  </symbol>
  <symbol id="check" viewBox="0 0 24 24" fill="none">
    <path id="Icon" d="M20 7L9.70711 17.2929C9.31658 17.6834 8.68342 17.6834 8.29289 17.2929L4 13" stroke-width="2" stroke-linecap="round"/>
  </symbol>
  <symbol id="check_loading" viewBox="0 0 24 24">
    <path id="Icon" d="M17 9L10.5669 15.8063C10.3229 16.0646 9.92714 16.0646 9.68306 15.8063L7 12.9676M6.5 21.5284C4.99963 20.6605 3.72328 19.4484 2.77893 18M6.5 2.4716C4.99963 3.33952 3.72328 4.55165 2.77893 6M1.28533 14.5C1.09868 13.6969 1 12.8599 1 12C1 11.1401 1.09868 10.3031 1.28533 9.5M10 1.18138C10.6486 1.06225 11.317 1 12 1C18.0751 1 23 5.92487 23 12C23 18.0751 18.0751 23 12 23C11.317 23 10.6486 22.9378 10 22.8186" stroke-width="2" stroke-linecap="round"/>
  </symbol>
  <symbol id="expired" viewBox="0 0 12 12" fill="none">
    <path d="M6 3C8.20914 3 10 4.79086 10 7C10 7.84917 9.73539 8.63653 9.28414 9.28414L9.5 9.5M6 3C5.15083 3 4.36347 3.26461 3.71586 3.71586M6 3V1.5M8 10.4649C7.41165 10.8052 6.72857 11 6 11C3.79086 11 2 9.20914 2 7C2 6.27143 2.19479 5.58835 2.53513 5M5 1.5H7M2 2L10 10M8.82843 4.17157L9.5 3.5" stroke="inherit" stroke-linecap="round"/>
  </symbol>
  <symbol id="alert_sign" viewBox="0 0 24 24" fill="none">
    <path d="M20.414 14.496v0zM16.236 6.568v0zM7.763 6.568v0zM3.586 14.496v0zM13.269 2.271v0zM10.731 2.271v0zM20.748 20.493v0zM21.98 18.602v0zM3.252 20.493v0zM2.020 18.602v0zM13 8.995c-0.003-0.552-0.452-0.998-1.005-0.996s-0.998 0.452-0.996 1.004l2-0.009zM11.022 14.004c0.003 0.552 0.452 0.998 1.005 0.996s0.998-0.452 0.996-1.005l-2 0.009zM13 17c0-0.552-0.448-1-1-1s-1 0.448-1 1h2zM11 17.010c0 0.552 0.448 1 1 1s1-0.448 1-1h-2zM7.822 22h8.355v-2h-8.355v2zM21.299 14.029l-4.178-7.928-1.769 0.932 4.178 7.928 1.769-0.932zM6.879 6.102l-4.178 7.928 1.769 0.932 4.178-7.928-1.769-0.932zM17.121 6.102c-0.672-1.276-1.209-2.296-1.697-3.044-0.482-0.739-1.014-1.37-1.746-1.699l-0.821 1.824c0.191 0.086 0.462 0.31 0.892 0.968 0.425 0.65 0.911 1.571 1.602 2.883l1.769-0.932zM8.648 7.034c0.691-1.312 1.178-2.232 1.602-2.883 0.43-0.659 0.701-0.882 0.892-0.968l-0.821-1.824c-0.732 0.329-1.263 0.96-1.746 1.699-0.488 0.747-1.024 1.768-1.697 3.044l1.769 0.932zM13.679 1.359c-1.064-0.479-2.294-0.479-3.358 0l0.821 1.824c0.542-0.244 1.175-0.244 1.716 0l0.821-1.824zM16.178 22c1.25 0 2.253 0.001 3.037-0.067 0.78-0.068 1.492-0.213 2.087-0.607l-1.106-1.667c-0.17 0.113-0.474 0.222-1.154 0.281-0.676 0.059-1.576 0.060-2.864 0.060v2zM19.529 14.962c0.577 1.095 0.975 1.853 1.22 2.447 0.245 0.596 0.268 0.876 0.243 1.039l1.976 0.308c0.111-0.712-0.082-1.409-0.37-2.108-0.289-0.702-0.742-1.559-1.3-2.618l-1.769 0.932zM21.301 21.326c0.892-0.592 1.503-1.518 1.667-2.571l-1.976-0.308c-0.074 0.476-0.354 0.918-0.797 1.212l1.106 1.667zM7.822 20c-1.287 0-2.187-0.001-2.864-0.060-0.68-0.059-0.984-0.168-1.154-0.281l-1.106 1.667c0.594 0.394 1.307 0.539 2.087 0.607 0.783 0.068 1.787 0.067 3.037 0.067v-2zM2.701 14.029c-0.558 1.059-1.011 1.916-1.3 2.618-0.288 0.7-0.481 1.396-0.37 2.108l1.976-0.308c-0.025-0.163-0.002-0.443 0.243-1.039 0.244-0.594 0.643-1.352 1.22-2.447l-1.769-0.932zM3.805 19.66c-0.443-0.294-0.723-0.736-0.797-1.212l-1.976 0.308c0.164 1.053 0.775 1.979 1.667 2.571l1.106-1.667zM11 9.005l0.022 5 2-0.009-0.022-5-2 0.009zM11 17v0.010h2v-0.010h-2z" stroke-width="2" stroke-linecap="round"></path>
  </symbol>
  <symbol id="question" viewBox="0 0 24 24">
    <path d="M12 18V18.01M8 10C8 7.79086 9.79086 6 12 6C14.2091 6 16 7.79086 16 10C16 11.8675 14.7202 13.4361 12.9899 13.8766C12.4547 14.0128 12 14.4477 12 15M23 12C23 18.0751 18.0751 23 12 23C5.92487 23 1 18.0751 1 12C1 5.92487 5.92487 1 12 1C18.0751 1 23 5.92487 23 12Z" stroke-width="2" stroke-linecap="round"/>
  </symbol>
  <symbol id="mail" viewBox="0 0 24 24">
    <path id="Icon" d="M3 5L10.7721 11.045C11.4943 11.6067 12.5057 11.6067 13.2279 11.045L21 5M5.2 20H18.8C19.9201 20 20.4802 20 20.908 19.782C21.2843 19.5903 21.5903 19.2843 21.782 18.908C22 18.4802 22 17.9201 22 16.8V7.2C22 6.0799 22 5.51984 21.782 5.09202C21.5903 4.71569 21.2843 4.40973 20.908 4.21799C20.4802 4 19.9201 4 18.8 4H5.2C4.07989 4 3.51984 4 3.09202 4.21799C2.71569 4.40973 2.40973 4.71569 2.21799 5.09202C2 5.51984 2 6.07989 2 7.2V16.8C2 17.9201 2 18.4802 2.21799 18.908C2.40973 19.2843 2.71569 19.5903 3.09202 19.782C3.51984 20 4.0799 20 5.2 20Z" stroke-width="2" />
  </symbol>
  <symbol id="list" viewBox="0 0 24 24" fill="none">
    <path d="M8 6H20M8 12H20M8 18H20M4 6H4.001M4 12H4.001M4 18H4.001" stroke-width="2" stroke-linecap="round"/>
  </symbol>
  <symbol id="translate" viewBox="0 0 16 17" fill="none">
    <path d="M2.66675 4.00252H7.64526C7.83754 4.00252 7.99051 4.16495 7.96579 4.35562C7.72523 6.21112 6.41659 9.33586 2.66675 9.33586M4.00008 6.00252C4.44453 6.93586 5.86675 9.04252 8.00008 10.0025M5.33341 4.00252V2.66919M8.80008 12.6692L8.00008 14.6692M8.80008 12.6692H12.5334M8.80008 12.6692L10.3573 8.77625C10.469 8.49687 10.8645 8.49687 10.9762 8.77625L12.5334 12.6692M13.3334 14.6692L12.5334 12.6692" stroke-width="1.5" stroke-linecap="round"/>
  </symbol>
  <symbol id="fav-icon" viewBox="0 0 20 20" fill="none">
    <path d="M19.0735 0.915367L9.80291 0.904785V0.915367L6.92645 2.66378L8.21789 5.72814L5.76401 7.81998L6.92645 10.6918L5.00467 12.7307L5.76401 15.5853L0.926758 19.0949H10.3956L12.3449 10.4879H17.4848L18.077 7.28116L17.2384 7.83724L16.2476 7.28116L14.9956 7.81998L14.0048 7.28116L12.8204 7.73008L13.4739 4.42282L14.5878 4.9827L15.6359 4.42278L16.6267 4.9827L17.5134 4.42278L18.2866 4.9827L19.0735 0.915367Z" fill="white"/>
    <path d="M11.7338 3.35179C12.0716 3.35179 12.3454 3.07793 12.3454 2.74011C12.3454 2.40228 12.0716 2.12842 11.7338 2.12842C11.3959 2.12842 11.1221 2.40228 11.1221 2.74011C11.1221 3.07793 11.3959 3.35179 11.7338 3.35179Z" fill="#919BA7"/>
  </symbol>
  <symbol id="avatar" viewBox="0 0 20 20" fill="none">
    <path d="M10.0002 11.6667C12.3013 11.6667 14.1668 9.80123 14.1668 7.50004C14.1668 5.19885 12.3013 3.33337 10.0002 3.33337C7.69898 3.33337 5.8335 5.19885 5.8335 7.50004C5.8335 9.80123 7.69898 11.6667 10.0002 11.6667ZM10.0002 11.6667C6.31826 11.6667 3.3335 13.9053 3.3335 16.6667M10.0002 11.6667C13.6821 11.6667 16.6668 13.9053 16.6668 16.6667" stroke-width="1.67" stroke-linecap="round"/>
  </symbol>
  <symbol id="reset" viewBox="0 0 16 16" fill="none">
    <path d="M6.5 3.3335H4.66667C3.19391 3.3335 2 4.5274 2 6.00016V10.0002C2 11.4729 3.19391 12.6668 4.66667 12.6668H11.3333C12.8061 12.6668 14 11.4729 14 10.0002V6.00016C14 4.5274 12.8061 3.3335 11.3333 3.3335H10.625M5.33333 5.3335L6.86193 3.8049C7.12228 3.54455 7.12228 3.12244 6.86193 2.86209L5.33333 1.3335" stroke-width="1.5" stroke-linecap="round"/>
  </symbol>
  <symbol id="plus" viewBox="0 0 16 16" fill="none">
    <path d="M7.99984 2.66699V13.3337M13.3332 8.00033L2.6665 8.00032" stroke-width="1.2" stroke-linecap="round"/>
  </symbol>
  <symbol id="edit" viewBox="0 0 16 16" fill="inherit" stroke="none">
    <path d="M3.34116 11.3095L4.13331 11.5736L3.34116 11.3095ZM3.84061 9.81114L3.04846 9.54709H3.04846L3.84061 9.81114ZM4.35598 8.97727L4.94641 9.5677L4.94641 9.5677L4.35598 8.97727ZM9.33321 4.00004L8.74277 3.40961V3.40961L9.33321 4.00004ZM11.9999 6.66671L12.5903 7.25714L12.5903 7.25714L11.9999 6.66671ZM7.02264 11.6439L6.43221 11.0535L6.43221 11.0535L7.02264 11.6439ZM6.18877 12.1593L6.45282 12.9514H6.45282L6.18877 12.1593ZM4.69039 12.6588L4.95444 13.4509H4.95445L4.69039 12.6588ZM6.74928 11.8991L6.24641 11.2325L6.24641 11.2325L6.74928 11.8991ZM6.53923 12.0289L6.16791 11.281L6.53923 12.0289ZM12.6423 4.74136L11.8941 5.11211V5.11211L12.6423 4.74136ZM12.6423 5.9254L11.8941 5.55464V5.55464L12.6423 5.9254ZM10.0745 3.35764L10.4453 4.10581L10.4453 4.10581L10.0745 3.35764ZM11.2586 3.35764L10.8878 4.10581L10.8878 4.10581L11.2586 3.35764ZM3.97101 9.46068L4.7189 9.83201L4.7189 9.83201L3.97101 9.46068ZM4.10083 9.25063L3.43423 8.74776L3.43423 8.74776L4.10083 9.25063ZM3.09269 12.5032L2.3062 12.7837L3.09269 12.5032ZM3.49671 12.9072L3.21625 13.6937L3.21625 13.6937L3.49671 12.9072ZM9.25697 4.0763C8.93088 3.75021 8.40219 3.75021 8.0761 4.0763C7.75001 4.40239 7.75001 4.93108 8.0761 5.25717L9.25697 4.0763ZM10.7428 7.92383C11.0689 8.24992 11.5975 8.24992 11.9236 7.92383C12.2497 7.59774 12.2497 7.06905 11.9236 6.74296L10.7428 7.92383ZM4.13331 11.5736L4.63276 10.0752L3.04846 9.54709L2.54901 11.0455L4.13331 11.5736ZM4.94641 9.5677L9.92364 4.59048L8.74277 3.40961L3.76554 8.38684L4.94641 9.5677ZM11.4094 6.07628L6.43221 11.0535L7.61308 12.2344L12.5903 7.25714L11.4094 6.07628ZM5.92472 11.3671L4.42634 11.8666L4.95445 13.4509L6.45282 12.9514L5.92472 11.3671ZM6.43221 11.0535C6.28364 11.2021 6.2635 11.2196 6.24641 11.2325L7.25215 12.5657C7.38335 12.4667 7.49603 12.3514 7.61308 12.2344L6.43221 11.0535ZM6.45282 12.9514C6.60986 12.8991 6.76336 12.8499 6.91056 12.7768L6.16791 11.281C6.14873 11.2905 6.12405 11.3007 5.92472 11.3671L6.45282 12.9514ZM6.24641 11.2325C6.2218 11.2511 6.19552 11.2673 6.16791 11.281L6.91056 12.7768C7.03071 12.7171 7.14506 12.6465 7.25215 12.5657L6.24641 11.2325ZM11.4094 4.59048C11.8206 5.00165 11.8731 5.06978 11.8941 5.11211L13.3905 4.3706C13.2171 4.0208 12.9061 3.72544 12.5903 3.40961L11.4094 4.59048ZM12.5903 7.25714C12.9061 6.94132 13.2171 6.64595 13.3905 6.29615L11.8941 5.55464C11.8731 5.59697 11.8206 5.6651 11.4094 6.07628L12.5903 7.25714ZM11.8941 5.11211C11.9632 5.25153 11.9632 5.41522 11.8941 5.55464L13.3905 6.29615C13.6911 5.6895 13.6911 4.97725 13.3905 4.3706L11.8941 5.11211ZM9.92364 4.59048C10.3348 4.17931 10.4029 4.12679 10.4453 4.10581L9.70376 2.60946C9.35397 2.7828 9.0586 3.09378 8.74277 3.40961L9.92364 4.59048ZM12.5903 3.40961C12.2745 3.09378 11.9791 2.7828 11.6293 2.60946L10.8878 4.10581C10.9301 4.12679 10.9983 4.17931 11.4094 4.59048L12.5903 3.40961ZM10.4453 4.10581C10.5847 4.03672 10.7484 4.03672 10.8878 4.10581L11.6293 2.60946C11.0227 2.30884 10.3104 2.30884 9.70376 2.60946L10.4453 4.10581ZM4.63276 10.0752C4.69921 9.87587 4.70938 9.85118 4.7189 9.83201L3.22312 9.08935C3.15003 9.23655 3.10081 9.39005 3.04846 9.54709L4.63276 10.0752ZM3.76554 8.38683C3.64849 8.50388 3.53321 8.61656 3.43423 8.74776L4.76742 9.7535C4.78031 9.73641 4.79784 9.71627 4.94641 9.5677L3.76554 8.38683ZM4.7189 9.83201C4.73261 9.80439 4.74885 9.77811 4.76742 9.7535L3.43423 8.74776C3.35345 8.85485 3.28277 8.9692 3.22312 9.08935L4.7189 9.83201ZM2.54901 11.0455C2.4457 11.3554 2.3491 11.6425 2.29368 11.8784C2.24116 12.1019 2.18288 12.4378 2.3062 12.7837L3.87918 12.2227C3.92527 12.352 3.88265 12.4168 3.9194 12.2604C3.95323 12.1164 4.01948 11.9151 4.13331 11.5736L2.54901 11.0455ZM4.42635 11.8666C4.08486 11.9804 3.88347 12.0467 3.73949 12.0805C3.58312 12.1173 3.64793 12.0746 3.77717 12.1207L3.21625 13.6937C3.56208 13.817 3.89803 13.7587 4.12151 13.7062C4.35737 13.6508 4.64454 13.5542 4.95444 13.4509L4.42635 11.8666ZM2.3062 12.7837C2.4576 13.2082 2.79169 13.5423 3.21625 13.6937L3.77717 12.1207C3.82476 12.1377 3.86221 12.1752 3.87918 12.2227L2.3062 12.7837ZM8.0761 5.25717L10.7428 7.92383L11.9236 6.74296L9.25697 4.0763L8.0761 5.25717Z" />
  </symbol>
  <symbol id="delete" viewBox="0 0 16 16" fill="inherit" stroke="none">
    <path d="M7.50134 6.66667C7.50134 6.20551 7.1275 5.83167 6.66634 5.83167C6.20518 5.83167 5.83134 6.20551 5.83134 6.66667H7.50134ZM5.83134 12C5.83134 12.4612 6.20518 12.835 6.66634 12.835C7.1275 12.835 7.50134 12.4612 7.50134 12H5.83134ZM10.168 6.66667C10.168 6.20551 9.79417 5.83167 9.33301 5.83167C8.87185 5.83167 8.49801 6.20551 8.49801 6.66667H10.168ZM8.49801 12C8.49801 12.4612 8.87185 12.835 9.33301 12.835C9.79417 12.835 10.168 12.4612 10.168 12H8.49801ZM4.72769 13.8547L5.10677 13.1107H5.10677L4.72769 13.8547ZM4.145 13.272L4.88899 12.8929H4.88899L4.145 13.272ZM11.8544 13.272L11.1104 12.8929H11.1104L11.8544 13.272ZM11.2717 13.8547L10.8926 13.1107H10.8926L11.2717 13.8547ZM3.33301 3.83167C2.87185 3.83167 2.49801 4.20551 2.49801 4.66667C2.49801 5.12782 2.87185 5.50167 3.33301 5.50167V3.83167ZM12.6663 5.50167C13.1275 5.50167 13.5013 5.12782 13.5013 4.66667C13.5013 4.20551 13.1275 3.83167 12.6663 3.83167V5.50167ZM4.83134 4.66667C4.83134 5.12782 5.20518 5.50167 5.66634 5.50167C6.1275 5.50167 6.50134 5.12782 6.50134 4.66667H4.83134ZM9.49801 4.66667C9.49801 5.12782 9.87185 5.50167 10.333 5.50167C10.7942 5.50167 11.168 5.12782 11.168 4.66667H9.49801ZM5.83134 6.66667V12H7.50134V6.66667H5.83134ZM8.49801 6.66667V12H10.168V6.66667H8.49801ZM11.1647 4.66667V11.8667H12.8347V4.66667H11.1647ZM9.86634 13.165H6.13301V14.835H9.86634V13.165ZM3.16467 4.66667V11.8667H4.83467V4.66667H3.16467ZM6.13301 13.165C5.74586 13.165 5.50572 13.1644 5.32527 13.1496C5.15457 13.1357 5.11205 13.1134 5.10677 13.1107L4.34861 14.5987C4.62854 14.7413 4.91531 14.7917 5.18928 14.8141C5.45351 14.8356 5.77342 14.835 6.13301 14.835V13.165ZM3.16467 11.8667C3.16467 12.2263 3.16403 12.5462 3.18561 12.8104C3.208 13.0844 3.25837 13.3711 3.40101 13.6511L4.88899 12.8929C4.8863 12.8876 4.86401 12.8451 4.85007 12.6744C4.83532 12.494 4.83467 12.2538 4.83467 11.8667H3.16467ZM5.10677 13.1107C5.013 13.0629 4.93677 12.9867 4.88899 12.8929L3.40101 13.6511C3.60889 14.0591 3.94061 14.3908 4.34861 14.5987L5.10677 13.1107ZM11.1647 11.8667C11.1647 12.2538 11.164 12.494 11.1493 12.6744C11.1353 12.8451 11.113 12.8876 11.1104 12.8929L12.5983 13.6511C12.741 13.3711 12.7914 13.0844 12.8137 12.8104C12.8353 12.5462 12.8347 12.2263 12.8347 11.8667H11.1647ZM9.86634 14.835C10.2259 14.835 10.5458 14.8356 10.8101 14.8141C11.084 14.7917 11.3708 14.7413 11.6507 14.5987L10.8926 13.1107C10.8873 13.1134 10.8448 13.1357 10.6741 13.1496C10.4936 13.1644 10.2535 13.165 9.86634 13.165V14.835ZM11.1104 12.8929C11.0626 12.9867 10.9863 13.0629 10.8926 13.1107L11.6507 14.5987C12.0587 14.3908 12.3905 14.0591 12.5983 13.6511L11.1104 12.8929ZM3.33301 5.50167H3.99967V3.83167H3.33301V5.50167ZM3.99967 5.50167H11.9997V3.83167H3.99967V5.50167ZM11.9997 5.50167H12.6663V3.83167H11.9997V5.50167ZM6.50134 4.13333C6.50134 3.48514 7.10016 2.835 7.99967 2.835V1.165C6.32186 1.165 4.83134 2.42512 4.83134 4.13333H6.50134ZM7.99967 2.835C8.89919 2.835 9.49801 3.48514 9.49801 4.13333H11.168C11.168 2.42512 9.67749 1.165 7.99967 1.165V2.835ZM4.83134 4.13333V4.66667H6.50134V4.13333H4.83134ZM9.49801 4.13333V4.66667H11.168V4.13333H9.49801Z"/>
  </symbol>
  <symbol id="download" viewBox="0 0 16 16" fill="inherit" stroke="none">
    <path d="M8.835 2C8.835 1.53884 8.46116 1.165 8 1.165C7.53884 1.165 7.165 1.53884 7.165 2L8.835 2ZM7.165 9.33333C7.165 9.79449 7.53884 10.1683 8 10.1683C8.46116 10.1683 8.835 9.79449 8.835 9.33333H7.165ZM11.2571 8.59043C11.5832 8.26435 11.5832 7.73565 11.2571 7.40957C10.931 7.08348 10.4023 7.08348 10.0762 7.40957L11.2571 8.59043ZM8.4714 10.1953L7.88097 9.60483L8.4714 10.1953ZM7.5286 10.1953L8.11903 9.60483V9.60483L7.5286 10.1953ZM5.92377 7.40957C5.59768 7.08348 5.06899 7.08348 4.7429 7.40957C4.41681 7.73565 4.41681 8.26435 4.7429 8.59043L5.92377 7.40957ZM2.835 10.6667C2.835 10.2055 2.46116 9.83167 2 9.83167C1.53884 9.83167 1.165 10.2055 1.165 10.6667H2.835ZM14.835 10.6667C14.835 10.2055 14.4612 9.83167 14 9.83167C13.5388 9.83167 13.165 10.2055 13.165 10.6667H14.835ZM12.908 13.782L12.5289 13.038L12.5289 13.038L12.908 13.782ZM13.782 12.908L14.526 13.2871L13.782 12.908ZM2.21799 12.908L1.474 13.2871L2.21799 12.908ZM3.09202 13.782L2.71294 14.526H2.71294L3.09202 13.782ZM7.165 2L7.165 9.33333H8.835L8.835 2L7.165 2ZM10.0762 7.40957L7.88097 9.60483L9.06184 10.7857L11.2571 8.59043L10.0762 7.40957ZM8.11903 9.60483L5.92377 7.40957L4.7429 8.59043L6.93816 10.7857L8.11903 9.60483ZM7.88097 9.60483C7.94671 9.53909 8.05329 9.53909 8.11903 9.60483L6.93816 10.7857C7.5246 11.3721 8.4754 11.3721 9.06184 10.7857L7.88097 9.60483ZM1.165 10.6667V10.8H2.835V10.6667H1.165ZM5.2 14.835H10.8V13.165H5.2V14.835ZM14.835 10.8V10.6667H13.165V10.8H14.835ZM10.8 14.835C11.3463 14.835 11.8062 14.8356 12.1816 14.805C12.5667 14.7735 12.9358 14.705 13.2871 14.526L12.5289 13.038C12.4523 13.077 12.3275 13.1175 12.0456 13.1405C11.754 13.1644 11.3738 13.165 10.8 13.165V14.835ZM13.165 10.8C13.165 11.3738 13.1644 11.754 13.1405 12.0456C13.1175 12.3275 13.077 12.4523 13.038 12.5289L14.526 13.2871C14.705 12.9358 14.7735 12.5667 14.805 12.1816C14.8356 11.8062 14.835 11.3463 14.835 10.8H13.165ZM13.2871 14.526C13.8205 14.2542 14.2542 13.8205 14.526 13.2871L13.038 12.5289C12.9263 12.7481 12.7481 12.9263 12.5289 13.038L13.2871 14.526ZM1.165 10.8C1.165 11.3463 1.16435 11.8062 1.19502 12.1816C1.22649 12.5667 1.29503 12.9358 1.474 13.2871L2.96198 12.5289C2.92296 12.4523 2.8825 12.3275 2.85948 12.0456C2.83565 11.754 2.835 11.3738 2.835 10.8H1.165ZM5.2 13.165C4.62617 13.165 4.24601 13.1644 3.9544 13.1405C3.67253 13.1175 3.54768 13.077 3.4711 13.038L2.71294 14.526C3.06418 14.705 3.43327 14.7735 3.81841 14.805C4.1938 14.8356 4.65373 14.835 5.2 14.835V13.165ZM1.474 13.2871C1.7458 13.8205 2.1795 14.2542 2.71294 14.526L3.4711 13.038C3.25189 12.9263 3.07367 12.7481 2.96198 12.5289L1.474 13.2871Z"/>
  </symbol>
</svg>



