<svg xmlns="http://www.w3.org/2000/svg">
  <symbol id="img" viewBox="0 0 24 24">
    <path d="M1.13574 10.1726L13.2769 22.3137C13.6626 22.6994 14.2879 22.6994 14.6736 22.3137L22.8641 14.1232M7.06167 15.1109L11.3016 10.871C11.6873 10.4853 12.3126 10.4853 12.6983 10.871L18.9135 17.0862M17.5553 5.85153H18.296M17.5553 6.59227H18.296M9.03698 23.0121H14.9629C17.7286 23.0121 19.1114 23.0121 20.1678 22.4738C21.097 22.0004 21.8524 21.2449 22.3259 20.3157C22.8641 19.2594 22.8641 17.8765 22.8641 15.1109V9.18493C22.8641 6.41923 22.8641 5.03639 22.3259 3.98003C21.8524 3.05084 21.097 2.29538 20.1678 1.82193C19.1114 1.28369 17.7286 1.28369 14.9629 1.28369H9.03698C6.27129 1.28369 4.88844 1.28369 3.83209 1.82193C2.90289 2.29538 2.14743 3.05084 1.67398 3.98003C1.13574 5.03639 1.13574 6.41923 1.13574 9.18493V15.1109C1.13574 17.8765 1.13574 19.2594 1.67398 20.3157C2.14743 21.2449 2.90289 22.0004 3.83209 22.4738C4.88844 23.0121 6.27129 23.0121 9.03698 23.0121ZM18.9135 6.22196C18.9135 6.76743 18.4713 7.20962 17.9259 7.20962C17.3804 7.20962 16.9382 6.76743 16.9382 6.22196C16.9382 5.6765 17.3804 5.23431 17.9259 5.23431C18.4713 5.23431 18.9135 5.6765 18.9135 6.22196Z" stroke="#919BA7" stroke-width="1.5" stroke-linecap="round"/>
  </symbol>
  <symbol id="audio" viewBox="0 0 24 24">
    <path d="M11.9999 6.22175V18.0736M19.9011 5.2341V19.0613M4.09863 10.1724V14.123M8.04925 3.25879V21.0366M15.9505 8.19706V16.0983" stroke="#919BA7" stroke-width="1.5" stroke-linecap="round"/>
  </symbol>
  <symbol id="video" viewBox="0 0 24 24">
    <g clip-path="url(#clip0_6256_63210)">
    <path d="M3.83209 19.5108L3.49159 20.179L3.83209 19.5108ZM1.13574 12.1478H1.88574H1.13574ZM1.67398 17.3527L1.00573 17.6932L1.00573 17.6932L1.67398 17.3527ZM22.3259 17.3527L21.6576 17.0122L22.3259 17.3527ZM20.1678 19.5108L19.8273 18.8425L20.1678 19.5108ZM20.1677 4.78482L19.8273 5.45308V5.45308L20.1677 4.78482ZM22.3259 6.94292L21.6576 7.28342L21.6576 7.28342L22.3259 6.94292ZM3.83204 4.78482L4.17253 5.45308L3.83204 4.78482ZM1.67394 6.94292L2.34219 7.28342L1.67394 6.94292ZM11.1587 15.8903L10.7061 15.2922V15.2922L11.1587 15.8903ZM15.062 12.9364L15.5146 13.5344L15.062 12.9364ZM15.062 11.3592L14.6095 11.9573L15.062 11.3592ZM11.1587 8.40533L10.7061 9.00338L11.1587 8.40533ZM9.03693 4.99658H14.9629V3.49658H9.03693V4.99658ZM14.9629 19.299H9.03698V20.799H14.9629V19.299ZM9.03698 19.299C7.64176 19.299 6.64045 19.2984 5.85461 19.2342C5.07752 19.1708 4.5774 19.0488 4.17258 18.8425L3.49159 20.179C4.14312 20.511 4.86261 20.6582 5.73246 20.7293C6.59355 20.7996 7.66651 20.799 9.03698 20.799V19.299ZM0.385742 12.1478C0.385742 13.5183 0.385159 14.5912 0.455513 15.4523C0.526582 16.3222 0.673757 17.0417 1.00573 17.6932L2.34224 17.0122C2.13597 16.6074 2.01402 16.1073 1.95053 15.3302C1.88633 14.5443 1.88574 13.543 1.88574 12.1478H0.385742ZM4.17258 18.8425C3.3845 18.441 2.74378 17.8003 2.34224 17.0122L1.00573 17.6932C1.55108 18.7635 2.42128 19.6337 3.49159 20.179L4.17258 18.8425ZM22.1141 12.1478C22.1141 13.543 22.1136 14.5443 22.0493 15.3302C21.9859 16.1073 21.8639 16.6074 21.6576 17.0122L22.9942 17.6932C23.3261 17.0417 23.4733 16.3222 23.5444 15.4523C23.6147 14.5912 23.6141 13.5183 23.6141 12.1478H22.1141ZM14.9629 20.799C16.3334 20.799 17.4063 20.7996 18.2674 20.7293C19.1373 20.6582 19.8568 20.511 20.5083 20.179L19.8273 18.8425C19.4225 19.0488 18.9224 19.1708 18.1453 19.2342C17.3594 19.2984 16.3581 19.299 14.9629 19.299V20.799ZM21.6576 17.0122C21.2561 17.8003 20.6154 18.441 19.8273 18.8425L20.5083 20.179C21.5786 19.6337 22.4488 18.7635 22.9942 17.6932L21.6576 17.0122ZM14.9629 4.99658C16.3581 4.99658 17.3594 4.99717 18.1452 5.06137C18.9223 5.12486 19.4224 5.24681 19.8273 5.45308L20.5082 4.11657C19.8567 3.7846 19.1372 3.63742 18.2674 3.56635C17.4063 3.496 16.3333 3.49658 14.9629 3.49658V4.99658ZM23.6141 12.1478C23.6141 10.7773 23.6147 9.70437 23.5443 8.84328C23.4733 7.97343 23.3261 7.25395 22.9941 6.60243L21.6576 7.28342C21.8639 7.68825 21.9858 8.18837 22.0493 8.96545C22.1135 9.75128 22.1141 10.7526 22.1141 12.1478H23.6141ZM19.8273 5.45308C20.6153 5.85462 21.2561 6.49534 21.6576 7.28342L22.9941 6.60243C22.4488 5.53212 21.5786 4.66192 20.5082 4.11657L19.8273 5.45308ZM9.03693 3.49658C7.66646 3.49658 6.5935 3.496 5.73241 3.56635C4.86256 3.63742 4.14308 3.7846 3.49155 4.11657L4.17253 5.45308C4.57736 5.24681 5.07747 5.12486 5.85456 5.06137C6.6404 4.99717 7.64171 4.99658 9.03693 4.99658V3.49658ZM1.88574 12.1478C1.88574 10.7528 1.88633 9.75148 1.95053 8.96557C2.01402 8.18838 2.13596 7.68817 2.34219 7.28342L1.00568 6.60243C0.673721 7.25394 0.526567 7.97356 0.455507 8.84344C0.385159 9.70459 0.385742 10.7776 0.385742 12.1478H1.88574ZM3.49155 4.11657C2.42123 4.66192 1.55104 5.53212 1.00568 6.60243L2.34219 7.28342C2.74374 6.49534 3.38446 5.85462 4.17253 5.45308L3.49155 4.11657ZM8.7808 9.19388V15.1017H10.2808V9.19388H8.7808ZM11.6112 16.4883L15.5146 13.5344L14.6095 12.3383L10.7061 15.2922L11.6112 16.4883ZM15.5146 10.7612L11.6112 7.80727L10.7061 9.00338L14.6095 11.9573L15.5146 10.7612ZM15.5146 13.5344C16.4374 12.8361 16.4374 11.4595 15.5146 10.7612L14.6095 11.9573C14.7392 12.0554 14.7392 12.2402 14.6095 12.3383L15.5146 13.5344ZM8.7808 15.1017C8.7808 16.5699 10.4708 17.3513 11.6112 16.4883L10.7061 15.2922C10.6181 15.3588 10.5156 15.3645 10.4223 15.3193C10.3298 15.2745 10.2808 15.1977 10.2808 15.1017H8.7808ZM10.2808 9.19388C10.2808 9.09785 10.3298 9.02112 10.4223 8.97632C10.5156 8.93114 10.6181 8.93679 10.7061 9.00338L11.6112 7.80727C10.4708 6.94427 8.7808 7.72567 8.7808 9.19388H10.2808Z" fill="#919BA7"/>
    </g>
    <defs>
    <clipPath id="clip0_6256_63210">
    <rect width="23.7037" height="23.7037" fill="white" transform="translate(0.148438 0.295898)"/>
    </clipPath>
    </defs>
  </symbol>
  <symbol id="document" viewBox="0 0 24 24">
    <path d="M7.25913 22.0241V21.2741V22.0241ZM16.7406 22.0241V22.7741V22.0241ZM19.9011 18.8636H19.1511H19.9011ZM19.9011 5.43149H20.6511H20.6511H19.9011ZM19.6858 3.34953L20.3541 3.00904L20.3541 3.00904L19.6858 3.34953ZM16.7406 2.271V1.521V2.271ZM18.8226 2.48629L19.1631 1.81804L19.1631 1.81804L18.8226 2.48629ZM18.8226 21.8088L19.1631 22.477L18.8226 21.8088ZM19.6858 20.9455L19.0176 20.6051L19.6858 20.9455ZM5.17717 21.8088L5.51766 21.1405H5.51766L5.17717 21.8088ZM4.09863 18.8636H3.34863H4.09863ZM4.31393 20.9455L4.98218 20.6051H4.98218L4.31393 20.9455ZM4.84863 8.19692C4.84863 7.78271 4.51285 7.44692 4.09863 7.44692C3.68442 7.44692 3.34863 7.78271 3.34863 8.19692L4.84863 8.19692ZM10.0246 1.521C9.61034 1.521 9.27456 1.85678 9.27456 2.271C9.27456 2.68521 9.61034 3.021 10.0246 3.021V1.521ZM4.26724 8.02832L3.73691 7.49799L4.26724 8.02832ZM9.85596 2.4396L10.3863 2.96993L9.85596 2.4396ZM4.33707 8.19692L4.33707 8.94692L4.33707 8.19692ZM9.03691 8.19692L9.03691 7.44692L9.03691 8.19692ZM10.0246 7.20927H9.27456H10.0246ZM10.0246 2.50944H10.7746V2.50944L10.0246 2.50944ZM8.04925 11.3975C7.63504 11.3975 7.29925 11.7333 7.29925 12.1475C7.29925 12.5618 7.63504 12.8975 8.04925 12.8975V11.3975ZM15.9505 12.8975C16.3647 12.8975 16.7005 12.5618 16.7005 12.1475C16.7005 11.7333 16.3647 11.3975 15.9505 11.3975V12.8975ZM13.9752 7.44692C13.561 7.44692 13.2252 7.78271 13.2252 8.19692C13.2252 8.61114 13.561 8.94692 13.9752 8.94692V7.44692ZM15.9505 8.94692C16.3647 8.94692 16.7005 8.61114 16.7005 8.19692C16.7005 7.78271 16.3647 7.44692 15.9505 7.44692V8.94692ZM8.04925 15.3482C7.63504 15.3482 7.29925 15.6839 7.29925 16.0982C7.29925 16.5124 7.63504 16.8482 8.04925 16.8482V15.3482ZM15.9505 16.8482C16.3647 16.8482 16.7005 16.5124 16.7005 16.0982C16.7005 15.6839 16.3647 15.3482 15.9505 15.3482V16.8482ZM7.25913 22.7741H16.7406V21.2741H7.25913V22.7741ZM20.6511 18.8636V5.43149H19.1511V18.8636H20.6511ZM20.6511 5.43149C20.6511 4.89073 20.6517 4.44005 20.6217 4.07304C20.591 3.69727 20.5246 3.34366 20.3541 3.00904L19.0176 3.69002C19.0623 3.77795 19.1036 3.91218 19.1267 4.19518C19.1505 4.48695 19.1511 4.86598 19.1511 5.43149H20.6511ZM16.7406 3.021C17.3061 3.021 17.6852 3.02158 17.9769 3.04542C18.2599 3.06854 18.3941 3.10975 18.4821 3.15455L19.1631 1.81804C18.8284 1.64754 18.4748 1.5811 18.0991 1.5504C17.732 1.52041 17.2814 1.521 16.7406 1.521V3.021ZM20.3541 3.00904C20.0928 2.49624 19.6759 2.07932 19.1631 1.81804L18.4821 3.15455C18.7126 3.27202 18.9001 3.45947 19.0176 3.69003L20.3541 3.00904ZM16.7406 22.7741C17.2814 22.7741 17.732 22.7747 18.0991 22.7447C18.4748 22.714 18.8284 22.6475 19.1631 22.477L18.4821 21.1405C18.3942 21.1853 18.2599 21.2265 17.9769 21.2497C17.6852 21.2735 17.3061 21.2741 16.7406 21.2741V22.7741ZM19.1511 18.8636C19.1511 19.4291 19.1505 19.8081 19.1267 20.0999C19.1036 20.3829 19.0623 20.5171 19.0176 20.6051L20.3541 21.286C20.5246 20.9514 20.591 20.5978 20.6217 20.222C20.6517 19.855 20.6511 19.4044 20.6511 18.8636H19.1511ZM19.1631 22.477C19.6759 22.2158 20.0928 21.7988 20.3541 21.286L19.0176 20.6051C18.9001 20.8356 18.7126 21.0231 18.4821 21.1405L19.1631 22.477ZM7.25913 21.2741C6.69361 21.2741 6.31458 21.2735 6.02282 21.2497C5.73982 21.2265 5.60558 21.1853 5.51766 21.1405L4.83668 22.477C5.1713 22.6475 5.52491 22.714 5.90068 22.7447C6.26769 22.7747 6.71837 22.7741 7.25913 22.7741L7.25913 21.2741ZM3.34863 18.8636C3.34863 19.4044 3.34805 19.855 3.37804 20.222C3.40874 20.5978 3.47518 20.9514 3.64567 21.286L4.98218 20.6051C4.93739 20.5171 4.89618 20.3829 4.87305 20.0999C4.84922 19.8081 4.84863 19.4291 4.84863 18.8636H3.34863ZM5.51766 21.1405C5.28711 21.0231 5.09966 20.8356 4.98218 20.6051L3.64567 21.286C3.90696 21.7988 4.32388 22.2158 4.83668 22.477L5.51766 21.1405ZM3.34863 8.19692L3.34863 18.8636H4.84863L4.84863 8.19692L3.34863 8.19692ZM16.7406 1.521L10.0246 1.521V3.021L16.7406 3.021V1.521ZM4.79757 8.55865L10.3863 2.96993L9.32563 1.90927L3.73691 7.49799L4.79757 8.55865ZM4.33707 8.94692L9.03691 8.94692L9.03691 7.44692L4.33707 7.44692L4.33707 8.94692ZM10.7746 7.20927V2.50944H9.27456V7.20927H10.7746ZM9.03691 8.94692C9.99659 8.94692 10.7746 8.16895 10.7746 7.20927H9.27456C9.27456 7.34052 9.16816 7.44692 9.03691 7.44692L9.03691 8.94692ZM10.3863 2.96993C9.97603 3.38018 9.27456 3.08963 9.27456 2.50944L10.7746 2.50944C10.7746 1.75327 9.86032 1.37458 9.32563 1.90927L10.3863 2.96993ZM3.73691 7.49799C3.20221 8.03268 3.58091 8.94692 4.33707 8.94692L4.33707 7.44692C4.91726 7.44692 5.20782 8.1484 4.79757 8.55865L3.73691 7.49799ZM8.04925 12.8975H15.9505V11.3975H8.04925V12.8975ZM13.9752 8.94692H15.9505V7.44692H13.9752V8.94692ZM8.04925 16.8482H15.9505V15.3482H8.04925V16.8482Z" fill="#919BA7"/>
  </symbol>
  <symbol id="file" viewBox="0 0 24 24">
    <path d="M9 15.5L15 9.5M9 9.5L15 15.5M9 23.5H15C17.8003 23.5 19.2004 23.5 20.27 22.955C21.2108 22.4757 21.9757 21.7108 22.455 20.77C23 19.7004 23 18.3003 23 15.5V9.5C23 6.69974 23 5.29961 22.455 4.23005C21.9757 3.28924 21.2108 2.52433 20.27 2.04497C19.2004 1.5 17.8003 1.5 15 1.5H9C6.19974 1.5 4.79961 1.5 3.73005 2.04497C2.78924 2.52433 2.02433 3.28924 1.54497 4.23005C1 5.29961 1 6.69974 1 9.5V15.5C1 18.3003 1 19.7004 1.54497 20.77C2.02433 21.7108 2.78924 22.4757 3.73005 22.955C4.79961 23.5 6.19974 23.5 9 23.5ZM8.2 19.5H15.8C16.9201 19.5 17.4802 19.5 17.908 19.282C18.2843 19.0903 18.5903 18.7843 18.782 18.408C19 17.9802 19 17.4201 19 16.3V8.7C19 7.57989 19 7.01984 18.782 6.59202C18.5903 6.21569 18.2843 5.90973 17.908 5.71799C17.4802 5.5 16.9201 5.5 15.8 5.5H8.2C7.07989 5.5 6.51984 5.5 6.09202 5.71799C5.71569 5.90973 5.40973 6.21569 5.21799 6.59202C5 7.01984 5 7.57989 5 8.7V16.3C5 17.4201 5 17.9802 5.21799 18.408C5.40973 18.7843 5.71569 19.0903 6.09202 19.282C6.51984 19.5 7.07989 19.5 8.2 19.5Z" stroke="#919BA7" stroke-width="1.5" stroke-linecap="round"/>
  </symbol>

</svg>
