<svg width="131" height="40" viewBox="0 0 131 40" fill="none" xmlns="http://www.w3.org/2000/svg">
  <path d="M72.4957 23.8354C69.672 23.8354 67.3583 24.6499 65.5546 26.2903C63.7509 27.9306 62.8428 30.0299 62.8428 32.5764C62.8428 34.8248 63.614 36.6143 65.144 37.9679C66.6741 39.3215 68.7266 39.9983 71.2766 39.9983C74.1626 39.9983 76.526 39.1838 78.3546 37.5549C80.1831 35.926 81.1037 33.8497 81.1037 31.3261C81.1037 29.0548 80.32 27.2309 78.7651 25.8773C77.2102 24.5237 75.1204 23.8354 72.5081 23.8354H72.4957ZM74.4486 34.4004C73.6774 35.2378 72.6947 35.6622 71.5005 35.6622C70.5552 35.6622 69.7963 35.3869 69.2241 34.8477C68.6519 34.2971 68.3658 33.563 68.3658 32.6453C68.3658 31.3949 68.7514 30.3396 69.5351 29.4678C70.3188 28.596 71.2642 28.1601 72.3837 28.1601C73.3789 28.1601 74.1626 28.4354 74.7348 28.9745C75.307 29.5137 75.593 30.2478 75.593 31.1884C75.593 32.4961 75.2074 33.5744 74.4362 34.4118L74.4486 34.4004Z" fill="url(#paint0_linear_449_19630)"/>
  <path d="M95.5464 23.9844C94.4144 23.9844 93.4193 24.2367 92.5734 24.73C91.7276 25.2233 91.0434 25.9459 90.5334 26.9095L90.9314 24.3515H85.4084L82.821 39.4016H88.5058L89.6751 32.5304C89.9114 31.1882 90.3468 30.2017 90.9936 29.5593C91.6405 28.917 92.5112 28.5958 93.6183 28.5958C93.892 28.5958 94.1905 28.6187 94.4891 28.6531C94.7876 28.6875 95.1359 28.7564 95.5091 28.8367L96.6535 24.1106C96.3301 24.0647 96.0937 24.0303 95.9445 24.0188C95.7952 24.0073 95.6584 23.9958 95.5464 23.9958V23.9844Z" fill="url(#paint1_linear_449_19630)"/>
  <path d="M108.779 30.2936C108.755 30.3968 108.73 30.5345 108.705 30.7295C108.12 34.1938 107.001 35.9259 105.346 35.9259C104.637 35.9259 104.09 35.7424 103.729 35.3638C103.356 34.9853 103.169 34.4347 103.169 33.7235C103.169 33.5514 103.207 33.1958 103.281 32.6452C103.356 32.0946 103.455 31.4063 103.592 30.5804L104.662 24.3516H98.9399L97.9323 30.1215C97.7084 31.3719 97.5591 32.3011 97.4845 32.8975C97.4099 33.494 97.3726 33.9988 97.3726 34.3888C97.3726 36.1095 98.0692 37.4631 99.4499 38.4725C100.831 39.482 102.721 39.9752 105.122 39.9752C106.515 39.9752 107.759 39.8032 108.866 39.459C109.974 39.1149 110.906 38.6102 111.665 37.9334C112.872 36.8551 113.755 34.6985 114.327 31.4637L114.377 31.1539L115.546 24.3516H109.812L108.792 30.2936H108.779Z" fill="url(#paint2_linear_449_19630)"/>
  <path d="M125.972 30.271C125.686 30.1563 125.3 30.0072 124.803 29.8351C123.683 29.4336 123.124 29.0092 123.124 28.5503C123.124 28.2291 123.298 27.9653 123.634 27.7474C123.969 27.5294 124.405 27.4147 124.915 27.4147C125.524 27.4147 126.146 27.5294 126.768 27.7474C127.39 27.9653 128.074 28.3209 128.821 28.8142L130.5 25.4302C129.642 24.914 128.721 24.524 127.739 24.2487C126.756 23.9734 125.748 23.8472 124.716 23.8472C122.663 23.8472 120.996 24.329 119.69 25.2811C118.384 26.2332 117.737 27.4262 117.737 28.8715C117.737 29.7777 117.999 30.5348 118.533 31.1313C119.056 31.7393 119.952 32.3014 121.22 32.8176C121.482 32.9208 121.842 33.0585 122.315 33.2305C123.895 33.827 124.691 34.4121 124.691 34.9742C124.691 35.3412 124.517 35.6395 124.168 35.8804C123.82 36.1213 123.372 36.236 122.8 36.236C122.141 36.236 121.444 36.1098 120.698 35.846C119.952 35.5821 119.031 35.1462 117.936 34.5153L116.008 38.1172C117.078 38.7367 118.173 39.1955 119.317 39.4938C120.449 39.792 121.643 39.9526 122.9 39.9526C125.101 39.9526 126.868 39.4708 128.199 38.5187C129.517 37.5552 130.189 36.2933 130.189 34.7103C130.189 33.7123 129.878 32.8749 129.256 32.1981C128.634 31.5328 127.539 30.879 125.972 30.2595V30.271Z" fill="url(#paint3_linear_449_19630)"/>
  <path d="M78.916 0.0229423L56.771 0V0.0229423L49.8998 3.81367L52.9847 10.4575L47.1231 14.9928L49.8998 21.2191L45.3092 25.6397L47.1231 31.8287L35.5681 39.4378H58.1868L62.8432 20.777H75.1209L76.5356 13.8246L74.5325 15.0302L72.1657 13.8246L69.1749 14.9928L66.8081 13.8246L63.9789 14.7978L65.5399 7.62743L68.2008 8.84129L70.7045 7.62734L73.0713 8.84129L75.1894 7.62734L77.0363 8.84129L78.916 0.0229423Z" fill="url(#paint4_linear_449_19630)"/>
  <path d="M61.3808 5.30473C62.1878 5.30473 62.842 4.71097 62.842 3.97854C62.842 3.2461 62.1878 2.65234 61.3808 2.65234C60.5739 2.65234 59.9197 3.2461 59.9197 3.97854C59.9197 4.71097 60.5739 5.30473 61.3808 5.30473Z" fill="white"/>
  <path d="M12.5537 21.9209C13.1508 21.9209 13.7976 22.0815 14.4942 22.4142C15.1908 22.7468 15.9745 23.2401 16.8203 23.9169L19.5321 19.6152C18.4499 18.7778 17.3055 18.1469 16.0989 17.7225C14.8923 17.298 13.6234 17.0801 12.3049 17.0801C9.81702 17.0801 7.78942 17.7683 6.20963 19.1334C4.62984 20.4985 3.84617 22.265 3.84617 24.4216C3.84617 25.6031 4.19446 26.6011 4.87862 27.427C5.56278 28.253 6.84405 29.1133 8.70994 30.008C8.82189 30.0539 8.95873 30.1227 9.14532 30.2145C11.061 31.1437 12.0188 31.9925 12.0188 32.7955C12.0188 33.3805 11.7824 33.8509 11.3097 34.2065C10.8371 34.5621 10.2027 34.7456 9.40654 34.7456C8.44871 34.7456 7.51578 34.5277 6.62015 34.0803C5.72452 33.6329 4.7791 32.9217 3.78395 31.9352L0.5 36.3057C1.6071 37.5216 2.85103 38.4508 4.23179 39.0702C5.61255 39.6897 7.09283 39.9994 8.67262 39.9994C11.6829 39.9994 14.0713 39.2996 15.8252 37.9116C17.5792 36.5122 18.4623 34.6538 18.4623 32.3137C18.4623 30.9946 18.1389 29.8933 17.4921 29.01C16.8452 28.1268 15.6884 27.2664 14.034 26.429C13.723 26.257 13.2752 26.039 12.7154 25.7752C11.0983 25.0066 10.2897 24.3184 10.2897 23.7104C10.2897 23.2171 10.5012 22.7927 10.9365 22.4486C11.3719 22.1044 11.9068 21.9324 12.5537 21.9324V21.9209Z" fill="url(#paint5_linear_449_19630)"/>
  <path d="M37.9925 39.4379L40.5799 24.3878H35.1191L34.7459 26.5673C34.0244 25.6611 33.2159 24.9958 32.3202 24.5599C31.4246 24.124 30.417 23.9175 29.285 23.9175C26.8469 23.9175 24.8193 24.7778 23.1898 26.4985C21.5603 28.2192 20.7517 30.3757 20.7517 32.9797C20.7517 35.0559 21.3488 36.7422 22.5554 38.0499C23.762 39.3461 25.2921 40 27.1704 40C28.2775 40 29.3099 39.782 30.2802 39.3576C31.2505 38.9332 32.1212 38.2908 32.9049 37.4419L32.6312 39.4494H37.9925V39.4379ZM32.88 34.425C32.1212 35.2395 31.1758 35.6524 30.0314 35.6524C28.9865 35.6524 28.1531 35.3542 27.5062 34.7692C26.8718 34.1841 26.5484 33.4041 26.5484 32.4405C26.5484 31.2246 26.934 30.2037 27.6928 29.4007C28.4516 28.5977 29.4094 28.1962 30.5787 28.1962C31.5988 28.1962 32.4322 28.483 33.0666 29.068C33.701 29.653 34.0244 30.4101 34.0244 31.3393C34.0244 32.5667 33.6388 33.5991 32.88 34.4136V34.425Z" fill="url(#paint6_linear_449_19630)"/>
  <defs>
    <linearGradient id="paint0_linear_449_19630" x1="71.9732" y1="23.8354" x2="71.9732" y2="39.9983" gradientUnits="userSpaceOnUse">
      <stop stop-color="#9B32EE"/>
      <stop offset="1" stop-color="#3056C9"/>
    </linearGradient>
    <linearGradient id="paint1_linear_449_19630" x1="89.7373" y1="23.9844" x2="89.7373" y2="39.4016" gradientUnits="userSpaceOnUse">
      <stop stop-color="#9B32EE"/>
      <stop offset="1" stop-color="#3056C9"/>
    </linearGradient>
    <linearGradient id="paint2_linear_449_19630" x1="106.459" y1="24.3516" x2="106.459" y2="39.9752" gradientUnits="userSpaceOnUse">
      <stop stop-color="#9B32EE"/>
      <stop offset="1" stop-color="#3056C9"/>
    </linearGradient>
    <linearGradient id="paint3_linear_449_19630" x1="123.254" y1="23.8472" x2="123.254" y2="39.9526" gradientUnits="userSpaceOnUse">
      <stop stop-color="#9B32EE"/>
      <stop offset="1" stop-color="#3056C9"/>
    </linearGradient>
    <linearGradient id="paint4_linear_449_19630" x1="54.9326" y1="6.1889" x2="54.9326" y2="45.6266" gradientUnits="userSpaceOnUse">
      <stop stop-color="#9B32EE"/>
      <stop offset="1" stop-color="#3056C9"/>
    </linearGradient>
    <linearGradient id="paint5_linear_449_19630" x1="10.0161" y1="17.0801" x2="10.0161" y2="39.9994" gradientUnits="userSpaceOnUse">
      <stop stop-color="#9B32EE"/>
      <stop offset="1" stop-color="#3056C9"/>
    </linearGradient>
    <linearGradient id="paint6_linear_449_19630" x1="30.6658" y1="23.9175" x2="30.6658" y2="40" gradientUnits="userSpaceOnUse">
      <stop stop-color="#9B32EE"/>
      <stop offset="1" stop-color="#3056C9"/>
    </linearGradient>
  </defs>
</svg>
