<svg width="23" height="22" viewBox="0 0 23 22" fill="none" xmlns="http://www.w3.org/2000/svg">
<g id="ico_dotsmenu_vert_black">
<path id="Icon" d="M11.8435 10.656L11.8435 11.3435M11.156 10.656V11.3435M11.8435 4.23938L11.8435 4.92688M11.156 4.23938V4.92688M11.8435 17.0727L11.8435 17.7602M11.156 17.0727V17.7602M11.4997 11.9167C10.9934 11.9167 10.583 11.5063 10.583 11C10.583 10.4938 10.9934 10.0834 11.4997 10.0834C12.0059 10.0834 12.4163 10.4938 12.4163 11C12.4163 11.5063 12.0059 11.9167 11.4997 11.9167ZM11.4997 5.50002C10.9934 5.50002 10.583 5.08962 10.583 4.58335C10.583 4.07709 10.9934 3.66669 11.4997 3.66669C12.0059 3.66669 12.4163 4.07709 12.4163 4.58335C12.4163 5.08962 12.0059 5.50002 11.4997 5.50002ZM11.4997 18.3334C10.9934 18.3334 10.583 17.9229 10.583 17.4167C10.583 16.9104 10.9934 16.5 11.4997 16.5C12.0059 16.5 12.4163 16.9104 12.4163 17.4167C12.4163 17.9229 12.0059 18.3334 11.4997 18.3334Z" stroke="#919BA7" stroke-width="2" stroke-linecap="round"/>
</g>
</svg>
