<svg width="32" height="32" viewBox="0 0 32 32" fill="none" xmlns="http://www.w3.org/2000/svg">
<path d="M10.6667 20C11.1111 20.8889 12.8 22.6667 16 22.6667C19.2 22.6667 20.8889 20.8889 21.3333 20M11.0832 12.4166H11.5832M11.0832 12.9166H11.5832M20.4165 12.4166H20.9165M20.4165 12.9166H20.9165M29.3333 16C29.3333 23.3638 23.3638 29.3333 16 29.3333C8.63619 29.3333 2.66666 23.3638 2.66666 16C2.66666 8.63619 8.63619 2.66666 16 2.66666C23.3638 2.66666 29.3333 8.63619 29.3333 16ZM12 12.6667C12 13.0348 11.7015 13.3333 11.3333 13.3333C10.9651 13.3333 10.6667 13.0348 10.6667 12.6667C10.6667 12.2985 10.9651 12 11.3333 12C11.7015 12 12 12.2985 12 12.6667ZM21.3333 12.6667C21.3333 13.0348 21.0348 13.3333 20.6667 13.3333C20.2985 13.3333 20 13.0348 20 12.6667C20 12.2985 20.2985 12 20.6667 12C21.0348 12 21.3333 12.2985 21.3333 12.6667Z" stroke="#272D37" stroke-width="2" stroke-linecap="round"/>
</svg>
