<svg width="32" height="32" viewBox="0 0 32 32" fill="none"
  xmlns="http://www.w3.org/2000/svg">
  <path d="M27.2181 19.3276L26.3334 19.7937H26.3334L27.2181 19.3276ZM21.6481 8.75707L22.5328 8.29089V8.29089L21.6481 8.75707ZM10.3506 8.75707L9.46594 8.29089L10.3506 8.75707ZM4.78062 19.3276L5.66531 19.7937L4.78062 19.3276ZM17.6908 3.02806L18.1012 2.11615V2.11615L17.6908 3.02806ZM14.3079 3.02806L14.7183 3.93997V3.93997L14.3079 3.02806ZM27.6636 27.3239L28.2166 28.1571H28.2166L27.6636 27.3239ZM29.3061 24.8021L28.318 24.6483L29.3061 24.8021ZM4.33507 27.3239L3.78211 28.1571H3.78211L4.33507 27.3239ZM2.69258 24.8021L3.68067 24.6483L2.69258 24.8021ZM16.9993 11.9956C16.9969 11.4433 16.5471 10.9976 15.9949 11.0001C15.4426 11.0026 14.9969 11.4523 14.9994 12.0046L16.9993 11.9956ZM15.0293 18.6711C15.0317 19.2234 15.4815 19.6691 16.0337 19.6666C16.586 19.6641 17.0317 19.2144 17.0293 18.6621L15.0293 18.6711ZM16.9993 22.6667C16.9993 22.1145 16.5516 21.6667 15.9993 21.6667C15.4471 21.6667 14.9993 22.1145 14.9993 22.6667H16.9993ZM14.9993 22.6801C14.9993 23.2324 15.4471 23.6801 15.9993 23.6801C16.5516 23.6801 16.9993 23.2324 16.9993 22.6801H14.9993ZM10.4293 29.0001H21.5694V27.0001H10.4293V29.0001ZM28.1028 18.8614L22.5328 8.29089L20.7634 9.22325L26.3334 19.7937L28.1028 18.8614ZM9.46594 8.29089L3.89593 18.8614L5.66531 19.7937L11.2353 9.22325L9.46594 8.29089ZM22.5328 8.29089C21.6332 6.58375 20.9263 5.24 20.2863 4.25966C19.6519 3.28786 18.9866 2.51459 18.1012 2.11615L17.2804 3.93997C17.6252 4.09513 18.0294 4.46123 18.6116 5.35296C19.1882 6.23616 19.8448 7.48011 20.7634 9.22325L22.5328 8.29089ZM11.2353 9.22325C12.1539 7.48011 12.8105 6.23616 13.3871 5.35296C13.9693 4.46123 14.3735 4.09513 14.7183 3.93997L13.8975 2.11615C13.0121 2.51459 12.3468 3.28786 11.7124 4.25966C11.0724 5.24 10.3655 6.58375 9.46594 8.29089L11.2353 9.22325ZM18.1012 2.11615C16.7697 1.51695 15.229 1.51695 13.8975 2.11615L14.7183 3.93997C15.5278 3.57567 16.4709 3.57567 17.2804 3.93997L18.1012 2.11615ZM21.5694 29.0001C23.2426 29.0001 24.563 29.001 25.5898 28.9118C26.613 28.8229 27.495 28.636 28.2166 28.1571L27.1107 26.4907C26.8134 26.688 26.3401 26.8391 25.4167 26.9193C24.497 26.9992 23.2797 27.0001 21.5694 27.0001V29.0001ZM26.3334 19.7937C27.0994 21.2475 27.6397 22.2751 27.973 23.0847C28.3073 23.8968 28.3662 24.3392 28.318 24.6483L30.2942 24.956C30.4278 24.098 30.1993 23.2389 29.8224 22.3234C29.4445 21.4054 28.8499 20.2792 28.1028 18.8614L26.3334 19.7937ZM28.2166 28.1571C29.3309 27.4175 30.0906 26.2636 30.2942 24.956L28.318 24.6483C28.2042 25.379 27.7757 26.0493 27.1107 26.4907L28.2166 28.1571ZM10.4293 27.0001C8.71902 27.0001 7.50171 26.9992 6.58197 26.9193C5.65864 26.8391 5.18532 26.688 4.88804 26.4907L3.78211 28.1571C4.50372 28.636 5.38574 28.8229 6.40893 28.9118C7.43571 29.001 8.75607 29.0001 10.4293 29.0001V27.0001ZM3.89593 18.8614C3.14881 20.2792 2.55418 21.4054 2.17629 22.3234C1.79942 23.2389 1.57088 24.098 1.70449 24.956L3.68067 24.6483C3.63255 24.3392 3.69144 23.8968 4.02573 23.0847C4.35899 22.2751 4.89925 21.2475 5.66531 19.7937L3.89593 18.8614ZM4.88804 26.4907C4.22299 26.0493 3.79446 25.379 3.68067 24.6483L1.70449 24.956C1.90808 26.2636 2.66775 27.4175 3.78211 28.1571L4.88804 26.4907ZM14.9994 12.0046L15.0293 18.6711L17.0293 18.6621L16.9993 11.9956L14.9994 12.0046ZM14.9993 22.6667V22.6801H16.9993V22.6667H14.9993Z" fill="#FD5E49"/>
</svg>
