<svg width="14" height="18" viewBox="0 0 14 18" fill="none" xmlns="http://www.w3.org/2000/svg">
<path d="M6.13317 7.33333C6.13317 6.89151 5.775 6.53333 5.33317 6.53333C4.89134 6.53333 4.53317 6.89151 4.53317 7.33333H6.13317ZM4.53317 14C4.53317 14.4418 4.89134 14.8 5.33317 14.8C5.775 14.8 6.13317 14.4418 6.13317 14H4.53317ZM9.4665 7.33333C9.4665 6.89151 9.10833 6.53333 8.6665 6.53333C8.22468 6.53333 7.8665 6.89151 7.8665 7.33333H9.4665ZM7.8665 14C7.8665 14.4418 8.22468 14.8 8.6665 14.8C9.10833 14.8 9.4665 14.4418 9.4665 14H7.8665ZM2.90985 16.3183L3.27305 15.6055L2.90985 16.3183ZM2.18149 15.59L2.8943 15.2268H2.8943L2.18149 15.59ZM11.8182 15.59L11.1054 15.2268L11.1054 15.2268L11.8182 15.59ZM11.0898 16.3183L10.7266 15.6055H10.7266L11.0898 16.3183ZM1.1665 4.03333C0.724676 4.03333 0.366504 4.3915 0.366504 4.83333C0.366504 5.27516 0.724676 5.63333 1.1665 5.63333V4.03333ZM12.8332 5.63333C13.275 5.63333 13.6332 5.27516 13.6332 4.83333C13.6332 4.3915 13.275 4.03333 12.8332 4.03333V5.63333ZM3.28317 4.83333C3.28317 5.27516 3.64134 5.63333 4.08317 5.63333C4.525 5.63333 4.88317 5.27516 4.88317 4.83333H3.28317ZM9.1165 4.83333C9.1165 5.27516 9.47468 5.63333 9.9165 5.63333C10.3583 5.63333 10.7165 5.27516 10.7165 4.83333H9.1165ZM4.53317 7.33333V14H6.13317V7.33333H4.53317ZM7.8665 7.33333V14H9.4665V7.33333H7.8665ZM11.1998 4.83333V13.8333H12.7998V4.83333H11.1998ZM9.33317 15.7H4.6665V17.3H9.33317V15.7ZM1.19984 4.83333V13.8333H2.79984V4.83333H1.19984ZM4.6665 15.7C4.18659 15.7 3.87477 15.6994 3.63699 15.6799C3.40854 15.6613 3.31973 15.6293 3.27305 15.6055L2.54666 17.0311C2.85649 17.189 3.1793 17.2479 3.5067 17.2746C3.82475 17.3006 4.21299 17.3 4.6665 17.3V15.7ZM1.19984 13.8333C1.19984 14.2868 1.19922 14.6751 1.2252 14.9931C1.25195 15.3205 1.31082 15.6433 1.46869 15.9532L2.8943 15.2268C2.87051 15.1801 2.83855 15.0913 2.81989 14.8629C2.80046 14.6251 2.79984 14.3132 2.79984 13.8333H1.19984ZM3.27305 15.6055C3.10997 15.5224 2.97739 15.3899 2.8943 15.2268L1.46869 15.9532C1.70518 16.4173 2.08253 16.7947 2.54666 17.0311L3.27305 15.6055ZM11.1998 13.8333C11.1998 14.3132 11.1992 14.6251 11.1798 14.8629C11.1611 15.0913 11.1292 15.1801 11.1054 15.2268L12.531 15.9532C12.6889 15.6433 12.7477 15.3205 12.7745 14.9931C12.8005 14.6751 12.7998 14.2868 12.7998 13.8333H11.1998ZM9.33317 17.3C9.78668 17.3 10.1749 17.3006 10.493 17.2746C10.8204 17.2479 11.1432 17.189 11.453 17.0311L10.7266 15.6055C10.6799 15.6293 10.5911 15.6613 10.3627 15.6799C10.1249 15.6994 9.81308 15.7 9.33317 15.7V17.3ZM11.1054 15.2268C11.0223 15.3899 10.8897 15.5224 10.7266 15.6055L11.453 17.0311C11.9171 16.7947 12.2945 16.4173 12.531 15.9532L11.1054 15.2268ZM1.1665 5.63333H1.99984V4.03333H1.1665V5.63333ZM1.99984 5.63333H11.9998V4.03333H1.99984V5.63333ZM11.9998 5.63333H12.8332V4.03333H11.9998V5.63333ZM4.88317 4.16667C4.88317 3.2017 5.76185 2.3 6.99984 2.3V0.7C5.01617 0.7 3.28317 2.18611 3.28317 4.16667H4.88317ZM6.99984 2.3C8.23783 2.3 9.1165 3.2017 9.1165 4.16667H10.7165C10.7165 2.18611 8.98351 0.7 6.99984 0.7V2.3ZM3.28317 4.16667V4.83333H4.88317V4.16667H3.28317ZM9.1165 4.16667V4.83333H10.7165V4.16667H9.1165Z" fill="#F15146"/>
</svg>
