<svg width="20" height="21" viewBox="0 0 20 21" fill="none" xmlns="http://www.w3.org/2000/svg">
<g id="ico_rotate_black">
<path id="Icon" d="M10.5746 17.9777L10.3165 17.1836L10.5746 17.9777ZM9.54452 17.9777L9.80255 17.1836L9.54452 17.9777ZM14.0665 10.9714L14.6569 10.381L14.0665 10.9714ZM15.1802 12.342L14.386 12.6001L15.1802 12.342ZM15.1802 13.3721L14.386 13.1141L15.1802 13.3721ZM8.17393 8.85012L8.76437 9.44055L8.17393 8.85012ZM9.54452 7.73643L9.80255 8.53056L9.54452 7.73643ZM11.9452 8.85012L11.3547 9.44055L11.9452 8.85012ZM10.5746 7.73643L10.3165 8.53056L10.5746 7.73643ZM6.05261 10.9714L5.46218 10.381H5.46218L6.05261 10.9714ZM4.93892 12.342L5.73305 12.6001L4.93892 12.342ZM4.93892 13.3721L5.73305 13.1141L4.93892 13.3721ZM4.44345 4.0854C4.09983 4.39295 4.07059 4.92083 4.37814 5.26446C4.68569 5.60808 5.21357 5.63733 5.5572 5.32977L4.44345 4.0854ZM5.00199 2.79785C5.00199 2.33669 4.62815 1.96285 4.16699 1.96285C3.70583 1.96285 3.33199 2.33669 3.33199 2.79785H5.00199ZM7.50033 6.96619C7.96148 6.96619 8.33533 6.59234 8.33533 6.13119C8.33533 5.67003 7.96148 5.29619 7.50033 5.29619V6.96619ZM14.7132 5.58498C15.0393 5.91107 15.568 5.91107 15.8941 5.58498C16.2201 5.2589 16.2201 4.7302 15.8941 4.40412L14.7132 5.58498ZM6.64304 11.5619L8.76437 9.44055L7.5835 8.25968L5.46218 10.381L6.64304 11.5619ZM11.3547 9.44055L13.4761 11.5619L14.6569 10.381L12.5356 8.25968L11.3547 9.44055ZM13.4761 14.1522L11.3547 16.2736L12.5356 17.4544L14.6569 15.3331L13.4761 14.1522ZM8.76437 16.2736L6.64304 14.1522L5.46218 15.3331L7.5835 17.4544L8.76437 16.2736ZM11.3547 16.2736C11.015 16.6133 10.7952 16.8322 10.6147 16.9854C10.4416 17.1324 10.3602 17.1694 10.3165 17.1836L10.8326 18.7718C11.1695 18.6624 11.4434 18.4725 11.6955 18.2585C11.9401 18.0509 12.2153 17.7747 12.5356 17.4544L11.3547 16.2736ZM7.5835 17.4544C7.90377 17.7747 8.17902 18.0509 8.42364 18.2585C8.67571 18.4725 8.94963 18.6624 9.28649 18.7718L9.80255 17.1836C9.75886 17.1694 9.6775 17.1324 9.50442 16.9854C9.32389 16.8322 9.10412 16.6133 8.76437 16.2736L7.5835 17.4544ZM10.3165 17.1836C10.1495 17.2378 9.96958 17.2378 9.80255 17.1836L9.28649 18.7718C9.78893 18.9351 10.3302 18.9351 10.8326 18.7718L10.3165 17.1836ZM13.4761 11.5619C13.8158 11.9016 14.0347 12.1214 14.1879 12.3019C14.3349 12.475 14.3719 12.5564 14.386 12.6001L15.9743 12.084C15.8649 11.7471 15.675 11.4732 15.461 11.2211C15.2534 10.9765 14.9772 10.7013 14.6569 10.381L13.4761 11.5619ZM14.6569 15.3331C14.9772 15.0128 15.2534 14.7376 15.461 14.493C15.675 14.2409 15.8649 13.967 15.9743 13.6301L14.386 13.1141C14.3719 13.1577 14.3349 13.2391 14.1879 13.4122C14.0347 13.5927 13.8158 13.8125 13.4761 14.1522L14.6569 15.3331ZM14.386 12.6001C14.4403 12.7671 14.4403 12.947 14.386 13.1141L15.9743 13.6301C16.1376 13.1277 16.1376 12.5864 15.9743 12.084L14.386 12.6001ZM8.76437 9.44055C9.10412 9.10079 9.32389 8.88195 9.50442 8.72868C9.6775 8.58175 9.75886 8.54475 9.80255 8.53056L9.28649 6.9423C8.94963 7.05175 8.67571 7.24158 8.42364 7.45558C8.17902 7.66324 7.90377 7.93941 7.5835 8.25968L8.76437 9.44055ZM12.5356 8.25968C12.2153 7.93941 11.9401 7.66324 11.6955 7.45558C11.4434 7.24158 11.1695 7.05175 10.8326 6.9423L10.3165 8.53056C10.3602 8.54475 10.4416 8.58175 10.6147 8.72868C10.7952 8.88195 11.015 9.10079 11.3547 9.44055L12.5356 8.25968ZM9.80255 8.53056C9.96958 8.47629 10.1495 8.47629 10.3165 8.53056L10.8326 6.9423C10.3302 6.77904 9.78893 6.77904 9.28649 6.9423L9.80255 8.53056ZM5.46218 10.381C5.1419 10.7013 4.86573 10.9765 4.65807 11.2211C4.44408 11.4732 4.25424 11.7471 4.14479 12.084L5.73305 12.6001C5.74725 12.5564 5.78424 12.475 5.93118 12.3019C6.08444 12.1214 6.30329 11.9016 6.64304 11.5619L5.46218 10.381ZM6.64304 14.1522C6.30329 13.8125 6.08444 13.5927 5.93118 13.4122C5.78424 13.2391 5.74725 13.1577 5.73305 13.1141L4.14479 13.6301C4.25424 13.967 4.44408 14.2409 4.65807 14.493C4.86573 14.7376 5.1419 15.0128 5.46218 15.3331L6.64304 14.1522ZM4.14479 12.084C3.98153 12.5864 3.98153 13.1277 4.14479 13.6301L5.73305 13.1141C5.67878 12.947 5.67878 12.7671 5.73305 12.6001L4.14479 12.084ZM10.0003 1.96285C7.86612 1.96285 5.91752 2.76607 4.44345 4.0854L5.5572 5.32977C6.73692 4.2739 8.29276 3.63285 10.0003 3.63285V1.96285ZM3.33199 2.79785V5.29785H5.00199V2.79785H3.33199ZM5.00033 6.96619H7.50033V5.29619H5.00033V6.96619ZM3.33199 5.29785C3.33199 6.21925 4.07893 6.96619 5.00033 6.96619V5.29619C4.99902 5.29619 4.99987 5.29608 5.00123 5.29666C5.00203 5.297 5.00196 5.29713 5.0015 5.29667C5.00105 5.29622 5.00118 5.29614 5.00152 5.29695C5.00209 5.29831 5.00199 5.29916 5.00199 5.29785H3.33199ZM15.8941 4.40412C14.3866 2.89669 12.3017 1.96285 10.0003 1.96285V3.63285C11.841 3.63285 13.5062 4.37794 14.7132 5.58498L15.8941 4.40412Z" fill="#272D37"/>
</g>
</svg>
