<svg xmlns="http://www.w3.org/2000/svg" width="24" height="24" viewBox="0 0 24 24" fill="none">
  <path d="M1.13609 10.0246L13.2772 22.1658C13.6629 22.5515 14.2883 22.5515 14.674 22.1658L22.8645 13.9752M7.06202 14.9629L11.3019 10.723C11.6876 10.3373 12.313 10.3373 12.6987 10.723L18.9139 16.9382M17.5556 5.70358H18.2963M17.5556 6.44432H18.2963M9.03733 22.8641H14.9633C17.7289 22.8641 19.1118 22.8641 20.1681 22.3259C21.0973 21.8524 21.8528 21.097 22.3262 20.1678C22.8645 19.1114 22.8645 17.7286 22.8645 14.9629V9.03698C22.8645 6.27129 22.8645 4.88844 22.3262 3.83209C21.8528 2.90289 21.0973 2.14743 20.1681 1.67398C19.1118 1.13574 17.7289 1.13574 14.9633 1.13574H9.03733C6.27163 1.13574 4.88879 1.13574 3.83243 1.67398C2.90324 2.14743 2.14778 2.90289 1.67433 3.83209C1.13609 4.88844 1.13609 6.27129 1.13609 9.03698V14.9629C1.13609 17.7286 1.13609 19.1114 1.67433 20.1678C2.14778 21.097 2.90324 21.8524 3.83243 22.3259C4.88879 22.8641 6.27163 22.8641 9.03733 22.8641ZM18.9139 6.07401C18.9139 6.61948 18.4717 7.06167 17.9262 7.06167C17.3807 7.06167 16.9386 6.61948 16.9386 6.07401C16.9386 5.52855 17.3807 5.08636 17.9262 5.08636C18.4717 5.08636 18.9139 5.52855 18.9139 6.07401Z" stroke="#919BA7" stroke-width="1.5" stroke-linecap="round"/>
</svg>