<svg width="26" height="27" viewBox="0 0 26 27" fill="none" xmlns="http://www.w3.org/2000/svg">
<g id="file/3">
<path id="Icon" d="M21.4307 3.3519L22.3217 2.89791V2.89791L21.4307 3.3519ZM18.2002 2.16888V3.16888V2.16888ZM20.4838 2.40504L20.9378 1.51403L20.9378 1.51403L20.4838 2.40504ZM20.4838 23.5994L20.9378 24.4904H20.9378L20.4838 23.5994ZM21.4307 22.6525L22.3217 23.1065L22.3217 23.1065L21.4307 22.6525ZM5.51652 23.5994L5.06253 24.4904H5.06253L5.51652 23.5994ZM4.56965 22.6525L5.46066 22.1985H5.46066L4.56965 22.6525ZM4.9681 9.11756L4.261 8.41045L4.261 8.41045L4.9681 9.11756ZM11.2822 2.80348L10.5751 2.09637V2.09637L11.2822 2.80348ZM7.80016 24.8355H18.2002V22.8355H7.80016V24.8355ZM22.6668 20.3689V5.63555H20.6668V20.3689H22.6668ZM22.6668 5.63555C22.6668 5.04533 22.6676 4.54252 22.634 4.13106C22.5994 3.70792 22.5236 3.29412 22.3217 2.89791L20.5397 3.80589C20.5739 3.87316 20.6162 3.99446 20.6406 4.29392C20.6661 4.60505 20.6668 5.01233 20.6668 5.63555H22.6668ZM18.2002 3.16888C18.8234 3.16888 19.2307 3.16966 19.5418 3.19508C19.8412 3.21955 19.9625 3.26177 20.0298 3.29604L20.9378 1.51403C20.5416 1.31215 20.1278 1.2363 19.7047 1.20172C19.2932 1.16811 18.7904 1.16888 18.2002 1.16888L18.2002 3.16888ZM22.3217 2.89791C22.0181 2.30206 21.5336 1.81763 20.9378 1.51403L20.0298 3.29604C20.2493 3.4079 20.4278 3.58638 20.5397 3.80589L22.3217 2.89791ZM18.2002 24.8355C18.7904 24.8355 19.2932 24.8363 19.7047 24.8027C20.1278 24.7681 20.5416 24.6923 20.9378 24.4904L20.0298 22.7084C19.9626 22.7427 19.8413 22.7849 19.5418 22.8093C19.2307 22.8348 18.8234 22.8355 18.2002 22.8355V24.8355ZM20.6668 20.3689C20.6668 20.9921 20.6661 21.3994 20.6406 21.7105C20.6162 22.01 20.5739 22.1313 20.5397 22.1985L22.3217 23.1065C22.5236 22.7103 22.5994 22.2965 22.634 21.8734C22.6676 21.4619 22.6668 20.9591 22.6668 20.3689H20.6668ZM20.9378 24.4904C21.5336 24.1868 22.0181 23.7024 22.3217 23.1065L20.5397 22.1985C20.4278 22.4181 20.2493 22.5965 20.0298 22.7084L20.9378 24.4904ZM7.80016 22.8355C7.17695 22.8355 6.76967 22.8348 6.45854 22.8093C6.15907 22.7849 6.03777 22.7427 5.97051 22.7084L5.06253 24.4904C5.45873 24.6923 5.87254 24.7681 6.29568 24.8027C6.70714 24.8363 7.20995 24.8355 7.80016 24.8355V22.8355ZM3.3335 20.3689C3.3335 20.9591 3.33272 21.4619 3.36634 21.8734C3.40091 22.2965 3.47677 22.7103 3.67864 23.1065L5.46066 22.1985C5.42638 22.1313 5.38416 22.01 5.35969 21.7105C5.33427 21.3994 5.3335 20.9921 5.3335 20.3689H3.3335ZM5.97051 22.7084C5.75099 22.5965 5.57251 22.4181 5.46066 22.1985L3.67864 23.1065C3.98224 23.7024 4.46668 24.1868 5.06253 24.4904L5.97051 22.7084ZM3.3335 10.6496V20.3689H5.3335V10.6496H3.3335ZM18.2002 1.16888H12.8143V3.16888H18.2002V1.16888ZM5.67521 9.82467L11.9893 3.51059L10.5751 2.09637L4.261 8.41045L5.67521 9.82467ZM5.41683 10.7522H10.7502V8.75222H5.41683V10.7522ZM12.9168 8.58554V3.25222H10.9168V8.58554H12.9168ZM10.7502 10.7522C11.9468 10.7522 12.9168 9.78216 12.9168 8.58554H10.9168C10.9168 8.6776 10.8422 8.75222 10.7502 8.75222V10.7522ZM12.8143 1.16888C12.3574 1.16888 11.9106 1.26765 11.5026 1.45331L12.331 3.27368C12.4814 3.20524 12.646 3.16888 12.8143 3.16888V1.16888ZM11.5026 1.45331C11.1607 1.60891 10.8459 1.82561 10.5751 2.09637L11.9893 3.51059C12.0891 3.41081 12.205 3.33102 12.331 3.27368L11.5026 1.45331ZM12.9168 3.25222V2.36349H10.9168V3.25222H12.9168ZM5.3335 10.6496C5.3335 10.4813 5.36985 10.3168 5.43828 10.1664L3.61789 9.33804C3.43226 9.74598 3.3335 10.1927 3.3335 10.6496H5.3335ZM5.43828 10.1664C5.49562 10.0404 5.57543 9.92445 5.67521 9.82467L4.261 8.41045C3.99022 8.68123 3.7735 8.99607 3.61789 9.33804L5.43828 10.1664ZM5.41683 8.75222H4.52808V10.7522H5.41683V8.75222Z" fill="#5F6D7E"/>
</g>
</svg>
