<svg xmlns="http://www.w3.org/2000/svg" width="20" height="20" viewBox="0 0 20 20" fill="none">
  <path d="M9.16829 8.33333C9.16829 7.87218 8.79445 7.49833 8.33329 7.49833C7.87213 7.49833 7.49829 7.87218 7.49829 8.33333H9.16829ZM7.49829 15C7.49829 15.4612 7.87213 15.835 8.33329 15.835C8.79445 15.835 9.16829 15.4612 9.16829 15H7.49829ZM12.5016 8.33333C12.5016 7.87218 12.1278 7.49833 11.6666 7.49833C11.2055 7.49833 10.8316 7.87218 10.8316 8.33333H12.5016ZM10.8316 15C10.8316 15.4612 11.2055 15.835 11.6666 15.835C12.1278 15.835 12.5016 15.4612 12.5016 15H10.8316ZM5.90998 17.3183L6.28906 16.5744L5.90998 17.3183ZM5.18162 16.59L5.92561 16.2109L5.92561 16.2109L5.18162 16.59ZM14.8183 16.59L14.0743 16.2109L14.0743 16.2109L14.8183 16.59ZM14.0899 17.3183L13.7109 16.5744H13.7109L14.0899 17.3183ZM4.16663 4.99833C3.70547 4.99833 3.33163 5.37217 3.33163 5.83333C3.33163 6.29449 3.70547 6.66833 4.16663 6.66833V4.99833ZM15.8333 6.66833C16.2944 6.66833 16.6683 6.29449 16.6683 5.83333C16.6683 5.37217 16.2944 4.99833 15.8333 4.99833V6.66833ZM6.24829 5.83333C6.24829 6.29449 6.62213 6.66833 7.08329 6.66833C7.54445 6.66833 7.91829 6.29449 7.91829 5.83333H6.24829ZM12.0816 5.83333C12.0816 6.29449 12.4555 6.66833 12.9166 6.66833C13.3778 6.66833 13.7516 6.29449 13.7516 5.83333H12.0816ZM7.49829 8.33333V15H9.16829V8.33333H7.49829ZM10.8316 8.33333V15H12.5016V8.33333H10.8316ZM14.165 5.83333V14.8333H15.835V5.83333H14.165ZM12.3333 16.665H7.66663V18.335H12.3333V16.665ZM4.16496 5.83333V14.8333H5.83496V5.83333H4.16496ZM7.66663 16.665C7.18614 16.665 6.87599 16.6644 6.63996 16.6451C6.41368 16.6266 6.32999 16.5952 6.28906 16.5744L5.53089 18.0623C5.84648 18.2231 6.17441 18.2826 6.50397 18.3095C6.82378 18.3356 7.21369 18.335 7.66663 18.335V16.665ZM4.16496 14.8333C4.16496 15.2863 4.16431 15.6762 4.19044 15.996C4.21737 16.3256 4.27682 16.6535 4.43762 16.9691L5.92561 16.2109C5.90475 16.17 5.87338 16.0863 5.85489 15.86C5.83561 15.624 5.83496 15.3138 5.83496 14.8333H4.16496ZM6.28906 16.5744C6.13257 16.4946 6.00534 16.3674 5.92561 16.2109L4.43762 16.9691C4.67747 17.4398 5.06018 17.8225 5.53089 18.0623L6.28906 16.5744ZM14.165 14.8333C14.165 15.3138 14.1643 15.624 14.145 15.86C14.1265 16.0863 14.0952 16.17 14.0743 16.2109L15.5623 16.9691C15.7231 16.6535 15.7826 16.3256 15.8095 15.996C15.8356 15.6762 15.835 15.2863 15.835 14.8333H14.165ZM12.3333 18.335C12.7862 18.335 13.1761 18.3356 13.496 18.3095C13.8255 18.2826 14.1534 18.2231 14.469 18.0623L13.7109 16.5744C13.6699 16.5952 13.5862 16.6266 13.36 16.6451C13.1239 16.6644 12.8138 16.665 12.3333 16.665V18.335ZM14.0743 16.2109C13.9946 16.3674 13.8674 16.4946 13.7109 16.5744L14.469 18.0623C14.9397 17.8225 15.3224 17.4398 15.5623 16.9691L14.0743 16.2109ZM4.16663 6.66833H4.99996V4.99833H4.16663V6.66833ZM4.99996 6.66833H15V4.99833H4.99996V6.66833ZM15 6.66833H15.8333V4.99833H15V6.66833ZM7.91829 5.16667C7.91829 4.22392 8.77828 3.335 9.99996 3.335V1.665C7.99998 1.665 6.24829 3.1639 6.24829 5.16667H7.91829ZM9.99996 3.335C11.2216 3.335 12.0816 4.22392 12.0816 5.16667H13.7516C13.7516 3.1639 11.9999 1.665 9.99996 1.665V3.335ZM6.24829 5.16667V5.83333H7.91829V5.16667H6.24829ZM12.0816 5.16667V5.83333H13.7516V5.16667H12.0816Z" fill="#272D37"/>
</svg>