<svg width="40" height="40" viewBox="0 0 40 40" fill="none" xmlns="http://www.w3.org/2000/svg">
<path d="M28.4302 10.349L29.3212 9.89504V9.89504L28.4302 10.349ZM25.1997 9.16602V10.166V9.16602ZM27.4833 9.40217L27.9373 8.51116L27.9373 8.51116L27.4833 9.40217ZM27.4833 30.5965L27.9373 31.4875H27.9373L27.4833 30.5965ZM28.4302 29.6497L29.3212 30.1036L29.3212 30.1036L28.4302 29.6497ZM12.516 30.5965L12.062 31.4875H12.062L12.516 30.5965ZM11.5692 29.6497L12.4602 29.1957H12.4602L11.5692 29.6497ZM11.9676 16.1147L11.2605 15.4076L11.2605 15.4076L11.9676 16.1147ZM18.2817 9.80061L17.5746 9.0935V9.0935L18.2817 9.80061ZM14.7997 31.8327H25.1997V29.8327H14.7997V31.8327ZM29.6663 27.366V12.6327H27.6663V27.366H29.6663ZM29.6663 12.6327C29.6663 12.0425 29.6671 11.5397 29.6335 11.1282C29.5989 10.7051 29.5231 10.2913 29.3212 9.89504L27.5392 10.803C27.5735 10.8703 27.6157 10.9916 27.6401 11.2911C27.6656 11.6022 27.6663 12.0095 27.6663 12.6327H29.6663ZM25.1997 10.166C25.8229 10.166 26.2302 10.1668 26.5413 10.1922C26.8408 10.2167 26.9621 10.2589 27.0293 10.2932L27.9373 8.51116C27.5411 8.30928 27.1273 8.23343 26.7042 8.19886C26.2927 8.16524 25.7899 8.16602 25.1997 8.16602L25.1997 10.166ZM29.3212 9.89504C29.0176 9.29919 28.5332 8.81476 27.9373 8.51116L27.0293 10.2932C27.2489 10.405 27.4273 10.5835 27.5392 10.803L29.3212 9.89504ZM25.1997 31.8327C25.7899 31.8327 26.2927 31.8335 26.7042 31.7998C27.1273 31.7653 27.5411 31.6894 27.9373 31.4875L27.0293 29.7055C26.9621 29.7398 26.8408 29.782 26.5413 29.8065C26.2302 29.8319 25.8229 29.8327 25.1997 29.8327V31.8327ZM27.6663 27.366C27.6663 27.9892 27.6656 28.3965 27.6401 28.7076C27.6157 29.0071 27.5735 29.1284 27.5392 29.1957L29.3212 30.1036C29.5231 29.7074 29.5989 29.2936 29.6335 28.8705C29.6671 28.459 29.6663 27.9562 29.6663 27.366H27.6663ZM27.9373 31.4875C28.5332 31.1839 29.0176 30.6995 29.3212 30.1036L27.5392 29.1957C27.4273 29.4152 27.2489 29.5937 27.0293 29.7055L27.9373 31.4875ZM14.7997 29.8327C14.1765 29.8327 13.7692 29.8319 13.4581 29.8065C13.1586 29.782 13.0373 29.7398 12.97 29.7055L12.062 31.4875C12.4582 31.6894 12.8721 31.7653 13.2952 31.7998C13.7067 31.8335 14.2095 31.8327 14.7997 31.8327V29.8327ZM10.333 27.366C10.333 27.9562 10.3322 28.459 10.3658 28.8705C10.4004 29.2936 10.4763 29.7074 10.6782 30.1037L12.4602 29.1957C12.4259 29.1284 12.3837 29.0071 12.3592 28.7076C12.3338 28.3965 12.333 27.9892 12.333 27.366H10.333ZM12.97 29.7055C12.7505 29.5937 12.572 29.4152 12.4602 29.1957L10.6782 30.1037C10.9818 30.6995 11.4662 31.1839 12.062 31.4875L12.97 29.7055ZM10.333 17.6468V27.366H12.333V17.6468H10.333ZM25.1997 8.16602H19.8138V10.166H25.1997V8.16602ZM12.6747 16.8218L18.9888 10.5077L17.5746 9.0935L11.2605 15.4076L12.6747 16.8218ZM12.4163 17.7493H17.7497V15.7493H12.4163V17.7493ZM19.9163 15.5827V10.2493H17.9163V15.5827H19.9163ZM17.7497 17.7493C18.9463 17.7493 19.9163 16.7793 19.9163 15.5827H17.9163C17.9163 15.6747 17.8417 15.7493 17.7497 15.7493V17.7493ZM19.8138 8.16602C19.3569 8.16602 18.9101 8.26479 18.5021 8.45044L19.3305 10.2708C19.4809 10.2024 19.6455 10.166 19.8138 10.166V8.16602ZM18.5021 8.45044C18.1602 8.60604 17.8454 8.82274 17.5746 9.0935L18.9888 10.5077C19.0886 10.4079 19.2045 10.3281 19.3305 10.2708L18.5021 8.45044ZM19.9163 10.2493V9.36062H17.9163V10.2493H19.9163ZM12.333 17.6468C12.333 17.4784 12.3694 17.3139 12.4378 17.1635L10.6174 16.3352C10.4318 16.7431 10.333 17.1899 10.333 17.6468H12.333ZM12.4378 17.1635C12.4951 17.0375 12.5749 16.9216 12.6747 16.8218L11.2605 15.4076C10.9897 15.6784 10.773 15.9932 10.6174 16.3352L12.4378 17.1635ZM12.4163 15.7493H11.5276V17.7493H12.4163V15.7493Z" fill="#5F6D7E"/>
</svg>
