<svg width="135" height="36" viewBox="0 0 135 36" fill="none" xmlns="http://www.w3.org/2000/svg">
<g clip-path="url(#clip0_5489_144956)">
<path d="M26.0756 10.7279C23.9625 12.567 22.229 14.5186 22.5475 17.5935C22.8488 20.4996 24.1876 22.6394 26.8232 24.0361C26.3369 25.8403 25.4482 27.4776 24.3859 29.0044C23.7909 29.8599 23.0338 30.601 22.3148 31.3615C20.7681 32.9988 18.9659 33.1307 16.9959 32.2538C14.8771 31.311 12.7583 31.183 10.6052 32.2015C7.83416 33.5109 5.9652 32.2325 4.42426 30.147C2.92909 28.1236 1.78292 25.9354 1.0239 23.5434C-0.112737 19.9661 -0.467458 16.3519 0.819836 12.7203C1.95456 9.5174 4.66265 7.042 8.05538 7.38538C9.52004 7.53281 10.9675 7.97707 12.3902 8.40386C13.3571 8.69292 14.2344 8.71037 15.2013 8.3961C16.521 7.96737 17.8751 7.50565 19.2405 7.3912C22.0402 7.1584 24.3459 8.23314 26.0775 10.7279H26.0756Z" fill="#252D3C"/>
<path d="M84.2217 7.15852C86.5483 7.15852 88.7663 7.01108 90.9576 7.18762C96.08 7.60277 98.237 11.2014 96.6407 16.094C95.7844 18.7207 93.6046 19.6248 91.2246 20.0845C89.8915 20.3425 88.505 20.3096 86.9374 20.424V28.6204H84.2217V7.15852ZM86.9908 13.6419C86.9908 14.8039 87.0289 15.9679 86.9736 17.128C86.9469 17.6867 87.2311 17.9273 87.6449 17.9583C89.512 18.1038 91.3809 18.1465 92.96 16.8719C95.0655 15.1745 95.0807 11.0385 92.2182 9.80269C90.6543 9.12759 89.0638 9.2595 87.4618 9.39724C87.2845 9.41276 87.0213 9.88417 87.0099 10.1538C86.9603 11.3139 86.9889 12.4779 86.9889 13.64L86.9908 13.6419Z" fill="#252D3C"/>
<path d="M120.745 13.3644C121.507 13.3644 122.152 13.4362 122.774 13.3469C123.647 13.2228 123.964 13.6728 124.223 14.4139C125.444 17.9136 126.702 21.3978 127.95 24.8878C127.98 24.9751 128.045 25.0488 128.154 25.2312C128.562 24.007 128.949 22.8644 129.321 21.7159C130.17 19.1009 130.997 16.48 131.88 13.8765C131.958 13.6457 132.363 13.4109 132.634 13.3877C133.391 13.3217 134.155 13.3644 135.002 13.3644C134.569 14.571 134.171 15.7389 133.734 16.8932C132.279 20.7304 130.86 24.5832 129.327 28.3875C128.364 30.7775 127.179 33.0783 124.971 34.5721C124.172 35.1134 123.273 35.4994 122.343 35.9999C122.045 35.0494 121.803 34.2831 121.616 33.6856C122.722 32.7951 123.819 31.9881 124.82 31.0744C125.341 30.5971 125.726 29.9511 126.115 29.3439C126.664 28.4864 126.405 27.6193 126.062 26.756C124.301 22.3367 122.553 17.9155 120.747 13.3644H120.745Z" fill="#252D3C"/>
<path d="M115.862 27.1518C114.144 28.9074 112.094 29.439 109.723 28.8764C107.696 28.3953 106.397 25.6851 106.808 23.7141C107.427 20.746 109.527 19.7372 112.067 19.2309C112.992 19.0466 113.955 19.0427 114.903 18.9981C115.817 18.9554 115.981 18.7401 115.807 17.7953C115.321 15.1589 113.459 14.9338 111.316 15.1996C110.385 15.3141 109.493 15.7428 108.459 16.0668C108.465 16.0804 108.429 15.995 108.39 15.9096C107.639 14.2471 107.702 14.1462 109.401 13.5565C111.283 12.9027 113.141 12.8037 115.088 13.3372C117.55 14.0104 118.376 16.1289 118.471 17.8865C118.614 20.519 118.612 23.1574 118.687 25.7938C118.715 26.787 118.78 27.7803 118.836 28.888C118.143 28.888 117.451 28.9404 116.768 28.8764C115.628 28.7697 116.644 27.5669 115.866 27.1537L115.862 27.1518ZM115.843 20.6606C114.255 20.9846 112.813 21.1689 111.444 21.5937C110.309 21.9449 109.645 22.9071 109.538 24.1332C109.405 25.6619 110.454 26.8627 111.911 26.9442C113.917 27.0567 115.779 25.6463 115.836 23.9392C115.868 22.975 115.841 22.007 115.841 20.6606H115.843Z" fill="#252D3C"/>
<path d="M57.8082 19.0097C58.161 16.7884 56.8718 15.023 54.3468 15.3257C53.0728 15.4789 51.8237 15.832 50.3953 16.1288C50.5402 16.2297 50.4601 16.2064 50.4468 16.1599C49.8193 14.1888 49.9242 14.1151 51.9763 13.5351C53.5916 13.0792 55.1764 13.0462 56.7974 13.3624C59.1374 13.8164 60.1425 15.3082 60.4743 17.4596C60.726 19.0911 60.6936 20.775 60.7222 22.4376C60.7604 24.556 60.7318 26.6764 60.7318 28.8473C60.7566 28.8414 60.6688 28.8783 60.5792 28.8822C59.2544 28.9468 58.461 28.4664 58.1991 27.4408C57.0358 27.9975 55.8877 28.7309 54.6348 29.1111C52.0392 29.8968 48.9974 28.2556 48.8524 25.1206C48.7227 22.2882 50.3495 20.2745 53.2216 19.613C54.6863 19.2754 56.2138 19.2114 57.8044 19.0136L57.8082 19.0097ZM58.0294 21.1553C56.2558 21.0757 54.5833 21.0098 53.069 21.9487C51.9763 22.6277 51.509 23.7723 51.7474 25.1128C51.9152 26.0576 52.7715 27.0101 53.6965 27.1207C55.6551 27.3554 57.8978 26.0556 58.0237 23.6772C58.0656 22.876 58.0313 22.0709 58.0313 21.1553H58.0294Z" fill="#252D3C"/>
<path d="M36.3628 7.36597H47.6986V9.65707H39.1987V16.8466H47.0864V19.1144H39.1567V28.7929H36.3628V7.36597Z" fill="#252D3C"/>
<path d="M103.304 28.7813C102.305 28.7309 101.496 28.6901 100.625 28.6475V6.11084H103.304V28.7813Z" fill="#252D3C"/>
<path d="M72.4907 13.605H74.7945V16.0261C74.8632 16.0474 74.9337 16.0707 75.0024 16.092C75.1282 15.9135 75.2675 15.7428 75.3743 15.5547C76.2344 14.0492 77.4645 13.1782 79.2285 13.1646C79.7511 13.1607 79.9895 13.347 79.9704 13.896C79.9475 14.5323 79.9647 15.1705 79.9647 15.6109C78.9577 15.9135 78.0461 16.0823 77.228 16.4587C75.954 17.0445 75.4582 18.259 75.4029 19.5781C75.2865 22.3174 75.2789 25.0605 75.2293 27.8017C75.2217 28.1838 75.2293 28.568 75.2293 29.0142H72.4907V13.603V13.605Z" fill="#252D3C"/>
<path d="M67.9292 28.8609H65.1963V13.4556H67.9292V28.8609Z" fill="#252D3C"/>
<path d="M13.3153 7.88791C13.0216 3.93426 15.7164 0.182357 19.5458 0C20.753 3.08649 17.1086 7.73853 13.3153 7.88791Z" fill="#252D3C"/>
<path d="M66.4837 7.35453C67.5078 7.33707 68.3221 8.12082 68.3297 9.12767C68.3355 10.0298 67.3323 11.0288 66.4284 11.0211C65.6598 11.0153 64.6948 9.93081 64.7081 9.08693C64.7234 8.18872 65.5625 7.37005 66.4837 7.35453Z" fill="#252D3C"/>
</g>
<defs>
<clipPath id="clip0_5489_144956">
<rect width="135" height="36" fill="white"/>
</clipPath>
</defs>
</svg>
