<svg width="14" height="15" viewBox="0 0 14 15" fill="none" xmlns="http://www.w3.org/2000/svg">
<path d="M1.17657 11.2708L1.96872 11.5349L1.17657 11.2708ZM1.80089 9.39785L1.00874 9.1338H1.00874L1.80089 9.39785ZM2.44509 8.3555L3.03553 8.94594L3.03553 8.94594L2.44509 8.3555ZM8.66663 2.13397L8.07619 1.54354L8.07619 1.54354L8.66663 2.13397ZM12 5.46731L12.5904 6.05774L12 5.46731ZM5.77843 11.6888L5.18799 11.0984L5.18799 11.0984L5.77843 11.6888ZM4.73608 12.333L5.00013 13.1252L5.00013 13.1252L4.73608 12.333ZM2.86312 12.9574L3.12717 13.7495H3.12717L2.86312 12.9574ZM5.43672 12.0078L4.93385 11.3412L4.93385 11.3412L5.43672 12.0078ZM5.17417 12.17L4.80284 11.4222L5.17417 12.17ZM12.803 3.06061L12.0548 3.43137V3.43137L12.803 3.06061ZM12.803 4.54066L12.0548 4.16991V4.16991L12.803 4.54066ZM9.59327 1.33096L9.96402 2.07914V2.07914L9.59327 1.33096ZM11.0733 1.33096L10.7026 2.07914L10.7026 2.07914L11.0733 1.33096ZM1.96388 8.95977L2.71177 9.3311L2.71178 9.33109L1.96388 8.95977ZM2.12615 8.69721L1.45956 8.19434L1.45956 8.19434L2.12615 8.69721ZM0.865988 12.7629L0.0794976 13.0434L0.865988 12.7629ZM1.37101 13.2679L1.09055 14.0544L1.09055 14.0544L1.37101 13.2679ZM8.42372 2.3769C8.09764 2.05081 7.56894 2.05081 7.24285 2.3769C6.91677 2.70299 6.91677 3.23168 7.24285 3.55777L8.42372 2.3769ZM10.5762 6.8911C10.9023 7.21719 11.431 7.21719 11.7571 6.8911C12.0831 6.56501 12.0831 6.03632 11.7571 5.71023L10.5762 6.8911ZM6.99996 12.9656C6.5388 12.9656 6.16496 13.3395 6.16496 13.8006C6.16496 14.2618 6.5388 14.6356 6.99996 14.6356V12.9656ZM12.8333 14.6356C13.2945 14.6356 13.6683 14.2618 13.6683 13.8006C13.6683 13.3395 13.2945 12.9656 12.8333 12.9656V14.6356ZM1.96872 11.5349L2.59304 9.6619L1.00874 9.1338L0.384417 11.0068L1.96872 11.5349ZM3.03553 8.94594L9.25706 2.7244L8.07619 1.54354L1.85466 7.76507L3.03553 8.94594ZM11.4095 4.87687L5.18799 11.0984L6.36886 12.2793L12.5904 6.05774L11.4095 4.87687ZM4.47203 11.5409L2.59907 12.1652L3.12717 13.7495L5.00013 13.1252L4.47203 11.5409ZM5.18799 11.0984C5.00622 11.2802 4.96948 11.3143 4.93385 11.3412L5.93959 12.6744C6.08933 12.5614 6.21861 12.4295 6.36886 12.2793L5.18799 11.0984ZM5.00013 13.1252C5.20172 13.058 5.37749 13.0013 5.54549 12.9179L4.80284 11.4222C4.76286 11.442 4.71591 11.4596 4.47203 11.5409L5.00013 13.1252ZM4.93385 11.3412C4.89278 11.3722 4.84892 11.3993 4.80284 11.4222L5.54549 12.9179C5.68411 12.8491 5.81604 12.7676 5.9396 12.6744L4.93385 11.3412ZM11.4095 2.72441C11.9116 3.22645 12.0095 3.34002 12.0548 3.43137L13.5511 2.68986C13.3535 2.29105 12.9971 1.95024 12.5904 1.54354L11.4095 2.72441ZM12.5904 6.05774C12.9971 5.65104 13.3535 5.31023 13.5511 4.91142L12.0548 4.16991C12.0095 4.26126 11.9116 4.37482 11.4095 4.87687L12.5904 6.05774ZM12.0548 3.43137C12.1701 3.66405 12.1701 3.93723 12.0548 4.16991L13.5511 4.91142C13.898 4.21151 13.898 3.38977 13.5511 2.68986L12.0548 3.43137ZM9.25706 2.72441C9.75911 2.22236 9.87268 2.1244 9.96402 2.07914L9.22252 0.582787C8.8237 0.780415 8.48289 1.13684 8.07619 1.54354L9.25706 2.72441ZM12.5904 1.54354C12.1837 1.13683 11.8429 0.780416 11.4441 0.582787L10.7026 2.07914C10.7939 2.1244 10.9075 2.22236 11.4095 2.72441L12.5904 1.54354ZM9.96402 2.07914C10.1967 1.96384 10.4699 1.96384 10.7026 2.07914L11.4441 0.582787C10.7442 0.235953 9.92242 0.235953 9.22251 0.582787L9.96402 2.07914ZM2.59304 9.6619C2.67433 9.41802 2.69193 9.37107 2.71177 9.3311L1.21599 8.58844C1.13258 8.75644 1.07593 8.93221 1.00874 9.1338L2.59304 9.6619ZM1.85466 7.76507C1.70441 7.91532 1.57252 8.0446 1.45956 8.19434L2.79275 9.20008C2.81963 9.16445 2.85376 9.12771 3.03553 8.94594L1.85466 7.76507ZM2.71178 9.33109C2.73466 9.28501 2.76176 9.24115 2.79275 9.20008L1.45956 8.19434C1.36636 8.31789 1.28482 8.44982 1.21599 8.58844L2.71178 9.33109ZM0.384417 11.0068C0.253973 11.3981 0.137015 11.7463 0.0704336 12.0297C0.00676346 12.3006 -0.0534775 12.6705 0.0794976 13.0434L1.65248 12.4825C1.68891 12.5846 1.64825 12.6155 1.69615 12.4117C1.74114 12.2202 1.82775 11.9578 1.96872 11.5349L0.384417 11.0068ZM2.59907 12.1652C2.17615 12.3062 1.9137 12.3928 1.72224 12.4378C1.51839 12.4857 1.5493 12.445 1.65147 12.4815L1.09055 14.0544C1.46345 14.1874 1.8333 14.1272 2.10426 14.0635C2.3876 13.9969 2.73583 13.88 3.12717 13.7495L2.59907 12.1652ZM0.0794976 13.0434C0.247696 13.5151 0.618874 13.8862 1.09055 14.0544L1.65147 12.4815C1.65147 12.4815 1.65152 12.4815 1.65159 12.4815C1.65167 12.4815 1.65175 12.4816 1.65182 12.4816C1.65195 12.4817 1.65204 12.4818 1.65209 12.4818C1.65214 12.4819 1.65221 12.482 1.6523 12.4821C1.65234 12.4822 1.65239 12.4823 1.65242 12.4823C1.65246 12.4824 1.65248 12.4825 1.65248 12.4825L0.0794976 13.0434ZM7.24285 3.55777L10.5762 6.8911L11.7571 5.71023L8.42372 2.3769L7.24285 3.55777ZM6.99996 14.6356H12.8333V12.9656H6.99996V14.6356Z" fill="#919BA7"/>
</svg>
