<svg width="24" height="24" viewBox="0 0 24 24" fill="none" xmlns="http://www.w3.org/2000/svg">
<path d="M23 12.971C23 10.3147 21.1069 8.09933 18.593 7.59379C17.9974 7.47404 17.5115 6.98935 17.3914 6.39539C16.8845 3.88806 14.6633 2 12 2C9.33667 2 7.11548 3.88806 6.6086 6.39539C6.48853 6.98934 6.00255 7.47404 5.40702 7.59379C2.89306 8.09933 1 10.3147 1 12.971C1 14.3993 1.54732 15.7 2.4442 16.6761C3.46829 17.7906 5.08242 18 6.59816 18H17.4018C18.9176 18 20.5317 17.7906 21.5558 16.6761C22.4527 15.7 23 14.3992 23 12.971Z" stroke="#272D37" stroke-width="2" stroke-linecap="round"/>
</svg>
