<svg width="81" height="31" viewBox="0 0 81 31" fill="none" xmlns="http://www.w3.org/2000/svg">
<path d="M46.0689 22.3092L46.0695 22.3098C45.6292 22.8002 45.0738 23.0475 44.3904 23.0475C43.8459 23.0475 43.4247 22.8849 43.11 22.5785C42.7964 22.2661 42.633 21.8459 42.633 21.2993C42.633 20.5408 42.858 19.9102 43.3106 19.3896C43.763 18.8692 44.2988 18.6164 44.9341 18.6164C45.5125 18.6164 45.948 18.7809 46.2611 19.086C46.5733 19.3901 46.7374 19.8091 46.7374 20.3719C46.7374 21.1698 46.5109 21.813 46.0689 22.3092ZM45.003 15.5185C43.2278 15.5185 41.7589 16.0493 40.6119 17.1281C39.4646 18.207 38.8881 19.5899 38.8881 21.2555C38.8881 22.7293 39.3792 23.9168 40.3609 24.8149C41.3416 25.7121 42.6503 26.1527 44.2526 26.1527C46.0649 26.1527 47.564 25.6226 48.7267 24.5516C49.8896 23.4804 50.4747 22.1119 50.4747 20.4595C50.4747 18.9713 49.9761 17.7612 48.978 16.8626C47.9821 15.9661 46.651 15.5185 45.0107 15.5185H45.003Z" fill="url(#paint0_linear_17773_14280)" stroke="url(#paint1_linear_17773_14280)" stroke-width="0.344828"/>
<path d="M56.6365 16.1132C56.3041 16.3136 56.0112 16.5698 55.7593 16.8819L55.8852 16.0455L55.915 15.8474H55.7147H52.3146H52.1685L52.1445 15.9915L50.5517 25.5725L50.5184 25.7732H50.7218H54.2214H54.3678L54.3915 25.6288L55.1112 21.2555C55.1113 21.2553 55.1113 21.2552 55.1113 21.255C55.2539 20.4181 55.5126 19.8292 55.8765 19.4555C56.2362 19.086 56.7244 18.8942 57.3688 18.8942C57.5281 18.8942 57.7045 18.908 57.8844 18.9295C58.0589 18.9503 58.266 18.9924 58.4953 19.0434L58.6618 19.0805L58.7007 18.9144L59.4052 15.9058L59.448 15.7231L59.2623 15.6959C59.2457 15.6934 59.2293 15.691 59.2133 15.6887C59.0414 15.6634 58.9053 15.6434 58.8145 15.6362C58.8059 15.6355 58.7972 15.6348 58.7885 15.6341C58.7685 15.6325 58.7483 15.6309 58.7282 15.6293V15.6137H58.5558C57.8317 15.6137 57.1875 15.7809 56.6365 16.1132Z" fill="url(#paint2_linear_17773_14280)" stroke="url(#paint3_linear_17773_14280)" stroke-width="0.344828"/>
<path d="M66.8488 15.9913L66.2407 19.6545L66.2154 19.7631C66.1984 19.8361 66.1823 19.9292 66.1667 20.0553C65.9882 21.1476 65.7308 21.9472 65.4043 22.4694C65.0813 22.9863 64.703 23.2154 64.2698 23.2154C63.8622 23.2154 63.5794 23.1067 63.401 22.9132L63.4011 22.9131L63.3991 22.911C63.2097 22.7124 63.1021 22.4109 63.1021 21.9857C63.1021 21.8896 63.1232 21.675 63.1695 21.3217C63.2153 20.9726 63.2763 20.5362 63.3602 20.0126C63.3602 20.0124 63.3602 20.0123 63.3603 20.0121L64.0187 16.0478L64.052 15.8471H63.8486H60.326H60.1802L60.156 15.9908L59.5358 19.6633C59.5358 19.6634 59.5358 19.6635 59.5357 19.6637C59.3978 20.4601 59.3053 21.055 59.2588 21.4392C59.2124 21.8228 59.1887 22.1516 59.1887 22.4093C59.1887 23.5578 59.6422 24.4708 60.536 25.1465C61.4261 25.8194 62.6315 26.1381 64.1319 26.1381C65.0042 26.1381 65.7882 26.0267 66.4897 25.8012C67.1915 25.5756 67.7887 25.2427 68.2768 24.7925L68.277 24.7924C69.0651 24.064 69.6157 22.6396 69.9687 20.5762L69.9687 20.5762L69.9691 20.5736L69.9995 20.3782L69.9997 20.3764L70.7193 16.0478L70.7527 15.8471H70.5492H67.0189H66.8728L66.8488 15.9913Z" fill="url(#paint4_linear_17773_14280)" stroke="url(#paint5_linear_17773_14280)" stroke-width="0.344828"/>
<path d="M72.1877 25.8254C72.8992 26.0192 73.6495 26.1235 74.4383 26.1235C75.819 26.1235 76.9458 25.811 77.803 25.1768L77.803 25.1769L77.8044 25.1758C78.6576 24.531 79.0982 23.6776 79.0982 22.6138C79.0982 21.9409 78.8942 21.3657 78.4803 20.9L78.4793 20.8989C78.0706 20.4467 77.3683 20.0186 76.395 19.6208L76.1573 19.5237V19.5318C76.019 19.4771 75.8568 19.4154 75.6689 19.3482C75.3318 19.2231 75.0929 19.0992 74.9414 18.9796C74.7889 18.8593 74.7485 18.7632 74.7485 18.6923C74.7485 18.5612 74.8121 18.4411 74.9861 18.3243C75.1584 18.2087 75.3909 18.1418 75.6788 18.1418C76.0316 18.1418 76.3946 18.2104 76.7611 18.3432C77.1264 18.4756 77.5346 18.694 77.9861 19.0026L78.1519 19.1159L78.2388 18.9349L79.2726 16.7806L79.3395 16.6412L79.2082 16.5596C78.6658 16.2222 78.0845 15.9677 77.4651 15.7882C76.8432 15.608 76.2066 15.5258 75.5563 15.5258C74.2643 15.5258 73.1992 15.8399 72.3587 16.4734C71.5159 17.1087 71.0878 17.9171 71.0878 18.8968C71.0878 19.5067 71.2585 20.0307 71.6189 20.447C71.9665 20.8646 72.5471 21.2352 73.3376 21.5678L73.3376 21.5678L73.3392 21.5685C73.5016 21.6348 73.7248 21.7229 74.0166 21.8327C74.4963 22.0201 74.8447 22.2011 75.0701 22.3723C75.3012 22.5477 75.3686 22.6857 75.3686 22.7817C75.3686 22.9511 75.2958 23.092 75.1191 23.2184C74.9427 23.3445 74.7059 23.4126 74.377 23.4126C73.9943 23.4126 73.5855 23.3369 73.142 23.1748C72.6959 23.0117 72.1393 22.7398 71.471 22.3415L71.3138 22.2478L71.2296 22.4104L70.0427 24.7034L69.9682 24.8473L70.1072 24.9306C70.7782 25.3324 71.4667 25.631 72.1877 25.8254Z" fill="url(#paint6_linear_17773_14280)" stroke="url(#paint7_linear_17773_14280)" stroke-width="0.344828"/>
<mask id="path-5-outside-1_17773_14280" maskUnits="userSpaceOnUse" x="20.5886" y="-0.467773" width="30" height="27" fill="black">
<rect fill="white" x="20.5886" y="-0.467773" width="30" height="27"/>
<path fill-rule="evenodd" clip-rule="evenodd" d="M35.6415 0.532227H49.2743L48.1172 6.14603L46.9802 5.37322L45.6763 6.14603L44.2192 5.37322L42.6779 6.14603L41.0398 5.37328L40.0788 9.938L41.8205 9.3184L43.2776 10.0621L45.1188 9.3184L46.5758 10.0859L47.809 9.3184L46.938 13.7444H39.3796L36.5131 25.6239H22.5886L29.7021 20.7799L28.5854 16.84L31.4115 14.0258L29.7021 10.0621L33.3106 7.1749L31.4115 2.94542L35.6415 0.532227ZM39.2616 3.54132C39.2616 4.1566 38.762 4.65538 38.1456 4.65538C37.5293 4.65538 37.0297 4.1566 37.0297 3.54132C37.0297 2.92604 37.5293 2.42726 38.1456 2.42726C38.762 2.42726 39.2616 2.92604 39.2616 3.54132Z"/>
</mask>
<path fill-rule="evenodd" clip-rule="evenodd" d="M35.6415 0.532227H49.2743L48.1172 6.14603L46.9802 5.37322L45.6763 6.14603L44.2192 5.37322L42.6779 6.14603L41.0398 5.37328L40.0788 9.938L41.8205 9.3184L43.2776 10.0621L45.1188 9.3184L46.5758 10.0859L47.809 9.3184L46.938 13.7444H39.3796L36.5131 25.6239H22.5886L29.7021 20.7799L28.5854 16.84L31.4115 14.0258L29.7021 10.0621L33.3106 7.1749L31.4115 2.94542L35.6415 0.532227ZM39.2616 3.54132C39.2616 4.1566 38.762 4.65538 38.1456 4.65538C37.5293 4.65538 37.0297 4.1566 37.0297 3.54132C37.0297 2.92604 37.5293 2.42726 38.1456 2.42726C38.762 2.42726 39.2616 2.92604 39.2616 3.54132Z" fill="url(#paint8_linear_17773_14280)"/>
<path d="M49.2743 0.532227L49.6121 0.601843L49.6975 0.187399H49.2743V0.532227ZM35.6415 0.532227V0.187399H35.55L35.4706 0.232712L35.6415 0.532227ZM48.1172 6.14603L47.9233 6.43122L48.3506 6.72164L48.4549 6.21565L48.1172 6.14603ZM46.9802 5.37322L47.174 5.08804L46.9929 4.96488L46.8044 5.07658L46.9802 5.37322ZM45.6763 6.14603L45.5147 6.45066L45.6856 6.54133L45.8521 6.44267L45.6763 6.14603ZM44.2192 5.37322L44.3808 5.06859L44.2237 4.98525L44.0647 5.06497L44.2192 5.37322ZM42.6779 6.14603L42.5308 6.4579L42.6825 6.52947L42.8324 6.45428L42.6779 6.14603ZM41.0398 5.37328L41.1869 5.06141L40.7923 4.87523L40.7024 5.30224L41.0398 5.37328ZM40.0788 9.938L39.7414 9.86696L39.6146 10.4691L40.1944 10.2629L40.0788 9.938ZM41.8205 9.3184L41.9773 9.01127L41.8449 8.94372L41.7049 8.99352L41.8205 9.3184ZM43.2776 10.0621L43.1208 10.3692L43.2609 10.4407L43.4067 10.3818L43.2776 10.0621ZM45.1188 9.3184L45.2795 9.01331L45.1379 8.93876L44.9896 8.99867L45.1188 9.3184ZM46.5758 10.0859L46.4151 10.391L46.5901 10.4832L46.758 10.3787L46.5758 10.0859ZM47.809 9.3184L48.1473 9.38498L48.3005 8.60629L47.6267 9.02564L47.809 9.3184ZM46.938 13.7444V14.0892H47.2216L47.2764 13.811L46.938 13.7444ZM39.3796 13.7444V13.3996H39.1081L39.0444 13.6635L39.3796 13.7444ZM36.5131 25.6239V25.9688H36.7846L36.8483 25.7048L36.5131 25.6239ZM22.5886 25.6239L22.3945 25.3389L21.4696 25.9688H22.5886V25.6239ZM29.7021 20.7799L29.8961 21.0649L30.1016 20.925L30.0338 20.6859L29.7021 20.7799ZM28.5854 16.84L28.3421 16.5957L28.1983 16.7388L28.2537 16.934L28.5854 16.84ZM31.4115 14.0258L31.6548 14.2701L31.821 14.1046L31.7281 13.8892L31.4115 14.0258ZM29.7021 10.0621L29.4866 9.79284L29.2813 9.95714L29.3854 10.1986L29.7021 10.0621ZM33.3106 7.1749L33.526 7.44415L33.7346 7.2773L33.6252 7.03365L33.3106 7.1749ZM31.4115 2.94542L31.2406 2.64591L30.9687 2.80105L31.0969 3.08667L31.4115 2.94542ZM49.2743 0.187399H35.6415V0.877054H49.2743V0.187399ZM48.4549 6.21565L49.6121 0.601843L48.9366 0.46261L47.7794 6.07642L48.4549 6.21565ZM46.7864 5.65841L47.9233 6.43122L48.311 5.86085L47.174 5.08804L46.7864 5.65841ZM45.8521 6.44267L47.156 5.66986L46.8044 5.07658L45.5005 5.84939L45.8521 6.44267ZM44.0577 5.67785L45.5147 6.45066L45.8378 5.8414L44.3808 5.06859L44.0577 5.67785ZM42.8324 6.45428L44.3738 5.68148L44.0647 5.06497L42.5233 5.83778L42.8324 6.45428ZM40.8927 5.68515L42.5308 6.4579L42.825 5.83416L41.1869 5.06141L40.8927 5.68515ZM40.4162 10.009L41.3772 5.44432L40.7024 5.30224L39.7414 9.86696L40.4162 10.009ZM41.7049 8.99352L39.9632 9.61312L40.1944 10.2629L41.9361 9.64328L41.7049 8.99352ZM43.4343 9.75495L41.9773 9.01127L41.6638 9.62553L43.1208 10.3692L43.4343 9.75495ZM44.9896 8.99867L43.1484 9.74236L43.4067 10.3818L45.2479 9.63813L44.9896 8.99867ZM46.7365 9.78083L45.2795 9.01331L44.958 9.62349L46.4151 10.391L46.7365 9.78083ZM47.6267 9.02564L46.3936 9.79316L46.758 10.3787L47.9912 9.61115L47.6267 9.02564ZM47.2764 13.811L48.1473 9.38498L47.4706 9.25182L46.5997 13.6778L47.2764 13.811ZM39.3796 14.0892H46.938V13.3996H39.3796V14.0892ZM36.8483 25.7048L39.7148 13.8253L39.0444 13.6635L36.1779 25.543L36.8483 25.7048ZM22.5886 25.9688H36.5131V25.2791H22.5886V25.9688ZM29.508 20.4949L22.3945 25.3389L22.7827 25.9089L29.8961 21.0649L29.508 20.4949ZM28.2537 16.934L29.3703 20.8739L30.0338 20.6859L28.9172 16.746L28.2537 16.934ZM31.1682 13.7815L28.3421 16.5957L28.8287 17.0844L31.6548 14.2701L31.1682 13.7815ZM29.3854 10.1986L31.0948 14.1624L31.7281 13.8892L30.0187 9.92553L29.3854 10.1986ZM33.0952 6.90565L29.4866 9.79284L29.9175 10.3313L33.526 7.44415L33.0952 6.90565ZM31.0969 3.08667L32.996 7.31615L33.6252 7.03365L31.7261 2.80417L31.0969 3.08667ZM35.4706 0.232712L31.2406 2.64591L31.5824 3.24494L35.8123 0.831741L35.4706 0.232712ZM38.1456 5.00021C38.9519 5.00021 39.6064 4.3476 39.6064 3.54132H38.9168C38.9168 3.9656 38.5721 4.31055 38.1456 4.31055V5.00021ZM36.6849 3.54132C36.6849 4.3476 37.3394 5.00021 38.1456 5.00021V4.31055C37.7192 4.31055 37.3745 3.9656 37.3745 3.54132H36.6849ZM38.1456 2.08244C37.3394 2.08244 36.6849 2.73505 36.6849 3.54132H37.3745C37.3745 3.11704 37.7192 2.77209 38.1456 2.77209V2.08244ZM39.6064 3.54132C39.6064 2.73505 38.9519 2.08244 38.1456 2.08244V2.77209C38.5721 2.77209 38.9168 3.11704 38.9168 3.54132H39.6064Z" fill="url(#paint9_linear_17773_14280)" mask="url(#path-5-outside-1_17773_14280)"/>
<path d="M8.90391 14.652C9.19523 14.6776 9.51271 14.7706 9.85758 14.9409C10.2723 15.1457 10.7436 15.4518 11.256 15.8758L11.4095 16.0028L11.5132 15.8327L13.1826 13.0942L13.2615 12.9647L13.1431 12.8699C12.4633 12.326 11.7425 11.9146 10.9807 11.6375C10.2189 11.3604 9.41786 11.2182 8.58614 11.2182C7.01954 11.2182 5.72815 11.6674 4.71892 12.5692C3.70727 13.4732 3.2064 14.6457 3.2064 16.0643C3.2064 16.8517 3.43181 17.526 3.87984 18.0853C4.32536 18.6415 5.1423 19.2028 6.29644 19.7751L6.2963 19.7754L6.30575 19.7794C6.35975 19.8023 6.42517 19.8356 6.51998 19.8839C6.53366 19.8909 6.54795 19.8981 6.5629 19.9058L6.56376 19.9062C7.14721 20.1988 7.57304 20.4733 7.85066 20.7303C8.13026 20.9891 8.23761 21.2094 8.23761 21.3951C8.23761 21.715 8.11617 21.964 7.86765 22.1573C7.61485 22.3539 7.26505 22.4642 6.80187 22.4642C6.24032 22.4642 5.69306 22.3323 5.16565 22.0599C4.63562 21.7861 4.06817 21.3465 3.46393 20.7271L3.32119 20.5807L3.20103 20.7461L1.17937 23.5284L1.09822 23.6401L1.18944 23.7437C1.8847 24.5333 2.66923 25.1404 3.54364 25.5461C4.41727 25.9513 5.35343 26.1536 6.35006 26.1536C8.23015 26.1536 9.74325 25.7015 10.8625 24.7855L10.8631 24.7851C11.9849 23.8595 12.5492 22.6265 12.5492 21.0884C12.5492 20.2209 12.3432 19.483 11.9202 18.8857C11.4993 18.2913 10.76 17.7286 9.73338 17.191C9.53654 17.0785 9.25719 16.9381 8.91462 16.7711C8.42284 16.5294 8.0651 16.3055 7.83281 16.101C7.59585 15.8924 7.51798 15.7296 7.51798 15.6115C7.51798 15.3529 7.622 15.1304 7.85289 14.9417C8.08587 14.7513 8.37502 14.652 8.73931 14.652H8.90391Z" fill="url(#paint10_linear_17773_14280)" stroke="url(#paint11_linear_17773_14280)" stroke-width="0.344828"/>
<path d="M21.9742 17.0284C21.5793 16.5817 21.1437 16.2387 20.6666 15.9986C20.0873 15.707 19.4396 15.5712 18.7206 15.5712C17.1717 15.5712 15.8772 16.1389 14.8411 17.2703C13.8052 18.4014 13.2949 19.8175 13.2949 21.5127C13.2949 22.8682 13.6728 23.9853 14.449 24.8552L14.4495 24.8558C15.226 25.7184 16.215 26.1543 17.4187 26.1543C18.1246 26.1543 18.7844 26.0104 19.4043 25.73C19.8772 25.5161 20.3113 25.2194 20.7102 24.8454L20.6096 25.6088L20.5839 25.8038H20.7805H24.0811H24.2535V25.6383L25.844 16.0713L25.8773 15.8706H25.6739H22.3121H22.1659L22.142 16.0149L21.9742 17.0284ZM20.8056 22.3101L20.7613 22.3593V22.3654C20.3346 22.816 19.8132 23.0418 19.18 23.0418C18.5739 23.0418 18.1053 22.8643 17.7439 22.5265C17.3923 22.1909 17.2083 21.7419 17.2083 21.1695C17.2083 20.4332 17.4329 19.8263 17.8676 19.3506C18.3009 18.8765 18.8437 18.6399 19.517 18.6399C20.1096 18.6399 20.577 18.8111 20.9296 19.1473C21.2831 19.4844 21.4658 19.9199 21.4658 20.4684C21.4658 21.2124 21.2408 21.827 20.8056 22.3101Z" fill="url(#paint12_linear_17773_14280)" stroke="url(#paint13_linear_17773_14280)" stroke-width="0.344828"/>
<defs>
<linearGradient id="paint0_linear_17773_14280" x1="44.6814" y1="15.6909" x2="44.6814" y2="25.9802" gradientUnits="userSpaceOnUse">
<stop stop-color="#9B32EE"/>
<stop offset="1" stop-color="#3056C9"/>
</linearGradient>
<linearGradient id="paint1_linear_17773_14280" x1="44.6814" y1="15.6909" x2="44.6814" y2="25.9802" gradientUnits="userSpaceOnUse">
<stop stop-color="#9B31EE"/>
<stop offset="1" stop-color="#3C44BD"/>
</linearGradient>
<linearGradient id="paint2_linear_17773_14280" x1="54.9796" y1="15.7861" x2="54.9796" y2="25.6008" gradientUnits="userSpaceOnUse">
<stop stop-color="#9B32EE"/>
<stop offset="1" stop-color="#3056C9"/>
</linearGradient>
<linearGradient id="paint3_linear_17773_14280" x1="54.9796" y1="15.7861" x2="54.9796" y2="25.6008" gradientUnits="userSpaceOnUse">
<stop stop-color="#9B31EE"/>
<stop offset="1" stop-color="#3C44BD"/>
</linearGradient>
<linearGradient id="paint4_linear_17773_14280" x1="64.9552" y1="16.0195" x2="64.9552" y2="25.9656" gradientUnits="userSpaceOnUse">
<stop stop-color="#9B32EE"/>
<stop offset="1" stop-color="#3056C9"/>
</linearGradient>
<linearGradient id="paint5_linear_17773_14280" x1="64.9552" y1="16.0195" x2="64.9552" y2="25.9656" gradientUnits="userSpaceOnUse">
<stop stop-color="#9B31EE"/>
<stop offset="1" stop-color="#3C44BD"/>
</linearGradient>
<linearGradient id="paint6_linear_17773_14280" x1="74.6565" y1="15.6982" x2="74.6565" y2="25.9511" gradientUnits="userSpaceOnUse">
<stop stop-color="#9B32EE"/>
<stop offset="1" stop-color="#3056C9"/>
</linearGradient>
<linearGradient id="paint7_linear_17773_14280" x1="74.6565" y1="15.6982" x2="74.6565" y2="25.9511" gradientUnits="userSpaceOnUse">
<stop stop-color="#9B31EE"/>
<stop offset="1" stop-color="#3C44BD"/>
</linearGradient>
<linearGradient id="paint8_linear_17773_14280" x1="37.1175" y1="1.0516" x2="34.5221" y2="25.7222" gradientUnits="userSpaceOnUse">
<stop stop-color="#A032F6"/>
<stop offset="1" stop-color="#2E58C9"/>
</linearGradient>
<linearGradient id="paint9_linear_17773_14280" x1="41.0151" y1="0.791915" x2="35.5645" y2="25.4636" gradientUnits="userSpaceOnUse">
<stop stop-color="#A032F6"/>
<stop offset="1" stop-color="#2E58C9"/>
</linearGradient>
<linearGradient id="paint10_linear_17773_14280" x1="7.1771" y1="11.3906" x2="7.1771" y2="25.9812" gradientUnits="userSpaceOnUse">
<stop stop-color="#9B32EE"/>
<stop offset="1" stop-color="#3056C9"/>
</linearGradient>
<linearGradient id="paint11_linear_17773_14280" x1="7.1771" y1="11.3906" x2="7.1771" y2="25.9812" gradientUnits="userSpaceOnUse">
<stop stop-color="#9B31EE"/>
<stop offset="1" stop-color="#3C44BD"/>
</linearGradient>
<linearGradient id="paint12_linear_17773_14280" x1="19.5706" y1="15.7437" x2="19.5706" y2="25.9819" gradientUnits="userSpaceOnUse">
<stop stop-color="#9B32EE"/>
<stop offset="1" stop-color="#3056C9"/>
</linearGradient>
<linearGradient id="paint13_linear_17773_14280" x1="19.5706" y1="15.7437" x2="19.5706" y2="25.9819" gradientUnits="userSpaceOnUse">
<stop stop-color="#9B31EE"/>
<stop offset="1" stop-color="#3C44BD"/>
</linearGradient>
</defs>
</svg>
