<svg width="20" height="20" viewBox="0 0 20 20" fill="none" xmlns="http://www.w3.org/2000/svg">
<rect y="0.00012207" width="20" height="20" rx="5" fill="#ECEBFF"/>
<path fill-rule="evenodd" clip-rule="evenodd" d="M7.46354 0.000122209H12.5365C13.6723 0.000115597 14.5757 0.000110336 15.3045 0.0596576C16.0509 0.120635 16.6872 0.248186 17.27 0.54509C18.2108 1.02446 18.9757 1.78936 19.455 2.73017C19.7519 3.31288 19.8795 3.94927 19.9405 4.6956C20 5.42441 20 6.32773 20 7.46356V12.5366C20 13.6724 20 14.5758 19.9405 15.3046C19.8795 16.051 19.7519 16.6874 19.455 17.2701C18.9757 18.2109 18.2108 18.9758 17.27 19.4552C16.6872 19.7521 16.0509 19.8796 15.3045 19.9406C14.5757 20.0001 13.6724 20.0001 12.5366 20.0001H7.46351C6.32769 20.0001 5.42429 20.0001 4.69548 19.9406C3.94915 19.8796 3.31275 19.7521 2.73005 19.4552C1.78924 18.9758 1.02433 18.2109 0.544968 17.2701C0.248064 16.6874 0.120513 16.051 0.0595355 15.3046C-1.17347e-05 14.5758 -6.4729e-06 13.6725 1.38887e-07 12.5366V7.46366C-6.4729e-06 6.32779 -1.17347e-05 5.42443 0.0595355 4.6956C0.120513 3.94927 0.248064 3.31288 0.544968 2.73017C1.02433 1.78936 1.78924 1.02446 2.73005 0.54509C3.31275 0.248186 3.94915 0.120635 4.69548 0.0596576C5.4243 0.000110336 6.32767 0.000115597 7.46354 0.000122209ZM4.8312 1.72079C4.18794 1.77335 3.79529 1.87286 3.4867 2.0301C2.85949 2.34968 2.34956 2.85961 2.02998 3.48682C1.87274 3.79541 1.77322 4.18806 1.72067 4.83132C1.66732 5.48432 1.66667 6.3196 1.66667 7.50012V12.5001C1.66667 13.6806 1.66732 14.5159 1.72067 15.1689C1.77322 15.8122 1.87274 16.2048 2.02998 16.5134C2.34956 17.1406 2.85949 17.6506 3.4867 17.9701C3.79529 18.1274 4.18794 18.2269 4.8312 18.2795C5.4842 18.3328 6.31947 18.3335 7.5 18.3335H12.5C13.6805 18.3335 14.5158 18.3328 15.1688 18.2795C15.8121 18.2269 16.2047 18.1274 16.5133 17.9701C17.1405 17.6506 17.6504 17.1406 17.97 16.5134C18.1273 16.2048 18.2268 15.8122 18.2793 15.1689C18.3327 14.5159 18.3333 13.6806 18.3333 12.5001V7.50012C18.3333 6.3196 18.3327 5.48432 18.2793 4.83132C18.2268 4.18806 18.1273 3.79541 17.97 3.48682C17.6504 2.85961 17.1405 2.34968 16.5133 2.0301C16.2047 1.87286 15.8121 1.77335 15.1688 1.72079C14.5158 1.66744 13.6805 1.66679 12.5 1.66679H7.5C6.31947 1.66679 5.4842 1.66744 4.8312 1.72079Z" fill="#1B0354"/>
<path d="M4.63992 5.32874L4.20594 5.49306C4.13041 5.52138 4.03837 5.54675 3.93742 5.54675C3.54922 5.54675 3.22992 5.22219 3.22992 4.83175C3.22992 4.50902 3.43755 4.27044 3.70207 4.16464L3.70646 4.16288L5.1633 3.61189C5.22077 3.59274 5.3021 3.56925 5.41492 3.56925C5.79782 3.56925 6.12242 3.88853 6.12242 4.26925V7.97176H6.51742C6.9079 7.97176 7.23992 8.29861 7.23992 8.68676C7.23992 9.08477 6.91303 9.41675 6.51742 9.41675H3.96742C3.5718 9.41675 3.24492 9.08477 3.24492 8.68676C3.24492 8.29861 3.57693 7.97176 3.96742 7.97176H4.63992V5.32874Z" fill="#1B0354"/>
<path fill-rule="evenodd" clip-rule="evenodd" d="M7.106 15.0993C7.106 16.3159 6.04001 17.0143 5.086 17.0143C4.13199 17.0143 3.066 16.3159 3.066 15.0993V12.9843C3.066 11.7676 4.13199 11.0693 5.086 11.0693C6.04001 11.0693 7.106 11.7676 7.106 12.9843V15.0993ZM4.5485 15.0243V13.0593C4.5485 12.7342 4.77955 12.5218 5.0935 12.5218C5.3893 12.5218 5.6235 12.7311 5.6235 13.0593V15.0243C5.6235 15.3196 5.36948 15.5618 5.0935 15.5618C4.79348 15.5618 4.5485 15.3181 4.5485 15.0243Z" fill="#1B0354"/>
<path d="M9.55373 12.8287L9.11976 12.9931C9.04423 13.0214 8.95219 13.0468 8.85123 13.0468C8.46304 13.0468 8.14373 12.7222 8.14373 12.3318C8.14373 12.009 8.35137 11.7704 8.61589 11.6646L8.62027 11.6629L10.0771 11.1119C10.1346 11.0927 10.2159 11.0693 10.3287 11.0693C10.7116 11.0693 11.0362 11.3885 11.0362 11.7693V15.4718H11.4312C11.8217 15.4718 12.1537 15.7986 12.1537 16.1868C12.1537 16.5848 11.8268 16.9168 11.4312 16.9168H8.88123C8.48562 16.9168 8.15873 16.5848 8.15873 16.1868C8.15873 15.7986 8.49074 15.4718 8.88123 15.4718H9.55373V12.8287Z" fill="#1B0354"/>
<path fill-rule="evenodd" clip-rule="evenodd" d="M12.0198 7.59925C12.0198 8.81589 10.9538 9.51425 9.99982 9.51425C9.04581 9.51425 7.97982 8.81589 7.97982 7.59925V5.48425C7.97982 4.26762 9.04581 3.56925 9.99982 3.56925C10.9538 3.56925 12.0198 4.26762 12.0198 5.48425V7.59925ZM9.46232 7.52425V5.55925C9.46232 5.23416 9.69337 5.02175 10.0073 5.02175C10.3031 5.02175 10.5373 5.23111 10.5373 5.55925V7.52425C10.5373 7.81964 10.2833 8.06176 10.0073 8.06176C9.7073 8.06176 9.46232 7.81811 9.46232 7.52425Z" fill="#1B0354"/>
<path d="M14.4676 5.32874L14.0336 5.49306C13.958 5.52138 13.866 5.54675 13.7651 5.54675C13.3769 5.54675 13.0576 5.22219 13.0576 4.83175C13.0576 4.50902 13.2652 4.27044 13.5297 4.16464L13.5341 4.16288L14.9909 3.61189C15.0484 3.59274 15.1297 3.56925 15.2426 3.56925C15.6255 3.56925 15.9501 3.88853 15.9501 4.26925V7.97176H16.3451C16.7355 7.97176 17.0676 8.29861 17.0676 8.68676C17.0676 9.08477 16.7407 9.41675 16.3451 9.41675H13.7951C13.3994 9.41675 13.0726 9.08477 13.0726 8.68676C13.0726 8.29861 13.4046 7.97176 13.7951 7.97176H14.4676V5.32874Z" fill="#1B0354"/>
<path fill-rule="evenodd" clip-rule="evenodd" d="M16.9336 15.0993C16.9336 16.3159 15.8676 17.0143 14.9136 17.0143C13.9596 17.0143 12.8936 16.3159 12.8936 15.0993V12.9843C12.8936 11.7676 13.9596 11.0693 14.9136 11.0693C15.8676 11.0693 16.9336 11.7676 16.9336 12.9843V15.0993ZM14.3761 15.0243V13.0593C14.3761 12.7342 14.6072 12.5218 14.9211 12.5218C15.2169 12.5218 15.4511 12.7311 15.4511 13.0593V15.0243C15.4511 15.3196 15.1971 15.5618 14.9211 15.5618C14.6211 15.5618 14.3761 15.3181 14.3761 15.0243Z" fill="#1B0354"/>
</svg>
