<svg width="20" height="20" viewBox="0 0 20 20" fill="none" xmlns="http://www.w3.org/2000/svg">
<path d="M12.5628 8.36473C12.5628 9.76278 11.4294 10.8961 10.0314 10.8961C8.63334 10.8961 7.5 9.76278 7.5 8.36473C7.5 6.96668 8.63334 5.83333 10.0314 5.83333C11.4294 5.83333 12.5628 6.96668 12.5628 8.36473Z" fill="#ECEBFF"/>
<path d="M13.6806 2.5H6.31944C6.05097 2.5 5.83333 2.71764 5.83333 2.98611C5.83333 4.32847 4.74514 5.41667 3.40278 5.41667H3.05556C2.74873 5.41667 2.5 5.6654 2.5 5.97222V6.68772C2.5 11.3038 5.00261 15.557 9.03777 17.7988L9.35296 17.9739C9.75536 18.1974 10.2446 18.1974 10.647 17.9739L10.9622 17.7988C14.9974 15.557 17.5 11.3038 17.5 6.68772V5.97222C17.5 5.6654 17.2513 5.41667 16.9444 5.41667H16.5972C15.2549 5.41667 14.1667 4.32847 14.1667 2.98611C14.1667 2.71764 13.949 2.5 13.6806 2.5Z" fill="#ECEBFF"/>
<path d="M6.17933 12.8183L5.68435 12.3233H5.68435L6.17933 12.8183ZM13.8208 12.8183L13.3258 13.3132L13.8208 12.8183ZM10.9622 17.7988L11.3022 18.4107H11.3022L10.9622 17.7988ZM10.647 17.9739L10.3071 17.362L10.3071 17.362L10.647 17.9739ZM9.35296 17.9739L9.69291 17.362L9.69291 17.362L9.35296 17.9739ZM9.03777 17.7988L8.69782 18.4107H8.69783L9.03777 17.7988ZM6.6743 13.3132C8.51106 11.4765 11.489 11.4765 13.3258 13.3132L14.3158 12.3233C11.9323 9.9398 8.06785 9.9398 5.68435 12.3233L6.6743 13.3132ZM13.3258 13.3132C13.6849 13.6723 13.973 14.0739 14.1911 14.5012L15.438 13.8647C15.1541 13.3084 14.7797 12.7873 14.3158 12.3233L13.3258 13.3132ZM5.80903 14.5012C6.02713 14.0739 6.31524 13.6723 6.6743 13.3132L5.68435 12.3233C5.22039 12.7873 4.84598 13.3084 4.56206 13.8647L5.80903 14.5012ZM11.8628 8.36473C11.8628 9.37618 11.0428 10.1961 10.0314 10.1961V11.5961C11.816 11.5961 13.2628 10.1494 13.2628 8.36473H11.8628ZM10.0314 10.1961C9.01994 10.1961 8.2 9.37618 8.2 8.36473H6.8C6.8 10.1494 8.24675 11.5961 10.0314 11.5961V10.1961ZM8.2 8.36473C8.2 7.35328 9.01994 6.53333 10.0314 6.53333V5.13333C8.24675 5.13333 6.8 6.58008 6.8 8.36473H8.2ZM10.0314 6.53333C11.0428 6.53333 11.8628 7.35328 11.8628 8.36473H13.2628C13.2628 6.58008 11.816 5.13333 10.0314 5.13333V6.53333ZM6.31944 3.2H13.6806V1.8H6.31944V3.2ZM16.5972 6.11667H16.9444V4.71667H16.5972V6.11667ZM16.8 5.97222V6.68772H18.2V5.97222H16.8ZM10.6223 17.1869L10.3071 17.362L10.987 18.5858L11.3022 18.4107L10.6223 17.1869ZM9.69291 17.362L9.37772 17.1869L8.69783 18.4107L9.01301 18.5858L9.69291 17.362ZM3.2 6.68772V5.97222H1.8V6.68772H3.2ZM3.05556 6.11667H3.40278V4.71667H3.05556V6.11667ZM3.40278 6.11667C5.13174 6.11667 6.53333 4.71507 6.53333 2.98611H5.13333C5.13333 3.94187 4.35854 4.71667 3.40278 4.71667V6.11667ZM3.2 5.97222C3.2 6.052 3.13533 6.11667 3.05556 6.11667V4.71667C2.36213 4.71667 1.8 5.2788 1.8 5.97222H3.2ZM9.37772 17.1869C5.56479 15.0686 3.2 11.0496 3.2 6.68772H1.8C1.8 11.558 4.44044 16.0455 8.69782 18.4107L9.37772 17.1869ZM10.3071 17.362C10.1161 17.4681 9.88389 17.4681 9.69291 17.362L9.01301 18.5858C9.62682 18.9268 10.3732 18.9268 10.987 18.5858L10.3071 17.362ZM16.8 6.68772C16.8 11.0496 14.4352 15.0686 10.6223 17.1869L11.3022 18.4107C15.5596 16.0455 18.2 11.558 18.2 6.68772H16.8ZM16.9444 6.11667C16.8647 6.11667 16.8 6.052 16.8 5.97222H18.2C18.2 5.2788 17.6379 4.71667 16.9444 4.71667V6.11667ZM13.4667 2.98611C13.4667 4.71507 14.8683 6.11667 16.5972 6.11667V4.71667C15.6415 4.71667 14.8667 3.94187 14.8667 2.98611H13.4667ZM13.6806 3.2C13.5624 3.2 13.4667 3.10424 13.4667 2.98611H14.8667C14.8667 2.33104 14.3356 1.8 13.6806 1.8V3.2ZM6.31944 1.8C5.66437 1.8 5.13333 2.33104 5.13333 2.98611H6.53333C6.53333 3.10424 6.43757 3.2 6.31944 3.2V1.8Z" fill="#1B0354"/>
</svg>
