<svg width="20" height="20" viewBox="0 0 20 20" fill="none" xmlns="http://www.w3.org/2000/svg">
<g id="trash/alt">
<path id="Icon" d="M9.08366 8.33333C9.08366 7.91912 8.74787 7.58333 8.33366 7.58333C7.91945 7.58333 7.58366 7.91912 7.58366 8.33333H9.08366ZM7.58366 15C7.58366 15.4142 7.91945 15.75 8.33366 15.75C8.74787 15.75 9.08366 15.4142 9.08366 15H7.58366ZM12.417 8.33333C12.417 7.91912 12.0812 7.58333 11.667 7.58333C11.2528 7.58333 10.917 7.91912 10.917 8.33333H12.417ZM10.917 15C10.917 15.4142 11.2528 15.75 11.667 15.75C12.0812 15.75 12.417 15.4142 12.417 15H10.917ZM5.91034 17.3183L6.25083 16.6501H6.25083L5.91034 17.3183ZM5.18198 16.59L5.85024 16.2495H5.85024L5.18198 16.59ZM14.8187 16.59L14.1504 16.2495L14.8187 16.59ZM14.0903 17.3183L13.7498 16.6501L13.7498 16.6501L14.0903 17.3183ZM4.16699 5.08333C3.75278 5.08333 3.41699 5.41912 3.41699 5.83333C3.41699 6.24755 3.75278 6.58333 4.16699 6.58333V5.08333ZM15.8337 6.58333C16.2479 6.58333 16.5837 6.24755 16.5837 5.83333C16.5837 5.41912 16.2479 5.08333 15.8337 5.08333V6.58333ZM6.33366 5.83333C6.33366 6.24755 6.66945 6.58333 7.08366 6.58333C7.49787 6.58333 7.83366 6.24755 7.83366 5.83333H6.33366ZM12.167 5.83333C12.167 6.24755 12.5028 6.58333 12.917 6.58333C13.3312 6.58333 13.667 6.24755 13.667 5.83333H12.167ZM7.58366 8.33333V15H9.08366V8.33333H7.58366ZM10.917 8.33333V15H12.417V8.33333H10.917ZM14.2503 5.83333V14.8333H15.7503V5.83333H14.2503ZM12.3337 16.75H7.66699V18.25H12.3337V16.75ZM4.25033 5.83333V14.8333H5.75033V5.83333H4.25033ZM7.66699 16.75C7.18791 16.75 6.8737 16.7494 6.6334 16.7298C6.40186 16.7109 6.30574 16.6781 6.25083 16.6501L5.56985 17.9866C5.87146 18.1403 6.18695 18.1983 6.51125 18.2248C6.8268 18.2506 7.21266 18.25 7.66699 18.25V16.75ZM4.25033 14.8333C4.25033 15.2877 4.24974 15.6735 4.27552 15.9891C4.30202 16.3134 4.36005 16.6289 4.51373 16.9305L5.85024 16.2495C5.82226 16.1946 5.78946 16.0985 5.77054 15.8669C5.75091 15.6266 5.75033 15.3124 5.75033 14.8333H4.25033ZM6.25083 16.6501C6.07835 16.5622 5.93812 16.422 5.85024 16.2495L4.51373 16.9305C4.74542 17.3852 5.11512 17.7549 5.56985 17.9866L6.25083 16.6501ZM14.2503 14.8333C14.2503 15.3124 14.2497 15.6266 14.2301 15.8669C14.2112 16.0985 14.1784 16.1946 14.1504 16.2495L15.4869 16.9305C15.6406 16.6289 15.6986 16.3134 15.7251 15.9891C15.7509 15.6735 15.7503 15.2877 15.7503 14.8333H14.2503ZM12.3337 18.25C12.788 18.25 13.1739 18.2506 13.4894 18.2248C13.8137 18.1983 14.1292 18.1403 14.4308 17.9866L13.7498 16.6501C13.6949 16.6781 13.5988 16.7109 13.3672 16.7298C13.127 16.7494 12.8127 16.75 12.3337 16.75V18.25ZM14.1504 16.2495C14.0625 16.422 13.9223 16.5622 13.7498 16.6501L14.4308 17.9866C14.8855 17.7549 15.2552 17.3852 15.4869 16.9305L14.1504 16.2495ZM4.16699 6.58333H5.00033V5.08333H4.16699V6.58333ZM5.00033 6.58333H15.0003V5.08333H5.00033V6.58333ZM15.0003 6.58333H15.8337V5.08333H15.0003V6.58333ZM7.83366 5.16667C7.83366 4.16996 8.73903 3.25 10.0003 3.25V1.75C8.03996 1.75 6.33366 3.21785 6.33366 5.16667H7.83366ZM10.0003 3.25C11.2616 3.25 12.167 4.16996 12.167 5.16667H13.667C13.667 3.21785 11.9607 1.75 10.0003 1.75V3.25ZM6.33366 5.16667V5.83333H7.83366V5.16667H6.33366ZM12.167 5.16667V5.83333H13.667V5.16667H12.167Z" fill="black"/>
</g>
</svg>
