<svg width="20" height="20" viewBox="0 0 20 20" fill="none" xmlns="http://www.w3.org/2000/svg">
<g id="edit/3">
<path id="Icon" d="M4.17657 14.1367L4.88808 14.3739H4.88808L4.17657 14.1367ZM4.80089 12.2637L5.5124 12.5009L4.80089 12.2637ZM5.44509 11.2214L5.97542 11.7517L5.44509 11.2214ZM9.89049 6.77598L10.4208 7.30631L9.89049 6.77598ZM11.7761 6.77598L11.2458 7.30631L11.2458 7.30631L11.7761 6.77598ZM13.2238 8.2237L13.7541 7.69337L13.2238 8.2237ZM13.2238 10.1093L13.7541 10.6396L13.2238 10.1093ZM8.77843 14.5547L8.2481 14.0244H8.2481L8.77843 14.5547ZM7.73608 15.1989L7.97325 15.9104H7.97325L7.73608 15.1989ZM5.86312 15.8232L6.10029 16.5347H6.10029L5.86312 15.8232ZM8.43672 14.8736L7.98504 14.2749L7.98504 14.2749L8.43672 14.8736ZM8.17417 15.0359L7.84064 14.3642L8.17417 15.0359ZM13.7807 8.90899L14.494 8.67723L14.494 8.67723L13.7807 8.90899ZM13.7807 9.42402L14.494 9.65578L14.494 9.65578L13.7807 9.42402ZM10.5758 6.21913L10.344 5.50584L10.344 5.50584L10.5758 6.21913ZM11.0908 6.21913L11.3226 5.50584V5.50584L11.0908 6.21913ZM4.96388 11.8256L5.63564 12.1592H5.63564L4.96388 11.8256ZM5.12615 11.5631L4.52742 11.1114L4.52742 11.1114L5.12615 11.5631ZM3.86599 15.6288L3.15956 15.8807L3.86599 15.6288ZM4.37101 16.1338L4.1191 16.8402H4.1191L4.37101 16.1338ZM13.0303 3.63617C12.7374 3.34328 12.2625 3.34328 11.9696 3.63617C11.6767 3.92907 11.6767 4.40394 11.9696 4.69683L13.0303 3.63617ZM15.303 8.03017C15.5959 8.32306 16.0707 8.32306 16.3636 8.03017C16.6565 7.73727 16.6565 7.2624 16.3636 6.96951L15.303 8.03017ZM4.88808 14.3739L5.5124 12.5009L4.08938 12.0265L3.46506 13.8995L4.88808 14.3739ZM5.97542 11.7517L10.4208 7.30631L9.36016 6.24565L4.91476 10.691L5.97542 11.7517ZM11.2458 7.30631L12.6935 8.75403L13.7541 7.69337L12.3064 6.24565L11.2458 7.30631ZM12.6935 9.57898L8.2481 14.0244L9.30876 15.085L13.7541 10.6396L12.6935 9.57898ZM7.49891 14.4874L5.62594 15.1117L6.10029 16.5347L7.97325 15.9104L7.49891 14.4874ZM8.2481 14.0244C8.06793 14.2045 8.02648 14.2436 7.98504 14.2749L8.8884 15.4724C9.03233 15.3638 9.1569 15.2369 9.30876 15.085L8.2481 14.0244ZM7.97325 15.9104C8.17699 15.8425 8.34621 15.7878 8.50769 15.7077L7.84064 14.3642C7.79415 14.3872 7.74063 14.4068 7.49891 14.4874L7.97325 15.9104ZM7.98504 14.2749C7.93977 14.3091 7.89143 14.3389 7.84064 14.3642L8.50769 15.7077C8.6416 15.6412 8.76905 15.5624 8.88841 15.4724L7.98504 14.2749ZM12.6935 8.75403C12.8672 8.92778 12.9653 9.02662 13.0311 9.10413C13.0912 9.17494 13.0792 9.17728 13.0674 9.14075L14.494 8.67723C14.4203 8.45043 14.2949 8.27513 14.1746 8.13336C14.0599 7.9983 13.9104 7.84962 13.7541 7.69337L12.6935 8.75403ZM13.7541 10.6396C13.9104 10.4834 14.0599 10.3347 14.1746 10.1996C14.2949 10.0579 14.4203 9.88258 14.494 9.65578L13.0674 9.19225C13.0792 9.15573 13.0912 9.15807 13.0311 9.22888C12.9653 9.30639 12.8672 9.40523 12.6935 9.57898L13.7541 10.6396ZM13.0674 9.14075C13.0728 9.15749 13.0728 9.17552 13.0674 9.19226L14.494 9.65578C14.5973 9.33778 14.5973 8.99523 14.494 8.67723L13.0674 9.14075ZM10.4208 7.30631C10.5946 7.13255 10.6934 7.03454 10.7709 6.96874C10.8417 6.90862 10.8441 6.92056 10.8075 6.93243L10.344 5.50584C10.1172 5.57953 9.94191 5.70488 9.80015 5.82523C9.66508 5.93989 9.51641 6.08939 9.36016 6.24565L10.4208 7.30631ZM12.3064 6.24565C12.1502 6.08939 12.0015 5.93989 11.8664 5.82523C11.7247 5.70488 11.5494 5.57953 11.3226 5.50584L10.859 6.93243C10.8225 6.92056 10.8249 6.90863 10.8957 6.96874C10.9732 7.03454 11.072 7.13255 11.2458 7.30631L12.3064 6.24565ZM10.8075 6.93243C10.8243 6.92699 10.8423 6.92699 10.859 6.93243L11.3226 5.50584C11.0046 5.40252 10.662 5.40252 10.344 5.50584L10.8075 6.93243ZM5.5124 12.5009C5.59298 12.2592 5.61256 12.2057 5.63564 12.1592L4.29213 11.4921C4.21195 11.6536 4.15729 11.8228 4.08938 12.0265L5.5124 12.5009ZM4.91476 10.691C4.76291 10.8429 4.636 10.9675 4.52742 11.1114L5.72489 12.0148C5.75615 11.9733 5.79526 11.9319 5.97542 11.7517L4.91476 10.691ZM5.63564 12.1592C5.66086 12.1084 5.69074 12.06 5.72489 12.0148L4.52742 11.1114C4.43738 11.2307 4.35861 11.3582 4.29213 11.4921L5.63564 12.1592ZM3.46506 13.8995C3.33407 14.2925 3.21866 14.6363 3.15318 14.915C3.09031 15.1825 3.03521 15.532 3.15956 15.8807L4.57242 15.3769C4.60023 15.4549 4.5647 15.4654 4.61341 15.2581C4.6595 15.062 4.74764 14.7952 4.88808 14.3739L3.46506 13.8995ZM5.62595 15.1117C5.20464 15.2522 4.93782 15.3403 4.74168 15.3864C4.53442 15.4351 4.54493 15.3996 4.62292 15.4274L4.1191 16.8402C4.46782 16.9646 4.81727 16.9095 5.08481 16.8466C5.36348 16.7811 5.70735 16.6657 6.10029 16.5347L5.62595 15.1117ZM3.15956 15.8807C3.31919 16.3283 3.67145 16.6806 4.1191 16.8402L4.62292 15.4274C4.59936 15.419 4.58082 15.4004 4.57242 15.3769L3.15956 15.8807ZM11.9696 4.69683L15.303 8.03017L16.3636 6.96951L13.0303 3.63617L11.9696 4.69683Z" fill="black"/>
</g>
</svg>
