<svg width="32" height="32" viewBox="0 0 32 32" fill="none" xmlns="http://www.w3.org/2000/svg">
<path d="M28.9755 13.1121L30.1006 12.3679L29.185 17.3135H20.6087H20.489L20.4625 17.4303L17.1891 31.8493H1.74236L9.55606 26.1937L9.63963 26.1332L9.61305 26.0335L8.34916 21.2935L11.545 17.9109L11.6112 17.8408L11.575 17.7515L9.64786 13.0019L13.7194 9.53939L13.8032 9.4681L13.7604 9.36675L11.6246 4.31099L16.3767 1.42938L31.8175 1.44696L30.5646 7.90707L29.4462 7.09901L29.3641 7.03969L29.2784 7.09368L27.853 7.9916L26.2536 7.08993L26.182 7.04954L26.1094 7.08822L24.4035 7.99735L22.5871 7.08658L22.411 6.99827L22.3727 7.19152L21.2665 12.7769L21.214 13.0419L21.4667 12.9463L23.4074 12.2125L25.0244 13.0897L25.0883 13.1244L25.1551 13.0957L27.2067 12.2149L28.8195 13.1179L28.8993 13.1626L28.9755 13.1121Z" fill="url(#paint0_linear_243_40825)" stroke="url(#paint1_linear_243_40825)" stroke-width="0.3"/>
<path d="M20.3217 4.97839C20.3217 5.65691 19.8054 6.19155 19.187 6.19155C18.5686 6.19155 18.0523 5.65691 18.0523 4.97839C18.0523 4.29988 18.5686 3.76523 19.187 3.76523C19.8054 3.76523 20.3217 4.29988 20.3217 4.97839Z" fill="white" stroke="#7B3CE2" stroke-width="0.3"/>
<defs>
<linearGradient id="paint0_linear_243_40825" x1="15.0026" y1="6.10013" x2="15.0026" y2="36.8201" gradientUnits="userSpaceOnUse">
<stop stop-color="#9B32EE"/>
<stop offset="1" stop-color="#3056C9"/>
</linearGradient>
<linearGradient id="paint1_linear_243_40825" x1="16.6393" y1="1.2793" x2="16.6393" y2="31.9993" gradientUnits="userSpaceOnUse">
<stop stop-color="#9B31EE"/>
<stop offset="1" stop-color="#3C44BD"/>
</linearGradient>
</defs>
</svg>
