<svg width="24" height="24" viewBox="0 0 24 24" fill="none"
    xmlns="http://www.w3.org/2000/svg">
    <path d="M5.2 12H18.8M5.2 12C4.0799 12 3.51984 12 3.09202 11.782C2.71569 11.5903 2.40973 11.2843 2.21799 10.908C2 10.4802 2 9.92011 2 8.8V7.2C2 6.07989 2 5.51984 2.21799 5.09202C2.40973 4.71569 2.71569 4.40973 3.09202 4.21799C3.51984 4 4.07989 4 5.2 4H18.8C19.9201 4 20.4802 4 20.908 4.21799C21.2843 4.40973 21.5903 4.71569 21.782 5.09202C22 5.51984 22 6.0799 22 7.2V8.8C22 9.92011 22 10.4802 21.782 10.908C21.5903 11.2843 21.2843 11.5903 20.908 11.782C20.4802 12 19.9201 12 18.8 12M5.2 12C4.0799 12 3.51984 12 3.09202 12.218C2.71569 12.4097 2.40973 12.7157 2.21799 13.092C2 13.5198 2 14.0799 2 15.2V16.8C2 17.9201 2 18.4802 2.21799 18.908C2.40973 19.2843 2.71569 19.5903 3.09202 19.782C3.51984 20 4.0799 20 5.2 20H18.8C19.9201 20 20.4802 20 20.908 19.782C21.2843 19.5903 21.5903 19.2843 21.782 18.908C22 18.4802 22 17.9201 22 16.8V15.2C22 14.0799 22 13.5198 21.782 13.092C21.5903 12.7157 21.2843 12.4097 20.908 12.218C20.4802 12 19.9201 12 18.8 12M12 8H18M12 16H18M8 8C8 8.55228 7.55228 9 7 9C6.44772 9 6 8.55228 6 8C6 7.44772 6.44772 7 7 7C7.55228 7 8 7.44772 8 8ZM8 16C8 16.5523 7.55228 17 7 17C6.44772 17 6 16.5523 6 16C6 15.4477 6.44772 15 7 15C7.55228 15 8 15.4477 8 16Z" stroke="#736CFB" stroke-width="2" stroke-linecap="round"/>
</svg>
