<svg width="14" height="14" viewBox="0 0 14 14" fill="none"
    xmlns="http://www.w3.org/2000/svg">
    <path d="M11.9085 8.4561L11.3924 8.72803L11.3925 8.72803L11.9085 8.4561ZM9.47164 3.83151L9.98771 3.55957V3.55957L9.47164 3.83151ZM4.52901 3.83151L4.01294 3.55957L4.52901 3.83151ZM2.09213 8.4561L2.6082 8.72803L2.09213 8.4561ZM7.74034 1.32507L7.97973 0.793119L7.97973 0.793119L7.74034 1.32507ZM6.26031 1.32507L6.49971 1.85702L6.26031 1.32507ZM12.1034 11.9545L12.426 12.4405V12.4405L12.1034 11.9545ZM12.822 10.8512L12.2456 10.7615L12.822 10.8512ZM1.89721 11.9545L1.57464 12.4405H1.57464L1.89721 11.9545ZM1.17861 10.8512L1.755 10.7615L1.17861 10.8512ZM7.58365 5.24771C7.58221 4.92555 7.31987 4.66555 6.99771 4.667C6.67555 4.66844 6.41555 4.93078 6.417 5.25294L7.58365 5.24771ZM6.43009 8.16956C6.43153 8.49172 6.69387 8.75172 7.01603 8.75027C7.33819 8.74883 7.59819 8.48649 7.59674 8.16433L6.43009 8.16956ZM7.58366 9.91699C7.58366 9.59483 7.32249 9.33366 7.00033 9.33366C6.67816 9.33366 6.41699 9.59483 6.41699 9.91699H7.58366ZM6.41699 9.92283C6.41699 10.245 6.67816 10.5062 7.00033 10.5062C7.32249 10.5062 7.58366 10.245 7.58366 9.92283H6.41699ZM4.56344 12.8337H9.43721V11.667H4.56344V12.8337ZM12.4246 8.18416L9.98771 3.55957L8.95557 4.10344L11.3924 8.72803L12.4246 8.18416ZM4.01294 3.55957L1.57606 8.18416L2.6082 8.72803L5.04508 4.10345L4.01294 3.55957ZM9.98771 3.55957C9.59553 2.81532 9.28261 2.22015 8.99798 1.78417C8.71661 1.35317 8.4065 0.985177 7.97973 0.793119L7.50094 1.85702C7.61236 1.90715 7.77019 2.03764 8.02107 2.42193C8.26869 2.80125 8.55233 3.3382 8.95557 4.10344L9.98771 3.55957ZM5.04508 4.10345C5.44832 3.3382 5.73196 2.80125 5.97959 2.42193C6.23047 2.03764 6.38829 1.90716 6.49971 1.85702L6.02092 0.793119C5.59416 0.985177 5.28404 1.35317 5.00267 1.78417C4.71804 2.22015 4.40512 2.81532 4.01294 3.55957L5.04508 4.10345ZM7.97973 0.793119C7.35915 0.513839 6.6415 0.513839 6.02092 0.793119L6.49971 1.85702C6.8158 1.71476 7.18485 1.71476 7.50095 1.85702L7.97973 0.793119ZM9.43721 12.8337C10.1666 12.8337 10.7517 12.8342 11.2088 12.7945C11.6637 12.755 12.0794 12.6706 12.426 12.4405L11.7809 11.4685C11.6818 11.5342 11.5045 11.5978 11.1078 11.6322C10.7132 11.6665 10.1882 11.667 9.43721 11.667V12.8337ZM11.3925 8.72803C11.729 9.36668 11.9614 9.80905 12.1039 10.1554C12.2471 10.5031 12.2605 10.6663 12.2456 10.7615L13.3984 10.941C13.4631 10.5256 13.3508 10.1193 13.1828 9.71125C13.0142 9.30172 12.7501 8.80184 12.4246 8.18416L11.3925 8.72803ZM12.426 12.4405C12.9463 12.0952 13.3028 11.5551 13.3984 10.941L12.2456 10.7615C12.2024 11.0391 12.0391 11.2971 11.7809 11.4685L12.426 12.4405ZM4.56344 11.667C3.81248 11.667 3.28742 11.6665 2.89284 11.6322C2.49617 11.5978 2.31889 11.5342 2.21977 11.4685L1.57464 12.4405C1.92129 12.6706 2.33697 12.755 2.7919 12.7945C3.24892 12.8342 3.83409 12.8337 4.56344 12.8337V11.667ZM1.57606 8.18416C1.25058 8.80185 0.986463 9.30173 0.817883 9.71126C0.649895 10.1193 0.537542 10.5256 0.602227 10.941L1.755 10.7615C1.74018 10.6663 1.75358 10.5031 1.89672 10.1554C2.03927 9.80906 2.27167 9.36669 2.6082 8.72803L1.57606 8.18416ZM2.21977 11.4685C1.96157 11.2971 1.79823 11.0391 1.755 10.7615L0.602227 10.941C0.697849 11.5551 1.05435 12.0952 1.57464 12.4405L2.21977 11.4685ZM6.417 5.25294L6.43009 8.16956L7.59674 8.16433L7.58365 5.24771L6.417 5.25294ZM6.41699 9.91699V9.92283H7.58366V9.91699H6.41699Z" fill="#EEA23E"/>
</svg>
