<svg xmlns="http://www.w3.org/2000/svg" width="32" height="32" viewBox="0 0 32 32" fill="none">
  <path d="M1.33325 13.3333L17.7238 29.7238C18.2445 30.2445 19.0887 30.2445 19.6094 29.7238L30.6666 18.6666M9.33325 20L15.0571 14.2761C15.5778 13.7554 16.422 13.7554 16.9427 14.2761L25.3333 22.6666M23.4996 7.4999H24.4996M23.4996 8.4999H24.4996M11.9999 30.6666H19.9999C23.7336 30.6666 25.6004 30.6666 27.0265 29.94C28.2809 29.3009 29.3008 28.281 29.94 27.0266C30.6666 25.6005 30.6666 23.7337 30.6666 20V12C30.6666 8.2663 30.6666 6.39945 29.94 4.97338C29.3008 3.71896 28.2809 2.69909 27.0265 2.05994C25.6004 1.33331 23.7336 1.33331 19.9999 1.33331H11.9999C8.26623 1.33331 6.39939 1.33331 4.97332 2.05994C3.7189 2.69909 2.69903 3.71896 2.05988 4.97338C1.33325 6.39945 1.33325 8.2663 1.33325 12V20C1.33325 23.7337 1.33325 25.6005 2.05988 27.0266C2.69903 28.281 3.7189 29.3009 4.97332 29.94C6.39939 30.6666 8.26623 30.6666 11.9999 30.6666ZM25.3333 7.99998C25.3333 8.73636 24.7363 9.33331 23.9999 9.33331C23.2635 9.33331 22.6666 8.73636 22.6666 7.99998C22.6666 7.2636 23.2635 6.66665 23.9999 6.66665C24.7363 6.66665 25.3333 7.2636 25.3333 7.99998Z" stroke="#919BA7" stroke-width="2" stroke-linecap="round"/>
</svg>