<svg width="32" height="32" viewBox="0 0 32 32" fill="none"
    xmlns="http://www.w3.org/2000/svg">
    <path d="M14.3333 13.3333C14.3333 12.781 13.8856 12.3333 13.3333 12.3333C12.781 12.3333 12.3333 12.781 12.3333 13.3333H14.3333ZM12.3333 24C12.3333 24.5523 12.781 25 13.3333 25C13.8856 25 14.3333 24.5523 14.3333 24H12.3333ZM19.6666 13.3333C19.6666 12.781 19.2189 12.3333 18.6666 12.3333C18.1143 12.3333 17.6666 12.781 17.6666 13.3333H19.6666ZM17.6666 24C17.6666 24.5523 18.1143 25 18.6666 25C19.2189 25 19.6666 24.5523 19.6666 24H17.6666ZM9.45598 27.7094L9.90998 26.8183H9.90998L9.45598 27.7094ZM8.29061 26.544L9.18162 26.09L9.18162 26.09L8.29061 26.544ZM23.7093 26.544L22.8183 26.09V26.09L23.7093 26.544ZM22.5439 27.7094L22.0899 26.8183H22.0899L22.5439 27.7094ZM6.66663 8.33333C6.11434 8.33333 5.66663 8.78105 5.66663 9.33333C5.66663 9.88562 6.11434 10.3333 6.66663 10.3333V8.33333ZM25.3333 10.3333C25.8856 10.3333 26.3333 9.88562 26.3333 9.33333C26.3333 8.78105 25.8856 8.33333 25.3333 8.33333V10.3333ZM10.3333 9.33333C10.3333 9.88562 10.781 10.3333 11.3333 10.3333C11.8856 10.3333 12.3333 9.88562 12.3333 9.33333H10.3333ZM19.6666 9.33333C19.6666 9.88562 20.1143 10.3333 20.6666 10.3333C21.2189 10.3333 21.6666 9.88562 21.6666 9.33333H19.6666ZM12.3333 13.3333V24H14.3333V13.3333H12.3333ZM17.6666 13.3333V24H19.6666V13.3333H17.6666ZM23 9.33333V23.7333H25V9.33333H23ZM19.7333 27H12.2666V29H19.7333V27ZM6.99996 9.33333V23.7333H8.99996V9.33333H6.99996ZM12.2666 27C11.5034 27 10.9911 26.9992 10.5966 26.967C10.2138 26.9357 10.0307 26.8799 9.90998 26.8183L9.00199 28.6004C9.45168 28.8295 9.92722 28.919 10.4337 28.9603C10.9286 29.0008 11.5364 29 12.2666 29V27ZM6.99996 23.7333C6.99996 24.4636 6.99918 25.0714 7.03961 25.5662C7.081 26.0727 7.17048 26.5483 7.3996 26.998L9.18162 26.09C9.12009 25.9692 9.06425 25.7862 9.03297 25.4034C9.00074 25.0089 8.99996 24.4966 8.99996 23.7333H6.99996ZM9.90998 26.8183C9.59637 26.6586 9.3414 26.4036 9.18162 26.09L7.3996 26.998C7.75114 27.6879 8.31207 28.2488 9.00199 28.6004L9.90998 26.8183ZM23 23.7333C23 24.4966 22.9992 25.0089 22.9669 25.4034C22.9357 25.7862 22.8798 25.9692 22.8183 26.09L24.6003 26.998C24.8294 26.5483 24.9189 26.0727 24.9603 25.5662C25.0007 25.0714 25 24.4636 25 23.7333H23ZM19.7333 29C20.4635 29 21.0713 29.0008 21.5662 28.9603C22.0727 28.919 22.5482 28.8295 22.9979 28.6004L22.0899 26.8183C21.9692 26.8799 21.7862 26.9357 21.4033 26.967C21.0088 26.9992 20.4965 27 19.7333 27V29ZM22.8183 26.09C22.6585 26.4036 22.4035 26.6586 22.0899 26.8183L22.9979 28.6004C23.6879 28.2488 24.2488 27.6879 24.6003 26.998L22.8183 26.09ZM6.66663 10.3333H7.99996V8.33333H6.66663V10.3333ZM7.99996 10.3333H24V8.33333H7.99996V10.3333ZM24 10.3333H25.3333V8.33333H24V10.3333ZM12.3333 8.26667C12.3333 6.545 13.8887 5 16 5V3C12.9566 3 10.3333 5.27551 10.3333 8.26667H12.3333ZM16 5C18.1112 5 19.6666 6.545 19.6666 8.26667H21.6666C21.6666 5.27551 19.0433 3 16 3V5ZM10.3333 8.26667V9.33333H12.3333V8.26667H10.3333ZM19.6666 8.26667V9.33333H21.6666V8.26667H19.6666Z" fill="#272D37"/>
</svg>
