<svg width="14" height="14" viewBox="0 0 14 14" fill="none" xmlns="http://www.w3.org/2000/svg">
<path d="M12.4 5.66667C12.4 5.99804 12.6686 6.26667 13 6.26667C13.3314 6.26667 13.6 5.99804 13.6 5.66667H12.4ZM8.33333 0.4C8.00196 0.4 7.73333 0.668629 7.73333 1C7.73333 1.33137 8.00196 1.6 8.33333 1.6V0.4ZM12.8983 1.50961L13.4329 1.23721V1.23721L12.8983 1.50961ZM12.4904 1.10173L12.7628 0.567123V0.567123L12.4904 1.10173ZM12.4909 2.3576C12.7252 2.12328 12.7252 1.74338 12.4909 1.50907C12.2566 1.27475 11.8767 1.27475 11.6424 1.50907L12.4909 2.3576ZM6.57574 6.57574C6.34142 6.81005 6.34142 7.18995 6.57574 7.42426C6.81005 7.65858 7.18995 7.65858 7.42426 7.42426L6.57574 6.57574ZM2.24093 12.7523L2.51332 12.2177H2.51332L2.24093 12.7523ZM1.24771 11.7591L0.713108 12.0315H0.713109L1.24771 11.7591ZM10.7523 11.7591L10.2177 11.4867L10.7523 11.7591ZM9.75907 12.7523L9.48668 12.2177L9.75907 12.7523ZM2.24093 3.24771L1.96854 2.71311H1.96854L2.24093 3.24771ZM1.24771 4.24093L0.713109 3.96854L1.24771 4.24093ZM6 3.6C6.33137 3.6 6.6 3.33137 6.6 3C6.6 2.66863 6.33137 2.4 6 2.4V3.6ZM11.6 8C11.6 7.66863 11.3314 7.4 11 7.4C10.6686 7.4 10.4 7.66863 10.4 8H11.6ZM13.6 5.66667V2.49333H12.4V5.66667H13.6ZM11.5067 0.4H8.33333V1.6H11.5067V0.4ZM13.6 2.49333C13.6 2.24188 13.6005 2.0172 13.5853 1.83146C13.5695 1.63872 13.534 1.43572 13.4329 1.23721L12.3637 1.782C12.3643 1.78315 12.3796 1.81065 12.3893 1.92918C12.3995 2.05472 12.4 2.22208 12.4 2.49333H13.6ZM11.5067 1.6C11.7779 1.6 11.9453 1.60047 12.0708 1.61072C12.1894 1.62041 12.2169 1.63575 12.218 1.63633L12.7628 0.567123C12.5643 0.465979 12.3613 0.430456 12.1685 0.414708C11.9828 0.399533 11.7581 0.4 11.5067 0.4V1.6ZM13.4329 1.23721C13.2859 0.948701 13.0513 0.71413 12.7628 0.567123L12.218 1.63633C12.2807 1.66829 12.3317 1.71928 12.3637 1.782L13.4329 1.23721ZM11.6424 1.50907L6.57574 6.57574L7.42426 7.42426L12.4909 2.3576L11.6424 1.50907ZM7.36364 12.4H4.63636V13.6H7.36364V12.4ZM1.6 9.36364V6.63636H0.4V9.36364H1.6ZM4.63636 12.4C3.99004 12.4 3.54138 12.3995 3.1925 12.371C2.85062 12.3431 2.65773 12.2913 2.51332 12.2177L1.96854 13.2869C2.3103 13.461 2.67869 13.533 3.09478 13.567C3.50386 13.6005 4.00984 13.6 4.63636 13.6V12.4ZM0.4 9.36364C0.4 9.99016 0.399533 10.4961 0.432957 10.9052C0.466952 11.3213 0.538972 11.6897 0.713108 12.0315L1.78232 11.4867C1.70874 11.3423 1.6569 11.1494 1.62897 10.8075C1.60047 10.4586 1.6 10.01 1.6 9.36364H0.4ZM2.51332 12.2177C2.19858 12.0573 1.94269 11.8014 1.78232 11.4867L0.713109 12.0315C0.988527 12.572 1.428 13.0115 1.96854 13.2869L2.51332 12.2177ZM10.4 9.36364C10.4 10.01 10.3995 10.4586 10.371 10.8075C10.3431 11.1494 10.2913 11.3423 10.2177 11.4867L11.2869 12.0315C11.461 11.6897 11.533 11.3213 11.567 10.9052C11.6005 10.4961 11.6 9.99016 11.6 9.36364H10.4ZM7.36364 13.6C7.99016 13.6 8.49614 13.6005 8.90522 13.567C9.32131 13.533 9.6897 13.461 10.0315 13.2869L9.48668 12.2177C9.34227 12.2913 9.14938 12.3431 8.8075 12.371C8.45862 12.3995 8.00996 12.4 7.36364 12.4V13.6ZM10.2177 11.4867C10.0573 11.8014 9.80142 12.0573 9.48668 12.2177L10.0315 13.2869C10.572 13.0115 11.0115 12.572 11.2869 12.0315L10.2177 11.4867ZM4.63636 2.4C4.00984 2.4 3.50386 2.39953 3.09478 2.43296C2.6787 2.46695 2.3103 2.53897 1.96854 2.71311L2.51332 3.78232C2.65773 3.70874 2.85062 3.6569 3.1925 3.62897C3.54138 3.60047 3.99004 3.6 4.63636 3.6V2.4ZM1.6 6.63636C1.6 5.99004 1.60047 5.54138 1.62897 5.1925C1.6569 4.85062 1.70874 4.65773 1.78232 4.51332L0.713109 3.96854C0.538972 4.3103 0.466952 4.6787 0.432957 5.09478C0.399533 5.50386 0.4 6.00984 0.4 6.63636H1.6ZM1.96854 2.71311C1.428 2.98853 0.988527 3.428 0.713109 3.96854L1.78232 4.51332C1.94269 4.19858 2.19858 3.94269 2.51332 3.78232L1.96854 2.71311ZM4.63636 3.6H6V2.4H4.63636V3.6ZM10.4 8V9.36364H11.6V8H10.4Z" fill="white"/>
</svg>
