<?xml version="1.0" encoding="us-ascii" standalone="no"?><svg xmlns="http://www.w3.org/2000/svg" xmlns:xlink="http://www.w3.org/1999/xlink" contentStyleType="text/css" height="542px" preserveAspectRatio="none" style="width:637px;height:542px;background:#FFFFFF;" version="1.1" viewBox="0 0 637 542" width="637px" zoomAndPan="magnify"><defs/><g><text fill="#000000" font-family="sans-serif" font-size="14" font-weight="bold" lengthAdjust="spacing" text-decoration="underline" textLength="281" x="174" y="28.2344">CS API - Get Piracy Detection Order Flow</text><rect fill="none" height="71.7422" style="stroke:#000000;stroke-width:1.5;" width="610" x="10" y="374.3672"/><line style="stroke:#181818;stroke-width:0.5;stroke-dasharray:5.0,5.0;" x1="47" x2="47" y1="115.9688" y2="463.1094"/><line style="stroke:#181818;stroke-width:0.5;stroke-dasharray:5.0,5.0;" x1="219" x2="219" y1="115.9688" y2="463.1094"/><line style="stroke:#181818;stroke-width:0.5;stroke-dasharray:5.0,5.0;" x1="585" x2="585" y1="115.9688" y2="463.1094"/><text fill="#000000" font-family="sans-serif" font-size="14" lengthAdjust="spacing" textLength="49" x="20" y="114.2188">Partner</text><ellipse cx="47.5" cy="49.4844" fill="#E2E2F0" rx="8" ry="8" style="stroke:#181818;stroke-width:0.5;"/><path d="M47.5,57.4844 L47.5,84.4844 M34.5,65.4844 L60.5,65.4844 M47.5,84.4844 L34.5,99.4844 M47.5,84.4844 L60.5,99.4844 " fill="none" style="stroke:#181818;stroke-width:0.5;"/><text fill="#000000" font-family="sans-serif" font-size="14" lengthAdjust="spacing" textLength="49" x="20" y="475.3438">Partner</text><ellipse cx="47.5" cy="485.5938" fill="#E2E2F0" rx="8" ry="8" style="stroke:#181818;stroke-width:0.5;"/><path d="M47.5,493.5938 L47.5,520.5938 M34.5,501.5938 L60.5,501.5938 M47.5,520.5938 L34.5,535.5938 M47.5,520.5938 L60.5,535.5938 " fill="none" style="stroke:#181818;stroke-width:0.5;"/><rect fill="#E2E2F0" height="28.9844" rx="2.5" ry="2.5" style="stroke:#181818;stroke-width:0.5;" width="49" x="195" y="85.9844"/><text fill="#000000" font-family="sans-serif" font-size="14" lengthAdjust="spacing" textLength="35" x="202" y="106.2188">PdSvc</text><rect fill="#E2E2F0" height="28.9844" rx="2.5" ry="2.5" style="stroke:#181818;stroke-width:0.5;" width="49" x="195" y="462.1094"/><text fill="#000000" font-family="sans-serif" font-size="14" lengthAdjust="spacing" textLength="35" x="202" y="482.3438">PdSvc</text><text fill="#000000" font-family="sans-serif" font-size="14" lengthAdjust="spacing" textLength="14" x="575.5" y="114.2188">S3</text><path d="M565,72.9844 L565,96.9844 M565,84.9844 L582,84.9844 " fill="none" style="stroke:#181818;stroke-width:0.5;"/><ellipse cx="594" cy="84.9844" fill="#E2E2F0" rx="12" ry="12" style="stroke:#181818;stroke-width:0.5;"/><text fill="#000000" font-family="sans-serif" font-size="14" lengthAdjust="spacing" textLength="14" x="575.5" y="475.3438">S3</text><path d="M565,481.0938 L565,505.0938 M565,493.0938 L582,493.0938 " fill="none" style="stroke:#181818;stroke-width:0.5;"/><ellipse cx="594" cy="493.0938" fill="#E2E2F0" rx="12" ry="12" style="stroke:#181818;stroke-width:0.5;"/><rect fill="#EEEEEE" height="3" style="stroke:#EEEEEE;stroke-width:1.0;" width="630" x="0" y="145.9258"/><line style="stroke:#000000;stroke-width:1.0;" x1="0" x2="630" y1="145.9258" y2="145.9258"/><line style="stroke:#000000;stroke-width:1.0;" x1="0" x2="630" y1="148.9258" y2="148.9258"/><rect fill="#EEEEEE" height="21.9141" style="stroke:#000000;stroke-width:2.0;" width="116" x="257" y="135.9688"/><text fill="#000000" font-family="sans-serif" font-size="13" font-weight="bold" lengthAdjust="spacing" textLength="95" x="263" y="152.2578">Get Order Flow</text><polygon fill="#181818" points="207.5,183.7969,217.5,187.7969,207.5,191.7969,211.5,187.7969" style="stroke:#181818;stroke-width:1.0;"/><line style="stroke:#181818;stroke-width:1.0;" x1="47.5" x2="213.5" y1="187.7969" y2="187.7969"/><text fill="#000000" font-family="sans-serif" font-size="13" font-weight="bold" lengthAdjust="spacing" textLength="7" x="54.5" y="184.1719">1</text><text fill="#FF0000" font-family="sans-serif" font-size="13" font-weight="bold" lengthAdjust="spacing" textLength="137" x="65.5" y="184.1719">getOrder(orderQuery)</text><line style="stroke:#181818;stroke-width:1.0;" x1="219.5" x2="261.5" y1="215.7109" y2="215.7109"/><line style="stroke:#181818;stroke-width:1.0;" x1="261.5" x2="261.5" y1="215.7109" y2="228.7109"/><line style="stroke:#181818;stroke-width:1.0;" x1="220.5" x2="261.5" y1="228.7109" y2="228.7109"/><polygon fill="#181818" points="230.5,224.7109,220.5,228.7109,230.5,232.7109,226.5,228.7109" style="stroke:#181818;stroke-width:1.0;"/><text fill="#000000" font-family="sans-serif" font-size="13" font-weight="bold" lengthAdjust="spacing" textLength="7" x="226.5" y="212.0859">2</text><text fill="#000000" font-family="sans-serif" font-size="13" lengthAdjust="spacing" textLength="135" x="237.5" y="212.0859">validate(orderQuery)</text><line style="stroke:#181818;stroke-width:1.0;" x1="219.5" x2="261.5" y1="256.625" y2="256.625"/><line style="stroke:#181818;stroke-width:1.0;" x1="261.5" x2="261.5" y1="256.625" y2="269.625"/><line style="stroke:#181818;stroke-width:1.0;" x1="220.5" x2="261.5" y1="269.625" y2="269.625"/><polygon fill="#181818" points="230.5,265.625,220.5,269.625,230.5,273.625,226.5,269.625" style="stroke:#181818;stroke-width:1.0;"/><text fill="#000000" font-family="sans-serif" font-size="13" font-weight="bold" lengthAdjust="spacing" textLength="7" x="226.5" y="253">3</text><text fill="#000000" font-family="sans-serif" font-size="13" lengthAdjust="spacing" textLength="341" x="237.5" y="253">getOrder(orderQuery.accountId, orderQuery.orderId)</text><polygon fill="#181818" points="58.5,303.4961,48.5,307.4961,58.5,311.4961,54.5,307.4961" style="stroke:#181818;stroke-width:1.0;"/><line style="stroke:#181818;stroke-width:1.0;stroke-dasharray:2.0,2.0;" x1="52.5" x2="218.5" y1="307.4961" y2="307.4961"/><text fill="#000000" font-family="sans-serif" font-size="13" font-weight="bold" lengthAdjust="spacing" textLength="7" x="64.5" y="303.8711">4</text><text fill="#000000" font-family="sans-serif" font-size="13" lengthAdjust="spacing" textLength="35" x="75.5" y="303.8711">order</text><path d="M224,282.625 L224,319.625 L502,319.625 L502,292.625 L492,282.625 L224,282.625 " fill="#FEFFDD" style="stroke:#181818;stroke-width:0.5;"/><path d="M492,282.625 L492,292.625 L502,292.625 L492,282.625 " fill="#FEFFDD" style="stroke:#181818;stroke-width:0.5;"/><text fill="#000000" font-family="sans-serif" font-size="13" lengthAdjust="spacing" textLength="210" x="230" y="299.9141">order holds order file metadata</text><text fill="#000000" font-family="sans-serif" font-size="13" lengthAdjust="spacing" textLength="257" x="230" y="313.8281">containing the detected watermark code</text><rect fill="#EEEEEE" height="3" style="stroke:#EEEEEE;stroke-width:1.0;" width="630" x="0" y="345.4102"/><line style="stroke:#000000;stroke-width:1.0;" x1="0" x2="630" y1="345.4102" y2="345.4102"/><line style="stroke:#000000;stroke-width:1.0;" x1="0" x2="630" y1="348.4102" y2="348.4102"/><rect fill="#EEEEEE" height="21.9141" style="stroke:#000000;stroke-width:2.0;" width="243" x="193.5" y="335.4531"/><text fill="#000000" font-family="sans-serif" font-size="13" font-weight="bold" lengthAdjust="spacing" textLength="222" x="199.5" y="351.7422">Download Original Order File Flow</text><path d="M10,374.3672 L82,374.3672 L82,380.2813 L72,390.2813 L10,390.2813 L10,374.3672 " fill="#EEEEEE" style="stroke:#000000;stroke-width:1.5;"/><rect fill="none" height="71.7422" style="stroke:#000000;stroke-width:1.5;" width="610" x="10" y="374.3672"/><text fill="#000000" font-family="sans-serif" font-size="13" font-weight="bold" lengthAdjust="spacing" textLength="27" x="25" y="387.6563">loop</text><text fill="#000000" font-family="sans-serif" font-size="11" font-weight="bold" lengthAdjust="spacing" textLength="185" x="97" y="386.7656">[orderFile in order.orderFiles]</text><polygon fill="#181818" points="573.5,406.1953,583.5,410.1953,573.5,414.1953,577.5,410.1953" style="stroke:#181818;stroke-width:1.0;"/><line style="stroke:#181818;stroke-width:1.0;" x1="47.5" x2="579.5" y1="410.1953" y2="410.1953"/><text fill="#000000" font-family="sans-serif" font-size="13" font-weight="bold" lengthAdjust="spacing" textLength="7" x="54.5" y="406.5703">5</text><text fill="#FF0000" font-family="sans-serif" font-size="13" font-weight="bold" lengthAdjust="spacing" textLength="234" x="65.5" y="406.5703">download(orderFile.origDownloadUrl)</text><polygon fill="#181818" points="58.5,434.1094,48.5,438.1094,58.5,442.1094,54.5,438.1094" style="stroke:#181818;stroke-width:1.0;"/><line style="stroke:#181818;stroke-width:1.0;stroke-dasharray:2.0,2.0;" x1="52.5" x2="584.5" y1="438.1094" y2="438.1094"/><text fill="#000000" font-family="sans-serif" font-size="13" font-weight="bold" lengthAdjust="spacing" textLength="7" x="64.5" y="434.4844">6</text><text fill="#000000" font-family="sans-serif" font-size="13" lengthAdjust="spacing" textLength="61" x="75.5" y="434.4844">orderFile</text><!--SRC=[VP1DQy9048Rlyolcg52zU1CZb4gBfwQ4diEuEurBrvsmJXJ_VJSRJQL8SyZ7PDvdNnxgL49ts744KAUUiQvVAdmkjpZ3DrOiNIHpmGqh6tKIy3rQZlZgvLpN06HK8fOKDIH4cvxEk9P22jhgP60dNR0KBrWj08eY8ty9M1G0rp3EraDcYQlTUcN49t1aksvOSs8Y_VsZutYPGjwyYvp8EqlA_ouz8Ct9c5HHj_O9xwRvTMj7HCyOQYw7DO0WoXXTirV84zoBjyVXBtwvPFB0IgaJWP6Wv88B3UgUqMQNRF6S2iS3nMyqOXauMEofMTH6pi4BsMJBDIwGlsdhoQCxBz8EH-Qv2yF7V1mT0TDrfxXQ_FLhhoTDnb2Ak-PMu3FwQOPKYmSU-lM- -0y0]--></g></svg>