<?xml version="1.0" encoding="us-ascii" standalone="no"?><svg xmlns="http://www.w3.org/2000/svg" xmlns:xlink="http://www.w3.org/1999/xlink" contentStyleType="text/css" height="698px" preserveAspectRatio="none" style="width:676px;height:698px;background:#FFFFFF;" version="1.1" viewBox="0 0 676 698" width="676px" zoomAndPan="magnify"><defs/><g><text fill="#000000" font-family="sans-serif" font-size="14" font-weight="bold" lengthAdjust="spacing" text-decoration="underline" textLength="198" x="235.25" y="28.2344">CS API - Reset Password Flow</text><line style="stroke:#181818;stroke-width:0.5;stroke-dasharray:5.0,5.0;" x1="32" x2="32" y1="115.9688" y2="362.3672"/><line style="stroke:#A80036;stroke-width:1.0;stroke-dasharray:1.0,4.0;" x1="32" x2="32" y1="362.3672" y2="402.1406"/><line style="stroke:#181818;stroke-width:0.5;stroke-dasharray:5.0,5.0;" x1="32" x2="32" y1="402.1406" y2="618.625"/><line style="stroke:#181818;stroke-width:0.5;stroke-dasharray:5.0,5.0;" x1="379.5" x2="379.5" y1="115.9688" y2="362.3672"/><line style="stroke:#A80036;stroke-width:1.0;stroke-dasharray:1.0,4.0;" x1="379.5" x2="379.5" y1="362.3672" y2="402.1406"/><line style="stroke:#181818;stroke-width:0.5;stroke-dasharray:5.0,5.0;" x1="379.5" x2="379.5" y1="402.1406" y2="618.625"/><line style="stroke:#181818;stroke-width:0.5;stroke-dasharray:5.0,5.0;" x1="626.5" x2="626.5" y1="115.9688" y2="362.3672"/><line style="stroke:#A80036;stroke-width:1.0;stroke-dasharray:1.0,4.0;" x1="626.5" x2="626.5" y1="362.3672" y2="402.1406"/><line style="stroke:#181818;stroke-width:0.5;stroke-dasharray:5.0,5.0;" x1="626.5" x2="626.5" y1="402.1406" y2="618.625"/><text fill="#000000" font-family="sans-serif" font-size="14" lengthAdjust="spacing" textLength="49" x="5" y="114.2188">Partner</text><ellipse cx="32.5" cy="49.4844" fill="#E2E2F0" rx="8" ry="8" style="stroke:#181818;stroke-width:0.5;"/><path d="M32.5,57.4844 L32.5,84.4844 M19.5,65.4844 L45.5,65.4844 M32.5,84.4844 L19.5,99.4844 M32.5,84.4844 L45.5,99.4844 " fill="none" style="stroke:#181818;stroke-width:0.5;"/><text fill="#000000" font-family="sans-serif" font-size="14" lengthAdjust="spacing" textLength="49" x="5" y="630.8594">Partner</text><ellipse cx="32.5" cy="641.1094" fill="#E2E2F0" rx="8" ry="8" style="stroke:#181818;stroke-width:0.5;"/><path d="M32.5,649.1094 L32.5,676.1094 M19.5,657.1094 L45.5,657.1094 M32.5,676.1094 L19.5,691.1094 M32.5,676.1094 L45.5,691.1094 " fill="none" style="stroke:#181818;stroke-width:0.5;"/><rect fill="#E2E2F0" height="28.9844" rx="2.5" ry="2.5" style="stroke:#181818;stroke-width:0.5;" width="84" x="337.5" y="85.9844"/><text fill="#000000" font-family="sans-serif" font-size="14" lengthAdjust="spacing" textLength="70" x="344.5" y="106.2188">AuthApiSvc</text><rect fill="#E2E2F0" height="28.9844" rx="2.5" ry="2.5" style="stroke:#181818;stroke-width:0.5;" width="84" x="337.5" y="617.625"/><text fill="#000000" font-family="sans-serif" font-size="14" lengthAdjust="spacing" textLength="70" x="344.5" y="637.8594">AuthApiSvc</text><text fill="#000000" font-family="sans-serif" font-size="14" lengthAdjust="spacing" textLength="70" x="588.5" y="114.2188">MailServer</text><path d="M606,72.9844 L606,96.9844 M606,84.9844 L623,84.9844 " fill="none" style="stroke:#181818;stroke-width:0.5;"/><ellipse cx="635" cy="84.9844" fill="#E2E2F0" rx="12" ry="12" style="stroke:#181818;stroke-width:0.5;"/><text fill="#000000" font-family="sans-serif" font-size="14" lengthAdjust="spacing" textLength="70" x="588.5" y="630.8594">MailServer</text><path d="M606,636.6094 L606,660.6094 M606,648.6094 L623,648.6094 " fill="none" style="stroke:#181818;stroke-width:0.5;"/><ellipse cx="635" cy="648.6094" fill="#E2E2F0" rx="12" ry="12" style="stroke:#181818;stroke-width:0.5;"/><rect fill="#EEEEEE" height="3" style="stroke:#EEEEEE;stroke-width:1.0;" width="669.5" x="0" y="145.9258"/><line style="stroke:#000000;stroke-width:1.0;" x1="0" x2="669.5" y1="145.9258" y2="145.9258"/><line style="stroke:#000000;stroke-width:1.0;" x1="0" x2="669.5" y1="148.9258" y2="148.9258"/><rect fill="#EEEEEE" height="21.9141" style="stroke:#000000;stroke-width:2.0;" width="204" x="232.75" y="135.9688"/><text fill="#000000" font-family="sans-serif" font-size="13" font-weight="bold" lengthAdjust="spacing" textLength="183" x="238.75" y="152.2578">Trigger Password Reset Flow</text><polygon fill="#181818" points="367.5,183.7969,377.5,187.7969,367.5,191.7969,371.5,187.7969" style="stroke:#181818;stroke-width:1.0;"/><line style="stroke:#181818;stroke-width:1.0;" x1="32.5" x2="373.5" y1="187.7969" y2="187.7969"/><text fill="#000000" font-family="sans-serif" font-size="13" font-weight="bold" lengthAdjust="spacing" textLength="7" x="39.5" y="184.1719">1</text><text fill="#FF0000" font-family="sans-serif" font-size="13" font-weight="bold" lengthAdjust="spacing" textLength="180" x="50.5" y="184.1719">triggerPasswordReset(email)</text><line style="stroke:#181818;stroke-width:1.0;" x1="379.5" x2="421.5" y1="215.7109" y2="215.7109"/><line style="stroke:#181818;stroke-width:1.0;" x1="421.5" x2="421.5" y1="215.7109" y2="228.7109"/><line style="stroke:#181818;stroke-width:1.0;" x1="380.5" x2="421.5" y1="228.7109" y2="228.7109"/><polygon fill="#181818" points="390.5,224.7109,380.5,228.7109,390.5,232.7109,386.5,228.7109" style="stroke:#181818;stroke-width:1.0;"/><text fill="#000000" font-family="sans-serif" font-size="13" font-weight="bold" lengthAdjust="spacing" textLength="7" x="386.5" y="212.0859">2</text><text fill="#000000" font-family="sans-serif" font-size="13" lengthAdjust="spacing" textLength="222" x="397.5" y="212.0859">generatePasswordResetToken(email)</text><polygon fill="#181818" points="614.5,252.625,624.5,256.625,614.5,260.625,618.5,256.625" style="stroke:#181818;stroke-width:1.0;"/><line style="stroke:#181818;stroke-width:1.0;" x1="379.5" x2="620.5" y1="256.625" y2="256.625"/><text fill="#000000" font-family="sans-serif" font-size="13" font-weight="bold" lengthAdjust="spacing" textLength="7" x="386.5" y="253">3</text><text fill="#000000" font-family="sans-serif" font-size="13" lengthAdjust="spacing" textLength="208" x="397.5" y="253">send(email, passwordResetToken)</text><polygon fill="#181818" points="390.5,280.5391,380.5,284.5391,390.5,288.5391,386.5,284.5391" style="stroke:#181818;stroke-width:1.0;"/><line style="stroke:#181818;stroke-width:1.0;stroke-dasharray:2.0,2.0;" x1="384.5" x2="625.5" y1="284.5391" y2="284.5391"/><text fill="#000000" font-family="sans-serif" font-size="13" font-weight="bold" lengthAdjust="spacing" textLength="7" x="396.5" y="280.9141">4</text><text fill="#000000" font-family="sans-serif" font-size="13" lengthAdjust="spacing" textLength="40" x="407.5" y="280.9141">result</text><polygon fill="#181818" points="43.5,308.4531,33.5,312.4531,43.5,316.4531,39.5,312.4531" style="stroke:#181818;stroke-width:1.0;"/><line style="stroke:#181818;stroke-width:1.0;stroke-dasharray:2.0,2.0;" x1="37.5" x2="378.5" y1="312.4531" y2="312.4531"/><text fill="#000000" font-family="sans-serif" font-size="13" font-weight="bold" lengthAdjust="spacing" textLength="7" x="49.5" y="308.8281">5</text><text fill="#000000" font-family="sans-serif" font-size="13" lengthAdjust="spacing" textLength="40" x="60.5" y="308.8281">result</text><rect fill="#EEEEEE" height="3" style="stroke:#EEEEEE;stroke-width:1.0;" width="669.5" x="0" y="340.4102"/><line style="stroke:#000000;stroke-width:1.0;" x1="0" x2="669.5" y1="340.4102" y2="340.4102"/><line style="stroke:#000000;stroke-width:1.0;" x1="0" x2="669.5" y1="343.4102" y2="343.4102"/><rect fill="#EEEEEE" height="21.9141" style="stroke:#000000;stroke-width:2.0;" width="150" x="259.75" y="330.4531"/><text fill="#000000" font-family="sans-serif" font-size="13" font-weight="bold" lengthAdjust="spacing" textLength="129" x="265.75" y="346.7422">Password Reset Flow</text><text fill="#000000" font-family="sans-serif" font-size="11" lengthAdjust="spacing" textLength="90" x="284.5" y="386.7656">Some time later</text><polygon fill="#181818" points="43.5,418.0547,33.5,422.0547,43.5,426.0547,39.5,422.0547" style="stroke:#181818;stroke-width:1.0;"/><line style="stroke:#181818;stroke-width:1.0;stroke-dasharray:2.0,2.0;" x1="37.5" x2="625.5" y1="422.0547" y2="422.0547"/><text fill="#000000" font-family="sans-serif" font-size="13" font-weight="bold" lengthAdjust="spacing" textLength="7" x="49.5" y="418.4297">6</text><text fill="#000000" font-family="sans-serif" font-size="13" lengthAdjust="spacing" textLength="98" x="60.5" y="418.4297">dispatch(email)</text><line style="stroke:#181818;stroke-width:1.0;" x1="32.5" x2="74.5" y1="449.9688" y2="449.9688"/><line style="stroke:#181818;stroke-width:1.0;" x1="74.5" x2="74.5" y1="449.9688" y2="462.9688"/><line style="stroke:#181818;stroke-width:1.0;" x1="33.5" x2="74.5" y1="462.9688" y2="462.9688"/><polygon fill="#181818" points="43.5,458.9688,33.5,462.9688,43.5,466.9688,39.5,462.9688" style="stroke:#181818;stroke-width:1.0;"/><text fill="#000000" font-family="sans-serif" font-size="13" font-weight="bold" lengthAdjust="spacing" textLength="7" x="39.5" y="446.3438">7</text><text fill="#000000" font-family="sans-serif" font-size="13" lengthAdjust="spacing" textLength="187" x="50.5" y="446.3438">getPasswordResetToken(email)</text><polygon fill="#181818" points="367.5,486.8828,377.5,490.8828,367.5,494.8828,371.5,490.8828" style="stroke:#181818;stroke-width:1.0;"/><line style="stroke:#181818;stroke-width:1.0;" x1="32.5" x2="373.5" y1="490.8828" y2="490.8828"/><text fill="#000000" font-family="sans-serif" font-size="13" font-weight="bold" lengthAdjust="spacing" textLength="7" x="39.5" y="487.2578">8</text><text fill="#FF0000" font-family="sans-serif" font-size="13" font-weight="bold" lengthAdjust="spacing" textLength="312" x="50.5" y="487.2578">resetPassword(passwordResetToken, newPassword)</text><line style="stroke:#181818;stroke-width:1.0;" x1="379.5" x2="421.5" y1="518.7969" y2="518.7969"/><line style="stroke:#181818;stroke-width:1.0;" x1="421.5" x2="421.5" y1="518.7969" y2="531.7969"/><line style="stroke:#181818;stroke-width:1.0;" x1="380.5" x2="421.5" y1="531.7969" y2="531.7969"/><polygon fill="#181818" points="390.5,527.7969,380.5,531.7969,390.5,535.7969,386.5,531.7969" style="stroke:#181818;stroke-width:1.0;"/><text fill="#000000" font-family="sans-serif" font-size="13" font-weight="bold" lengthAdjust="spacing" textLength="7" x="386.5" y="515.1719">9</text><text fill="#000000" font-family="sans-serif" font-size="13" lengthAdjust="spacing" textLength="188" x="397.5" y="515.1719">validate(passwordResetToken)</text><line style="stroke:#181818;stroke-width:1.0;" x1="379.5" x2="421.5" y1="559.7109" y2="559.7109"/><line style="stroke:#181818;stroke-width:1.0;" x1="421.5" x2="421.5" y1="559.7109" y2="572.7109"/><line style="stroke:#181818;stroke-width:1.0;" x1="380.5" x2="421.5" y1="572.7109" y2="572.7109"/><polygon fill="#181818" points="390.5,568.7109,380.5,572.7109,390.5,576.7109,386.5,572.7109" style="stroke:#181818;stroke-width:1.0;"/><text fill="#000000" font-family="sans-serif" font-size="13" font-weight="bold" lengthAdjust="spacing" textLength="14" x="386.5" y="556.0859">10</text><text fill="#000000" font-family="sans-serif" font-size="13" lengthAdjust="spacing" textLength="128" x="404.5" y="556.0859">update(newPassword)</text><polygon fill="#181818" points="43.5,596.625,33.5,600.625,43.5,604.625,39.5,600.625" style="stroke:#181818;stroke-width:1.0;"/><line style="stroke:#181818;stroke-width:1.0;stroke-dasharray:2.0,2.0;" x1="37.5" x2="378.5" y1="600.625" y2="600.625"/><text fill="#000000" font-family="sans-serif" font-size="13" font-weight="bold" lengthAdjust="spacing" textLength="14" x="49.5" y="597">11</text><text fill="#000000" font-family="sans-serif" font-size="13" lengthAdjust="spacing" textLength="40" x="67.5" y="597">result</text><!--SRC=[ZP71YeCm48RlUOevjb1zW585MLZOmq9PUvUeWmqR4qacohxznbgrrRhi9O7C_D-V-OSxqihLEHh6I914oBAt59Bp1mJmXHO9pjpQJfiItgNkiemnNf0s_jcGyhB6tw8G3LS4YQDhqeYqBLYkdIgv-O5FBcIAfkqTeWWkHbGLcfawcFHiY2B6xbW8uWVQ4KvvV2gqzBu6ovW6oCYu8NPOUwSzcrLBHeKUp0cVP1VzZUgrTlxv4IogSkWwGBFIxzdS2y72rg1rafxOlkC-vrJkizdA90n3I7MDGC8VqezWmB-nfUl4B8LjE1NNSQw7KAUU2caxY7zjmVIoaR5Rft80XTrO_sinBPUYz5FjNYMxBNFDJRHfiaxv5m00]--></g></svg>