<?xml version="1.0" encoding="us-ascii" standalone="no"?><svg xmlns="http://www.w3.org/2000/svg" xmlns:xlink="http://www.w3.org/1999/xlink" contentStyleType="text/css" height="1077px" preserveAspectRatio="none" style="width:1000px;height:1077px;background:#FFFFFF;" version="1.1" viewBox="0 0 1000 1077" width="1000px" zoomAndPan="magnify"><defs/><g><text fill="#000000" font-family="sans-serif" font-size="14" font-weight="bold" lengthAdjust="spacing" text-decoration="underline" textLength="253" x="369.75" y="28.2344">CS API - Piracy Detection Order Flow</text><rect fill="none" height="97.7422" style="stroke:#000000;stroke-width:1.5;" width="301" x="494" y="325.5391"/><rect fill="none" height="515.4961" style="stroke:#000000;stroke-width:1.5;" width="973.5" x="10" y="465.1953"/><rect fill="none" height="56.8281" style="stroke:#000000;stroke-width:1.5;" width="276" x="494" y="742.3789"/><rect fill="none" height="160.4844" style="stroke:#000000;stroke-width:1.5;" width="757.5" x="20" y="813.207"/><line style="stroke:#181818;stroke-width:0.5;stroke-dasharray:5.0,5.0;" x1="174" x2="174" y1="115.9688" y2="997.6914"/><line style="stroke:#181818;stroke-width:0.5;stroke-dasharray:5.0,5.0;" x1="428" x2="428" y1="115.9688" y2="997.6914"/><line style="stroke:#181818;stroke-width:0.5;stroke-dasharray:5.0,5.0;" x1="528" x2="528" y1="115.9688" y2="997.6914"/><text fill="#000000" font-family="sans-serif" font-size="14" lengthAdjust="spacing" textLength="49" x="147" y="114.2188">Partner</text><ellipse cx="174.5" cy="49.4844" fill="#E2E2F0" rx="8" ry="8" style="stroke:#181818;stroke-width:0.5;"/><path d="M174.5,57.4844 L174.5,84.4844 M161.5,65.4844 L187.5,65.4844 M174.5,84.4844 L161.5,99.4844 M174.5,84.4844 L187.5,99.4844 " fill="none" style="stroke:#181818;stroke-width:0.5;"/><text fill="#000000" font-family="sans-serif" font-size="14" lengthAdjust="spacing" textLength="49" x="147" y="1009.9258">Partner</text><ellipse cx="174.5" cy="1020.1758" fill="#E2E2F0" rx="8" ry="8" style="stroke:#181818;stroke-width:0.5;"/><path d="M174.5,1028.1758 L174.5,1055.1758 M161.5,1036.1758 L187.5,1036.1758 M174.5,1055.1758 L161.5,1070.1758 M174.5,1055.1758 L187.5,1070.1758 " fill="none" style="stroke:#181818;stroke-width:0.5;"/><text fill="#000000" font-family="sans-serif" font-size="14" lengthAdjust="spacing" textLength="14" x="418.5" y="114.2188">S3</text><path d="M408,72.9844 L408,96.9844 M408,84.9844 L425,84.9844 " fill="none" style="stroke:#181818;stroke-width:0.5;"/><ellipse cx="437" cy="84.9844" fill="#E2E2F0" rx="12" ry="12" style="stroke:#181818;stroke-width:0.5;"/><text fill="#000000" font-family="sans-serif" font-size="14" lengthAdjust="spacing" textLength="14" x="418.5" y="1009.9258">S3</text><path d="M408,1015.6758 L408,1039.6758 M408,1027.6758 L425,1027.6758 " fill="none" style="stroke:#181818;stroke-width:0.5;"/><ellipse cx="437" cy="1027.6758" fill="#E2E2F0" rx="12" ry="12" style="stroke:#181818;stroke-width:0.5;"/><rect fill="#E2E2F0" height="28.9844" rx="2.5" ry="2.5" style="stroke:#181818;stroke-width:0.5;" width="49" x="504" y="85.9844"/><text fill="#000000" font-family="sans-serif" font-size="14" lengthAdjust="spacing" textLength="35" x="511" y="106.2188">PdSvc</text><rect fill="#E2E2F0" height="28.9844" rx="2.5" ry="2.5" style="stroke:#181818;stroke-width:0.5;" width="49" x="504" y="996.6914"/><text fill="#000000" font-family="sans-serif" font-size="14" lengthAdjust="spacing" textLength="35" x="511" y="1016.9258">PdSvc</text><rect fill="#EEEEEE" height="3" style="stroke:#EEEEEE;stroke-width:1.0;" width="993.5" x="0" y="145.9258"/><line style="stroke:#000000;stroke-width:1.0;" x1="0" x2="993.5" y1="145.9258" y2="145.9258"/><line style="stroke:#000000;stroke-width:1.0;" x1="0" x2="993.5" y1="148.9258" y2="148.9258"/><rect fill="#EEEEEE" height="21.9141" style="stroke:#000000;stroke-width:2.0;" width="252" x="370.75" y="135.9688"/><text fill="#000000" font-family="sans-serif" font-size="13" font-weight="bold" lengthAdjust="spacing" textLength="231" x="376.75" y="152.2578">Create Piracy Detection Order Flow</text><polygon fill="#181818" points="516.5,183.7969,526.5,187.7969,516.5,191.7969,520.5,187.7969" style="stroke:#181818;stroke-width:1.0;"/><line style="stroke:#181818;stroke-width:1.0;" x1="174.5" x2="522.5" y1="187.7969" y2="187.7969"/><text fill="#000000" font-family="sans-serif" font-size="13" font-weight="bold" lengthAdjust="spacing" textLength="7" x="181.5" y="184.1719">1</text><text fill="#FF0000" font-family="sans-serif" font-size="13" font-weight="bold" lengthAdjust="spacing" textLength="88" x="192.5" y="184.1719">create(order)</text><line style="stroke:#181818;stroke-width:1.0;" x1="528.5" x2="570.5" y1="215.7109" y2="215.7109"/><line style="stroke:#181818;stroke-width:1.0;" x1="570.5" x2="570.5" y1="215.7109" y2="228.7109"/><line style="stroke:#181818;stroke-width:1.0;" x1="529.5" x2="570.5" y1="228.7109" y2="228.7109"/><polygon fill="#181818" points="539.5,224.7109,529.5,228.7109,539.5,232.7109,535.5,228.7109" style="stroke:#181818;stroke-width:1.0;"/><text fill="#000000" font-family="sans-serif" font-size="13" font-weight="bold" lengthAdjust="spacing" textLength="7" x="535.5" y="212.0859">2</text><text fill="#000000" font-family="sans-serif" font-size="13" lengthAdjust="spacing" textLength="100" x="546.5" y="212.0859">validate(order)</text><line style="stroke:#181818;stroke-width:1.0;" x1="528.5" x2="570.5" y1="256.625" y2="256.625"/><line style="stroke:#181818;stroke-width:1.0;" x1="570.5" x2="570.5" y1="256.625" y2="269.625"/><line style="stroke:#181818;stroke-width:1.0;" x1="529.5" x2="570.5" y1="269.625" y2="269.625"/><polygon fill="#181818" points="539.5,265.625,529.5,269.625,539.5,273.625,535.5,269.625" style="stroke:#181818;stroke-width:1.0;"/><text fill="#000000" font-family="sans-serif" font-size="13" font-weight="bold" lengthAdjust="spacing" textLength="7" x="535.5" y="253">3</text><text fill="#000000" font-family="sans-serif" font-size="13" lengthAdjust="spacing" textLength="88" x="546.5" y="253">create(order)</text><line style="stroke:#181818;stroke-width:1.0;" x1="528.5" x2="570.5" y1="297.5391" y2="297.5391"/><line style="stroke:#181818;stroke-width:1.0;" x1="570.5" x2="570.5" y1="297.5391" y2="310.5391"/><line style="stroke:#181818;stroke-width:1.0;" x1="529.5" x2="570.5" y1="310.5391" y2="310.5391"/><polygon fill="#181818" points="539.5,306.5391,529.5,310.5391,539.5,314.5391,535.5,310.5391" style="stroke:#181818;stroke-width:1.0;"/><text fill="#000000" font-family="sans-serif" font-size="13" font-weight="bold" lengthAdjust="spacing" textLength="7" x="535.5" y="293.9141">4</text><text fill="#000000" font-family="sans-serif" font-size="13" lengthAdjust="spacing" textLength="222" x="546.5" y="293.9141">order.setStatus(AWAITING_PROCESS)</text><path d="M494,325.5391 L566,325.5391 L566,331.4531 L556,341.4531 L494,341.4531 L494,325.5391 " fill="#EEEEEE" style="stroke:#000000;stroke-width:1.5;"/><rect fill="none" height="97.7422" style="stroke:#000000;stroke-width:1.5;" width="301" x="494" y="325.5391"/><text fill="#000000" font-family="sans-serif" font-size="13" font-weight="bold" lengthAdjust="spacing" textLength="27" x="509" y="338.8281">loop</text><text fill="#000000" font-family="sans-serif" font-size="11" font-weight="bold" lengthAdjust="spacing" textLength="209" x="581" y="337.9375">[for each file in order.orderFiles]</text><line style="stroke:#181818;stroke-width:1.0;" x1="528.5" x2="570.5" y1="361.3672" y2="361.3672"/><line style="stroke:#181818;stroke-width:1.0;" x1="570.5" x2="570.5" y1="361.3672" y2="374.3672"/><line style="stroke:#181818;stroke-width:1.0;" x1="529.5" x2="570.5" y1="374.3672" y2="374.3672"/><polygon fill="#181818" points="539.5,370.3672,529.5,374.3672,539.5,378.3672,535.5,374.3672" style="stroke:#181818;stroke-width:1.0;"/><text fill="#000000" font-family="sans-serif" font-size="13" font-weight="bold" lengthAdjust="spacing" textLength="7" x="535.5" y="357.7422">5</text><text fill="#000000" font-family="sans-serif" font-size="13" lengthAdjust="spacing" textLength="216" x="546.5" y="357.7422">createUploadUrl(order.orderFile)</text><line style="stroke:#181818;stroke-width:1.0;" x1="528.5" x2="570.5" y1="402.2813" y2="402.2813"/><line style="stroke:#181818;stroke-width:1.0;" x1="570.5" x2="570.5" y1="402.2813" y2="415.2813"/><line style="stroke:#181818;stroke-width:1.0;" x1="529.5" x2="570.5" y1="415.2813" y2="415.2813"/><polygon fill="#181818" points="539.5,411.2813,529.5,415.2813,539.5,419.2813,535.5,415.2813" style="stroke:#181818;stroke-width:1.0;"/><text fill="#000000" font-family="sans-serif" font-size="13" font-weight="bold" lengthAdjust="spacing" textLength="7" x="535.5" y="398.6563">6</text><text fill="#000000" font-family="sans-serif" font-size="13" lengthAdjust="spacing" textLength="221" x="546.5" y="398.6563">orderFile.setUploadUrl(uploadUrl)</text><polygon fill="#181818" points="185.5,446.1953,175.5,450.1953,185.5,454.1953,181.5,450.1953" style="stroke:#181818;stroke-width:1.0;"/><line style="stroke:#181818;stroke-width:1.0;stroke-dasharray:2.0,2.0;" x1="179.5" x2="527.5" y1="450.1953" y2="450.1953"/><text fill="#000000" font-family="sans-serif" font-size="13" font-weight="bold" lengthAdjust="spacing" textLength="7" x="191.5" y="446.5703">7</text><text fill="#000000" font-family="sans-serif" font-size="13" lengthAdjust="spacing" textLength="35" x="202.5" y="446.5703">order</text><path d="M10,465.1953 L82,465.1953 L82,471.1094 L72,481.1094 L10,481.1094 L10,465.1953 " fill="#EEEEEE" style="stroke:#000000;stroke-width:1.5;"/><rect fill="none" height="515.4961" style="stroke:#000000;stroke-width:1.5;" width="973.5" x="10" y="465.1953"/><text fill="#000000" font-family="sans-serif" font-size="13" font-weight="bold" lengthAdjust="spacing" textLength="27" x="25" y="478.4844">loop</text><text fill="#000000" font-family="sans-serif" font-size="11" font-weight="bold" lengthAdjust="spacing" textLength="239" x="97" y="477.5938">[for each orderFile in order.orderFiles]</text><polygon fill="#181818" points="416.5,506.9805,426.5,510.9805,416.5,514.9805,420.5,510.9805" style="stroke:#181818;stroke-width:1.0;"/><line style="stroke:#181818;stroke-width:1.0;" x1="174.5" x2="422.5" y1="510.9805" y2="510.9805"/><text fill="#000000" font-family="sans-serif" font-size="13" font-weight="bold" lengthAdjust="spacing" textLength="7" x="181.5" y="507.3555">8</text><text fill="#FF0000" font-family="sans-serif" font-size="13" font-weight="bold" lengthAdjust="spacing" textLength="219" x="192.5" y="507.3555">upload(file, orderFile.uploadUrl)</text><path d="M433,486.1094 L433,523.1094 L968,523.1094 L968,496.1094 L958,486.1094 L433,486.1094 " fill="#FEFFDD" style="stroke:#181818;stroke-width:0.5;"/><path d="M958,486.1094 L958,496.1094 L968,496.1094 L958,486.1094 " fill="#FEFFDD" style="stroke:#181818;stroke-width:0.5;"/><text fill="#000000" font-family="sans-serif" font-size="13" lengthAdjust="spacing" textLength="476" x="439" y="503.3984">- Partner can use any upload tools at their choices to upload the file</text><text fill="#000000" font-family="sans-serif" font-size="13" lengthAdjust="spacing" textLength="514" x="439" y="517.3125">- It's recommended they use the AWS SDK for better performance &amp; reliability</text><polygon fill="#181818" points="185.5,544.8516,175.5,548.8516,185.5,552.8516,181.5,548.8516" style="stroke:#181818;stroke-width:1.0;"/><line style="stroke:#181818;stroke-width:1.0;stroke-dasharray:2.0,2.0;" x1="179.5" x2="427.5" y1="548.8516" y2="548.8516"/><text fill="#000000" font-family="sans-serif" font-size="13" font-weight="bold" lengthAdjust="spacing" textLength="7" x="191.5" y="545.2266">9</text><text fill="#000000" font-family="sans-serif" font-size="13" lengthAdjust="spacing" textLength="40" x="202.5" y="545.2266">result</text><path d="M364,561.8516 L364,591.8516 L492,591.8516 L492,571.8516 L482,561.8516 L364,561.8516 " fill="#FEFFDD" style="stroke:#181818;stroke-width:0.5;"/><path d="M482,561.8516 L482,571.8516 L492,571.8516 L482,561.8516 " fill="#FEFFDD" style="stroke:#181818;stroke-width:0.5;"/><line style="stroke:#181818;stroke-width:1.0;stroke-dasharray:1.0,2.0;" x1="365" x2="378.5" y1="573.8086" y2="573.8086"/><text fill="#000000" font-family="sans-serif" font-size="13" lengthAdjust="spacing" textLength="99" x="378.5" y="578.6406">Some time later</text><line style="stroke:#181818;stroke-width:1.0;stroke-dasharray:1.0,2.0;" x1="477.5" x2="491" y1="573.8086" y2="573.8086"/><polygon fill="#181818" points="439.5,613.6367,429.5,617.6367,439.5,621.6367,435.5,617.6367" style="stroke:#181818;stroke-width:1.0;"/><line style="stroke:#181818;stroke-width:1.0;" x1="433.5" x2="527.5" y1="617.6367" y2="617.6367"/><text fill="#000000" font-family="sans-serif" font-size="13" font-weight="bold" lengthAdjust="spacing" textLength="14" x="445.5" y="614.0117">10</text><text fill="#000000" font-family="sans-serif" font-size="13" lengthAdjust="spacing" textLength="58" x="463.5" y="614.0117">getFile()</text><polygon fill="#181818" points="516.5,641.5508,526.5,645.5508,516.5,649.5508,520.5,645.5508" style="stroke:#181818;stroke-width:1.0;"/><line style="stroke:#181818;stroke-width:1.0;stroke-dasharray:2.0,2.0;" x1="428.5" x2="522.5" y1="645.5508" y2="645.5508"/><text fill="#000000" font-family="sans-serif" font-size="13" font-weight="bold" lengthAdjust="spacing" textLength="14" x="435.5" y="641.9258">11</text><text fill="#000000" font-family="sans-serif" font-size="13" lengthAdjust="spacing" textLength="25" x="453.5" y="641.9258">file</text><line style="stroke:#181818;stroke-width:1.0;" x1="528.5" x2="570.5" y1="673.4648" y2="673.4648"/><line style="stroke:#181818;stroke-width:1.0;" x1="570.5" x2="570.5" y1="673.4648" y2="686.4648"/><line style="stroke:#181818;stroke-width:1.0;" x1="529.5" x2="570.5" y1="686.4648" y2="686.4648"/><polygon fill="#181818" points="539.5,682.4648,529.5,686.4648,539.5,690.4648,535.5,686.4648" style="stroke:#181818;stroke-width:1.0;"/><text fill="#000000" font-family="sans-serif" font-size="13" font-weight="bold" lengthAdjust="spacing" textLength="14" x="535.5" y="669.8398">12</text><text fill="#000000" font-family="sans-serif" font-size="13" lengthAdjust="spacing" textLength="180" x="553.5" y="669.8398">detectWatermarkedCode(file)</text><line style="stroke:#181818;stroke-width:1.0;" x1="528.5" x2="570.5" y1="714.3789" y2="714.3789"/><line style="stroke:#181818;stroke-width:1.0;" x1="570.5" x2="570.5" y1="714.3789" y2="727.3789"/><line style="stroke:#181818;stroke-width:1.0;" x1="529.5" x2="570.5" y1="727.3789" y2="727.3789"/><polygon fill="#181818" points="539.5,723.3789,529.5,727.3789,539.5,731.3789,535.5,727.3789" style="stroke:#181818;stroke-width:1.0;"/><text fill="#000000" font-family="sans-serif" font-size="13" font-weight="bold" lengthAdjust="spacing" textLength="14" x="535.5" y="710.7539">13</text><text fill="#000000" font-family="sans-serif" font-size="13" lengthAdjust="spacing" textLength="243" x="553.5" y="710.7539">order.markOrderFileAsProcessed(file)</text><path d="M494,742.3789 L559,742.3789 L559,748.293 L549,758.293 L494,758.293 L494,742.3789 " fill="#EEEEEE" style="stroke:#000000;stroke-width:1.5;"/><rect fill="none" height="56.8281" style="stroke:#000000;stroke-width:1.5;" width="276" x="494" y="742.3789"/><text fill="#000000" font-family="sans-serif" font-size="13" font-weight="bold" lengthAdjust="spacing" textLength="20" x="509" y="755.668">opt</text><text fill="#000000" font-family="sans-serif" font-size="11" font-weight="bold" lengthAdjust="spacing" textLength="191" x="574" y="754.7773">[order.allOrderFilesProcessed()]</text><line style="stroke:#181818;stroke-width:1.0;" x1="528.5" x2="570.5" y1="778.207" y2="778.207"/><line style="stroke:#181818;stroke-width:1.0;" x1="570.5" x2="570.5" y1="778.207" y2="791.207"/><line style="stroke:#181818;stroke-width:1.0;" x1="529.5" x2="570.5" y1="791.207" y2="791.207"/><polygon fill="#181818" points="539.5,787.207,529.5,791.207,539.5,795.207,535.5,791.207" style="stroke:#181818;stroke-width:1.0;"/><text fill="#000000" font-family="sans-serif" font-size="13" font-weight="bold" lengthAdjust="spacing" textLength="14" x="535.5" y="774.582">14</text><text fill="#000000" font-family="sans-serif" font-size="13" lengthAdjust="spacing" textLength="176" x="553.5" y="774.582">order.setStatus(PROCESSED)</text><path d="M20,813.207 L85,813.207 L85,819.1211 L75,829.1211 L20,829.1211 L20,813.207 " fill="#EEEEEE" style="stroke:#000000;stroke-width:1.5;"/><rect fill="none" height="160.4844" style="stroke:#000000;stroke-width:1.5;" width="757.5" x="20" y="813.207"/><text fill="#000000" font-family="sans-serif" font-size="13" font-weight="bold" lengthAdjust="spacing" textLength="20" x="35" y="826.4961">opt</text><text fill="#000000" font-family="sans-serif" font-size="11" font-weight="bold" lengthAdjust="spacing" textLength="113" x="100" y="825.6055">[order.processed()]</text><line style="stroke:#181818;stroke-width:1.0;" x1="528.5" x2="570.5" y1="849.0352" y2="849.0352"/><line style="stroke:#181818;stroke-width:1.0;" x1="570.5" x2="570.5" y1="849.0352" y2="862.0352"/><line style="stroke:#181818;stroke-width:1.0;" x1="529.5" x2="570.5" y1="862.0352" y2="862.0352"/><polygon fill="#181818" points="539.5,858.0352,529.5,862.0352,539.5,866.0352,535.5,862.0352" style="stroke:#181818;stroke-width:1.0;"/><text fill="#000000" font-family="sans-serif" font-size="13" font-weight="bold" lengthAdjust="spacing" textLength="14" x="535.5" y="845.4102">15</text><text fill="#000000" font-family="sans-serif" font-size="13" lengthAdjust="spacing" textLength="212" x="553.5" y="845.4102">buildOrderProcessedEvent(order)</text><polygon fill="#181818" points="185.5,885.9492,175.5,889.9492,185.5,893.9492,181.5,889.9492" style="stroke:#181818;stroke-width:1.0;"/><line style="stroke:#181818;stroke-width:1.0;" x1="179.5" x2="527.5" y1="889.9492" y2="889.9492"/><text fill="#000000" font-family="sans-serif" font-size="13" font-weight="bold" lengthAdjust="spacing" textLength="14" x="191.5" y="886.3242">16</text><text fill="#0000FF" font-family="sans-serif" font-size="13" font-weight="bold" lengthAdjust="spacing" textLength="183" x="209.5" y="886.3242">notify(orderProcessedEvent)</text><path d="M30,902.9492 L30,939.9492 L319,939.9492 L319,912.9492 L309,902.9492 L30,902.9492 " fill="#FEFFDD" style="stroke:#181818;stroke-width:0.5;"/><path d="M309,902.9492 L309,912.9492 L319,912.9492 L309,902.9492 " fill="#FEFFDD" style="stroke:#181818;stroke-width:0.5;"/><text fill="#000000" font-family="sans-serif" font-size="13" lengthAdjust="spacing" textLength="248" x="36" y="920.2383">Partner needs to register a Web Hook</text><text fill="#000000" font-family="sans-serif" font-size="13" lengthAdjust="spacing" textLength="268" x="36" y="934.1523">with MarkAny to receive the notification</text><polygon fill="#181818" points="516.5,961.6914,526.5,965.6914,516.5,969.6914,520.5,965.6914" style="stroke:#181818;stroke-width:1.0;"/><line style="stroke:#181818;stroke-width:1.0;stroke-dasharray:2.0,2.0;" x1="174.5" x2="522.5" y1="965.6914" y2="965.6914"/><text fill="#000000" font-family="sans-serif" font-size="13" font-weight="bold" lengthAdjust="spacing" textLength="14" x="181.5" y="962.0664">17</text><text fill="#000000" font-family="sans-serif" font-size="13" lengthAdjust="spacing" textLength="14" x="199.5" y="962.0664">ok</text><!--SRC=[ZLHDZzem4BtxLyof9LBXmgrQa12mBQfQKDCLH-JO0rZhs94pOPL_Nzlv8D0jRGvMxBptPkRDEBmYQweyGySOAT88XyCoXSLk0sFOAST53Iia5AIiWQsJwE1PsxV3WJ4ko3hOSKV6qpDR6SbT3UcK5VvC2LLmGx2JwKKmDfl1qY4dVAGAinbZhI2CvmttCpnbyoTXjG_cKCv5b1dPm4fOX0om5wwLVF3zCJiUJqgab3XLvMYnNsn-RNvyEUn-RfVhD4qOqzOMSFIv81TdE2flcJ8jCQxF_gXau9_tOxyKsdBvulJeZfIyI-e_XxIktAfxInWQoRfA0g_nhsNU9zpB_Jthg__fzDxy9kmebFrfaDeWcwXXh6-qKwSpnMrunhsmu0Qg4e6R6XeYaBMw14v0PrGUSRPAOEcFUy0PezS3kGrzB7rEmkQvTm0Zfex20RpOfv2kliN2CoJoSGjqVfTp8n0-UAPMF5DQKHr5lKPCEsxIwQsL3ijAqw0sU_62mPx915AR-vZABvg7E9C9k-ram9sGWbEZv4Q_QN5Vs7tlPRmZ-w2QS_UAScabHlCVpCeaGBTTQnRbpbdlPOco9KQcBQX5Swrxy02Rz4x_wuwqLsEzIZeVxqCK_w6QLKhBc4YVm_g2XhgR-YUlwyrrG3DTuTotHnthXdOhrPP-syFkzmNzqusfGPHn11sUL1aQos6F6NorzdK0VrDqXk_UyeKVvuWMg2xD4CPSbE3XDzTJ-a5Zzn478z66Y6RwvJS0]--></g></svg>