<?xml version="1.0" encoding="us-ascii" standalone="no"?><svg xmlns="http://www.w3.org/2000/svg" xmlns:xlink="http://www.w3.org/1999/xlink" contentStyleType="text/css" height="650px" preserveAspectRatio="none" style="width:637px;height:650px;background:#FFFFFF;" version="1.1" viewBox="0 0 637 650" width="637px" zoomAndPan="magnify"><defs/><g><text fill="#000000" font-family="sans-serif" font-size="14" font-weight="bold" lengthAdjust="spacing" text-decoration="underline" textLength="290" x="169.5" y="28.2344">CS API - Downloading Watermark Order Flow</text><rect fill="none" height="71.7422" style="stroke:#000000;stroke-width:1.5;" width="610" x="10" y="354.4531"/><rect fill="none" height="71.7422" style="stroke:#000000;stroke-width:1.5;" width="610" x="10" y="482.1094"/><line style="stroke:#181818;stroke-width:0.5;stroke-dasharray:5.0,5.0;" x1="47" x2="47" y1="115.9688" y2="570.8516"/><line style="stroke:#181818;stroke-width:0.5;stroke-dasharray:5.0,5.0;" x1="219.5" x2="219.5" y1="115.9688" y2="570.8516"/><line style="stroke:#181818;stroke-width:0.5;stroke-dasharray:5.0,5.0;" x1="585" x2="585" y1="115.9688" y2="570.8516"/><text fill="#000000" font-family="sans-serif" font-size="14" lengthAdjust="spacing" textLength="49" x="20" y="114.2188">Partner</text><ellipse cx="47.5" cy="49.4844" fill="#E2E2F0" rx="8" ry="8" style="stroke:#181818;stroke-width:0.5;"/><path d="M47.5,57.4844 L47.5,84.4844 M34.5,65.4844 L60.5,65.4844 M47.5,84.4844 L34.5,99.4844 M47.5,84.4844 L60.5,99.4844 " fill="none" style="stroke:#181818;stroke-width:0.5;"/><text fill="#000000" font-family="sans-serif" font-size="14" lengthAdjust="spacing" textLength="49" x="20" y="583.0859">Partner</text><ellipse cx="47.5" cy="593.3359" fill="#E2E2F0" rx="8" ry="8" style="stroke:#181818;stroke-width:0.5;"/><path d="M47.5,601.3359 L47.5,628.3359 M34.5,609.3359 L60.5,609.3359 M47.5,628.3359 L34.5,643.3359 M47.5,628.3359 L60.5,643.3359 " fill="none" style="stroke:#181818;stroke-width:0.5;"/><rect fill="#E2E2F0" height="28.9844" rx="2.5" ry="2.5" style="stroke:#181818;stroke-width:0.5;" width="56" x="191.5" y="85.9844"/><text fill="#000000" font-family="sans-serif" font-size="14" lengthAdjust="spacing" textLength="42" x="198.5" y="106.2188">WtrSvc</text><rect fill="#E2E2F0" height="28.9844" rx="2.5" ry="2.5" style="stroke:#181818;stroke-width:0.5;" width="56" x="191.5" y="569.8516"/><text fill="#000000" font-family="sans-serif" font-size="14" lengthAdjust="spacing" textLength="42" x="198.5" y="590.0859">WtrSvc</text><text fill="#000000" font-family="sans-serif" font-size="14" lengthAdjust="spacing" textLength="14" x="575.5" y="114.2188">S3</text><path d="M565,72.9844 L565,96.9844 M565,84.9844 L582,84.9844 " fill="none" style="stroke:#181818;stroke-width:0.5;"/><ellipse cx="594" cy="84.9844" fill="#E2E2F0" rx="12" ry="12" style="stroke:#181818;stroke-width:0.5;"/><text fill="#000000" font-family="sans-serif" font-size="14" lengthAdjust="spacing" textLength="14" x="575.5" y="583.0859">S3</text><path d="M565,588.8359 L565,612.8359 M565,600.8359 L582,600.8359 " fill="none" style="stroke:#181818;stroke-width:0.5;"/><ellipse cx="594" cy="600.8359" fill="#E2E2F0" rx="12" ry="12" style="stroke:#181818;stroke-width:0.5;"/><rect fill="#EEEEEE" height="3" style="stroke:#EEEEEE;stroke-width:1.0;" width="630" x="0" y="145.9258"/><line style="stroke:#000000;stroke-width:1.0;" x1="0" x2="630" y1="145.9258" y2="145.9258"/><line style="stroke:#000000;stroke-width:1.0;" x1="0" x2="630" y1="148.9258" y2="148.9258"/><rect fill="#EEEEEE" height="21.9141" style="stroke:#000000;stroke-width:2.0;" width="116" x="257" y="135.9688"/><text fill="#000000" font-family="sans-serif" font-size="13" font-weight="bold" lengthAdjust="spacing" textLength="95" x="263" y="152.2578">Get Order Flow</text><polygon fill="#181818" points="207.5,183.7969,217.5,187.7969,207.5,191.7969,211.5,187.7969" style="stroke:#181818;stroke-width:1.0;"/><line style="stroke:#181818;stroke-width:1.0;" x1="47.5" x2="213.5" y1="187.7969" y2="187.7969"/><text fill="#000000" font-family="sans-serif" font-size="13" font-weight="bold" lengthAdjust="spacing" textLength="7" x="54.5" y="184.1719">1</text><text fill="#FF0000" font-family="sans-serif" font-size="13" font-weight="bold" lengthAdjust="spacing" textLength="137" x="65.5" y="184.1719">getOrder(orderQuery)</text><line style="stroke:#181818;stroke-width:1.0;" x1="219.5" x2="261.5" y1="215.7109" y2="215.7109"/><line style="stroke:#181818;stroke-width:1.0;" x1="261.5" x2="261.5" y1="215.7109" y2="228.7109"/><line style="stroke:#181818;stroke-width:1.0;" x1="220.5" x2="261.5" y1="228.7109" y2="228.7109"/><polygon fill="#181818" points="230.5,224.7109,220.5,228.7109,230.5,232.7109,226.5,228.7109" style="stroke:#181818;stroke-width:1.0;"/><text fill="#000000" font-family="sans-serif" font-size="13" font-weight="bold" lengthAdjust="spacing" textLength="7" x="226.5" y="212.0859">2</text><text fill="#000000" font-family="sans-serif" font-size="13" lengthAdjust="spacing" textLength="135" x="237.5" y="212.0859">validate(orderQuery)</text><line style="stroke:#181818;stroke-width:1.0;" x1="219.5" x2="261.5" y1="256.625" y2="256.625"/><line style="stroke:#181818;stroke-width:1.0;" x1="261.5" x2="261.5" y1="256.625" y2="269.625"/><line style="stroke:#181818;stroke-width:1.0;" x1="220.5" x2="261.5" y1="269.625" y2="269.625"/><polygon fill="#181818" points="230.5,265.625,220.5,269.625,230.5,273.625,226.5,269.625" style="stroke:#181818;stroke-width:1.0;"/><text fill="#000000" font-family="sans-serif" font-size="13" font-weight="bold" lengthAdjust="spacing" textLength="7" x="226.5" y="253">3</text><text fill="#000000" font-family="sans-serif" font-size="13" lengthAdjust="spacing" textLength="341" x="237.5" y="253">getOrder(orderQuery.accountId, orderQuery.orderId)</text><polygon fill="#181818" points="58.5,293.5391,48.5,297.5391,58.5,301.5391,54.5,297.5391" style="stroke:#181818;stroke-width:1.0;"/><line style="stroke:#181818;stroke-width:1.0;stroke-dasharray:2.0,2.0;" x1="52.5" x2="218.5" y1="297.5391" y2="297.5391"/><text fill="#000000" font-family="sans-serif" font-size="13" font-weight="bold" lengthAdjust="spacing" textLength="7" x="64.5" y="293.9141">4</text><text fill="#000000" font-family="sans-serif" font-size="13" lengthAdjust="spacing" textLength="35" x="75.5" y="293.9141">order</text><rect fill="#EEEEEE" height="3" style="stroke:#EEEEEE;stroke-width:1.0;" width="630" x="0" y="325.4961"/><line style="stroke:#000000;stroke-width:1.0;" x1="0" x2="630" y1="325.4961" y2="325.4961"/><line style="stroke:#000000;stroke-width:1.0;" x1="0" x2="630" y1="328.4961" y2="328.4961"/><rect fill="#EEEEEE" height="21.9141" style="stroke:#000000;stroke-width:2.0;" width="243" x="193.5" y="315.5391"/><text fill="#000000" font-family="sans-serif" font-size="13" font-weight="bold" lengthAdjust="spacing" textLength="222" x="199.5" y="331.8281">Download Original Order File Flow</text><path d="M10,354.4531 L82,354.4531 L82,360.3672 L72,370.3672 L10,370.3672 L10,354.4531 " fill="#EEEEEE" style="stroke:#000000;stroke-width:1.5;"/><rect fill="none" height="71.7422" style="stroke:#000000;stroke-width:1.5;" width="610" x="10" y="354.4531"/><text fill="#000000" font-family="sans-serif" font-size="13" font-weight="bold" lengthAdjust="spacing" textLength="27" x="25" y="367.7422">loop</text><text fill="#000000" font-family="sans-serif" font-size="11" font-weight="bold" lengthAdjust="spacing" textLength="185" x="97" y="366.8516">[orderFile in order.orderFiles]</text><polygon fill="#181818" points="573.5,386.2813,583.5,390.2813,573.5,394.2813,577.5,390.2813" style="stroke:#181818;stroke-width:1.0;"/><line style="stroke:#181818;stroke-width:1.0;" x1="47.5" x2="579.5" y1="390.2813" y2="390.2813"/><text fill="#000000" font-family="sans-serif" font-size="13" font-weight="bold" lengthAdjust="spacing" textLength="7" x="54.5" y="386.6563">5</text><text fill="#FF0000" font-family="sans-serif" font-size="13" font-weight="bold" lengthAdjust="spacing" textLength="234" x="65.5" y="386.6563">download(orderFile.origDownloadUrl)</text><polygon fill="#181818" points="58.5,414.1953,48.5,418.1953,58.5,422.1953,54.5,418.1953" style="stroke:#181818;stroke-width:1.0;"/><line style="stroke:#181818;stroke-width:1.0;stroke-dasharray:2.0,2.0;" x1="52.5" x2="584.5" y1="418.1953" y2="418.1953"/><text fill="#000000" font-family="sans-serif" font-size="13" font-weight="bold" lengthAdjust="spacing" textLength="7" x="64.5" y="414.5703">6</text><text fill="#000000" font-family="sans-serif" font-size="13" lengthAdjust="spacing" textLength="61" x="75.5" y="414.5703">orderFile</text><rect fill="#EEEEEE" height="3" style="stroke:#EEEEEE;stroke-width:1.0;" width="630" x="0" y="453.1523"/><line style="stroke:#000000;stroke-width:1.0;" x1="0" x2="630" y1="453.1523" y2="453.1523"/><line style="stroke:#000000;stroke-width:1.0;" x1="0" x2="630" y1="456.1523" y2="456.1523"/><rect fill="#EEEEEE" height="21.9141" style="stroke:#000000;stroke-width:2.0;" width="265" x="182.5" y="443.1953"/><text fill="#000000" font-family="sans-serif" font-size="13" font-weight="bold" lengthAdjust="spacing" textLength="244" x="188.5" y="459.4844">Download Watermarked Order File Flow</text><path d="M10,482.1094 L82,482.1094 L82,488.0234 L72,498.0234 L10,498.0234 L10,482.1094 " fill="#EEEEEE" style="stroke:#000000;stroke-width:1.5;"/><rect fill="none" height="71.7422" style="stroke:#000000;stroke-width:1.5;" width="610" x="10" y="482.1094"/><text fill="#000000" font-family="sans-serif" font-size="13" font-weight="bold" lengthAdjust="spacing" textLength="27" x="25" y="495.3984">loop</text><text fill="#000000" font-family="sans-serif" font-size="11" font-weight="bold" lengthAdjust="spacing" textLength="185" x="97" y="494.5078">[orderFile in order.orderFiles]</text><polygon fill="#181818" points="573.5,513.9375,583.5,517.9375,573.5,521.9375,577.5,517.9375" style="stroke:#181818;stroke-width:1.0;"/><line style="stroke:#181818;stroke-width:1.0;" x1="47.5" x2="579.5" y1="517.9375" y2="517.9375"/><text fill="#000000" font-family="sans-serif" font-size="13" font-weight="bold" lengthAdjust="spacing" textLength="7" x="54.5" y="514.3125">7</text><text fill="#FF0000" font-family="sans-serif" font-size="13" font-weight="bold" lengthAdjust="spacing" textLength="226" x="65.5" y="514.3125">download(orderFile.wtrDownloadUrl)</text><polygon fill="#181818" points="58.5,541.8516,48.5,545.8516,58.5,549.8516,54.5,545.8516" style="stroke:#181818;stroke-width:1.0;"/><line style="stroke:#181818;stroke-width:1.0;stroke-dasharray:2.0,2.0;" x1="52.5" x2="584.5" y1="545.8516" y2="545.8516"/><text fill="#000000" font-family="sans-serif" font-size="13" font-weight="bold" lengthAdjust="spacing" textLength="7" x="64.5" y="542.2266">8</text><text fill="#000000" font-family="sans-serif" font-size="13" lengthAdjust="spacing" textLength="80" x="75.5" y="542.2266">wtrOrderFile</text><!--SRC=[lP4nQyCm48Nt-nKt9j1ayHPYGsbfyPGKKp8QMH96H97CzHoJVz-BxRXk2MIh1rawtdlwxgHQZg4zLPO0sB6tM9Ol1JxlSrpXQ-o2ZyguKED1iQMJeYFko5Z2Dn-xiWHGcYFXNX47oMZaxxHhL60yC1Ld3LLiWr5qmI81I5DyjpoBm3G56DsuoaRJ1hTLjjNHIpHPazMMUyiYNjUFrj9b2ODqRZehxunmFf3TILihhOMJS_E4isg_pSrFYAICi9j1rxTqcvFqvMeNbByrw6IUKvS-ncOmzNKNXiDwAdq1oZSRHf7y7OGPRrfC9h6x-WRmINxPXnJ97TQh76mmlvcdXxNcFx4xfeVKejdDmRy1]--></g></svg>