<?xml version="1.0" encoding="us-ascii" standalone="no"?><svg xmlns="http://www.w3.org/2000/svg" xmlns:xlink="http://www.w3.org/1999/xlink" contentStyleType="text/css" height="1133px" preserveAspectRatio="none" style="width:1000px;height:1133px;background:#FFFFFF;" version="1.1" viewBox="0 0 1000 1133" width="1000px" zoomAndPan="magnify"><defs/><g><text fill="#000000" font-family="sans-serif" font-size="14" font-weight="bold" lengthAdjust="spacing" text-decoration="underline" textLength="226" x="383.25" y="28.2344">CS API - Watermarking Order Flow</text><rect fill="none" height="97.7422" style="stroke:#000000;stroke-width:1.5;" width="301" x="585.5" y="325.5391"/><rect fill="none" height="571.3242" style="stroke:#000000;stroke-width:1.5;" width="973.5" x="10" y="465.1953"/><rect fill="none" height="56.8281" style="stroke:#000000;stroke-width:1.5;" width="276" x="585.5" y="798.207"/><rect fill="none" height="160.4844" style="stroke:#000000;stroke-width:1.5;" width="852.5" x="20" y="869.0352"/><line style="stroke:#181818;stroke-width:0.5;stroke-dasharray:5.0,5.0;" x1="174" x2="174" y1="115.9688" y2="1053.5195"/><line style="stroke:#181818;stroke-width:0.5;stroke-dasharray:5.0,5.0;" x1="428" x2="428" y1="115.9688" y2="1053.5195"/><line style="stroke:#181818;stroke-width:0.5;stroke-dasharray:5.0,5.0;" x1="623.5" x2="623.5" y1="115.9688" y2="1053.5195"/><text fill="#000000" font-family="sans-serif" font-size="14" lengthAdjust="spacing" textLength="49" x="147" y="114.2188">Partner</text><ellipse cx="174.5" cy="49.4844" fill="#E2E2F0" rx="8" ry="8" style="stroke:#181818;stroke-width:0.5;"/><path d="M174.5,57.4844 L174.5,84.4844 M161.5,65.4844 L187.5,65.4844 M174.5,84.4844 L161.5,99.4844 M174.5,84.4844 L187.5,99.4844 " fill="none" style="stroke:#181818;stroke-width:0.5;"/><text fill="#000000" font-family="sans-serif" font-size="14" lengthAdjust="spacing" textLength="49" x="147" y="1065.7539">Partner</text><ellipse cx="174.5" cy="1076.0039" fill="#E2E2F0" rx="8" ry="8" style="stroke:#181818;stroke-width:0.5;"/><path d="M174.5,1084.0039 L174.5,1111.0039 M161.5,1092.0039 L187.5,1092.0039 M174.5,1111.0039 L161.5,1126.0039 M174.5,1111.0039 L187.5,1126.0039 " fill="none" style="stroke:#181818;stroke-width:0.5;"/><text fill="#000000" font-family="sans-serif" font-size="14" lengthAdjust="spacing" textLength="14" x="418.5" y="114.2188">S3</text><path d="M408,72.9844 L408,96.9844 M408,84.9844 L425,84.9844 " fill="none" style="stroke:#181818;stroke-width:0.5;"/><ellipse cx="437" cy="84.9844" fill="#E2E2F0" rx="12" ry="12" style="stroke:#181818;stroke-width:0.5;"/><text fill="#000000" font-family="sans-serif" font-size="14" lengthAdjust="spacing" textLength="14" x="418.5" y="1065.7539">S3</text><path d="M408,1071.5039 L408,1095.5039 M408,1083.5039 L425,1083.5039 " fill="none" style="stroke:#181818;stroke-width:0.5;"/><ellipse cx="437" cy="1083.5039" fill="#E2E2F0" rx="12" ry="12" style="stroke:#181818;stroke-width:0.5;"/><rect fill="#E2E2F0" height="28.9844" rx="2.5" ry="2.5" style="stroke:#181818;stroke-width:0.5;" width="56" x="595.5" y="85.9844"/><text fill="#000000" font-family="sans-serif" font-size="14" lengthAdjust="spacing" textLength="42" x="602.5" y="106.2188">WtrSvc</text><rect fill="#E2E2F0" height="28.9844" rx="2.5" ry="2.5" style="stroke:#181818;stroke-width:0.5;" width="56" x="595.5" y="1052.5195"/><text fill="#000000" font-family="sans-serif" font-size="14" lengthAdjust="spacing" textLength="42" x="602.5" y="1072.7539">WtrSvc</text><rect fill="#EEEEEE" height="3" style="stroke:#EEEEEE;stroke-width:1.0;" width="993.5" x="0" y="145.9258"/><line style="stroke:#000000;stroke-width:1.0;" x1="0" x2="993.5" y1="145.9258" y2="145.9258"/><line style="stroke:#000000;stroke-width:1.0;" x1="0" x2="993.5" y1="148.9258" y2="148.9258"/><rect fill="#EEEEEE" height="21.9141" style="stroke:#000000;stroke-width:2.0;" width="225" x="384.25" y="135.9688"/><text fill="#000000" font-family="sans-serif" font-size="13" font-weight="bold" lengthAdjust="spacing" textLength="204" x="390.25" y="152.2578">Create Watermarking Order Flow</text><polygon fill="#181818" points="611.5,183.7969,621.5,187.7969,611.5,191.7969,615.5,187.7969" style="stroke:#181818;stroke-width:1.0;"/><line style="stroke:#181818;stroke-width:1.0;" x1="174.5" x2="617.5" y1="187.7969" y2="187.7969"/><text fill="#000000" font-family="sans-serif" font-size="13" font-weight="bold" lengthAdjust="spacing" textLength="7" x="181.5" y="184.1719">1</text><text fill="#FF0000" font-family="sans-serif" font-size="13" font-weight="bold" lengthAdjust="spacing" textLength="88" x="192.5" y="184.1719">create(order)</text><line style="stroke:#181818;stroke-width:1.0;" x1="623.5" x2="665.5" y1="215.7109" y2="215.7109"/><line style="stroke:#181818;stroke-width:1.0;" x1="665.5" x2="665.5" y1="215.7109" y2="228.7109"/><line style="stroke:#181818;stroke-width:1.0;" x1="624.5" x2="665.5" y1="228.7109" y2="228.7109"/><polygon fill="#181818" points="634.5,224.7109,624.5,228.7109,634.5,232.7109,630.5,228.7109" style="stroke:#181818;stroke-width:1.0;"/><text fill="#000000" font-family="sans-serif" font-size="13" font-weight="bold" lengthAdjust="spacing" textLength="7" x="630.5" y="212.0859">2</text><text fill="#000000" font-family="sans-serif" font-size="13" lengthAdjust="spacing" textLength="100" x="641.5" y="212.0859">validate(order)</text><line style="stroke:#181818;stroke-width:1.0;" x1="623.5" x2="665.5" y1="256.625" y2="256.625"/><line style="stroke:#181818;stroke-width:1.0;" x1="665.5" x2="665.5" y1="256.625" y2="269.625"/><line style="stroke:#181818;stroke-width:1.0;" x1="624.5" x2="665.5" y1="269.625" y2="269.625"/><polygon fill="#181818" points="634.5,265.625,624.5,269.625,634.5,273.625,630.5,269.625" style="stroke:#181818;stroke-width:1.0;"/><text fill="#000000" font-family="sans-serif" font-size="13" font-weight="bold" lengthAdjust="spacing" textLength="7" x="630.5" y="253">3</text><text fill="#000000" font-family="sans-serif" font-size="13" lengthAdjust="spacing" textLength="88" x="641.5" y="253">create(order)</text><line style="stroke:#181818;stroke-width:1.0;" x1="623.5" x2="665.5" y1="297.5391" y2="297.5391"/><line style="stroke:#181818;stroke-width:1.0;" x1="665.5" x2="665.5" y1="297.5391" y2="310.5391"/><line style="stroke:#181818;stroke-width:1.0;" x1="624.5" x2="665.5" y1="310.5391" y2="310.5391"/><polygon fill="#181818" points="634.5,306.5391,624.5,310.5391,634.5,314.5391,630.5,310.5391" style="stroke:#181818;stroke-width:1.0;"/><text fill="#000000" font-family="sans-serif" font-size="13" font-weight="bold" lengthAdjust="spacing" textLength="7" x="630.5" y="293.9141">4</text><text fill="#000000" font-family="sans-serif" font-size="13" lengthAdjust="spacing" textLength="222" x="641.5" y="293.9141">order.setStatus(AWAITING_PROCESS)</text><path d="M585.5,325.5391 L657.5,325.5391 L657.5,331.4531 L647.5,341.4531 L585.5,341.4531 L585.5,325.5391 " fill="#EEEEEE" style="stroke:#000000;stroke-width:1.5;"/><rect fill="none" height="97.7422" style="stroke:#000000;stroke-width:1.5;" width="301" x="585.5" y="325.5391"/><text fill="#000000" font-family="sans-serif" font-size="13" font-weight="bold" lengthAdjust="spacing" textLength="27" x="600.5" y="338.8281">loop</text><text fill="#000000" font-family="sans-serif" font-size="11" font-weight="bold" lengthAdjust="spacing" textLength="209" x="672.5" y="337.9375">[for each file in order.orderFiles]</text><line style="stroke:#181818;stroke-width:1.0;" x1="623.5" x2="665.5" y1="361.3672" y2="361.3672"/><line style="stroke:#181818;stroke-width:1.0;" x1="665.5" x2="665.5" y1="361.3672" y2="374.3672"/><line style="stroke:#181818;stroke-width:1.0;" x1="624.5" x2="665.5" y1="374.3672" y2="374.3672"/><polygon fill="#181818" points="634.5,370.3672,624.5,374.3672,634.5,378.3672,630.5,374.3672" style="stroke:#181818;stroke-width:1.0;"/><text fill="#000000" font-family="sans-serif" font-size="13" font-weight="bold" lengthAdjust="spacing" textLength="7" x="630.5" y="357.7422">5</text><text fill="#000000" font-family="sans-serif" font-size="13" lengthAdjust="spacing" textLength="216" x="641.5" y="357.7422">createUploadUrl(order.orderFile)</text><line style="stroke:#181818;stroke-width:1.0;" x1="623.5" x2="665.5" y1="402.2813" y2="402.2813"/><line style="stroke:#181818;stroke-width:1.0;" x1="665.5" x2="665.5" y1="402.2813" y2="415.2813"/><line style="stroke:#181818;stroke-width:1.0;" x1="624.5" x2="665.5" y1="415.2813" y2="415.2813"/><polygon fill="#181818" points="634.5,411.2813,624.5,415.2813,634.5,419.2813,630.5,415.2813" style="stroke:#181818;stroke-width:1.0;"/><text fill="#000000" font-family="sans-serif" font-size="13" font-weight="bold" lengthAdjust="spacing" textLength="7" x="630.5" y="398.6563">6</text><text fill="#000000" font-family="sans-serif" font-size="13" lengthAdjust="spacing" textLength="221" x="641.5" y="398.6563">orderFile.setUploadUrl(uploadUrl)</text><polygon fill="#181818" points="185.5,446.1953,175.5,450.1953,185.5,454.1953,181.5,450.1953" style="stroke:#181818;stroke-width:1.0;"/><line style="stroke:#181818;stroke-width:1.0;stroke-dasharray:2.0,2.0;" x1="179.5" x2="622.5" y1="450.1953" y2="450.1953"/><text fill="#000000" font-family="sans-serif" font-size="13" font-weight="bold" lengthAdjust="spacing" textLength="7" x="191.5" y="446.5703">7</text><text fill="#000000" font-family="sans-serif" font-size="13" lengthAdjust="spacing" textLength="35" x="202.5" y="446.5703">order</text><path d="M10,465.1953 L82,465.1953 L82,471.1094 L72,481.1094 L10,481.1094 L10,465.1953 " fill="#EEEEEE" style="stroke:#000000;stroke-width:1.5;"/><rect fill="none" height="571.3242" style="stroke:#000000;stroke-width:1.5;" width="973.5" x="10" y="465.1953"/><text fill="#000000" font-family="sans-serif" font-size="13" font-weight="bold" lengthAdjust="spacing" textLength="27" x="25" y="478.4844">loop</text><text fill="#000000" font-family="sans-serif" font-size="11" font-weight="bold" lengthAdjust="spacing" textLength="239" x="97" y="477.5938">[for each orderFile in order.orderFiles]</text><polygon fill="#181818" points="416.5,506.9805,426.5,510.9805,416.5,514.9805,420.5,510.9805" style="stroke:#181818;stroke-width:1.0;"/><line style="stroke:#181818;stroke-width:1.0;" x1="174.5" x2="422.5" y1="510.9805" y2="510.9805"/><text fill="#000000" font-family="sans-serif" font-size="13" font-weight="bold" lengthAdjust="spacing" textLength="7" x="181.5" y="507.3555">8</text><text fill="#FF0000" font-family="sans-serif" font-size="13" font-weight="bold" lengthAdjust="spacing" textLength="219" x="192.5" y="507.3555">upload(file, orderFile.uploadUrl)</text><path d="M433,486.1094 L433,523.1094 L968,523.1094 L968,496.1094 L958,486.1094 L433,486.1094 " fill="#FEFFDD" style="stroke:#181818;stroke-width:0.5;"/><path d="M958,486.1094 L958,496.1094 L968,496.1094 L958,486.1094 " fill="#FEFFDD" style="stroke:#181818;stroke-width:0.5;"/><text fill="#000000" font-family="sans-serif" font-size="13" lengthAdjust="spacing" textLength="476" x="439" y="503.3984">- Partner can use any upload tools at their choices to upload the file</text><text fill="#000000" font-family="sans-serif" font-size="13" lengthAdjust="spacing" textLength="514" x="439" y="517.3125">- It's recommended they use the AWS SDK for better performance &amp; reliability</text><polygon fill="#181818" points="185.5,544.8516,175.5,548.8516,185.5,552.8516,181.5,548.8516" style="stroke:#181818;stroke-width:1.0;"/><line style="stroke:#181818;stroke-width:1.0;stroke-dasharray:2.0,2.0;" x1="179.5" x2="427.5" y1="548.8516" y2="548.8516"/><text fill="#000000" font-family="sans-serif" font-size="13" font-weight="bold" lengthAdjust="spacing" textLength="7" x="191.5" y="545.2266">9</text><text fill="#000000" font-family="sans-serif" font-size="13" lengthAdjust="spacing" textLength="40" x="202.5" y="545.2266">result</text><path d="M364,561.8516 L364,591.8516 L492,591.8516 L492,571.8516 L482,561.8516 L364,561.8516 " fill="#FEFFDD" style="stroke:#181818;stroke-width:0.5;"/><path d="M482,561.8516 L482,571.8516 L492,571.8516 L482,561.8516 " fill="#FEFFDD" style="stroke:#181818;stroke-width:0.5;"/><line style="stroke:#181818;stroke-width:1.0;stroke-dasharray:1.0,2.0;" x1="365" x2="378.5" y1="573.8086" y2="573.8086"/><text fill="#000000" font-family="sans-serif" font-size="13" lengthAdjust="spacing" textLength="99" x="378.5" y="578.6406">Some time later</text><line style="stroke:#181818;stroke-width:1.0;stroke-dasharray:1.0,2.0;" x1="477.5" x2="491" y1="573.8086" y2="573.8086"/><polygon fill="#181818" points="439.5,613.6367,429.5,617.6367,439.5,621.6367,435.5,617.6367" style="stroke:#181818;stroke-width:1.0;"/><line style="stroke:#181818;stroke-width:1.0;" x1="433.5" x2="622.5" y1="617.6367" y2="617.6367"/><text fill="#000000" font-family="sans-serif" font-size="13" font-weight="bold" lengthAdjust="spacing" textLength="14" x="445.5" y="614.0117">10</text><text fill="#000000" font-family="sans-serif" font-size="13" lengthAdjust="spacing" textLength="58" x="463.5" y="614.0117">getFile()</text><polygon fill="#181818" points="611.5,641.5508,621.5,645.5508,611.5,649.5508,615.5,645.5508" style="stroke:#181818;stroke-width:1.0;"/><line style="stroke:#181818;stroke-width:1.0;stroke-dasharray:2.0,2.0;" x1="428.5" x2="617.5" y1="645.5508" y2="645.5508"/><text fill="#000000" font-family="sans-serif" font-size="13" font-weight="bold" lengthAdjust="spacing" textLength="14" x="435.5" y="641.9258">11</text><text fill="#000000" font-family="sans-serif" font-size="13" lengthAdjust="spacing" textLength="25" x="453.5" y="641.9258">file</text><line style="stroke:#181818;stroke-width:1.0;" x1="623.5" x2="665.5" y1="673.4648" y2="673.4648"/><line style="stroke:#181818;stroke-width:1.0;" x1="665.5" x2="665.5" y1="673.4648" y2="686.4648"/><line style="stroke:#181818;stroke-width:1.0;" x1="624.5" x2="665.5" y1="686.4648" y2="686.4648"/><polygon fill="#181818" points="634.5,682.4648,624.5,686.4648,634.5,690.4648,630.5,686.4648" style="stroke:#181818;stroke-width:1.0;"/><text fill="#000000" font-family="sans-serif" font-size="13" font-weight="bold" lengthAdjust="spacing" textLength="14" x="630.5" y="669.8398">12</text><text fill="#000000" font-family="sans-serif" font-size="13" lengthAdjust="spacing" textLength="97" x="648.5" y="669.8398">watermark(file)</text><polygon fill="#181818" points="439.5,710.3789,429.5,714.3789,439.5,718.3789,435.5,714.3789" style="stroke:#181818;stroke-width:1.0;"/><line style="stroke:#181818;stroke-width:1.0;" x1="433.5" x2="622.5" y1="714.3789" y2="714.3789"/><text fill="#000000" font-family="sans-serif" font-size="13" font-weight="bold" lengthAdjust="spacing" textLength="14" x="445.5" y="710.7539">13</text><text fill="#000000" font-family="sans-serif" font-size="13" lengthAdjust="spacing" textLength="153" x="463.5" y="710.7539">upload(watermarkedFile)</text><polygon fill="#181818" points="611.5,738.293,621.5,742.293,611.5,746.293,615.5,742.293" style="stroke:#181818;stroke-width:1.0;"/><line style="stroke:#181818;stroke-width:1.0;stroke-dasharray:2.0,2.0;" x1="428.5" x2="617.5" y1="742.293" y2="742.293"/><text fill="#000000" font-family="sans-serif" font-size="13" font-weight="bold" lengthAdjust="spacing" textLength="14" x="435.5" y="738.668">14</text><text fill="#000000" font-family="sans-serif" font-size="13" lengthAdjust="spacing" textLength="40" x="453.5" y="738.668">result</text><line style="stroke:#181818;stroke-width:1.0;" x1="623.5" x2="665.5" y1="770.207" y2="770.207"/><line style="stroke:#181818;stroke-width:1.0;" x1="665.5" x2="665.5" y1="770.207" y2="783.207"/><line style="stroke:#181818;stroke-width:1.0;" x1="624.5" x2="665.5" y1="783.207" y2="783.207"/><polygon fill="#181818" points="634.5,779.207,624.5,783.207,634.5,787.207,630.5,783.207" style="stroke:#181818;stroke-width:1.0;"/><text fill="#000000" font-family="sans-serif" font-size="13" font-weight="bold" lengthAdjust="spacing" textLength="14" x="630.5" y="766.582">15</text><text fill="#000000" font-family="sans-serif" font-size="13" lengthAdjust="spacing" textLength="243" x="648.5" y="766.582">order.markOrderFileAsProcessed(file)</text><path d="M585.5,798.207 L650.5,798.207 L650.5,804.1211 L640.5,814.1211 L585.5,814.1211 L585.5,798.207 " fill="#EEEEEE" style="stroke:#000000;stroke-width:1.5;"/><rect fill="none" height="56.8281" style="stroke:#000000;stroke-width:1.5;" width="276" x="585.5" y="798.207"/><text fill="#000000" font-family="sans-serif" font-size="13" font-weight="bold" lengthAdjust="spacing" textLength="20" x="600.5" y="811.4961">opt</text><text fill="#000000" font-family="sans-serif" font-size="11" font-weight="bold" lengthAdjust="spacing" textLength="191" x="665.5" y="810.6055">[order.allOrderFilesProcessed()]</text><line style="stroke:#181818;stroke-width:1.0;" x1="623.5" x2="665.5" y1="834.0352" y2="834.0352"/><line style="stroke:#181818;stroke-width:1.0;" x1="665.5" x2="665.5" y1="834.0352" y2="847.0352"/><line style="stroke:#181818;stroke-width:1.0;" x1="624.5" x2="665.5" y1="847.0352" y2="847.0352"/><polygon fill="#181818" points="634.5,843.0352,624.5,847.0352,634.5,851.0352,630.5,847.0352" style="stroke:#181818;stroke-width:1.0;"/><text fill="#000000" font-family="sans-serif" font-size="13" font-weight="bold" lengthAdjust="spacing" textLength="14" x="630.5" y="830.4102">16</text><text fill="#000000" font-family="sans-serif" font-size="13" lengthAdjust="spacing" textLength="176" x="648.5" y="830.4102">order.setStatus(PROCESSED)</text><path d="M20,869.0352 L85,869.0352 L85,874.9492 L75,884.9492 L20,884.9492 L20,869.0352 " fill="#EEEEEE" style="stroke:#000000;stroke-width:1.5;"/><rect fill="none" height="160.4844" style="stroke:#000000;stroke-width:1.5;" width="852.5" x="20" y="869.0352"/><text fill="#000000" font-family="sans-serif" font-size="13" font-weight="bold" lengthAdjust="spacing" textLength="20" x="35" y="882.3242">opt</text><text fill="#000000" font-family="sans-serif" font-size="11" font-weight="bold" lengthAdjust="spacing" textLength="113" x="100" y="881.4336">[order.processed()]</text><line style="stroke:#181818;stroke-width:1.0;" x1="623.5" x2="665.5" y1="904.8633" y2="904.8633"/><line style="stroke:#181818;stroke-width:1.0;" x1="665.5" x2="665.5" y1="904.8633" y2="917.8633"/><line style="stroke:#181818;stroke-width:1.0;" x1="624.5" x2="665.5" y1="917.8633" y2="917.8633"/><polygon fill="#181818" points="634.5,913.8633,624.5,917.8633,634.5,921.8633,630.5,917.8633" style="stroke:#181818;stroke-width:1.0;"/><text fill="#000000" font-family="sans-serif" font-size="13" font-weight="bold" lengthAdjust="spacing" textLength="14" x="630.5" y="901.2383">17</text><text fill="#000000" font-family="sans-serif" font-size="13" lengthAdjust="spacing" textLength="212" x="648.5" y="901.2383">buildOrderProcessedEvent(order)</text><polygon fill="#181818" points="185.5,941.7773,175.5,945.7773,185.5,949.7773,181.5,945.7773" style="stroke:#181818;stroke-width:1.0;"/><line style="stroke:#181818;stroke-width:1.0;" x1="179.5" x2="622.5" y1="945.7773" y2="945.7773"/><text fill="#000000" font-family="sans-serif" font-size="13" font-weight="bold" lengthAdjust="spacing" textLength="14" x="191.5" y="942.1523">18</text><text fill="#0000FF" font-family="sans-serif" font-size="13" font-weight="bold" lengthAdjust="spacing" textLength="183" x="209.5" y="942.1523">notify(orderProcessedEvent)</text><path d="M30,958.7773 L30,995.7773 L319,995.7773 L319,968.7773 L309,958.7773 L30,958.7773 " fill="#FEFFDD" style="stroke:#181818;stroke-width:0.5;"/><path d="M309,958.7773 L309,968.7773 L319,968.7773 L309,958.7773 " fill="#FEFFDD" style="stroke:#181818;stroke-width:0.5;"/><text fill="#000000" font-family="sans-serif" font-size="13" lengthAdjust="spacing" textLength="248" x="36" y="976.0664">Partner needs to register a Web Hook</text><text fill="#000000" font-family="sans-serif" font-size="13" lengthAdjust="spacing" textLength="268" x="36" y="989.9805">with MarkAny to receive the notification</text><polygon fill="#181818" points="611.5,1017.5195,621.5,1021.5195,611.5,1025.5195,615.5,1021.5195" style="stroke:#181818;stroke-width:1.0;"/><line style="stroke:#181818;stroke-width:1.0;stroke-dasharray:2.0,2.0;" x1="174.5" x2="617.5" y1="1021.5195" y2="1021.5195"/><text fill="#000000" font-family="sans-serif" font-size="13" font-weight="bold" lengthAdjust="spacing" textLength="14" x="181.5" y="1017.8945">19</text><text fill="#000000" font-family="sans-serif" font-size="13" lengthAdjust="spacing" textLength="14" x="199.5" y="1017.8945">ok</text><!--SRC=[ZLHDZzem4BtxLyof9LBXmgrQa29sjqLL2sgwueYSP23M6Zjo9Y3-VIScCI6xTEk3XSrxRpxUEB8cQ-f3Yau8KgGHjjj50l5w2MFOI49taEvLcJsiN8uEdhKzRRT2o8oiWxLqP9YQsjhaqfqXcOgIxrIcIca8DkIIOoR4R0OBXwnsJn9cCo5QDHZFM-9NU4Zd3vdL7CfXFi-yniWsj4XSC7tqKMgL_nFnaOB_Or8X9IIfhaRn9bx-MVxwjbt_NYsUaYGIGbjRmeupGfaLi5FSCcLQej-V-QeImEjU_9TIMvc_E3qQqA8xj01eKhkow-vN9D3a8jJ3pBQNBNMOTT2xcthFYsGwzE4ITzJK_gMNMoyThs4i6-xKlY1_RDOu26VIG5qXI7E62n78Mbs19A025ICAgpAi-3e02lGDxyajwNF5EMNsSE0MeCUSlN03ZZS998y_VE4f4eyUbEZuT90cG_Z4JAraghIYinTb3P-sFoJJsrOwh6fDlThiaGMRzamcaDW3nrIywMR4-KeCp6o0UwIcLQEe7w1pEPJsTW1EtRFnJO_UKMuz2K3ChmCrYDEluzuJQ2HMdRDnjNQMhQWmR-DxhYsfHKkj0xY7ZO9H7x-qze4zFKQT4SCWvN_ffhNIkKycvF5qH4FTct_B3FvUXppLDSxPOhKxNtYtMctzjtFGVGiXh6xK3MBknzZXNbNDS4ZOO0hVhNtjmK-A2lZ9VO_vINXqXkfu6MIVYyeaAMi29Goh64Rikzt6y0tbxIy0]--></g></svg>