<svg width="32" height="32" viewBox="0 0 32 32" fill="none"
    xmlns="http://www.w3.org/2000/svg">
    <path d="M4.97338 25.9397L4.51939 26.8307L4.97338 25.9397ZM1.33331 15.9997H2.33331H1.33331ZM2.05994 23.0263L1.16893 23.4802H1.16893L2.05994 23.0263ZM29.94 23.0263L29.049 22.5723L29.94 23.0263ZM27.0266 25.9397L26.5726 25.0487L27.0266 25.9397ZM27.0265 6.05963L26.5725 6.95064V6.95064L27.0265 6.05963ZM29.94 8.97307L29.049 9.42706V9.42706L29.94 8.97307ZM4.97332 6.05963L5.42731 6.95064L4.97332 6.05963ZM2.05988 8.97307L2.95088 9.42706H2.95088L2.05988 8.97307ZM14.8642 21.052L14.2608 20.2546L14.8642 21.052ZM20.1338 17.0642L20.7373 17.8616L20.1338 17.0642ZM20.1338 14.9351L19.5304 15.7325L20.1338 14.9351ZM14.8642 10.9473L14.2608 11.7447L14.8642 10.9473ZM11.9999 6.33301H19.9999V4.33301H11.9999V6.33301ZM20 25.6663H12V27.6663H20V25.6663ZM12 25.6663C10.1166 25.6663 8.76428 25.6655 7.70276 25.5788C6.65292 25.493 5.97594 25.3282 5.42737 25.0487L4.51939 26.8307C5.39689 27.2778 6.36638 27.4763 7.5399 27.5722C8.70175 27.6671 10.1496 27.6663 12 27.6663V25.6663ZM0.333313 15.9997C0.333313 17.85 0.332535 19.2979 0.427462 20.4597C0.523342 21.6333 0.721817 22.6027 1.16893 23.4802L2.95094 22.5723C2.67143 22.0237 2.5066 21.3467 2.42082 20.2969C2.33409 19.2354 2.33331 17.883 2.33331 15.9997H0.333313ZM5.42737 25.0487C4.36111 24.5054 3.49422 23.6385 2.95094 22.5723L1.16893 23.4802C1.90396 24.9228 3.07681 26.0957 4.51939 26.8307L5.42737 25.0487ZM29.6666 15.9997C29.6666 17.883 29.6659 19.2354 29.5791 20.2969C29.4934 21.3467 29.3285 22.0237 29.049 22.5723L30.831 23.4802C31.2781 22.6027 31.4766 21.6333 31.5725 20.4597C31.6674 19.2979 31.6666 17.85 31.6666 15.9997H29.6666ZM20 27.6663C21.8503 27.6663 23.2982 27.6671 24.4601 27.5722C25.6336 27.4763 26.6031 27.2778 27.4806 26.8307L26.5726 25.0487C26.024 25.3282 25.347 25.493 24.2972 25.5788C23.2357 25.6655 21.8833 25.6663 20 25.6663V27.6663ZM29.049 22.5723C28.5057 23.6385 27.6388 24.5054 26.5726 25.0487L27.4806 26.8307C28.9231 26.0957 30.096 24.9228 30.831 23.4802L29.049 22.5723ZM19.9999 6.33301C21.8833 6.33301 23.2356 6.33379 24.2971 6.42051C25.347 6.50629 26.024 6.67113 26.5725 6.95064L27.4805 5.16862C26.603 4.72151 25.6335 4.52304 24.46 4.42716C23.2982 4.33223 21.8503 4.33301 19.9999 4.33301V6.33301ZM31.6666 15.9997C31.6666 14.1493 31.6674 12.7014 31.5725 11.5396C31.4766 10.366 31.2781 9.39658 30.831 8.51908L29.049 9.42706C29.3285 9.97564 29.4933 10.6526 29.5791 11.7025C29.6659 12.764 29.6666 14.1163 29.6666 15.9997H31.6666ZM26.5725 6.95064C27.6388 7.49392 28.5057 8.36081 29.049 9.42706L30.831 8.51908C30.0959 7.0765 28.9231 5.90365 27.4805 5.16862L26.5725 6.95064ZM11.9999 4.33301C10.1496 4.33301 8.70168 4.33223 7.53983 4.42716C6.36631 4.52304 5.39683 4.72151 4.51932 5.16862L5.42731 6.95064C5.97588 6.67113 6.65286 6.50629 7.7027 6.42051C8.76421 6.33379 10.1166 6.33301 11.9999 6.33301V4.33301ZM2.33331 15.9997C2.33331 14.1166 2.33409 12.7642 2.42081 11.7026C2.50659 10.6526 2.67142 9.97554 2.95088 9.42706L1.16887 8.51908C0.721769 9.39656 0.523321 10.3662 0.427453 11.5398C0.332536 12.7017 0.333313 14.1496 0.333313 15.9997H2.33331ZM4.51932 5.16862C3.07675 5.90365 1.9039 7.0765 1.16887 8.51908L2.95088 9.42706C3.49416 8.36081 4.36105 7.49392 5.42731 6.95064L4.51932 5.16862ZM11.6666 12.0119V19.9874H13.6666V12.0119H11.6666ZM15.4677 21.8494L20.7373 17.8616L19.5304 16.2668L14.2608 20.2546L15.4677 21.8494ZM20.7373 14.1377L15.4677 10.1499L14.2608 11.7447L19.5304 15.7325L20.7373 14.1377ZM20.7373 17.8616C21.9764 16.9239 21.9764 15.0754 20.7373 14.1377L19.5304 15.7325C19.7121 15.87 19.7121 16.1293 19.5304 16.2668L20.7373 17.8616ZM11.6666 19.9874C11.6666 21.9588 13.9361 23.0085 15.4677 21.8494L14.2608 20.2546C14.1379 20.3476 13.9945 20.3553 13.8647 20.2924C13.736 20.23 13.6666 20.1224 13.6666 19.9874H11.6666ZM13.6666 12.0119C13.6666 11.8769 13.736 11.7693 13.8647 11.7069C13.9945 11.644 14.1379 11.6517 14.2608 11.7447L15.4677 10.1499C13.9361 8.99085 11.6666 10.0405 11.6666 12.0119H13.6666Z" fill="#574EFA"/>
</svg>
