<svg width="24" height="24" viewBox="0 0 24 24" fill="none"
  xmlns="http://www.w3.org/2000/svg">
  <path d="M1.91675 10.1667L13.1852 21.4352C13.5432 21.7932 14.1236 21.7932 14.4816 21.4352L22.0834 13.8334M7.41675 14.7501L11.3519 10.8149C11.7099 10.4569 12.2903 10.4569 12.6483 10.8149L18.4167 16.5834M17.1561 6.15628H17.8436M17.1561 6.84378H17.8436M9.25008 22.0834H14.7501C17.317 22.0834 18.6004 22.0834 19.5809 21.5839C20.4433 21.1444 21.1444 20.4433 21.5839 19.5809C22.0834 18.6004 22.0834 17.317 22.0834 14.7501V9.25008C22.0834 6.68317 22.0834 5.39972 21.5839 4.41929C21.1444 3.55688 20.4433 2.85572 19.5809 2.4163C18.6004 1.91675 17.317 1.91675 14.7501 1.91675H9.25008C6.68317 1.91675 5.39972 1.91675 4.41929 2.4163C3.55688 2.85572 2.85572 3.55688 2.4163 4.41929C1.91675 5.39972 1.91675 6.68317 1.91675 9.25008V14.7501C1.91675 17.317 1.91675 18.6004 2.4163 19.5809C2.85572 20.4433 3.55688 21.1444 4.41929 21.5839C5.39972 22.0834 6.68317 22.0834 9.25008 22.0834ZM18.4167 6.50008C18.4167 7.00634 18.0063 7.41675 17.5001 7.41675C16.9938 7.41675 16.5834 7.00634 16.5834 6.50008C16.5834 5.99382 16.9938 5.58342 17.5001 5.58342C18.0063 5.58342 18.4167 5.99382 18.4167 6.50008Z" stroke="#736CFB" stroke-width="1.5" stroke-linecap="round"/>
</svg>
