<svg width="42" height="42" viewBox="0 0 42 42" fill="none"
  xmlns="http://www.w3.org/2000/svg">
  <rect x="1" y="1" width="40" height="40" rx="20" stroke="#DAE0E6" stroke-linecap="round"/>
  <g clip-path="url(#clip0_32675_22344)">
    <path d="M29.636 30.6967C29.9289 30.9896 30.4038 30.9896 30.6967 30.6967C30.9896 30.4038 30.9896 29.9289 30.6967 29.636L29.636 30.6967ZM26.181 19.382C26.181 23.137 23.137 26.181 19.382 26.181V27.681C23.9654 27.681 27.681 23.9654 27.681 19.382H26.181ZM19.382 26.181C15.627 26.181 12.583 23.137 12.583 19.382H11.083C11.083 23.9654 14.7986 27.681 19.382 27.681V26.181ZM12.583 19.382C12.583 15.627 15.627 12.583 19.382 12.583V11.083C14.7986 11.083 11.083 14.7986 11.083 19.382H12.583ZM19.382 12.583C23.137 12.583 26.181 15.627 26.181 19.382H27.681C27.681 14.7986 23.9654 11.083 19.382 11.083V12.583ZM24.2439 25.3045L29.636 30.6967L30.6967 29.636L25.3045 24.2439L24.2439 25.3045Z" fill="#272D37"/>
  </g>
  <defs>
    <clipPath id="clip0_32675_22344">
      <rect width="20" height="20" fill="white" transform="translate(11 11)"/>
    </clipPath>
  </defs>
</svg>
