<svg width="20" height="20" viewBox="0 0 20 20" fill="none"
  xmlns="http://www.w3.org/2000/svg">
  <g clip-path="url(#clip0_32675_19561)">
    <path d="M18.5759 19.7577C18.902 20.0838 19.4307 20.0838 19.7568 19.7577C20.0829 19.4317 20.0829 18.903 19.7568 18.5769L18.5759 19.7577ZM15.096 8.383C15.096 12.0911 12.0901 15.097 8.38203 15.097V16.767C13.0124 16.767 16.766 13.0134 16.766 8.383H15.096ZM8.38203 15.097C4.67398 15.097 1.66801 12.0911 1.66801 8.383H-0.00199217C-0.00199217 13.0134 3.75166 16.767 8.38203 16.767V15.097ZM1.66801 8.383C1.66801 4.67495 4.67398 1.66898 8.38203 1.66898V-0.0010156C3.75166 -0.0010156 -0.00199217 3.75264 -0.00199217 8.383H1.66801ZM8.38203 1.66898C12.0901 1.66898 15.096 4.67495 15.096 8.383H16.766C16.766 3.75264 13.0124 -0.0010156 8.38203 -0.0010156V1.66898ZM13.1837 14.3656L18.5759 19.7577L19.7568 18.5769L14.3646 13.1847L13.1837 14.3656Z" fill="white"/>
  </g>
  <defs>
    <clipPath id="clip0_32675_19561">
      <rect width="20" height="20" fill="white"/>
    </clipPath>
  </defs>
</svg>
