<svg width="769" height="40" viewBox="0 0 769 40" fill="none" xmlns="http://www.w3.org/2000/svg">
<path d="M70.8163 22.6667C67.9374 22.6667 65.5784 23.5401 63.7394 25.2993C61.9005 27.0584 60.9746 29.3097 60.9746 32.0407C60.9746 34.4518 61.7609 36.3709 63.3209 37.8225C64.8809 39.2741 66.9735 39.9999 69.5735 39.9999C72.5158 39.9999 74.9255 39.1265 76.7898 37.3797C78.6542 35.6328 79.5927 33.4062 79.5927 30.6998C79.5927 28.264 78.7937 26.308 77.2084 24.8564C75.6231 23.4048 73.4924 22.6667 70.829 22.6667H70.8163ZM72.8075 33.9967C72.0212 34.8947 71.0193 35.3499 69.8017 35.3499C68.8379 35.3499 68.0642 35.0546 67.4808 34.4764C66.8974 33.8859 66.6057 33.0986 66.6057 32.1145C66.6057 30.7736 66.9989 29.6418 67.7979 28.7069C68.5969 27.7719 69.5608 27.3045 70.7022 27.3045C71.7168 27.3045 72.5158 27.5997 73.0992 28.1779C73.6826 28.7561 73.9743 29.5434 73.9743 30.5522C73.9743 31.9546 73.5811 33.1109 72.7948 34.009L72.8075 33.9967Z" fill="white"/>
<path d="M93.394 22.6667C92.2767 22.6667 91.2945 22.9504 90.4596 23.505C89.6246 24.0595 88.9493 24.872 88.4459 25.9554L88.8388 23.0794H83.3873L80.8335 39.9999H86.4446L87.5987 32.2748C87.832 30.7659 88.2617 29.6567 88.9002 28.9345C89.5387 28.2123 90.3982 27.8512 91.4909 27.8512C91.761 27.8512 92.0557 27.877 92.3504 27.9157C92.645 27.9544 92.9888 28.0317 93.3572 28.122L94.4868 22.8085C94.1675 22.757 93.9343 22.7183 93.7869 22.7054C93.6396 22.6925 93.5045 22.6796 93.394 22.6796V22.6667Z" fill="white"/>
<path d="M106.635 29.2589C106.611 29.3735 106.588 29.5262 106.564 29.7425C106.005 33.5859 104.934 35.5076 103.352 35.5076C102.675 35.5076 102.151 35.3039 101.806 34.884C101.449 34.464 101.271 33.8531 101.271 33.0641C101.271 32.8732 101.307 32.4787 101.378 31.8678C101.449 31.257 101.545 30.4934 101.675 29.5771L102.698 22.6667H97.2271L96.2638 29.068C96.0497 30.4552 95.9069 31.486 95.8356 32.1478C95.7642 32.8096 95.7285 33.3695 95.7285 33.8022C95.7285 35.7112 96.3946 37.2129 97.7148 38.3328C99.035 39.4527 100.843 39.9999 103.138 39.9999C104.47 39.9999 105.66 39.8091 106.718 39.4273C107.777 39.0455 108.669 38.4855 109.395 37.7347C110.548 36.5384 111.393 34.1458 111.94 30.557L111.987 30.2134L113.105 22.6667H107.622L106.647 29.2589H106.635Z" fill="white"/>
<path d="M123.734 29.5802C123.464 29.4568 123.101 29.2963 122.632 29.1111C121.578 28.679 121.05 28.2222 121.05 27.7284C121.05 27.3827 121.214 27.0988 121.531 26.8642C121.847 26.6296 122.257 26.5062 122.738 26.5062C123.312 26.5062 123.898 26.6296 124.484 26.8642C125.07 27.0988 125.715 27.4815 126.418 28.0123L128 24.3704C127.191 23.8148 126.324 23.3951 125.398 23.0988C124.472 22.8025 123.523 22.6667 122.55 22.6667C120.617 22.6667 119.046 23.1852 117.816 24.2099C116.585 25.2346 115.976 26.5185 115.976 28.0741C115.976 29.0494 116.222 29.8642 116.726 30.5062C117.218 31.1605 118.062 31.7654 119.257 32.321C119.503 32.4321 119.843 32.5802 120.289 32.7654C121.777 33.4074 122.527 34.037 122.527 34.6419C122.527 35.037 122.363 35.358 122.035 35.6173C121.707 35.8765 121.285 36 120.746 36C120.124 36 119.468 35.8642 118.765 35.5802C118.062 35.2963 117.195 34.8271 116.163 34.1481L114.347 38.0246C115.355 38.6913 116.386 39.1851 117.464 39.5061C118.531 39.8271 119.656 39.9999 120.839 39.9999C122.914 39.9999 124.578 39.4814 125.832 38.4567C127.074 37.4197 127.707 36.0617 127.707 34.358C127.707 33.2839 127.414 32.3827 126.828 31.6543C126.242 30.9383 125.211 30.2346 123.734 29.5679V29.5802Z" fill="white"/>
<path fill-rule="evenodd" clip-rule="evenodd" d="M55.4924 0L77.2703 0.0232692L75.4217 8.96729L73.6055 7.73603L71.5225 8.96729L69.195 7.73603L66.7327 8.96729L64.116 7.73612L62.5809 15.0087L65.3632 14.0216L67.6907 15.2064L70.6319 14.0216L72.9595 15.2444L74.9294 14.0216L73.5381 21.0731H61.464L56.8848 39.9998H34.6411L46.0045 32.2822L44.2207 26.0051L48.7352 21.5215L46.0045 15.2064L51.769 10.6065L48.7352 3.86802L55.4924 0.0232692V0ZM61.4644 4.24376C61.4644 5.02502 60.8211 5.65836 60.0275 5.65836C59.2339 5.65836 58.5905 5.02502 58.5905 4.24376C58.5905 3.46251 59.2339 2.82917 60.0275 2.82917C60.8211 2.82917 61.4644 3.46251 61.4644 4.24376Z" fill="white"/>
<path d="M11.9468 21.069C12.5309 21.069 13.1636 21.2372 13.8451 21.5856C14.5265 21.9339 15.2931 22.4504 16.1206 23.1591L18.7734 18.6546C17.7147 17.7778 16.5952 17.1171 15.4148 16.6727C14.2345 16.2282 12.9932 16 11.7034 16C9.26962 16 7.28613 16.7207 5.74071 18.1501C4.19528 19.5796 3.42866 21.4294 3.42866 23.6877C3.42866 24.9249 3.76937 25.9699 4.43864 26.8348C5.10792 27.6997 6.36132 28.6005 8.18663 29.5375C8.29615 29.5855 8.43001 29.6576 8.61254 29.7537C10.4865 30.7267 11.4235 31.6156 11.4235 32.4564C11.4235 33.069 11.1923 33.5615 10.7299 33.9339C10.2675 34.3062 9.64687 34.4984 8.86807 34.4984C7.93108 34.4984 7.01844 34.2702 6.14229 33.8017C5.26615 33.3333 4.34129 32.5885 3.36779 31.5555L0.155273 36.132C1.23829 37.4053 2.45516 38.3783 3.80589 39.0269C5.15661 39.6756 6.6047 39.9999 8.15012 39.9999C11.0949 39.9999 13.4313 39.2672 15.1471 37.8137C16.8629 36.3483 17.7269 34.4023 17.7269 31.9519C17.7269 30.5705 17.4105 29.4174 16.7777 28.4924C16.145 27.5675 15.0133 26.6666 13.3948 25.7898C13.0906 25.6096 12.6525 25.3813 12.105 25.1051C10.523 24.3003 9.73204 23.5795 9.73204 22.9429C9.73204 22.4264 9.93889 21.982 10.3648 21.6216C10.7907 21.2612 11.314 21.0811 11.9468 21.0811V21.069Z" fill="white"/>
<path d="M37.282 39.3942L39.8735 23.1736H34.404L34.0303 25.5226C33.3077 24.5459 32.4979 23.8288 31.6008 23.359C30.7038 22.8892 29.6946 22.6667 28.5609 22.6667C26.1189 22.6667 24.0882 23.5939 22.4561 25.4484C20.824 27.3029 20.0142 29.6272 20.0142 32.4336C20.0142 34.6714 20.6122 36.4888 21.8207 37.8982C23.0292 39.2952 24.5616 39.9999 26.4429 39.9999C27.5517 39.9999 28.5858 39.765 29.5576 39.3076C30.5294 38.8502 31.4015 38.1578 32.1864 37.2429L31.9123 39.4065H37.282V39.3942ZM32.1615 33.9914C31.4015 34.8692 30.4546 35.3143 29.3084 35.3143C28.2619 35.3143 27.4271 34.9928 26.7793 34.3623C26.1439 33.7318 25.82 32.8911 25.82 31.8526C25.82 30.5421 26.2062 29.4417 26.9661 28.5763C27.7261 27.7109 28.6855 27.2782 29.8566 27.2782C30.8782 27.2782 31.713 27.5873 32.3484 28.2178C32.9838 28.8483 33.3077 29.6643 33.3077 30.6657C33.3077 31.9886 32.9215 33.1013 32.1615 33.9791V33.9914Z" fill="white"/>
<rect x="136" y="18" width="93" height="22" rx="4" fill="white"/>
<path d="M145.461 34V23.8182H149.19C149.913 23.8182 150.511 23.9375 150.985 24.1761C151.459 24.4115 151.813 24.7313 152.049 25.1357C152.284 25.5367 152.402 25.9891 152.402 26.4929C152.402 26.9171 152.324 27.2751 152.168 27.5668C152.012 27.8551 151.803 28.0871 151.542 28.2628C151.283 28.4351 150.998 28.5611 150.687 28.6406V28.7401C151.025 28.7566 151.354 28.866 151.676 29.0682C152.001 29.267 152.269 29.5504 152.481 29.9183C152.693 30.2862 152.799 30.7337 152.799 31.2607C152.799 31.781 152.677 32.2483 152.432 32.6626C152.19 33.0736 151.815 33.4001 151.308 33.642C150.801 33.8807 150.153 34 149.364 34H145.461ZM146.998 32.6825H149.215C149.951 32.6825 150.478 32.54 150.796 32.255C151.114 31.9699 151.273 31.6136 151.273 31.1861C151.273 30.8646 151.192 30.5696 151.03 30.3011C150.867 30.0327 150.635 29.8189 150.334 29.6598C150.035 29.5007 149.681 29.4212 149.27 29.4212H146.998V32.6825ZM146.998 28.223H149.056C149.401 28.223 149.71 28.1567 149.986 28.0241C150.264 27.8916 150.484 27.706 150.647 27.4673C150.812 27.2254 150.895 26.9403 150.895 26.6122C150.895 26.1913 150.748 25.8383 150.453 25.5533C150.158 25.2682 149.705 25.1257 149.096 25.1257H146.998V28.223ZM156.625 34.169C156.141 34.169 155.703 34.0795 155.312 33.9006C154.921 33.7183 154.611 33.4548 154.382 33.1101C154.157 32.7654 154.044 32.3428 154.044 31.8423C154.044 31.4115 154.127 31.0568 154.293 30.7784C154.459 30.5 154.682 30.2796 154.964 30.1172C155.246 29.9548 155.561 29.8321 155.909 29.7493C156.257 29.6664 156.611 29.6035 156.973 29.5604C157.43 29.5073 157.801 29.4643 158.086 29.4311C158.371 29.3946 158.578 29.3366 158.708 29.2571C158.837 29.1776 158.902 29.0483 158.902 28.8693V28.8345C158.902 28.4003 158.779 28.0639 158.534 27.8253C158.292 27.5866 157.93 27.4673 157.45 27.4673C156.949 27.4673 156.555 27.5784 156.267 27.8004C155.982 28.0192 155.784 28.2628 155.675 28.5312L154.278 28.2131C154.444 27.7491 154.686 27.3745 155.004 27.0895C155.325 26.8011 155.695 26.5923 156.112 26.4631C156.53 26.3305 156.969 26.2642 157.43 26.2642C157.735 26.2642 158.058 26.3007 158.399 26.3736C158.744 26.4432 159.066 26.5724 159.364 26.7614C159.665 26.9503 159.912 27.2204 160.105 27.5717C160.297 27.9197 160.393 28.3722 160.393 28.929V34H158.941V32.956H158.882C158.786 33.1482 158.641 33.3371 158.449 33.5227C158.257 33.7083 158.01 33.8625 157.708 33.9851C157.407 34.1077 157.045 34.169 156.625 34.169ZM156.948 32.9759C157.359 32.9759 157.71 32.8946 158.002 32.7322C158.297 32.5698 158.52 32.3577 158.673 32.0959C158.829 31.8307 158.906 31.5473 158.906 31.2457V30.2614C158.853 30.3144 158.751 30.3641 158.598 30.4105C158.449 30.4536 158.278 30.4917 158.086 30.5249C157.894 30.5547 157.707 30.5829 157.524 30.6094C157.342 30.6326 157.19 30.6525 157.067 30.669C156.779 30.7055 156.515 30.7668 156.277 30.853C156.041 30.9392 155.852 31.0634 155.71 31.2259C155.571 31.3849 155.501 31.5971 155.501 31.8622C155.501 32.2301 155.637 32.5085 155.909 32.6974C156.18 32.883 156.527 32.9759 156.948 32.9759ZM165.49 34.1541C164.75 34.1541 164.114 33.9867 163.58 33.652C163.05 33.3139 162.642 32.8482 162.357 32.255C162.072 31.6617 161.93 30.9822 161.93 30.2166C161.93 29.4411 162.076 28.7566 162.367 28.1634C162.659 27.5668 163.07 27.1011 163.6 26.7663C164.131 26.4316 164.755 26.2642 165.475 26.2642C166.055 26.2642 166.572 26.3719 167.026 26.5874C167.48 26.7995 167.846 27.0978 168.124 27.4822C168.406 27.8667 168.574 28.3158 168.627 28.8295H167.18C167.1 28.4716 166.918 28.1634 166.633 27.9048C166.351 27.6463 165.973 27.517 165.499 27.517C165.085 27.517 164.722 27.6264 164.411 27.8452C164.102 28.0606 163.862 28.3688 163.69 28.7699C163.517 29.1676 163.431 29.6383 163.431 30.1818C163.431 30.7386 163.516 31.2192 163.685 31.6236C163.854 32.0279 164.093 32.3411 164.401 32.5632C164.712 32.7853 165.079 32.8963 165.499 32.8963C165.781 32.8963 166.036 32.8449 166.265 32.7422C166.497 32.6361 166.691 32.4853 166.847 32.2898C167.006 32.0942 167.117 31.8589 167.18 31.5838H168.627C168.574 32.0777 168.413 32.5185 168.144 32.9062C167.876 33.294 167.516 33.599 167.066 33.821C166.618 34.0431 166.093 34.1541 165.49 34.1541ZM171.483 31.4098L171.474 29.5952H171.732L174.775 26.3636H176.554L173.084 30.0426H172.851L171.483 31.4098ZM170.116 34V23.8182H171.603V34H170.116ZM174.939 34L172.204 30.3707L173.228 29.3317L176.763 34H174.939ZM190.378 28.9091C190.378 29.9962 190.179 30.9309 189.782 31.7131C189.384 32.492 188.839 33.0919 188.146 33.5128C187.456 33.9304 186.673 34.1392 185.794 34.1392C184.913 34.1392 184.126 33.9304 183.433 33.5128C182.743 33.0919 182.2 32.4903 181.802 31.7081C181.404 30.9259 181.206 29.9929 181.206 28.9091C181.206 27.822 181.404 26.889 181.802 26.1101C182.2 25.3279 182.743 24.728 183.433 24.3104C184.126 23.8894 184.913 23.679 185.794 23.679C186.673 23.679 187.456 23.8894 188.146 24.3104C188.839 24.728 189.384 25.3279 189.782 26.1101C190.179 26.889 190.378 27.822 190.378 28.9091ZM188.857 28.9091C188.857 28.0805 188.723 27.3828 188.454 26.8161C188.189 26.246 187.824 25.8151 187.36 25.5234C186.9 25.2285 186.378 25.081 185.794 25.081C185.208 25.081 184.684 25.2285 184.223 25.5234C183.763 25.8151 183.398 26.246 183.13 26.8161C182.864 27.3828 182.732 28.0805 182.732 28.9091C182.732 29.7377 182.864 30.437 183.13 31.0071C183.398 31.5739 183.763 32.0047 184.223 32.2997C184.684 32.5914 185.208 32.7372 185.794 32.7372C186.378 32.7372 186.9 32.5914 187.36 32.2997C187.824 32.0047 188.189 31.5739 188.454 31.0071C188.723 30.437 188.857 29.7377 188.857 28.9091ZM195.708 26.3636V27.5568H191.393V26.3636H195.708ZM192.576 34V25.4787C192.576 25.0014 192.681 24.6053 192.889 24.2905C193.098 23.9723 193.375 23.7353 193.72 23.5795C194.064 23.4205 194.439 23.3409 194.843 23.3409C195.142 23.3409 195.397 23.3658 195.609 23.4155C195.821 23.4619 195.978 23.505 196.081 23.5447L195.733 24.7479C195.664 24.728 195.574 24.7048 195.465 24.6783C195.355 24.6484 195.223 24.6335 195.067 24.6335C194.706 24.6335 194.447 24.723 194.291 24.902C194.139 25.081 194.063 25.3395 194.063 25.6776V34H192.576ZM200.776 26.3636V27.5568H196.461V26.3636H200.776ZM197.644 34V25.4787C197.644 25.0014 197.749 24.6053 197.957 24.2905C198.166 23.9723 198.443 23.7353 198.788 23.5795C199.132 23.4205 199.507 23.3409 199.911 23.3409C200.21 23.3409 200.465 23.3658 200.677 23.4155C200.889 23.4619 201.046 23.505 201.149 23.5447L200.801 24.7479C200.732 24.728 200.642 24.7048 200.533 24.6783C200.423 24.6484 200.291 24.6335 200.135 24.6335C199.774 24.6335 199.515 24.723 199.359 24.902C199.207 25.081 199.131 25.3395 199.131 25.6776V34H197.644ZM202.21 34V26.3636H203.697V34H202.21ZM202.961 25.1854C202.702 25.1854 202.48 25.0992 202.295 24.9268C202.112 24.7512 202.021 24.5424 202.021 24.3004C202.021 24.0552 202.112 23.8464 202.295 23.674C202.48 23.4983 202.702 23.4105 202.961 23.4105C203.219 23.4105 203.44 23.4983 203.622 23.674C203.808 23.8464 203.9 24.0552 203.9 24.3004C203.9 24.5424 203.808 24.7512 203.622 24.9268C203.44 25.0992 203.219 25.1854 202.961 25.1854ZM208.813 34.1541C208.074 34.1541 207.438 33.9867 206.904 33.652C206.374 33.3139 205.966 32.8482 205.681 32.255C205.396 31.6617 205.253 30.9822 205.253 30.2166C205.253 29.4411 205.399 28.7566 205.691 28.1634C205.982 27.5668 206.393 27.1011 206.924 26.7663C207.454 26.4316 208.079 26.2642 208.798 26.2642C209.378 26.2642 209.895 26.3719 210.349 26.5874C210.803 26.7995 211.17 27.0978 211.448 27.4822C211.73 27.8667 211.897 28.3158 211.95 28.8295H210.503C210.424 28.4716 210.241 28.1634 209.956 27.9048C209.675 27.6463 209.297 27.517 208.823 27.517C208.409 27.517 208.046 27.6264 207.734 27.8452C207.426 28.0606 207.186 28.3688 207.013 28.7699C206.841 29.1676 206.755 29.6383 206.755 30.1818C206.755 30.7386 206.839 31.2192 207.008 31.6236C207.177 32.0279 207.416 32.3411 207.724 32.5632C208.036 32.7853 208.402 32.8963 208.823 32.8963C209.105 32.8963 209.36 32.8449 209.589 32.7422C209.821 32.6361 210.014 32.4853 210.17 32.2898C210.329 32.0942 210.44 31.8589 210.503 31.5838H211.95C211.897 32.0777 211.736 32.5185 211.468 32.9062C211.199 33.294 210.84 33.599 210.389 33.821C209.942 34.0431 209.416 34.1541 208.813 34.1541ZM216.731 34.1541C215.979 34.1541 215.331 33.9934 214.787 33.6719C214.247 33.3471 213.829 32.8913 213.534 32.3047C213.243 31.7147 213.097 31.0237 213.097 30.2315C213.097 29.4493 213.243 28.7599 213.534 28.1634C213.829 27.5668 214.24 27.1011 214.767 26.7663C215.297 26.4316 215.917 26.2642 216.627 26.2642C217.057 26.2642 217.475 26.3355 217.879 26.478C218.284 26.6205 218.647 26.8442 218.968 27.1491C219.29 27.4541 219.543 27.8501 219.729 28.3374C219.914 28.8213 220.007 29.4096 220.007 30.1023V30.6293H213.937V29.5156H218.551C218.551 29.1245 218.471 28.7782 218.312 28.4766C218.153 28.1716 217.929 27.9313 217.641 27.7557C217.356 27.58 217.021 27.4922 216.636 27.4922C216.219 27.4922 215.854 27.5949 215.543 27.8004C215.234 28.0026 214.996 28.2678 214.827 28.5959C214.661 28.9207 214.578 29.2737 214.578 29.6548V30.5249C214.578 31.0353 214.668 31.4695 214.847 31.8274C215.029 32.1854 215.283 32.4588 215.607 32.6477C215.932 32.8333 216.312 32.9261 216.746 32.9261C217.028 32.9261 217.284 32.8864 217.516 32.8068C217.748 32.724 217.949 32.6013 218.118 32.4389C218.287 32.2765 218.416 32.076 218.506 31.8374L219.913 32.0909C219.8 32.5052 219.598 32.8681 219.306 33.1797C219.018 33.4879 218.655 33.7282 218.217 33.9006C217.783 34.0696 217.288 34.1541 216.731 34.1541Z" fill="#736CFB"/>
</svg>
