<svg width="161" height="60" viewBox="0 0 161 60" fill="none" xmlns="http://www.w3.org/2000/svg">
<path d="M91.1378 44.2735L91.139 44.2746C90.2585 45.2554 89.1475 45.7499 87.7808 45.7499C86.6917 45.7499 85.8495 45.4248 85.22 44.8121C84.5927 44.1872 84.2661 43.3469 84.2661 42.2536C84.2661 40.7365 84.716 39.4755 85.6212 38.4342C86.526 37.3933 87.5976 36.8878 88.8683 36.8878C90.025 36.8878 90.896 37.2168 91.5223 37.8269C92.1466 38.4352 92.4749 39.2732 92.4749 40.3988C92.4749 41.9945 92.0217 43.281 91.1378 44.2735ZM89.0061 30.692C85.4555 30.692 82.5179 31.7536 80.2237 33.9112C77.9291 36.0691 76.7763 38.8349 76.7763 42.166C76.7763 45.1137 77.7584 47.4886 79.7218 49.2848C81.6833 51.0793 84.3006 51.9603 87.5052 51.9603C91.1299 51.9603 94.128 50.9003 96.4534 48.7582C98.7791 46.6159 99.9494 43.8788 99.9494 40.574C99.9494 37.5976 98.9523 35.1774 96.9559 33.3803C94.9642 31.5873 92.302 30.692 89.0214 30.692H89.0061Z" fill="url(#paint0_linear_22055_7636)" stroke="url(#paint1_linear_22055_7636)" stroke-width="0.689655"/>
<path d="M112.273 31.8807C111.608 32.2816 111.022 32.794 110.518 33.4181L110.77 31.7454L110.83 31.3492H110.429H103.629H103.337L103.289 31.6375L100.103 50.7994L100.036 51.2008H100.443H107.443H107.735L107.783 50.912L109.222 42.1654C109.222 42.1651 109.222 42.1648 109.222 42.1644C109.508 40.4907 110.025 39.3128 110.753 38.5653C111.472 37.8265 112.449 37.4428 113.737 37.4428C114.056 37.4428 114.409 37.4705 114.769 37.5134C115.118 37.555 115.532 37.6392 115.99 37.7413L116.323 37.8153L116.401 37.4833L117.81 31.466L117.896 31.1006L117.524 31.0462C117.491 31.0413 117.458 31.0365 117.426 31.0317C117.082 30.9812 116.81 30.9412 116.629 30.9268C116.611 30.9254 116.594 30.924 116.577 30.9226C116.537 30.9194 116.496 30.9161 116.456 30.9131V30.8819H116.111C114.663 30.8819 113.375 31.2163 112.273 31.8807Z" fill="url(#paint2_linear_22055_7636)" stroke="url(#paint3_linear_22055_7636)" stroke-width="0.689655"/>
<path d="M132.698 31.638L131.482 38.9645L131.431 39.1817C131.397 39.3276 131.365 39.5138 131.334 39.7659C130.977 41.9506 130.462 43.5497 129.809 44.5943C129.163 45.6279 128.406 46.0862 127.54 46.0862C126.725 46.0862 126.159 45.8688 125.803 45.4817L125.803 45.4817L125.799 45.4775C125.42 45.0803 125.205 44.4771 125.205 43.6269C125.205 43.4346 125.247 43.0054 125.34 42.2988C125.431 41.6005 125.553 40.7279 125.721 39.6805C125.721 39.6802 125.721 39.6799 125.721 39.6796L127.038 31.751L127.105 31.3496H126.698H119.652H119.361L119.312 31.637L118.072 38.982C118.072 38.9822 118.072 38.9825 118.072 38.9827C117.796 40.5755 117.611 41.7654 117.518 42.5339C117.425 43.3011 117.378 43.9586 117.378 44.474C117.378 46.771 118.285 48.597 120.072 49.9485C121.853 51.2943 124.263 51.9315 127.264 51.9315C129.009 51.9315 130.577 51.7087 131.98 51.2577C133.383 50.8066 134.578 50.1409 135.554 49.2404L135.554 49.2402C137.131 47.7835 138.232 44.9347 138.938 40.8078L138.938 40.8078L138.939 40.8026L138.999 40.4119L139 40.4083L140.439 31.751L140.506 31.3496H140.099H133.038H132.746L132.698 31.638Z" fill="url(#paint4_linear_22055_7636)" stroke="url(#paint5_linear_22055_7636)" stroke-width="0.689655"/>
<path d="M143.375 51.306C144.798 51.6937 146.299 51.9022 147.877 51.9022C150.638 51.9022 152.892 51.2772 154.606 50.009L154.606 50.009L154.609 50.0068C156.315 48.7173 157.196 47.0105 157.196 44.8828C157.196 43.5371 156.788 42.3867 155.961 41.4552L155.959 41.4531C155.141 40.5488 153.737 39.6924 151.79 38.8968L151.315 38.7026V38.7189C151.038 38.6095 150.714 38.486 150.338 38.3516C149.664 38.1014 149.186 37.8538 148.883 37.6145C148.578 37.3738 148.497 37.1816 148.497 37.0399C148.497 36.7777 148.624 36.5374 148.972 36.3038C149.317 36.0727 149.782 35.9388 150.358 35.9388C151.063 35.9388 151.789 36.0761 152.522 36.3417C153.253 36.6065 154.069 37.0433 154.972 37.6605L155.304 37.8871L155.478 37.525L157.545 33.2165L157.679 32.9377L157.416 32.7744C156.332 32.0997 155.169 31.5906 153.93 31.2317C152.686 30.8714 151.413 30.7069 150.113 30.7069C147.529 30.7069 145.398 31.335 143.717 32.602C142.032 33.8726 141.176 35.4895 141.176 37.4488C141.176 38.6687 141.517 39.7167 142.238 40.5492C142.933 41.3844 144.094 42.1257 145.675 42.7908L145.675 42.7908L145.678 42.7922C146.003 42.9249 146.45 43.1011 147.033 43.3208C147.993 43.6955 148.689 44.0576 149.14 44.3998C149.602 44.7508 149.737 45.0266 149.737 45.2187C149.737 45.5574 149.592 45.8392 149.238 46.0921C148.885 46.3443 148.412 46.4805 147.754 46.4805C146.989 46.4805 146.171 46.3291 145.284 46.0049C144.392 45.6787 143.279 45.1349 141.942 44.3383L141.628 44.1509L141.459 44.476L139.085 49.062L138.936 49.3499L139.214 49.5164C140.556 50.32 141.933 50.9173 143.375 51.306Z" fill="url(#paint6_linear_22055_7636)" stroke="url(#paint7_linear_22055_7636)" stroke-width="0.689655"/>
<mask id="path-5-outside-1_22055_7636" maskUnits="userSpaceOnUse" x="41.1777" y="-0.280762" width="58" height="52" fill="black">
<rect fill="white" x="41.1777" y="-0.280762" width="58" height="52"/>
<path fill-rule="evenodd" clip-rule="evenodd" d="M70.2834 0.719238H97.5492L95.2348 11.9468L92.9609 10.4012L90.353 11.9468L87.439 10.4012L84.3562 11.9468L81.0801 10.4013L79.1581 19.5308L82.6415 18.2916L85.5556 19.779L89.238 18.2916L92.1521 19.8266L94.6184 18.2916L92.8766 27.1436H77.7598L72.0266 50.9026H44.1777L58.4046 41.2146L56.1713 33.3348L61.8235 27.7064L58.4046 19.779L65.6217 14.0046L61.8235 5.54563L70.2834 0.719238ZM77.5234 6.73779C77.5234 7.96835 76.5241 8.96591 75.2915 8.96591C74.0588 8.96591 73.0595 7.96835 73.0595 6.73779C73.0595 5.50724 74.0588 4.50968 75.2915 4.50968C76.5241 4.50968 77.5234 5.50724 77.5234 6.73779Z"/>
</mask>
<path fill-rule="evenodd" clip-rule="evenodd" d="M70.2834 0.719238H97.5492L95.2348 11.9468L92.9609 10.4012L90.353 11.9468L87.439 10.4012L84.3562 11.9468L81.0801 10.4013L79.1581 19.5308L82.6415 18.2916L85.5556 19.779L89.238 18.2916L92.1521 19.8266L94.6184 18.2916L92.8766 27.1436H77.7598L72.0266 50.9026H44.1777L58.4046 41.2146L56.1713 33.3348L61.8235 27.7064L58.4046 19.779L65.6217 14.0046L61.8235 5.54563L70.2834 0.719238ZM77.5234 6.73779C77.5234 7.96835 76.5241 8.96591 75.2915 8.96591C74.0588 8.96591 73.0595 7.96835 73.0595 6.73779C73.0595 5.50724 74.0588 4.50968 75.2915 4.50968C76.5241 4.50968 77.5234 5.50724 77.5234 6.73779Z" fill="url(#paint8_linear_22055_7636)"/>
<path d="M97.5492 0.719238L98.2246 0.858472L98.3955 0.0295831L97.5492 0.0295831V0.719238ZM70.2834 0.719238V0.0295831H70.1005L69.9417 0.12021L70.2834 0.719238ZM95.2348 11.9468L94.8471 12.5172L95.7016 13.0981L95.9102 12.0861L95.2348 11.9468ZM92.9609 10.4012L93.3486 9.83086L92.9862 9.58455L92.6093 9.80795L92.9609 10.4012ZM90.353 11.9468L90.0299 12.5561L90.3717 12.7374L90.7046 12.5401L90.353 11.9468ZM87.439 10.4012L87.7621 9.79197L87.4478 9.62529L87.1299 9.78473L87.439 10.4012ZM84.3562 11.9468L84.062 12.5706L84.3654 12.7137L84.6653 12.5634L84.3562 11.9468ZM81.0801 10.4013L81.3743 9.77761L80.585 9.40525L80.4052 10.2593L81.0801 10.4013ZM79.1581 19.5308L78.4832 19.3887L78.2297 20.5931L79.3893 20.1806L79.1581 19.5308ZM82.6415 18.2916L82.9551 17.6773L82.6904 17.5422L82.4104 17.6418L82.6415 18.2916ZM85.5556 19.779L85.2421 20.3932L85.5222 20.5362L85.8139 20.4184L85.5556 19.779ZM89.238 18.2916L89.5594 17.6814L89.2764 17.5323L88.9797 17.6521L89.238 18.2916ZM92.1521 19.8266L91.8306 20.4368L92.1806 20.6212L92.5165 20.4121L92.1521 19.8266ZM94.6184 18.2916L95.2951 18.4247L95.6015 16.8674L94.254 17.7061L94.6184 18.2916ZM92.8766 27.1436V27.8332H93.4437L93.5532 27.2767L92.8766 27.1436ZM77.7598 27.1436V26.4539H77.2167L77.0894 26.9818L77.7598 27.1436ZM72.0266 50.9026V51.5923H72.5697L72.6971 51.0644L72.0266 50.9026ZM44.1777 50.9026L43.7896 50.3326L41.9397 51.5923H44.1777V50.9026ZM58.4046 41.2146L58.7928 41.7846L59.2037 41.5048L59.0681 41.0265L58.4046 41.2146ZM56.1713 33.3348L55.6847 32.8461L55.3971 33.1324L55.5078 33.5229L56.1713 33.3348ZM61.8235 27.7064L62.3101 28.1951L62.6425 27.8641L62.4567 27.4333L61.8235 27.7064ZM58.4046 19.779L57.9737 19.2405L57.563 19.5691L57.7713 20.0521L58.4046 19.779ZM65.6217 14.0046L66.0526 14.5431L66.4697 14.2094L66.2509 13.7221L65.6217 14.0046ZM61.8235 5.54563L61.4817 4.9466L60.9378 5.25689L61.1943 5.82813L61.8235 5.54563ZM97.5492 0.0295831H70.2834V1.40889H97.5492V0.0295831ZM95.9102 12.0861L98.2246 0.858472L96.8737 0.580005L94.5593 11.8076L95.9102 12.0861ZM92.5732 10.9716L94.8471 12.5172L95.6225 11.3765L93.3486 9.83086L92.5732 10.9716ZM90.7046 12.5401L93.3125 10.9945L92.6093 9.80795L90.0014 11.3536L90.7046 12.5401ZM87.1158 11.0105L90.0299 12.5561L90.6762 11.3376L87.7621 9.79197L87.1158 11.0105ZM84.6653 12.5634L87.7481 11.0177L87.1299 9.78473L84.0471 11.3303L84.6653 12.5634ZM80.7859 11.0251L84.062 12.5706L84.6505 11.3231L81.3743 9.77761L80.7859 11.0251ZM79.833 19.6729L81.755 10.5434L80.4052 10.2593L78.4832 19.3887L79.833 19.6729ZM82.4104 17.6418L78.927 18.881L79.3893 20.1806L82.8727 18.9413L82.4104 17.6418ZM85.8691 19.1647L82.9551 17.6773L82.328 18.9058L85.2421 20.3932L85.8691 19.1647ZM88.9797 17.6521L85.2973 19.1395L85.8139 20.4184L89.4963 18.931L88.9797 17.6521ZM92.4735 19.2164L89.5594 17.6814L88.9166 18.9018L91.8306 20.4368L92.4735 19.2164ZM94.254 17.7061L91.7876 19.2411L92.5165 20.4121L94.9828 18.8771L94.254 17.7061ZM93.5532 27.2767L95.2951 18.4247L93.9417 18.1584L92.1999 27.0104L93.5532 27.2767ZM77.7598 27.8332H92.8766V26.4539H77.7598V27.8332ZM72.6971 51.0644L78.4302 27.3053L77.0894 26.9818L71.3562 50.7409L72.6971 51.0644ZM44.1777 51.5923H72.0266V50.213H44.1777V51.5923ZM58.0164 40.6445L43.7896 50.3326L44.5659 51.4727L58.7928 41.7846L58.0164 40.6445ZM55.5078 33.5229L57.7411 41.4026L59.0681 41.0265L56.8348 33.1467L55.5078 33.5229ZM61.3368 27.2177L55.6847 32.8461L56.658 33.8235L62.3101 28.1951L61.3368 27.2177ZM57.7713 20.0521L61.1902 27.9795L62.4567 27.4333L59.0379 19.5058L57.7713 20.0521ZM65.1909 13.4661L57.9737 19.2405L58.8354 20.3175L66.0526 14.5431L65.1909 13.4661ZM61.1943 5.82813L64.9926 14.2871L66.2509 13.7221L62.4526 5.26313L61.1943 5.82813ZM69.9417 0.12021L61.4817 4.9466L62.1652 6.14466L70.6252 1.31827L69.9417 0.12021ZM75.2915 9.65557C76.9039 9.65557 78.213 8.35034 78.213 6.73779H76.8337C76.8337 7.58635 76.1443 8.27625 75.2915 8.27625V9.65557ZM72.3699 6.73779C72.3699 8.35034 73.679 9.65557 75.2915 9.65557V8.27625C74.4386 8.27625 73.7492 7.58635 73.7492 6.73779H72.3699ZM75.2915 3.82002C73.679 3.82002 72.3699 5.12524 72.3699 6.73779H73.7492C73.7492 5.88923 74.4386 5.19933 75.2915 5.19933V3.82002ZM78.213 6.73779C78.213 5.12525 76.9039 3.82002 75.2915 3.82002V5.19933C76.1443 5.19933 76.8337 5.88923 76.8337 6.73779H78.213Z" fill="url(#paint9_linear_22055_7636)" mask="url(#path-5-outside-1_22055_7636)"/>
<path d="M16.8068 28.9594C17.3895 29.0105 18.0244 29.1966 18.7142 29.5372C19.5435 29.9468 20.4861 30.5589 21.5111 31.407L21.818 31.6609L22.0253 31.3208L25.3641 25.8439L25.5221 25.5847L25.2852 25.3951C23.9257 24.3074 22.4841 23.4847 20.9605 22.9305C19.4369 22.3763 17.8347 22.0918 16.1713 22.0918C13.0381 22.0918 10.4553 22.9903 8.43686 24.7938C6.41356 26.6017 5.41182 28.9469 5.41182 31.7839C5.41182 33.3588 5.86264 34.7075 6.7587 35.8261C7.64974 36.9384 9.28363 38.061 11.5919 39.2056L11.6011 39.2101L11.6105 39.2141C11.7185 39.2599 11.8494 39.3266 12.039 39.4232C12.0663 39.4371 12.0949 39.4517 12.1248 39.4669L12.1265 39.4678C13.2934 40.053 14.1451 40.6019 14.7003 41.1159C15.2595 41.6336 15.4742 42.0742 15.4742 42.4457C15.4742 43.0854 15.2314 43.5833 14.7343 43.97C14.2287 44.3633 13.5291 44.5837 12.6028 44.5837C11.4797 44.5837 10.3851 44.32 9.33031 43.7751C8.27026 43.2275 7.13536 42.3484 5.92687 41.1095L5.6414 40.8169L5.40108 41.1476L1.35776 46.7122L1.19546 46.9355L1.37791 47.1427C2.76842 48.722 4.33749 49.9362 6.08631 50.7475C7.83356 51.5581 9.70588 51.9626 11.6991 51.9626C15.4593 51.9626 18.4855 51.0583 20.7241 49.2264L20.7251 49.2256C22.9687 47.3743 24.0974 44.9084 24.0974 41.8323C24.0974 40.0972 23.6854 38.6213 22.8394 37.4267C21.9976 36.238 20.5191 35.1127 18.4658 34.0373C18.0721 33.8124 17.5134 33.5315 16.8283 33.1976C15.8447 32.7142 15.1292 32.2663 14.6647 31.8574C14.1907 31.4402 14.035 31.1146 14.035 30.8784C14.035 30.3612 14.243 29.9163 14.7048 29.5388C15.1708 29.158 15.7491 28.9594 16.4776 28.9594H16.8068Z" fill="url(#paint10_linear_22055_7636)" stroke="url(#paint11_linear_22055_7636)" stroke-width="0.689655"/>
<path d="M42.9494 33.7117C42.1596 32.8183 41.2883 32.1323 40.3341 31.6521C39.1755 31.0689 37.8802 30.7974 36.4421 30.7974C33.3444 30.7974 30.7554 31.9327 28.6831 34.1955C26.6114 36.4576 25.5907 39.2899 25.5907 42.6803C25.5907 45.3914 26.3466 47.6255 27.899 49.3653L27.9001 49.3665C29.4531 51.0917 31.4311 51.9635 33.8385 51.9635C35.2502 51.9635 36.5699 51.6757 37.8095 51.1149C38.7554 50.6871 39.6236 50.0938 40.4214 49.3457L40.2201 50.8725L40.1687 51.2624H40.562H47.1631H47.5079V50.9315L50.6889 31.7976L50.7557 31.3962H50.3488H43.6252H43.3327L43.285 31.6847L42.9494 33.7117ZM40.6122 44.2751L40.5235 44.3735V44.3857C39.6702 45.2868 38.6273 45.7384 37.361 45.7384C36.1488 45.7384 35.2117 45.3835 34.4887 44.708C33.7855 44.0368 33.4175 43.1388 33.4175 41.9938C33.4175 40.5212 33.8668 39.3075 34.7362 38.3561C35.6027 37.4079 36.6884 36.9348 38.0349 36.9348C39.2201 36.9348 40.155 37.2771 40.8601 37.9495C41.5672 38.6238 41.9326 39.4948 41.9326 40.5917C41.9326 42.0798 41.4827 43.3089 40.6122 44.2751Z" fill="url(#paint12_linear_22055_7636)" stroke="url(#paint13_linear_22055_7636)" stroke-width="0.689655"/>
<defs>
<linearGradient id="paint0_linear_22055_7636" x1="88.3628" y1="31.0369" x2="88.3628" y2="51.6155" gradientUnits="userSpaceOnUse">
<stop stop-color="#9B32EE"/>
<stop offset="1" stop-color="#3056C9"/>
</linearGradient>
<linearGradient id="paint1_linear_22055_7636" x1="88.3628" y1="31.0369" x2="88.3628" y2="51.6155" gradientUnits="userSpaceOnUse">
<stop stop-color="#9B31EE"/>
<stop offset="1" stop-color="#3C44BD"/>
</linearGradient>
<linearGradient id="paint2_linear_22055_7636" x1="108.959" y1="31.2267" x2="108.959" y2="50.856" gradientUnits="userSpaceOnUse">
<stop stop-color="#9B32EE"/>
<stop offset="1" stop-color="#3056C9"/>
</linearGradient>
<linearGradient id="paint3_linear_22055_7636" x1="108.959" y1="31.2267" x2="108.959" y2="50.856" gradientUnits="userSpaceOnUse">
<stop stop-color="#9B31EE"/>
<stop offset="1" stop-color="#3C44BD"/>
</linearGradient>
<linearGradient id="paint4_linear_22055_7636" x1="128.911" y1="31.6945" x2="128.911" y2="51.5867" gradientUnits="userSpaceOnUse">
<stop stop-color="#9B32EE"/>
<stop offset="1" stop-color="#3056C9"/>
</linearGradient>
<linearGradient id="paint5_linear_22055_7636" x1="128.911" y1="31.6945" x2="128.911" y2="51.5867" gradientUnits="userSpaceOnUse">
<stop stop-color="#9B31EE"/>
<stop offset="1" stop-color="#3C44BD"/>
</linearGradient>
<linearGradient id="paint6_linear_22055_7636" x1="148.313" y1="31.0518" x2="148.313" y2="51.5574" gradientUnits="userSpaceOnUse">
<stop stop-color="#9B32EE"/>
<stop offset="1" stop-color="#3056C9"/>
</linearGradient>
<linearGradient id="paint7_linear_22055_7636" x1="148.313" y1="31.0518" x2="148.313" y2="51.5574" gradientUnits="userSpaceOnUse">
<stop stop-color="#9B31EE"/>
<stop offset="1" stop-color="#3C44BD"/>
</linearGradient>
<linearGradient id="paint8_linear_22055_7636" x1="73.2355" y1="1.75799" x2="68.0447" y2="51.0992" gradientUnits="userSpaceOnUse">
<stop stop-color="#A032F6"/>
<stop offset="1" stop-color="#2E58C9"/>
</linearGradient>
<linearGradient id="paint9_linear_22055_7636" x1="81.0307" y1="1.23861" x2="70.1296" y2="50.5819" gradientUnits="userSpaceOnUse">
<stop stop-color="#A032F6"/>
<stop offset="1" stop-color="#2E58C9"/>
</linearGradient>
<linearGradient id="paint10_linear_22055_7636" x1="13.3532" y1="22.4366" x2="13.3532" y2="51.6177" gradientUnits="userSpaceOnUse">
<stop stop-color="#9B32EE"/>
<stop offset="1" stop-color="#3056C9"/>
</linearGradient>
<linearGradient id="paint11_linear_22055_7636" x1="13.3532" y1="22.4366" x2="13.3532" y2="51.6177" gradientUnits="userSpaceOnUse">
<stop stop-color="#9B31EE"/>
<stop offset="1" stop-color="#3C44BD"/>
</linearGradient>
<linearGradient id="paint12_linear_22055_7636" x1="38.1422" y1="31.1422" x2="38.1422" y2="51.6186" gradientUnits="userSpaceOnUse">
<stop stop-color="#9B32EE"/>
<stop offset="1" stop-color="#3056C9"/>
</linearGradient>
<linearGradient id="paint13_linear_22055_7636" x1="38.1422" y1="31.1422" x2="38.1422" y2="51.6186" gradientUnits="userSpaceOnUse">
<stop stop-color="#9B31EE"/>
<stop offset="1" stop-color="#3C44BD"/>
</linearGradient>
</defs>
</svg>
