<svg width="32" height="32" viewBox="0 0 32 32" fill="none" xmlns="http://www.w3.org/2000/svg">
<path d="M26.1433 25.5916C25.6145 24.5555 24.9165 23.5834 24.0495 22.7164C19.6038 18.2706 12.3957 18.2706 7.94997 22.7164C7.08297 23.5834 6.38505 24.5555 5.85621 25.5916M1.33301 16C1.33301 7.89986 7.8995 1.33337 15.9997 1.33337C24.0999 1.33337 30.6663 7.89987 30.6663 16C30.6663 24.1002 24.0999 30.6667 15.9997 30.6667C7.8995 30.6667 1.33301 24.1002 1.33301 16ZM21.333 13.3334C21.333 16.2789 18.9452 18.6667 15.9997 18.6667C13.0542 18.6667 10.6663 16.2789 10.6663 13.3334C10.6663 10.3879 13.0542 8.00004 15.9997 8.00004C18.9452 8.00004 21.333 10.3879 21.333 13.3334Z" stroke="#272D37" stroke-width="2"/>
</svg>
