<svg width="250" height="196" viewBox="0 0 250 196" fill="none" xmlns="http://www.w3.org/2000/svg">
    <rect width="250" height="195.704" fill="#EAEBF0"/>
    <path d="M114.136 95.8762L126.277 108.017C126.663 108.403 127.288 108.403 127.674 108.017L135.864 99.8268M120.062 100.814L124.302 96.5746C124.687 96.1889 125.313 96.1889 125.698 96.5746L131.914 102.79M130.555 91.5551H131.296M130.555 92.2959H131.296M122.037 108.716H127.963C130.729 108.716 132.111 108.716 133.168 108.177C134.097 107.704 134.852 106.949 135.326 106.019C135.864 104.963 135.864 103.58 135.864 100.814V94.8885C135.864 92.1228 135.864 90.74 135.326 89.6836C134.852 88.7545 134.097 87.999 133.168 87.5255C132.111 86.9873 130.729 86.9873 127.963 86.9873H122.037C119.271 86.9873 117.888 86.9873 116.832 87.5255C115.903 87.999 115.147 88.7545 114.674 89.6836C114.136 90.74 114.136 92.1228 114.136 94.8885V100.814C114.136 103.58 114.136 104.963 114.674 106.019C115.147 106.949 115.903 107.704 116.832 108.177C117.888 108.716 119.271 108.716 122.037 108.716ZM131.914 91.9256C131.914 92.471 131.471 92.9132 130.926 92.9132C130.38 92.9132 129.938 92.471 129.938 91.9256C129.938 91.3801 130.38 90.9379 130.926 90.9379C131.471 90.9379 131.914 91.3801 131.914 91.9256Z" stroke="#919BA7" stroke-width="1.5" stroke-linecap="round"/>
</svg>
