<svg xmlns="http://www.w3.org/2000/svg" width="20" height="20" viewBox="0 0 20 20" fill="none">
    <path d="M6.17933 12.8183L5.58889 12.2278L6.17933 12.8183ZM13.8208 12.8183L13.2303 13.4087L13.8208 12.8183ZM10.9622 17.7988L11.3677 18.5287H11.3677L10.9622 17.7988ZM10.647 17.9739L10.2415 17.2439L10.2415 17.2439L10.647 17.9739ZM9.35296 17.9739L9.75847 17.2439L9.75847 17.2439L9.35296 17.9739ZM9.03777 17.7988L8.63226 18.5287H8.63226L9.03777 17.7988ZM6.76976 13.4087C8.5538 11.6247 11.4463 11.6247 13.2303 13.4087L14.4112 12.2278C11.975 9.79162 8.02511 9.79162 5.58889 12.2278L6.76976 13.4087ZM13.2303 13.4087C13.5793 13.7576 13.8591 14.1477 14.0708 14.5625L15.5583 13.8033C15.268 13.2346 14.8853 12.7019 14.4112 12.2278L13.2303 13.4087ZM5.92928 14.5625C6.14102 14.1477 6.42082 13.7576 6.76976 13.4087L5.58889 12.2278C5.11481 12.7019 4.73209 13.2346 4.44182 13.8033L5.92928 14.5625ZM11.7278 8.36473C11.7278 9.30162 10.9683 10.0611 10.0314 10.0611V11.7311C11.8906 11.7311 13.3978 10.2239 13.3978 8.36473H11.7278ZM10.0314 10.0611C9.0945 10.0611 8.335 9.30162 8.335 8.36473H6.665C6.665 10.2239 8.17219 11.7311 10.0314 11.7311V10.0611ZM8.335 8.36473C8.335 7.42784 9.0945 6.66833 10.0314 6.66833V4.99833C8.17219 4.99833 6.665 6.50552 6.665 8.36473H8.335ZM10.0314 6.66833C10.9683 6.66833 11.7278 7.42784 11.7278 8.36473H13.3978C13.3978 6.50552 11.8906 4.99833 10.0314 4.99833V6.66833ZM6.31944 3.335H13.6806V1.665H6.31944V3.335ZM16.5972 6.25167H16.9444V4.58167H16.5972V6.25167ZM16.665 5.97222V6.68772H18.335V5.97222H16.665ZM10.5567 17.0688L10.2415 17.2439L11.0525 18.7038L11.3677 18.5287L10.5567 17.0688ZM9.75847 17.2439L9.44329 17.0688L8.63226 18.5287L8.94745 18.7038L9.75847 17.2439ZM3.335 6.68772V5.97222H1.665V6.68772H3.335ZM3.05556 6.25167H3.40278V4.58167H3.05556V6.25167ZM3.40278 6.25167C5.20629 6.25167 6.66833 4.78963 6.66833 2.98611H4.99833C4.99833 3.86731 4.28398 4.58167 3.40278 4.58167V6.25167ZM3.335 5.97222C3.335 6.12655 3.20989 6.25167 3.05556 6.25167V4.58167C2.28757 4.58167 1.665 5.20424 1.665 5.97222H3.335ZM9.44329 17.0688C5.67321 14.9744 3.335 11.0005 3.335 6.68772H1.665C1.665 11.607 4.33202 16.1397 8.63226 18.5287L9.44329 17.0688ZM10.2415 17.2439C10.0913 17.3274 9.90868 17.3274 9.75847 17.2439L8.94745 18.7038C9.60203 19.0674 10.398 19.0674 11.0526 18.7038L10.2415 17.2439ZM16.665 6.68772C16.665 11.0005 14.3268 14.9744 10.5567 17.0688L11.3677 18.5287C15.668 16.1397 18.335 11.607 18.335 6.68772H16.665ZM16.9444 6.25167C16.7901 6.25167 16.665 6.12656 16.665 5.97222H18.335C18.335 5.20424 17.7124 4.58167 16.9444 4.58167V6.25167ZM13.3317 2.98611C13.3317 4.78963 14.7937 6.25167 16.5972 6.25167V4.58167C15.716 4.58167 15.0017 3.86731 15.0017 2.98611H13.3317ZM13.6806 3.335C13.4879 3.335 13.3317 3.1788 13.3317 2.98611H15.0017C15.0017 2.25648 14.4102 1.665 13.6806 1.665V3.335ZM6.31944 1.665C5.58981 1.665 4.99833 2.25648 4.99833 2.98611H6.66833C6.66833 3.1788 6.51213 3.335 6.31944 3.335V1.665Z" fill="#272D37" />
</svg>