<svg width="32" height="32" viewBox="0 0 32 32" fill="none"
    xmlns="http://www.w3.org/2000/svg">
    <path d="M6.68256 22.619L7.63124 22.9352L6.68256 22.619ZM7.68147 19.6222L6.73279 19.306L6.73279 19.306L7.68147 19.6222ZM8.7122 17.9545L9.4193 18.6616L9.41931 18.6616L8.7122 17.9545ZM18.6667 8L17.9595 7.29289V7.29289L18.6667 8ZM24 13.3333L24.7071 14.0404V14.0404L24 13.3333ZM14.0455 23.2878L13.3384 22.5807H13.3384L14.0455 23.2878ZM12.3778 24.3185L12.694 25.2672H12.694L12.3778 24.3185ZM9.38103 25.3174L9.69726 26.2661H9.69726L9.38103 25.3174ZM13.4988 23.7981L12.8966 22.9998L12.8966 22.9998L13.4988 23.7981ZM13.0787 24.0577L12.634 23.162L13.0787 24.0577ZM25.2848 9.48263L24.3888 9.92664V9.92664L25.2848 9.48263ZM25.2848 11.8507L24.3888 11.4067V11.4067L25.2848 11.8507ZM20.1493 6.71519L20.5933 7.61121L20.5933 7.61121L20.1493 6.71519ZM22.5174 6.71519L22.0733 7.61121V7.61121L22.5174 6.71519ZM7.94226 18.9213L8.83794 19.366L8.83794 19.366L7.94226 18.9213ZM8.2019 18.5012L7.40358 17.8989L7.40358 17.8989L8.2019 18.5012ZM6.18563 25.0063L5.24373 25.3422L6.18563 25.0063ZM6.99366 25.8144L6.65778 26.7563H6.65779L6.99366 25.8144ZM18.0404 8.62627C17.6499 8.23575 17.0167 8.23575 16.6262 8.62627C16.2357 9.0168 16.2357 9.64996 16.6262 10.0405L18.0404 8.62627ZM21.9595 15.3738C22.3501 15.7643 22.9832 15.7643 23.3738 15.3738C23.7643 14.9833 23.7643 14.3501 23.3738 13.9596L21.9595 15.3738ZM7.63124 22.9352L8.63016 19.9384L6.73279 19.306L5.73387 22.3027L7.63124 22.9352ZM9.41931 18.6616L19.3738 8.70711L17.9595 7.29289L8.00509 17.2473L9.41931 18.6616ZM23.2929 12.6262L13.3384 22.5807L14.7526 23.9949L24.7071 14.0404L23.2929 12.6262ZM12.0616 23.3698L9.06481 24.3687L9.69726 26.2661L12.694 25.2672L12.0616 23.3698ZM13.3384 22.5807C13.0539 22.8652 12.9765 22.9394 12.8966 22.9998L14.101 24.5964C14.3177 24.433 14.5059 24.2416 14.7526 23.9949L13.3384 22.5807ZM12.694 25.2672C13.0251 25.1568 13.2804 25.0741 13.5234 24.9534L12.634 23.162C12.5443 23.2066 12.4432 23.2426 12.0616 23.3698L12.694 25.2672ZM12.8966 22.9998C12.8143 23.0619 12.7264 23.1162 12.634 23.162L13.5234 24.9534C13.7266 24.8525 13.92 24.733 14.101 24.5964L12.8966 22.9998ZM23.2929 8.70711C24.077 9.4912 24.2857 9.71863 24.3888 9.92664L26.1808 9.03861C25.8953 8.46237 25.377 7.9628 24.7071 7.29289L23.2929 8.70711ZM24.7071 14.0404C25.377 13.3705 25.8953 12.871 26.1808 12.2947L24.3888 11.4067C24.2857 11.6147 24.077 11.8421 23.2929 12.6262L24.7071 14.0404ZM24.3888 9.92664C24.6199 10.3929 24.6199 10.9404 24.3888 11.4067L26.1808 12.2947C26.6892 11.2689 26.6892 10.0645 26.1808 9.03861L24.3888 9.92664ZM19.3738 8.70711C20.1578 7.92302 20.3853 7.71428 20.5933 7.61121L19.7053 5.81917C19.129 6.10472 18.6294 6.62299 17.9595 7.29289L19.3738 8.70711ZM24.7071 7.29289C24.0372 6.62299 23.5376 6.10472 22.9614 5.81917L22.0733 7.61121C22.2814 7.71428 22.5088 7.92302 23.2929 8.70711L24.7071 7.29289ZM20.5933 7.61121C21.0596 7.38014 21.607 7.38014 22.0733 7.61121L22.9614 5.81917C21.9355 5.31082 20.7311 5.31082 19.7053 5.81917L20.5933 7.61121ZM8.63016 19.9384C8.75739 19.5567 8.7934 19.4557 8.83794 19.366L7.04659 18.4766C6.92592 18.7196 6.84314 18.9749 6.73279 19.306L8.63016 19.9384ZM8.00509 17.2473C7.75835 17.4941 7.567 17.6823 7.40358 17.8989L9.00021 19.1034C9.06054 19.0235 9.13482 18.946 9.4193 18.6616L8.00509 17.2473ZM8.83794 19.366C8.88379 19.2736 8.93812 19.1857 9.00021 19.1034L7.40358 17.8989C7.26697 18.08 7.14746 18.2734 7.04659 18.4766L8.83794 19.366ZM5.73387 22.3027C5.52304 22.9352 5.34202 23.4751 5.23983 23.91C5.14113 24.33 5.06505 24.8411 5.24373 25.3422L7.12753 24.6704C7.15174 24.7383 7.10699 24.7072 7.1868 24.3675C7.26313 24.0427 7.4078 23.6055 7.63124 22.9352L5.73387 22.3027ZM9.06481 24.3687C8.3945 24.5922 7.95732 24.7369 7.63249 24.8132C7.29283 24.893 7.26166 24.8482 7.32954 24.8725L6.65779 26.7563C7.15885 26.9349 7.66997 26.8589 8.09 26.7602C8.52486 26.658 9.06477 26.4769 9.69726 26.2661L9.06481 24.3687ZM5.24373 25.3422C5.47897 26.0019 5.9981 26.521 6.65778 26.7563L7.32955 24.8725C7.2353 24.8388 7.16114 24.7647 7.12753 24.6704L5.24373 25.3422ZM16.6262 10.0405L21.9595 15.3738L23.3738 13.9596L18.0404 8.62627L16.6262 10.0405Z" fill="#272D37"/>
</svg>
