<svg xmlns="http://www.w3.org/2000/svg" width="14" height="16" viewBox="0 0 14 16" fill="none">
  <path d="M10.6 12.5C11.4401 12.5 11.8601 12.5 12.181 12.3365C12.4632 12.1927 12.6927 11.9632 12.8365 11.681C13 11.3601 13 10.9401 13 10.1V2.9C13 2.05992 13 1.63988 12.8365 1.31901C12.6927 1.03677 12.4632 0.8073 12.181 0.66349C11.8601 0.5 11.4401 0.5 10.6 0.5H6.4C5.55992 0.5 5.13988 0.5 4.81901 0.66349C4.53677 0.8073 4.3073 1.03677 4.16349 1.31901C4 1.63988 4 2.05992 4 2.9M3.4 15.5H7.6C8.44008 15.5 8.86012 15.5 9.18099 15.3365C9.46323 15.1927 9.6927 14.9632 9.83651 14.681C10 14.3601 10 13.9401 10 13.1V5.9C10 5.05992 10 4.63988 9.83651 4.31901C9.6927 4.03677 9.46323 3.8073 9.18099 3.66349C8.86012 3.5 8.44008 3.5 7.6 3.5H3.4C2.55992 3.5 2.13988 3.5 1.81901 3.66349C1.53677 3.8073 1.3073 4.03677 1.16349 4.31901C1 4.63988 1 5.05992 1 5.9V13.1C1 13.9401 1 14.3601 1.16349 14.681C1.3073 14.9632 1.53677 15.1927 1.81901 15.3365C2.13988 15.5 2.55992 15.5 3.4 15.5Z" stroke="#333B48"/>
</svg>