<svg width="220" height="221" viewBox="0 0 220 221" fill="none" xmlns="http://www.w3.org/2000/svg">
<rect width="220" height="220" transform="translate(0 0.147949)" fill="#EAEBF0"/>
<path d="M105.259 120.024V119.274V120.024ZM114.741 120.024V120.774V120.024ZM117.901 116.864H117.151H117.901ZM117.901 103.431H118.651H118.651H117.901ZM117.686 101.35L118.354 101.009L118.354 101.009L117.686 101.35ZM114.741 100.271V99.521V100.271ZM116.823 100.486L117.163 99.818L117.163 99.818L116.823 100.486ZM116.823 119.809L117.163 120.477L116.823 119.809ZM117.686 118.946L117.018 118.605L117.686 118.946ZM103.177 119.809L103.518 119.141H103.518L103.177 119.809ZM102.099 116.864H101.349H102.099ZM102.314 118.946L102.982 118.605H102.982L102.314 118.946ZM102.849 106.197C102.849 105.783 102.513 105.447 102.099 105.447C101.684 105.447 101.349 105.783 101.349 106.197L102.849 106.197ZM108.025 99.521C107.61 99.521 107.275 99.8568 107.275 100.271C107.275 100.685 107.61 101.021 108.025 101.021V99.521ZM102.267 106.028L101.737 105.498L102.267 106.028ZM107.856 100.44L108.386 100.97L107.856 100.44ZM102.337 106.197L102.337 106.947L102.337 106.197ZM107.037 106.197L107.037 105.447L107.037 106.197ZM108.025 105.209H107.275H108.025ZM108.025 100.509H108.775V100.509L108.025 100.509ZM106.049 109.398C105.635 109.398 105.299 109.733 105.299 110.148C105.299 110.562 105.635 110.898 106.049 110.898V109.398ZM113.95 110.898C114.365 110.898 114.7 110.562 114.7 110.148C114.7 109.733 114.365 109.398 113.95 109.398V110.898ZM111.975 105.447C111.561 105.447 111.225 105.783 111.225 106.197C111.225 106.611 111.561 106.947 111.975 106.947V105.447ZM113.95 106.947C114.365 106.947 114.7 106.611 114.7 106.197C114.7 105.783 114.365 105.447 113.95 105.447V106.947ZM106.049 113.348C105.635 113.348 105.299 113.684 105.299 114.098C105.299 114.512 105.635 114.848 106.049 114.848V113.348ZM113.95 114.848C114.365 114.848 114.7 114.512 114.7 114.098C114.7 113.684 114.365 113.348 113.95 113.348V114.848ZM105.259 120.774H114.741V119.274H105.259V120.774ZM118.651 116.864V103.431H117.151V116.864H118.651ZM118.651 103.431C118.651 102.891 118.652 102.44 118.622 102.073C118.591 101.697 118.525 101.344 118.354 101.009L117.018 101.69C117.062 101.778 117.104 101.912 117.127 102.195C117.151 102.487 117.151 102.866 117.151 103.431H118.651ZM114.741 101.021C115.306 101.021 115.685 101.022 115.977 101.045C116.26 101.069 116.394 101.11 116.482 101.155L117.163 99.818C116.828 99.6475 116.475 99.5811 116.099 99.5504C115.732 99.5204 115.281 99.521 114.741 99.521V101.021ZM118.354 101.009C118.093 100.496 117.676 100.079 117.163 99.818L116.482 101.155C116.713 101.272 116.9 101.459 117.018 101.69L118.354 101.009ZM114.741 120.774C115.281 120.774 115.732 120.775 116.099 120.745C116.475 120.714 116.828 120.648 117.163 120.477L116.482 119.141C116.394 119.185 116.26 119.227 115.977 119.25C115.685 119.273 115.306 119.274 114.741 119.274V120.774ZM117.151 116.864C117.151 117.429 117.151 117.808 117.127 118.1C117.104 118.383 117.062 118.517 117.018 118.605L118.354 119.286C118.525 118.951 118.591 118.598 118.622 118.222C118.652 117.855 118.651 117.404 118.651 116.864H117.151ZM117.163 120.477C117.676 120.216 118.093 119.799 118.354 119.286L117.018 118.605C116.9 118.836 116.713 119.023 116.482 119.141L117.163 120.477ZM105.259 119.274C104.694 119.274 104.315 119.274 104.023 119.25C103.74 119.227 103.606 119.185 103.518 119.141L102.837 120.477C103.171 120.648 103.525 120.714 103.901 120.745C104.268 120.775 104.718 120.774 105.259 120.774L105.259 119.274ZM101.349 116.864C101.349 117.404 101.348 117.855 101.378 118.222C101.409 118.598 101.475 118.951 101.646 119.286L102.982 118.605C102.937 118.517 102.896 118.383 102.873 118.1C102.849 117.808 102.849 117.429 102.849 116.864H101.349ZM103.518 119.141C103.287 119.023 103.1 118.836 102.982 118.605L101.646 119.286C101.907 119.799 102.324 120.216 102.837 120.477L103.518 119.141ZM101.349 106.197L101.349 116.864H102.849L102.849 106.197L101.349 106.197ZM114.741 99.521L108.025 99.521V101.021L114.741 101.021V99.521ZM102.798 106.559L108.386 100.97L107.326 99.9093L101.737 105.498L102.798 106.559ZM102.337 106.947L107.037 106.947L107.037 105.447L102.337 105.447L102.337 106.947ZM108.775 105.209V100.509H107.275V105.209H108.775ZM107.037 106.947C107.997 106.947 108.775 106.169 108.775 105.209H107.275C107.275 105.341 107.168 105.447 107.037 105.447L107.037 106.947ZM108.386 100.97C107.976 101.38 107.275 101.09 107.275 100.509L108.775 100.509C108.775 99.7533 107.86 99.3746 107.326 99.9093L108.386 100.97ZM101.737 105.498C101.202 106.033 101.581 106.947 102.337 106.947L102.337 105.447C102.917 105.447 103.208 106.148 102.798 106.559L101.737 105.498ZM106.049 110.898H113.95V109.398H106.049V110.898ZM111.975 106.947H113.95V105.447H111.975V106.947ZM106.049 114.848H113.95V113.348H106.049V114.848Z" fill="#919BA7"/>
</svg>
