<svg width="160" height="160" viewBox="0 0 160 160" fill="none" xmlns="http://www.w3.org/2000/svg">
<rect width="160" height="160" fill="#EAEBF0"/>
<path d="M75 75.9999L79.6464 71.3535C79.8417 71.1582 80.1583 71.1582 80.3536 71.3535L85 75.9999M71 79.9999L80 88.9999M76 84.4999L78.9719 81.3795C79.1687 81.1728 79.4983 81.1725 79.6954 81.3789L86.5 88.4999M86 79.9999C86 80.5522 85.5523 80.9999 85 80.9999C84.4477 80.9999 84 80.5522 84 79.9999C84 79.4476 84.4477 78.9999 85 78.9999C85.5523 78.9999 86 79.4476 86 79.9999ZM74.2 88.9999H85.8C86.9201 88.9999 87.4802 88.9999 87.908 88.7819C88.2843 88.5902 88.5903 88.2842 88.782 87.9079C89 87.4801 89 86.92 89 85.7999V79.1999C89 78.0798 89 77.5198 88.782 77.0919C88.5903 76.7156 88.2843 76.4097 87.908 76.2179C87.4802 75.9999 86.9201 75.9999 85.8 75.9999H74.2C73.0799 75.9999 72.5198 75.9999 72.092 76.2179C71.7157 76.4097 71.4097 76.7156 71.218 77.0919C71 77.5198 71 78.0798 71 79.1999V85.7999C71 86.92 71 87.4801 71.218 87.9079C71.4097 88.2842 71.7157 88.5902 72.092 88.7819C72.5198 88.9999 73.0799 88.9999 74.2 88.9999Z" stroke="#919BA7" stroke-width="2" stroke-linecap="round"/>
</svg>
