<svg width="160" height="160" viewBox="0 0 160 160" fill="none" xmlns="http://www.w3.org/2000/svg">
<rect width="160" height="160" fill="#EAEBF0"/>
<path d="M56.233 111V100.818H62.3778V101.912H57.4659V105.352H62.0597V106.446H57.4659V109.906H62.4574V111H56.233ZM65.2161 103.364L67.0456 106.486L68.8751 103.364H70.2274L67.7615 107.182L70.2274 111H68.8751L67.0456 108.037L65.2161 111H63.8638L66.2899 107.182L63.8638 103.364H65.2161ZM71.8016 113.864V103.364H72.9351V104.577H73.0743C73.1605 104.444 73.2798 104.275 73.4323 104.07C73.5881 103.861 73.8101 103.675 74.0985 103.513C74.3901 103.347 74.7846 103.264 75.2817 103.264C75.9247 103.264 76.4915 103.425 76.982 103.746C77.4725 104.068 77.8553 104.524 78.1304 105.114C78.4055 105.704 78.5431 106.4 78.5431 107.202C78.5431 108.01 78.4055 108.711 78.1304 109.305C77.8553 109.895 77.4742 110.352 76.987 110.677C76.4998 110.998 75.938 111.159 75.3016 111.159C74.8111 111.159 74.4183 111.078 74.1233 110.915C73.8284 110.75 73.6013 110.562 73.4422 110.354C73.2831 110.142 73.1605 109.966 73.0743 109.827H72.9749V113.864H71.8016ZM72.955 107.182C72.955 107.759 73.0395 108.267 73.2086 108.708C73.3776 109.146 73.6245 109.489 73.9493 109.737C74.2741 109.982 74.6719 110.105 75.1425 110.105C75.633 110.105 76.0424 109.976 76.3705 109.717C76.7019 109.455 76.9505 109.104 77.1162 108.663C77.2853 108.219 77.3698 107.725 77.3698 107.182C77.3698 106.645 77.2869 106.161 77.1212 105.73C76.9588 105.296 76.7119 104.953 76.3804 104.701C76.0523 104.446 75.6397 104.318 75.1425 104.318C74.6652 104.318 74.2642 104.439 73.9394 104.681C73.6146 104.92 73.3693 105.254 73.2036 105.685C73.0379 106.113 72.955 106.612 72.955 107.182ZM80.2328 111V103.364H81.4061V111H80.2328ZM80.8294 102.091C80.6007 102.091 80.4035 102.013 80.2378 101.857C80.0754 101.701 79.9942 101.514 79.9942 101.295C79.9942 101.077 80.0754 100.889 80.2378 100.734C80.4035 100.578 80.6007 100.5 80.8294 100.5C81.0581 100.5 81.2537 100.578 81.4161 100.734C81.5818 100.889 81.6647 101.077 81.6647 101.295C81.6647 101.514 81.5818 101.701 81.4161 101.857C81.2537 102.013 81.0581 102.091 80.8294 102.091ZM83.4551 111V103.364H84.5886V104.517H84.6682C84.8074 104.139 85.0593 103.833 85.4239 103.597C85.7884 103.362 86.1994 103.244 86.6568 103.244C86.743 103.244 86.8507 103.246 86.98 103.249C87.1092 103.253 87.207 103.258 87.2733 103.264V104.457C87.2335 104.447 87.1424 104.433 86.9999 104.413C86.8607 104.389 86.7132 104.378 86.5574 104.378C86.1862 104.378 85.8547 104.456 85.5631 104.612C85.2747 104.764 85.046 104.976 84.877 105.248C84.7113 105.516 84.6284 105.823 84.6284 106.168V111H83.4551ZM91.5334 111.159C90.7976 111.159 90.1629 110.997 89.6293 110.672C89.099 110.344 88.6896 109.886 88.4013 109.3C88.1162 108.71 87.9737 108.024 87.9737 107.241C87.9737 106.459 88.1162 105.77 88.4013 105.173C88.6896 104.573 89.0907 104.106 89.6044 103.771C90.1214 103.433 90.7247 103.264 91.4141 103.264C91.8118 103.264 92.2045 103.33 92.5923 103.463C92.9801 103.596 93.3331 103.811 93.6513 104.109C93.9695 104.404 94.223 104.795 94.4119 105.283C94.6009 105.77 94.6953 106.37 94.6953 107.082V107.58H88.8089V106.565H93.5021C93.5021 106.134 93.416 105.75 93.2436 105.412C93.0746 105.074 92.8326 104.807 92.5178 104.612C92.2062 104.416 91.8383 104.318 91.4141 104.318C90.9467 104.318 90.5424 104.434 90.201 104.666C89.8629 104.895 89.6027 105.193 89.4205 105.561C89.2382 105.929 89.147 106.323 89.147 106.744V107.42C89.147 107.997 89.2464 108.486 89.4453 108.887C89.6475 109.285 89.9276 109.588 90.2855 109.797C90.6435 110.002 91.0594 110.105 91.5334 110.105C91.8416 110.105 92.12 110.062 92.3686 109.976C92.6205 109.886 92.8376 109.754 93.0199 109.578C93.2022 109.399 93.343 109.177 93.4425 108.912L94.576 109.23C94.4567 109.615 94.2562 109.953 93.9744 110.244C93.6927 110.533 93.3447 110.758 92.9304 110.92C92.5161 111.08 92.0504 111.159 91.5334 111.159ZM99.2636 111.159C98.6273 111.159 98.0655 110.998 97.5783 110.677C97.0911 110.352 96.7099 109.895 96.4348 109.305C96.1597 108.711 96.0222 108.01 96.0222 107.202C96.0222 106.4 96.1597 105.704 96.4348 105.114C96.7099 104.524 97.0927 104.068 97.5832 103.746C98.0738 103.425 98.6405 103.264 99.2835 103.264C99.7807 103.264 100.173 103.347 100.462 103.513C100.753 103.675 100.976 103.861 101.128 104.07C101.284 104.275 101.405 104.444 101.491 104.577H101.59V100.818H102.764V111H101.63V109.827H101.491C101.405 109.966 101.282 110.142 101.123 110.354C100.964 110.562 100.737 110.75 100.442 110.915C100.147 111.078 99.7542 111.159 99.2636 111.159ZM99.4227 110.105C99.8934 110.105 100.291 109.982 100.616 109.737C100.941 109.489 101.188 109.146 101.357 108.708C101.526 108.267 101.61 107.759 101.61 107.182C101.61 106.612 101.527 106.113 101.362 105.685C101.196 105.254 100.951 104.92 100.626 104.681C100.301 104.439 99.9 104.318 99.4227 104.318C98.9256 104.318 98.5113 104.446 98.1798 104.701C97.8517 104.953 97.6048 105.296 97.4391 105.73C97.2767 106.161 97.1955 106.645 97.1955 107.182C97.1955 107.725 97.2783 108.219 97.444 108.663C97.6131 109.104 97.8616 109.455 98.1898 109.717C98.5212 109.976 98.9322 110.105 99.4227 110.105Z" fill="#919BA7"/>
<path d="M75 75.9999L79.6464 71.3535C79.8417 71.1582 80.1583 71.1582 80.3536 71.3535L85 75.9999M71 79.9999L80 88.9999M76 84.4999L78.9719 81.3795C79.1687 81.1728 79.4983 81.1725 79.6954 81.3789L86.5 88.4999M86 79.9999C86 80.5522 85.5523 80.9999 85 80.9999C84.4477 80.9999 84 80.5522 84 79.9999C84 79.4476 84.4477 78.9999 85 78.9999C85.5523 78.9999 86 79.4476 86 79.9999ZM74.2 88.9999H85.8C86.9201 88.9999 87.4802 88.9999 87.908 88.7819C88.2843 88.5902 88.5903 88.2842 88.782 87.9079C89 87.4801 89 86.92 89 85.7999V79.1999C89 78.0798 89 77.5198 88.782 77.0919C88.5903 76.7156 88.2843 76.4097 87.908 76.2179C87.4802 75.9999 86.9201 75.9999 85.8 75.9999H74.2C73.0799 75.9999 72.5198 75.9999 72.092 76.2179C71.7157 76.4097 71.4097 76.7156 71.218 77.0919C71 77.5198 71 78.0798 71 79.1999V85.7999C71 86.92 71 87.4801 71.218 87.9079C71.4097 88.2842 71.7157 88.5902 72.092 88.7819C72.5198 88.9999 73.0799 88.9999 74.2 88.9999Z" stroke="#919BA7" stroke-width="2" stroke-linecap="round"/>
</svg>
