<svg xmlns="http://www.w3.org/2000/svg" width="19" height="20" viewBox="0 0 19 20" fill="none">
  <path d="M5.70008 17.9168V17.1668H5.70008L5.70008 17.9168ZM13.3001 17.9168V18.6668V17.9168ZM15.8334 15.3835H15.0834H15.8334ZM15.8334 4.61683H16.5834H15.8334ZM15.6608 2.94801L16.3291 2.60752V2.60752L15.6608 2.94801ZM13.3001 2.0835V1.3335V2.0835ZM14.9689 2.25607L15.3094 1.58781L15.3094 1.58781L14.9689 2.25607ZM14.9689 17.7443L15.3094 18.4125L14.9689 17.7443ZM15.6608 17.0523L14.9926 16.7118V16.7118L15.6608 17.0523ZM4.03126 17.7443L4.37176 17.076L4.03126 17.7443ZM3.16675 15.3835H2.41675H3.16675ZM3.33932 17.0523L4.00758 16.7118H4.00758L3.33932 17.0523ZM3.91675 6.8335C3.91675 6.41928 3.58096 6.0835 3.16675 6.0835C2.75253 6.0835 2.41675 6.41928 2.41675 6.8335H3.91675ZM7.91675 1.3335C7.50253 1.3335 7.16675 1.66928 7.16675 2.0835C7.16675 2.49771 7.50253 2.8335 7.91675 2.8335V1.3335ZM3.30189 6.69835L2.77156 6.16802L3.30189 6.69835ZM7.7816 2.21864L8.31193 2.74897L7.7816 2.21864ZM3.35787 6.8335L3.35787 7.5835L3.35787 6.8335ZM7.12508 6.8335V6.0835V6.8335ZM7.91675 6.04183L7.16675 6.04183V6.04183H7.91675ZM7.91675 2.27462H8.66675V2.27462L7.91675 2.27462ZM6.33342 9.25016C5.9192 9.25016 5.58342 9.58595 5.58342 10.0002C5.58342 10.4144 5.9192 10.7502 6.33342 10.7502V9.25016ZM12.6667 10.7502C13.081 10.7502 13.4167 10.4144 13.4167 10.0002C13.4167 9.58595 13.081 9.25016 12.6667 9.25016V10.7502ZM11.0834 6.0835C10.6692 6.0835 10.3334 6.41928 10.3334 6.8335C10.3334 7.24771 10.6692 7.5835 11.0834 7.5835V6.0835ZM12.6667 7.5835C13.081 7.5835 13.4167 7.24771 13.4167 6.8335C13.4167 6.41928 13.081 6.0835 12.6667 6.0835V7.5835ZM6.33342 12.4168C5.9192 12.4168 5.58342 12.7526 5.58342 13.1668C5.58342 13.581 5.9192 13.9168 6.33342 13.9168V12.4168ZM12.6667 13.9168C13.081 13.9168 13.4167 13.581 13.4167 13.1668C13.4167 12.7526 13.081 12.4168 12.6667 12.4168V13.9168ZM5.70008 18.6668H13.3001V17.1668H5.70008V18.6668ZM16.5834 15.3835V4.61683H15.0834V15.3835H16.5834ZM16.5834 4.61683C16.5834 4.18583 16.584 3.81747 16.5594 3.51583C16.534 3.20542 16.4782 2.90022 16.3291 2.60752L14.9926 3.2885C15.016 3.3345 15.0466 3.42033 15.0643 3.63797C15.0828 3.86437 15.0834 4.16108 15.0834 4.61683H16.5834ZM13.3001 2.8335C13.7558 2.8335 14.0525 2.83408 14.2789 2.85258C14.4966 2.87036 14.5824 2.90089 14.6284 2.92432L15.3094 1.58781C15.0167 1.43868 14.7115 1.38292 14.4011 1.35756C14.0994 1.33291 13.7311 1.3335 13.3001 1.3335V2.8335ZM16.3291 2.60752C16.1054 2.16847 15.7484 1.81152 15.3094 1.58781L14.6284 2.92432C14.7852 3.00422 14.9127 3.1317 14.9926 3.2885L16.3291 2.60752ZM13.3001 18.6668C13.7311 18.6668 14.0994 18.6674 14.4011 18.6428C14.7115 18.6174 15.0167 18.5616 15.3094 18.4125L14.6284 17.076C14.5824 17.0994 14.4966 17.13 14.2789 17.1477C14.0525 17.1662 13.7558 17.1668 13.3001 17.1668L13.3001 18.6668ZM15.0834 15.3835C15.0834 15.8392 15.0828 16.136 15.0643 16.3624C15.0466 16.58 15.016 16.6658 14.9926 16.7118L16.3291 17.3928C16.4782 17.1001 16.534 16.7949 16.5594 16.4845C16.584 16.1828 16.5834 15.8145 16.5834 15.3835L15.0834 15.3835ZM15.3094 18.4125C15.7484 18.1888 16.1054 17.8319 16.3291 17.3928L14.9926 16.7118C14.9127 16.8686 14.7852 16.9961 14.6284 17.076L15.3094 18.4125ZM5.70008 17.1668C5.24433 17.1668 4.94762 17.1662 4.72122 17.1477C4.50358 17.13 4.41775 17.0994 4.37176 17.076L3.69077 18.4125C3.98347 18.5617 4.28867 18.6174 4.59908 18.6428C4.90073 18.6674 5.26908 18.6668 5.70008 18.6668L5.70008 17.1668ZM2.41675 15.3835C2.41675 15.8145 2.41617 16.1829 2.44081 16.4845C2.46617 16.7949 2.52193 17.1001 2.67107 17.3928L4.00758 16.7118C3.98414 16.6658 3.95361 16.58 3.93583 16.3624C3.91733 16.136 3.91675 15.8392 3.91675 15.3835H2.41675ZM4.37176 17.076C4.21496 16.9961 4.08747 16.8686 4.00758 16.7118L2.67107 17.3928C2.89477 17.8319 3.25173 18.1888 3.69077 18.4125L4.37176 17.076ZM2.41675 6.8335L2.41675 15.3835H3.91675L3.91675 6.8335H2.41675ZM13.3001 1.3335L7.91675 1.3335V2.8335L13.3001 2.8335V1.3335ZM3.83223 7.22868L8.31193 2.74897L7.25127 1.68831L2.77156 6.16802L3.83223 7.22868ZM3.35787 7.5835H7.12508L7.12508 6.0835H3.35787L3.35787 7.5835ZM8.66675 6.04183V2.27462H7.16675V6.04183H8.66675ZM7.12508 7.5835C7.97652 7.5835 8.66675 6.89327 8.66675 6.04183L7.16675 6.04183C7.16675 6.06484 7.14809 6.0835 7.12508 6.0835L7.12508 7.5835ZM8.31193 2.74897C7.88933 3.17157 7.16675 2.87227 7.16675 2.27462L8.66675 2.27462C8.66675 1.53591 7.77362 1.16597 7.25127 1.68831L8.31193 2.74897ZM2.77156 6.16802C2.24922 6.69037 2.61917 7.5835 3.35787 7.5835L3.35787 6.0835C3.95552 6.0835 4.25483 6.80608 3.83223 7.22868L2.77156 6.16802ZM6.33342 10.7502H12.6667V9.25016H6.33342V10.7502ZM11.0834 7.5835H12.6667V6.0835H11.0834V7.5835ZM6.33342 13.9168H12.6667V12.4168H6.33342V13.9168Z" fill="white"/>
</svg>