<svg width="220" height="221" viewBox="0 0 220 221" fill="none" xmlns="http://www.w3.org/2000/svg">
<rect width="220" height="220" transform="translate(0 0.147949)" fill="#EAEBF0"/>
<g clip-path="url(#clip0_6256_63215)">
<path d="M101.832 117.511L101.492 118.179L101.832 117.511ZM99.1357 110.148H99.8857H99.1357ZM99.674 115.353L99.0057 115.693L99.0057 115.693L99.674 115.353ZM120.326 115.353L119.658 115.012L120.326 115.353ZM118.168 117.511L117.827 116.843L118.168 117.511ZM118.168 102.785L117.827 103.453V103.453L118.168 102.785ZM120.326 104.943L119.658 105.283L119.658 105.283L120.326 104.943ZM101.832 102.785L102.173 103.453L101.832 102.785ZM99.6739 104.943L100.342 105.283L99.6739 104.943ZM109.159 113.89L108.706 113.292V113.292L109.159 113.89ZM113.062 110.936L113.515 111.534L113.062 110.936ZM113.062 109.359L112.609 109.957L113.062 109.359ZM109.159 106.405L108.706 107.003L109.159 106.405ZM107.037 102.997H112.963V101.497H107.037V102.997ZM112.963 117.299H107.037V118.799H112.963V117.299ZM107.037 117.299C105.642 117.299 104.64 117.298 103.855 117.234C103.078 117.171 102.577 117.049 102.173 116.843L101.492 118.179C102.143 118.511 102.863 118.658 103.732 118.729C104.594 118.8 105.667 118.799 107.037 118.799V117.299ZM98.3857 110.148C98.3857 111.518 98.3852 112.591 98.4555 113.452C98.5266 114.322 98.6738 115.042 99.0057 115.693L100.342 115.012C100.136 114.607 100.014 114.107 99.9505 113.33C99.8863 112.544 99.8857 111.543 99.8857 110.148H98.3857ZM102.173 116.843C101.385 116.441 100.744 115.8 100.342 115.012L99.0057 115.693C99.5511 116.763 100.421 117.634 101.492 118.179L102.173 116.843ZM120.114 110.148C120.114 111.543 120.114 112.544 120.049 113.33C119.986 114.107 119.864 114.607 119.658 115.012L120.994 115.693C121.326 115.042 121.473 114.322 121.544 113.452C121.615 112.591 121.614 111.518 121.614 110.148H120.114ZM112.963 118.799C114.333 118.799 115.406 118.8 116.267 118.729C117.137 118.658 117.857 118.511 118.508 118.179L117.827 116.843C117.422 117.049 116.922 117.171 116.145 117.234C115.359 117.298 114.358 117.299 112.963 117.299V118.799ZM119.658 115.012C119.256 115.8 118.615 116.441 117.827 116.843L118.508 118.179C119.579 117.634 120.449 116.763 120.994 115.693L119.658 115.012ZM112.963 102.997C114.358 102.997 115.359 102.997 116.145 103.061C116.922 103.125 117.422 103.247 117.827 103.453L118.508 102.117C117.857 101.785 117.137 101.637 116.267 101.566C115.406 101.496 114.333 101.497 112.963 101.497V102.997ZM121.614 110.148C121.614 108.777 121.615 107.704 121.544 106.843C121.473 105.973 121.326 105.254 120.994 104.602L119.658 105.283C119.864 105.688 119.986 106.188 120.049 106.965C120.114 107.751 120.114 108.753 120.114 110.148H121.614ZM117.827 103.453C118.615 103.855 119.256 104.495 119.658 105.283L120.994 104.602C120.449 103.532 119.579 102.662 118.508 102.117L117.827 103.453ZM107.037 101.497C105.666 101.497 104.594 101.496 103.732 101.566C102.863 101.637 102.143 101.785 101.492 102.117L102.173 103.453C102.577 103.247 103.077 103.125 103.855 103.061C104.64 102.997 105.642 102.997 107.037 102.997V101.497ZM99.8857 110.148C99.8857 108.753 99.8863 107.751 99.9505 106.966C100.014 106.188 100.136 105.688 100.342 105.283L99.0057 104.602C98.6737 105.254 98.5266 105.974 98.4555 106.843C98.3852 107.705 98.3857 108.778 98.3857 110.148H99.8857ZM101.492 102.117C100.421 102.662 99.551 103.532 99.0057 104.602L100.342 105.283C100.744 104.495 101.384 103.855 102.173 103.453L101.492 102.117ZM106.781 107.194V113.102H108.281V107.194H106.781ZM109.611 114.488L113.515 111.534L112.609 110.338L108.706 113.292L109.611 114.488ZM113.515 108.761L109.611 105.807L108.706 107.003L112.609 109.957L113.515 108.761ZM113.515 111.534C114.437 110.836 114.437 109.46 113.515 108.761L112.609 109.957C112.739 110.055 112.739 110.24 112.609 110.338L113.515 111.534ZM106.781 113.102C106.781 114.57 108.471 115.351 109.611 114.488L108.706 113.292C108.618 113.359 108.516 113.364 108.422 113.319C108.33 113.274 108.281 113.198 108.281 113.102H106.781ZM108.281 107.194C108.281 107.098 108.33 107.021 108.422 106.976C108.516 106.931 108.618 106.937 108.706 107.003L109.611 105.807C108.471 104.944 106.781 105.726 106.781 107.194H108.281Z" fill="#919BA7"/>
</g>
<defs>
<clipPath id="clip0_6256_63215">
<rect width="23.7037" height="23.7037" fill="white" transform="translate(98.1484 98.2959)"/>
</clipPath>
</defs>
</svg>
