<svg width="220" height="221" viewBox="0 0 220 221" fill="none" xmlns="http://www.w3.org/2000/svg">
<rect width="220" height="220" transform="translate(0 0.147949)" fill="#EAEBF0"/>
<path d="M99.1357 108.173L111.277 120.314C111.663 120.699 112.288 120.699 112.674 120.314L120.864 112.123M105.062 113.111L109.302 108.871C109.687 108.485 110.313 108.485 110.698 108.871L116.914 115.086M115.555 103.852H116.296M115.555 104.592H116.296M107.037 121.012H112.963C115.729 121.012 117.111 121.012 118.168 120.474C119.097 120 119.852 119.245 120.326 118.316C120.864 117.259 120.864 115.877 120.864 113.111V107.185C120.864 104.419 120.864 103.036 120.326 101.98C119.852 101.051 119.097 100.295 118.168 99.8219C117.111 99.2837 115.729 99.2837 112.963 99.2837H107.037C104.271 99.2837 102.888 99.2837 101.832 99.8219C100.903 100.295 100.147 101.051 99.674 101.98C99.1357 103.036 99.1357 104.419 99.1357 107.185V113.111C99.1357 115.877 99.1357 117.259 99.674 118.316C100.147 119.245 100.903 120 101.832 120.474C102.888 121.012 104.271 121.012 107.037 121.012ZM116.914 104.222C116.914 104.767 116.471 105.21 115.926 105.21C115.38 105.21 114.938 104.767 114.938 104.222C114.938 103.676 115.38 103.234 115.926 103.234C116.471 103.234 116.914 103.676 116.914 104.222Z" stroke="#919BA7" stroke-width="1.5" stroke-linecap="round"/>
</svg>
