<svg width="15" height="16" viewBox="0 0 15 16" fill="none"
    xmlns="http://www.w3.org/2000/svg">
    <path d="M10.5 11.7501C11.2001 11.7501 11.5501 11.7501 11.8175 11.6139C12.0527 11.494 12.2439 11.3028 12.3638 11.0676C12.5 10.8002 12.5 10.4502 12.5 9.75012V3.75012C12.5 3.05006 12.5 2.70002 12.3638 2.43263C12.2439 2.19743 12.0527 2.00621 11.8175 1.88636C11.5501 1.75012 11.2001 1.75012 10.5 1.75012H7C6.29993 1.75012 5.9499 1.75012 5.68251 1.88636C5.44731 2.00621 5.25608 2.19743 5.13624 2.43263C5 2.70002 5 3.05006 5 3.75012M4.5 14.2501H8C8.70007 14.2501 9.0501 14.2501 9.31749 14.1139C9.55269 13.994 9.74392 13.8028 9.86376 13.5676C10 13.3002 10 12.9502 10 12.2501V6.25012C10 5.55006 10 5.20002 9.86376 4.93263C9.74392 4.69743 9.55269 4.50621 9.31749 4.38636C9.0501 4.25012 8.70007 4.25012 8 4.25012H4.5C3.79993 4.25012 3.4499 4.25012 3.18251 4.38636C2.94731 4.50621 2.75608 4.69743 2.63624 4.93263C2.5 5.20002 2.5 5.55006 2.5 6.25012V12.2501C2.5 12.9502 2.5 13.3002 2.63624 13.5676C2.75608 13.8028 2.94731 13.994 3.18251 14.1139C3.4499 14.2501 3.79993 14.2501 4.5 14.2501Z" stroke="#919BA7" stroke-width="1.5"/>
</svg>
