<svg width="20" height="20" viewBox="0 0 20 20" fill="none"
    xmlns="http://www.w3.org/2000/svg">
    <path d="M18.3333 17.5002C18.7935 17.5002 19.1666 17.1271 19.1666 16.6668C19.1666 16.2066 18.7935 15.8335 18.3333 15.8335V17.5002ZM2.49996 3.3335C2.49996 2.87326 2.12686 2.50016 1.66663 2.50016C1.20639 2.50016 0.833293 2.87326 0.833293 3.3335H2.49996ZM3.48666 16.3035L3.86498 15.561L3.86498 15.561L3.48666 16.3035ZM2.02994 14.8468L1.28743 15.2251L2.02994 14.8468ZM9.46125 7.79479L10.0505 7.20554L9.46125 7.79479ZM12.2053 10.5389L11.6161 11.1281L12.2053 10.5389ZM12.7946 10.5389L13.3838 11.1281L13.3838 11.1281L12.7946 10.5389ZM18.0892 6.42275C18.4147 6.09732 18.4147 5.56968 18.0892 5.24424C17.7638 4.9188 17.2361 4.9188 16.9107 5.24424L18.0892 6.42275ZM4.4107 11.0776C4.08527 11.403 4.08527 11.9306 4.4107 12.2561C4.73614 12.5815 5.26378 12.5815 5.58922 12.2561L4.4107 11.0776ZM8.872 7.79479L9.46125 8.38405L9.46126 8.38405L8.872 7.79479ZM18.3333 15.8335H6.99996V17.5002H18.3333V15.8335ZM2.49996 11.3335V3.3335H0.833293V11.3335H2.49996ZM6.99996 15.8335C6.05279 15.8335 5.39253 15.8328 4.87849 15.7909C4.37419 15.7496 4.08445 15.6728 3.86498 15.561L3.10833 17.046C3.60191 17.2975 4.1354 17.4024 4.74277 17.452C5.34042 17.5008 6.08029 17.5002 6.99996 17.5002V15.8335ZM0.833293 11.3335C0.833293 12.2532 0.832644 12.993 0.881474 13.5907C0.931099 14.1981 1.03594 14.7315 1.28743 15.2251L2.77244 14.4685C2.66062 14.249 2.58381 13.9593 2.54261 13.455C2.50061 12.9409 2.49996 12.2807 2.49996 11.3335H0.833293ZM3.86498 15.561C3.39458 15.3213 3.01213 14.9389 2.77244 14.4685L1.28743 15.2251C1.6869 16.0091 2.32432 16.6466 3.10833 17.046L3.86498 15.561ZM8.872 8.38405L11.6161 11.1281L12.7946 9.94961L10.0505 7.20554L8.872 8.38405ZM13.3838 11.1281L18.0892 6.42275L16.9107 5.24424L12.2053 9.94961L13.3838 11.1281ZM5.58922 12.2561L9.46125 8.38405L8.28274 7.20553L4.4107 11.0776L5.58922 12.2561ZM11.6161 11.1281C12.1042 11.6163 12.8957 11.6163 13.3838 11.1281L12.2053 9.94961C12.368 9.7869 12.6319 9.78689 12.7946 9.94961L11.6161 11.1281ZM10.0505 7.20554C9.56236 6.71738 8.7709 6.71738 8.28274 7.20554L9.46126 8.38405C9.29853 8.54677 9.03472 8.54676 8.872 8.38405L10.0505 7.20554Z" fill="#1B0354"/>
</svg>
