<svg width="32" height="32" viewBox="0 0 32 32" fill="none" xmlns="http://www.w3.org/2000/svg">
<g id="user/circle" clip-path="url(#clip0_9687_20117)">
<path id="Icon" d="M26.1436 25.5912C25.6147 24.5551 24.9168 23.583 24.0498 22.716C19.604 18.2703 12.396 18.2703 7.95021 22.716C7.08321 23.583 6.38529 24.5551 5.85645 25.5912M1.33325 15.9997C1.33325 7.8995 7.89974 1.33301 15.9999 1.33301C24.1001 1.33301 30.6666 7.8995 30.6666 15.9997C30.6666 24.0999 24.1001 30.6663 15.9999 30.6663C7.89974 30.6663 1.33325 24.0998 1.33325 15.9997ZM21.3333 13.333C21.3333 16.2785 18.9454 18.6663 15.9999 18.6663C13.0544 18.6663 10.6666 16.2785 10.6666 13.333C10.6666 10.3875 13.0544 7.99967 15.9999 7.99967C18.9454 7.99967 21.3333 10.3875 21.3333 13.333Z" stroke="#272D37" stroke-width="2"/>
</g>
<defs>
<clipPath id="clip0_9687_20117">
<rect width="32" height="32" fill="white"/>
</clipPath>
</defs>
</svg>
