<svg width="32" height="32" viewBox="0 0 32 32" fill="none" xmlns="http://www.w3.org/2000/svg">
<g id="Logo Glyphs">
<g id="Group 217">
<path id="Vector" d="M31.5403 0.838183L15.8465 0.820312V0.838183L10.977 3.79096L13.1632 8.96614L9.00913 12.4989L10.977 17.3489L7.72368 20.7923L9.00913 25.6132L0.820312 31.5403H16.8498L20.1498 17.0045H28.8508L29.8534 11.5889L28.4338 12.528L26.7565 11.5889L24.6369 12.4989L22.9596 11.5889L20.9546 12.3471L22.0609 6.76168L23.9466 7.70722L25.721 6.76161L27.3983 7.70722L28.8993 6.76161L30.2082 7.70722L31.5403 0.838183Z" fill="url(#paint0_linear_2232_26162)"/>
<path id="Vector_2" d="M19.1146 4.9523C19.6865 4.9523 20.1501 4.4898 20.1501 3.91927C20.1501 3.34874 19.6865 2.88623 19.1146 2.88623C18.5427 2.88623 18.0791 3.34874 18.0791 3.91927C18.0791 4.4898 18.5427 4.9523 19.1146 4.9523Z" fill="white"/>
</g>
</g>
<defs>
<linearGradient id="paint0_linear_2232_26162" x1="16.1803" y1="0.820313" x2="16.1803" y2="31.5403" gradientUnits="userSpaceOnUse">
<stop stop-color="#9B31EE"/>
<stop offset="1" stop-color="#434FCF"/>
</linearGradient>
</defs>
</svg>
