<svg width="15" height="14" viewBox="0 0 15 14" fill="none" xmlns="http://www.w3.org/2000/svg">
<path d="M1.67657 11.1371L2.43551 11.3901L2.43551 11.3901L1.67657 11.1371ZM2.30089 9.26411L1.54194 9.01113H1.54194L2.30089 9.26411ZM2.94509 8.22177L3.51078 8.78746L3.51078 8.78745L2.94509 8.22177ZM9.16663 2.00023L8.60094 1.43455L8.60094 1.43455L9.16663 2.00023ZM12.5 5.33357L13.0656 5.89926L12.5 5.33357ZM6.27843 11.5551L5.71274 10.9894H5.71274L6.27843 11.5551ZM5.23608 12.1993L5.48907 12.9583H5.48907L5.23608 12.1993ZM3.36312 12.8236L3.6161 13.5826H3.6161L3.36312 12.8236ZM5.93672 11.874L5.45493 11.2354L5.45493 11.2354L5.93672 11.874ZM5.67417 12.0363L5.3184 11.3198L5.67417 12.0363ZM13.303 2.92688L12.5862 3.28209V3.28209L13.303 2.92688ZM13.303 4.40693L12.5862 4.05172V4.05172L13.303 4.40693ZM10.0933 1.19723L10.4485 1.91404L10.4485 1.91404L10.0933 1.19723ZM11.5733 1.19723L11.2181 1.91404V1.91404L11.5733 1.19723ZM2.46388 8.82603L3.18043 9.1818L3.18043 9.18179L2.46388 8.82603ZM2.62615 8.56347L1.9875 8.08168L1.9875 8.08168L2.62615 8.56347ZM1.36599 12.6292L0.612464 12.8979L1.36599 12.6292ZM1.87101 13.1342L1.6023 13.8877L1.60231 13.8877L1.87101 13.1342ZM8.89897 2.26791C8.58656 1.95549 8.08002 1.95549 7.7676 2.26791C7.45518 2.58033 7.45518 3.08686 7.7676 3.39928L8.89897 2.26791ZM11.1009 6.73262C11.4134 7.04504 11.9199 7.04504 12.2323 6.73262C12.5447 6.4202 12.5447 5.91366 12.2323 5.60125L11.1009 6.73262ZM2.43551 11.3901L3.05984 9.51709L1.54194 9.01113L0.917621 10.8841L2.43551 11.3901ZM3.51078 8.78745L9.73231 2.56592L8.60094 1.43455L2.37941 7.65608L3.51078 8.78745ZM11.9343 4.76788L5.71274 10.9894L6.84411 12.1208L13.0656 5.89926L11.9343 4.76788ZM4.9831 11.4404L3.11013 12.0647L3.6161 13.5826L5.48907 12.9583L4.9831 11.4404ZM5.71274 10.9894C5.53163 11.1705 5.49295 11.2067 5.45493 11.2354L6.41852 12.5127C6.56586 12.4015 6.6932 12.2717 6.84411 12.1208L5.71274 10.9894ZM5.48907 12.9583C5.69154 12.8908 5.86461 12.8349 6.02993 12.7529L5.3184 11.3198C5.27574 11.3409 5.22609 11.3594 4.9831 11.4404L5.48907 12.9583ZM5.45493 11.2354C5.41213 11.2677 5.36643 11.2959 5.3184 11.3198L6.02993 12.7529C6.16661 12.685 6.29669 12.6046 6.41852 12.5127L5.45493 11.2354ZM11.9343 2.56592C12.4343 3.06597 12.5377 3.1843 12.5862 3.28209L14.0198 2.57166C13.8253 2.1793 13.4743 1.84325 13.0656 1.43455L11.9343 2.56592ZM13.0656 5.89926C13.4743 5.49055 13.8253 5.15451 14.0198 4.76214L12.5862 4.05172C12.5377 4.1495 12.4343 4.26784 11.9343 4.76788L13.0656 5.89926ZM12.5862 3.28209C12.7063 3.52456 12.7063 3.80924 12.5862 4.05172L14.0198 4.76214C14.3618 4.07203 14.3618 3.26178 14.0198 2.57166L12.5862 3.28209ZM9.73231 2.56592C10.2324 2.06588 10.3507 1.9625 10.4485 1.91404L9.73806 0.480412C9.34569 0.674847 9.00964 1.02585 8.60094 1.43455L9.73231 2.56592ZM13.0656 1.43455C12.6569 1.02585 12.3209 0.674848 11.9285 0.480412L11.2181 1.91404C11.3159 1.9625 11.4342 2.06587 11.9343 2.56592L13.0656 1.43455ZM10.4485 1.91404C10.691 1.79389 10.9756 1.79389 11.2181 1.91404L11.9285 0.480412C11.2384 0.13843 10.4282 0.13843 9.73806 0.480412L10.4485 1.91404ZM3.05984 9.5171C3.14083 9.27411 3.15925 9.22445 3.18043 9.1818L1.74734 8.47027C1.66526 8.63558 1.60943 8.80866 1.54194 9.01113L3.05984 9.5171ZM2.37941 7.65608C2.2285 7.807 2.09866 7.93433 1.9875 8.08168L3.26481 9.04526C3.29349 9.00724 3.32967 8.96856 3.51078 8.78746L2.37941 7.65608ZM3.18043 9.18179C3.20427 9.13377 3.23252 9.08807 3.26481 9.04526L1.9875 8.08168C1.8956 8.2035 1.8152 8.33359 1.74734 8.47027L3.18043 9.18179ZM0.917621 10.8841C0.786956 11.2761 0.670634 11.6225 0.604506 11.9039C0.541166 12.1735 0.48304 12.5349 0.612464 12.8979L2.11951 12.3605C2.15239 12.4527 2.11385 12.4752 2.16208 12.27C2.20752 12.0766 2.29476 11.8123 2.43551 11.3901L0.917621 10.8841ZM3.11013 12.0647C2.68788 12.2054 2.42363 12.2927 2.23024 12.3381C2.02499 12.3863 2.04751 12.3478 2.13971 12.3807L1.60231 13.8877C1.96525 14.0172 2.3267 13.959 2.59625 13.8957C2.87767 13.8296 3.2241 13.7132 3.6161 13.5826L3.11013 12.0647ZM0.612464 12.8979C0.777134 13.3597 1.14052 13.7231 1.6023 13.8877L2.13971 12.3807C2.13029 12.3773 2.12287 12.3699 2.11951 12.3605L0.612464 12.8979ZM7.7676 3.39928L11.1009 6.73262L12.2323 5.60125L8.89897 2.26791L7.7676 3.39928Z" fill="white"/>
</svg>
