<svg width="80" height="80" viewBox="0 0 80 80" fill="none"
  xmlns="http://www.w3.org/2000/svg">
  <g clip-path="url(#clip0_3997_5612)">
    <path d="M80 0.00012207H0V80.0001H80V0.00012207Z" fill="#EBEBEB"/>
    <path d="M40.0001 48.6001C47.953 48.6001 54.4001 42.153 54.4001 34.2001C54.4001 26.2472 47.953 19.8001 40.0001 19.8001C32.0472 19.8001 25.6001 26.2472 25.6001 34.2001C25.6001 42.153 32.0472 48.6001 40.0001 48.6001Z" fill="#D0D3D6"/>
    <path d="M39.9991 52.2001C21.8377 52.2001 6.99908 64.5009 6 80.0001H74C72.999 64.5009 58.1604 52.2001 40.0009 52.2001H39.9991Z" fill="#D0D3D6"/>
    <g clip-path="url(#clip1_3997_5612)">
      <path d="M52.8354 33.4153C52.8354 41.3618 46.4112 47.8033 38.4859 47.8033C36.4651 47.8033 34.5441 47.3823 32.7998 46.6273C34.9273 47.8801 37.4047 48.6001 40.0503 48.6001C47.9756 48.6001 54.3998 42.1587 54.3998 34.2121C54.3998 28.2919 50.8329 23.2085 45.7365 21.0001C49.9832 23.4992 52.8354 28.1215 52.8354 33.4153Z" fill="#BBC0C5"/>
      <path d="M51.5996 54.0001C63.4732 59.2028 71.1086 68.9634 71.8996 80.0001H74.5996C73.7626 68.3386 62.9996 57.1001 51.5996 54.0001Z" fill="#BBC0C5"/>
    </g>
  </g>
  <defs>
    <clipPath id="clip0_3997_5612">
      <rect y="0.00012207" width="80" height="80" rx="40" fill="white"/>
    </clipPath>
    <clipPath id="clip1_3997_5612">
      <rect width="41.8" height="59" fill="white" transform="translate(32.7998 21.0001)"/>
    </clipPath>
  </defs>
</svg>
