<svg width="20" height="18" viewBox="0 0 20 18" fill="none" xmlns="http://www.w3.org/2000/svg">
<path d="M10.7998 10.3332C10.7998 9.89134 10.4417 9.53317 9.99984 9.53317C9.55801 9.53317 9.19984 9.89134 9.19984 10.3332L10.7998 10.3332ZM9.19984 16.9998C9.19984 17.4417 9.55801 17.7998 9.99984 17.7998C10.4417 17.7998 10.7998 17.4417 10.7998 16.9998H9.19984ZM6.93415 11.4342C6.62173 11.7466 6.62173 12.2531 6.93415 12.5655C7.24657 12.8779 7.7531 12.8779 8.06552 12.5655L6.93415 11.4342ZM10.9426 10.4426L11.5083 9.87696L11.5083 9.87696L10.9426 10.4426ZM11.9342 12.5655C12.2466 12.8779 12.7531 12.8779 13.0655 12.5655C13.3779 12.2531 13.3779 11.7466 13.0655 11.4342L11.9342 12.5655ZM9.74232 9.8858L9.98954 10.6466L9.74232 9.8858ZM10.2573 9.8858L10.0101 10.6466L10.2573 9.8858ZM14.9945 5.41544L15.1526 4.63122L14.9945 5.41544ZM5.91544 4.50516L5.13122 4.34704L5.13122 4.34704L5.91544 4.50516ZM14.0842 4.50516L13.3 4.66328V4.66328L14.0842 4.50516ZM5.00516 5.41544L4.84704 4.63122H4.84704L5.00516 5.41544ZM15.5129 12.5867C15.108 12.7636 14.9232 13.2352 15.1001 13.6401C15.277 14.045 15.7486 14.2298 16.1535 14.0529L15.5129 12.5867ZM3.84621 14.0529C4.25108 14.2298 4.72269 14.045 4.89959 13.6401C5.07648 13.2352 4.89167 12.7636 4.4868 12.5867L3.84621 14.0529ZM9.19984 10.3332L9.19984 16.9998H10.7998V10.3332L9.19984 10.3332ZM8.06552 12.5655L9.62271 11.0083L8.49134 9.87696L6.93415 11.4342L8.06552 12.5655ZM10.377 11.0083L11.9342 12.5655L13.0655 11.4342L11.5083 9.87696L10.377 11.0083ZM9.62271 11.0083C9.79705 10.834 9.89423 10.7377 9.96982 10.6735C10.0383 10.6154 10.0348 10.6319 9.98954 10.6466L9.49511 9.12496C9.25953 9.2015 9.07846 9.33143 8.93433 9.45378C8.79735 9.57007 8.64701 9.72129 8.49134 9.87696L9.62271 11.0083ZM11.5083 9.87696C11.3527 9.72129 11.2023 9.57007 11.0653 9.45378C10.9212 9.33143 10.7401 9.2015 10.5046 9.12496L10.0101 10.6466C9.96483 10.6319 9.9614 10.6154 10.0299 10.6735C10.1054 10.7377 10.2026 10.834 10.377 11.0083L11.5083 9.87696ZM9.98954 10.6466C9.99623 10.6445 10.0034 10.6445 10.0101 10.6466L10.5046 9.12496C10.1765 9.01837 9.82315 9.01837 9.49511 9.12496L9.98954 10.6466ZM14.8364 6.19966C16.3749 6.50986 17.5332 7.87048 17.5332 9.49984H19.1332C19.1332 7.09384 17.4232 5.08902 15.1526 4.63122L14.8364 6.19966ZM6.69966 4.66328C7.00986 3.12477 8.37048 1.9665 9.99984 1.9665V0.366504C7.59384 0.366504 5.58902 2.07651 5.13122 4.34704L6.69966 4.66328ZM9.99984 1.9665C11.6292 1.9665 12.9898 3.12477 13.3 4.66328L14.8685 4.34704C14.4107 2.07651 12.4058 0.366504 9.99984 0.366504V1.9665ZM2.4665 9.49984C2.4665 7.87048 3.62477 6.50986 5.16328 6.19966L4.84704 4.63122C2.57651 5.08902 0.866504 7.09384 0.866504 9.49984H2.4665ZM17.5332 9.49984C17.5332 10.8791 16.7036 12.0665 15.5129 12.5867L16.1535 14.0529C17.9059 13.2872 19.1332 11.5377 19.1332 9.49984H17.5332ZM4.4868 12.5867C3.29609 12.0665 2.4665 10.8791 2.4665 9.49984H0.866504C0.866504 11.5377 2.09375 13.2872 3.84621 14.0529L4.4868 12.5867ZM5.13122 4.34704C5.10391 4.4825 4.9825 4.60391 4.84704 4.63122L5.16328 6.19966C5.93013 6.04504 6.54504 5.43013 6.69966 4.66328L5.13122 4.34704ZM15.1526 4.63122C15.0172 4.60391 14.8958 4.4825 14.8685 4.34704L13.3 4.66328C13.4546 5.43013 14.0695 6.04504 14.8364 6.19966L15.1526 4.63122Z" fill="#272D37"/>
</svg>
