<svg width="18" height="18" viewBox="0 0 18 18" fill="none" xmlns="http://www.w3.org/2000/svg">
<path d="M15.75 9.835C16.2112 9.835 16.585 9.46116 16.585 9C16.585 8.53884 16.2112 8.165 15.75 8.165V9.835ZM9 8.165C8.53884 8.165 8.165 8.53884 8.165 9C8.165 9.46116 8.53884 9.835 9 9.835V8.165ZM14.8404 6.15957C14.5143 5.83348 13.9857 5.83348 13.6596 6.15957C13.3335 6.48565 13.3335 7.01435 13.6596 7.34043L14.8404 6.15957ZM15.6515 8.15147L15.061 8.74191L15.6515 8.15147ZM15.6515 9.84853L16.2419 10.439L16.2419 10.439L15.6515 9.84853ZM13.6596 10.6596C13.3335 10.9857 13.3335 11.5143 13.6596 11.8404C13.9857 12.1665 14.5143 12.1665 14.8404 11.8404L13.6596 10.6596ZM16.1526 8.76824L15.3585 9.02627L16.1526 8.76824ZM16.1526 9.23176L15.3585 8.97373L16.1526 9.23176ZM4.75736 4.75736L5.34779 5.34779L4.75736 4.75736ZM4.75736 13.2426L4.16693 13.8331L4.75736 13.2426ZM11.5821 4.52505C11.9814 4.75582 12.4921 4.61923 12.7229 4.21997C12.9537 3.82071 12.8171 3.30996 12.4178 3.07919L11.5821 4.52505ZM12.4178 14.9208C12.8171 14.69 12.9537 14.1793 12.7229 13.78C12.4921 13.3808 11.9814 13.2442 11.5821 13.475L12.4178 14.9208ZM15.75 8.165H9V9.835H15.75V8.165ZM13.6596 7.34043L15.061 8.74191L16.2419 7.56104L14.8404 6.15957L13.6596 7.34043ZM15.061 9.25809L13.6596 10.6596L14.8404 11.8404L16.2419 10.439L15.061 9.25809ZM15.061 8.74191C15.2193 8.90015 15.302 8.98379 15.356 9.04741C15.4037 9.10357 15.3783 9.08723 15.3585 9.02627L16.9468 8.51021C16.8713 8.278 16.7439 8.10178 16.6291 7.96662C16.5207 7.83892 16.3807 7.6998 16.2419 7.56104L15.061 8.74191ZM16.2419 10.439C16.3807 10.3002 16.5207 10.1611 16.6291 10.0334C16.7439 9.89822 16.8713 9.722 16.9468 9.48979L15.3585 8.97373C15.3783 8.91277 15.4037 8.89642 15.356 8.95259C15.302 9.01621 15.2193 9.09985 15.061 9.2581L16.2419 10.439ZM15.3585 9.02627C15.353 9.00919 15.353 8.9908 15.3585 8.97373L16.9468 9.48979C17.0502 9.17145 17.0502 8.82854 16.9468 8.51021L15.3585 9.02627ZM4.16692 4.16693C1.49769 6.83616 1.49769 11.1638 4.16693 13.8331L5.34779 12.6522C3.33074 10.6351 3.33074 7.36485 5.34779 5.34779L4.16692 4.16693ZM12.4178 3.07919C9.80418 1.56851 6.40403 1.92982 4.16692 4.16693L5.34779 5.34779C7.03686 3.65873 9.60663 3.38321 11.5821 4.52505L12.4178 3.07919ZM4.16693 13.8331C6.40404 16.0702 9.80418 16.4315 12.4178 14.9208L11.5821 13.475C9.60663 14.6168 7.03686 14.3413 5.34779 12.6522L4.16693 13.8331Z" fill="white"/>
</svg>
