<svg width="48" height="48" viewBox="0 0 48 48" fill="none" xmlns="http://www.w3.org/2000/svg">
<g id=".Icon placeholder">
<rect width="48" height="48" rx="24" fill="#F9F8FB"/>
<g id="Icon">
<g id="Icon_2">
<path fill-rule="evenodd" clip-rule="evenodd" d="M19.9417 8H28.0583C29.8757 7.99999 31.3211 7.99998 32.4872 8.09526C33.6814 8.19282 34.6996 8.3969 35.6319 8.87195C37.1372 9.63894 38.3611 10.8628 39.1281 12.3681C39.6031 13.3004 39.8072 14.3186 39.9047 15.5128C40 16.6789 40 18.1242 40 19.9415V28.0584C40 29.8757 40 31.3211 39.9047 32.4872C39.8072 33.6814 39.6031 34.6996 39.1281 35.6319C38.3611 37.1372 37.1372 38.3611 35.6319 39.1281C34.6996 39.6031 33.6814 39.8072 32.4872 39.9047C31.3211 40 29.8758 40 28.0585 40H19.9416C18.1243 40 16.6789 40 15.5128 39.9047C14.3186 39.8072 13.3004 39.6031 12.3681 39.1281C10.8628 38.3611 9.63894 37.1372 8.87195 35.6319C8.3969 34.6996 8.19282 33.6814 8.09526 32.4872C7.99998 31.3211 7.99999 29.8757 8 28.0584V19.9417C7.99999 18.1243 7.99998 16.6789 8.09526 15.5128C8.19282 14.3186 8.3969 13.3004 8.87195 12.3681C9.63894 10.8628 10.8628 9.63894 12.3681 8.87195C13.3004 8.3969 14.3186 8.19282 15.5128 8.09526C16.6789 7.99998 18.1243 7.99999 19.9417 8ZM15.7299 10.7531C14.7007 10.8372 14.0725 10.9964 13.5787 11.248C12.5752 11.7593 11.7593 12.5752 11.248 13.5787C10.9964 14.0725 10.8372 14.7007 10.7531 15.7299C10.6677 16.7747 10.6667 18.1112 10.6667 20V28C10.6667 29.8888 10.6677 31.2253 10.7531 32.2701C10.8372 33.2993 10.9964 33.9275 11.248 34.4213C11.7593 35.4248 12.5752 36.2407 13.5787 36.752C14.0725 37.0036 14.7007 37.1628 15.7299 37.2469C16.7747 37.3323 18.1112 37.3333 20 37.3333H28C29.8888 37.3333 31.2253 37.3323 32.2701 37.2469C33.2993 37.1628 33.9275 37.0036 34.4213 36.752C35.4248 36.2407 36.2407 35.4248 36.752 34.4213C37.0036 33.9275 37.1628 33.2993 37.2469 32.2701C37.3323 31.2253 37.3333 29.8888 37.3333 28V20C37.3333 18.1112 37.3323 16.7747 37.2469 15.7299C37.1628 14.7007 37.0036 14.0725 36.752 13.5787C36.2407 12.5752 35.4248 11.7593 34.4213 11.248C33.9275 10.9964 33.2993 10.8372 32.2701 10.7531C31.2253 10.6677 29.8888 10.6667 28 10.6667H20C18.1112 10.6667 16.7747 10.6677 15.7299 10.7531Z" fill="#5D55F6"/>
<path d="M15.4239 16.5258L14.7295 16.7887C14.6087 16.834 14.4614 16.8746 14.2999 16.8746C13.6787 16.8746 13.1679 16.3553 13.1679 15.7306C13.1679 15.2142 13.5001 14.8325 13.9233 14.6632L13.9303 14.6604L16.2613 13.7788C16.3532 13.7482 16.4834 13.7106 16.6639 13.7106C17.2765 13.7106 17.7959 14.2214 17.7959 14.8306V20.7546H18.4279C19.0526 20.7546 19.5839 21.2776 19.5839 21.8986C19.5839 22.5354 19.0608 23.0666 18.4279 23.0666H14.3479C13.7149 23.0666 13.1919 22.5354 13.1919 21.8986C13.1919 21.2776 13.7231 20.7546 14.3479 20.7546H15.4239V16.5258Z" fill="#5D55F6"/>
<path fill-rule="evenodd" clip-rule="evenodd" d="M19.3696 32.1586C19.3696 34.1052 17.664 35.2226 16.1376 35.2226C14.6112 35.2226 12.9056 34.1052 12.9056 32.1586V28.7746C12.9056 26.828 14.6112 25.7106 16.1376 25.7106C17.664 25.7106 19.3696 26.828 19.3696 28.7746V32.1586ZM15.2776 32.0386V28.8946C15.2776 28.3745 15.6473 28.0346 16.1496 28.0346C16.6229 28.0346 16.9976 28.3696 16.9976 28.8946V32.0386C16.9976 32.5112 16.5912 32.8986 16.1496 32.8986C15.6696 32.8986 15.2776 32.5088 15.2776 32.0386Z" fill="#5D55F6"/>
<path d="M23.286 28.5258L22.5916 28.7887C22.4708 28.834 22.3235 28.8746 22.162 28.8746C21.5409 28.8746 21.03 28.3553 21.03 27.7306C21.03 27.2142 21.3622 26.8325 21.7854 26.6632L21.7924 26.6604L24.1234 25.7788C24.2153 25.7482 24.3455 25.7106 24.526 25.7106C25.1386 25.7106 25.658 26.2215 25.658 26.8306V32.7546H26.29C26.9148 32.7546 27.446 33.2776 27.446 33.8986C27.446 34.5354 26.923 35.0666 26.29 35.0666H22.21C21.577 35.0666 21.054 34.5354 21.054 33.8986C21.054 33.2776 21.5852 32.7546 22.21 32.7546H23.286V28.5258Z" fill="#5D55F6"/>
<path fill-rule="evenodd" clip-rule="evenodd" d="M27.2317 20.1586C27.2317 22.1052 25.5261 23.2226 23.9997 23.2226C22.4733 23.2226 20.7677 22.1052 20.7677 20.1586V16.7746C20.7677 14.828 22.4733 13.7106 23.9997 13.7106C25.5261 13.7106 27.2317 14.828 27.2317 16.7746V20.1586ZM23.1397 20.0386V16.8946C23.1397 16.3745 23.5094 16.0346 24.0117 16.0346C24.485 16.0346 24.8597 16.3696 24.8597 16.8946V20.0386C24.8597 20.5112 24.4533 20.8986 24.0117 20.8986C23.5317 20.8986 23.1397 20.5088 23.1397 20.0386Z" fill="#5D55F6"/>
<path d="M31.1481 16.5258L30.4537 16.7887C30.3329 16.834 30.1856 16.8746 30.0241 16.8746C29.403 16.8746 28.8921 16.3553 28.8921 15.7306C28.8921 15.2142 29.2243 14.8325 29.6475 14.6632L29.6545 14.6604L31.9855 13.7788C32.0775 13.7482 32.2076 13.7106 32.3881 13.7106C33.0007 13.7106 33.5201 14.2214 33.5201 14.8306V20.7546H34.1521C34.7769 20.7546 35.3081 21.2776 35.3081 21.8986C35.3081 22.5354 34.7851 23.0666 34.1521 23.0666H30.0721C29.4391 23.0666 28.9161 22.5354 28.9161 21.8986C28.9161 21.2776 29.4473 20.7546 30.0721 20.7546H31.1481V16.5258Z" fill="#5D55F6"/>
<path fill-rule="evenodd" clip-rule="evenodd" d="M35.0938 32.1586C35.0938 34.1052 33.3882 35.2226 31.8618 35.2226C30.3354 35.2226 28.6298 34.1052 28.6298 32.1586V28.7746C28.6298 26.828 30.3354 25.7106 31.8618 25.7106C33.3882 25.7106 35.0938 26.828 35.0938 28.7746V32.1586ZM31.0018 32.0386V28.8946C31.0018 28.3745 31.3715 28.0346 31.8738 28.0346C32.3471 28.0346 32.7218 28.3696 32.7218 28.8946V32.0386C32.7218 32.5112 32.3154 32.8986 31.8738 32.8986C31.3938 32.8986 31.0018 32.5088 31.0018 32.0386Z" fill="#5D55F6"/>
</g>
</g>
</g>
</svg>
