<svg width="32" height="32" viewBox="0 0 32 32" fill="none" xmlns="http://www.w3.org/2000/svg">
<g id="Icon">
<g id="Icon_2">
<path fill-rule="evenodd" clip-rule="evenodd" d="M11.9417 2.22218e-07H20.0583C21.8757 -1.03566e-05 23.3211 -1.87755e-05 24.4872 0.0952568C25.6814 0.192821 26.6996 0.396903 27.6319 0.871949C29.1372 1.63894 30.3611 2.86278 31.1281 4.36808C31.6031 5.30041 31.8072 6.31864 31.9047 7.51277C32 8.67886 32 10.1242 32 11.9415V20.0584C32 21.8757 32 23.3211 31.9047 24.4872C31.8072 25.6814 31.6031 26.6996 31.1281 27.6319C30.3611 29.1372 29.1372 30.3611 27.6319 31.1281C26.6996 31.6031 25.6814 31.8072 24.4872 31.9047C23.3211 32 21.8758 32 20.0585 32H11.9416C10.1243 32 8.67886 32 7.51277 31.9047C6.31864 31.8072 5.30041 31.6031 4.36808 31.1281C2.86278 30.3611 1.63894 29.1372 0.871949 27.6319C0.396903 26.6996 0.192821 25.6814 0.0952568 24.4872C-1.87755e-05 23.3211 -1.03566e-05 21.8757 2.22219e-07 20.0584V11.9417C-1.03566e-05 10.1243 -1.87755e-05 8.67889 0.0952568 7.51277C0.192821 6.31864 0.396903 5.30041 0.871949 4.36808C1.63894 2.86278 2.86278 1.63894 4.36808 0.871949C5.30041 0.396903 6.31864 0.192821 7.51277 0.0952568C8.67889 -1.87755e-05 10.1243 -1.03566e-05 11.9417 2.22218e-07ZM7.72992 2.75307C6.7007 2.83716 6.07247 2.99639 5.57872 3.24797C4.57519 3.75929 3.75929 4.57519 3.24797 5.57872C2.99639 6.07247 2.83716 6.7007 2.75307 7.72992C2.6677 8.77471 2.66667 10.1112 2.66667 12V20C2.66667 21.8888 2.6677 23.2253 2.75307 24.2701C2.83716 25.2993 2.99639 25.9275 3.24797 26.4213C3.75929 27.4248 4.57519 28.2407 5.57872 28.752C6.07247 29.0036 6.7007 29.1628 7.72992 29.2469C8.77471 29.3323 10.1112 29.3333 12 29.3333H20C21.8888 29.3333 23.2253 29.3323 24.2701 29.2469C25.2993 29.1628 25.9275 29.0036 26.4213 28.752C27.4248 28.2407 28.2407 27.4248 28.752 26.4213C29.0036 25.9275 29.1628 25.2993 29.2469 24.2701C29.3323 23.2253 29.3333 21.8888 29.3333 20V12C29.3333 10.1112 29.3323 8.77471 29.2469 7.72992C29.1628 6.7007 29.0036 6.07247 28.752 5.57872C28.2407 4.57519 27.4248 3.75929 26.4213 3.24797C25.9275 2.99639 25.2993 2.83716 24.2701 2.75307C23.2253 2.6677 21.8888 2.66667 20 2.66667H12C10.1112 2.66667 8.77471 2.6677 7.72992 2.75307Z" fill="#5D55F6"/>
<path d="M7.42387 8.52578L6.72951 8.78869C6.60866 8.83401 6.46139 8.87461 6.29986 8.87461C5.67875 8.87461 5.16787 8.3553 5.16787 7.73061C5.16787 7.21424 5.50009 6.83251 5.92331 6.66322L5.93033 6.66041L8.26128 5.77884C8.35324 5.74818 8.48336 5.71061 8.66387 5.71061C9.27651 5.71061 9.79587 6.22145 9.79587 6.83061V12.7546H10.4279C11.0526 12.7546 11.5839 13.2776 11.5839 13.8986C11.5839 14.5354 11.0608 15.0666 10.4279 15.0666H6.34787C5.71488 15.0666 5.19186 14.5354 5.19186 13.8986C5.19186 13.2776 5.72308 12.7546 6.34787 12.7546H7.42387V8.52578Z" fill="#5D55F6"/>
<path fill-rule="evenodd" clip-rule="evenodd" d="M11.3696 24.1586C11.3696 26.1052 9.66401 27.2226 8.1376 27.2226C6.61119 27.2226 4.9056 26.1052 4.9056 24.1586V20.7746C4.9056 18.828 6.61119 17.7106 8.1376 17.7106C9.66401 17.7106 11.3696 18.828 11.3696 20.7746V24.1586ZM7.2776 24.0386V20.8946C7.2776 20.3745 7.64728 20.0346 8.1496 20.0346C8.62288 20.0346 8.9976 20.3696 8.9976 20.8946V24.0386C8.9976 24.5112 8.59116 24.8986 8.1496 24.8986C7.66957 24.8986 7.2776 24.5088 7.2776 24.0386Z" fill="#5D55F6"/>
<path d="M15.286 20.5258L14.5916 20.7887C14.4708 20.834 14.3235 20.8746 14.162 20.8746C13.5409 20.8746 13.03 20.3553 13.03 19.7306C13.03 19.2142 13.3622 18.8325 13.7854 18.6632L13.7924 18.6604L16.1234 17.7788C16.2153 17.7482 16.3455 17.7106 16.526 17.7106C17.1386 17.7106 17.658 18.2215 17.658 18.8306V24.7546H18.29C18.9148 24.7546 19.446 25.2776 19.446 25.8986C19.446 26.5354 18.923 27.0666 18.29 27.0666H14.21C13.577 27.0666 13.054 26.5354 13.054 25.8986C13.054 25.2776 13.5852 24.7546 14.21 24.7546H15.286V20.5258Z" fill="#5D55F6"/>
<path fill-rule="evenodd" clip-rule="evenodd" d="M19.2317 12.1586C19.2317 14.1052 17.5261 15.2226 15.9997 15.2226C14.4733 15.2226 12.7677 14.1052 12.7677 12.1586V8.77461C12.7677 6.82799 14.4733 5.71061 15.9997 5.71061C17.5261 5.71061 19.2317 6.82799 19.2317 8.77461V12.1586ZM15.1397 12.0386V8.89461C15.1397 8.37446 15.5094 8.03461 16.0117 8.03461C16.485 8.03461 16.8597 8.36958 16.8597 8.89461V12.0386C16.8597 12.5112 16.4533 12.8986 16.0117 12.8986C15.5317 12.8986 15.1397 12.5088 15.1397 12.0386Z" fill="#5D55F6"/>
<path d="M23.1481 8.52578L22.4537 8.78869C22.3329 8.83401 22.1856 8.87461 22.0241 8.87461C21.403 8.87461 20.8921 8.3553 20.8921 7.73061C20.8921 7.21424 21.2243 6.83251 21.6475 6.66322L21.6545 6.66041L23.9855 5.77884C24.0775 5.74818 24.2076 5.71061 24.3881 5.71061C25.0007 5.71061 25.5201 6.22145 25.5201 6.83061V12.7546H26.1521C26.7769 12.7546 27.3081 13.2776 27.3081 13.8986C27.3081 14.5354 26.7851 15.0666 26.1521 15.0666H22.0721C21.4391 15.0666 20.9161 14.5354 20.9161 13.8986C20.9161 13.2776 21.4473 12.7546 22.0721 12.7546H23.1481V8.52578Z" fill="#5D55F6"/>
<path fill-rule="evenodd" clip-rule="evenodd" d="M27.0938 24.1586C27.0938 26.1052 25.3882 27.2226 23.8618 27.2226C22.3354 27.2226 20.6298 26.1052 20.6298 24.1586V20.7746C20.6298 18.828 22.3354 17.7106 23.8618 17.7106C25.3882 17.7106 27.0938 18.828 27.0938 20.7746V24.1586ZM23.0018 24.0386V20.8946C23.0018 20.3745 23.3715 20.0346 23.8738 20.0346C24.3471 20.0346 24.7218 20.3696 24.7218 20.8946V24.0386C24.7218 24.5112 24.3154 24.8986 23.8738 24.8986C23.3938 24.8986 23.0018 24.5088 23.0018 24.0386Z" fill="#5D55F6"/>
</g>
</g>
</svg>
