<svg width="30" height="28" viewBox="0 0 30 28" fill="none" xmlns="http://www.w3.org/2000/svg">
<path d="M26.2191 18.3268L25.3344 18.793H25.3344L26.2191 18.3268ZM20.649 7.75633L21.5337 7.29015V7.29015L20.649 7.75633ZM9.35161 7.75634L8.46692 7.29016L9.35161 7.75634ZM3.7816 18.3268L4.66629 18.793L3.7816 18.3268ZM16.6918 2.02733L17.1022 1.11542V1.11542L16.6918 2.02733ZM13.3089 2.02733L13.7193 2.93924V2.93924L13.3089 2.02733ZM26.6646 26.3232L27.2176 27.1564H27.2176L26.6646 26.3232ZM28.3071 23.8014L27.319 23.6476L28.3071 23.8014ZM3.33605 26.3232L2.78309 27.1564H2.78309L3.33605 26.3232ZM1.69356 23.8014L2.68165 23.6476L1.69356 23.8014ZM16.0003 10.9949C15.9978 10.4426 15.5481 9.99688 14.9958 9.99936C14.4436 10.0018 13.9979 10.4516 14.0003 11.0038L16.0003 10.9949ZM14.0302 17.6704C14.0327 18.2227 14.4824 18.6684 15.0347 18.6659C15.587 18.6634 16.0327 18.2137 16.0302 17.6614L14.0302 17.6704ZM16.0003 21.666C16.0003 21.1137 15.5526 20.666 15.0003 20.666C14.448 20.666 14.0003 21.1137 14.0003 21.666H16.0003ZM14.0003 21.6793C14.0003 22.2316 14.448 22.6793 15.0003 22.6793C15.5526 22.6793 16.0003 22.2316 16.0003 21.6793H14.0003ZM9.43031 27.9993H20.5703V25.9993H9.43031V27.9993ZM27.1037 17.8606L21.5337 7.29015L19.7644 8.22251L25.3344 18.793L27.1037 17.8606ZM8.46692 7.29016L2.8969 17.8606L4.66629 18.793L10.2363 8.22252L8.46692 7.29016ZM21.5337 7.29015C20.6342 5.58302 19.9273 4.23926 19.2873 3.25892C18.6529 2.28712 17.9875 1.51386 17.1022 1.11542L16.2814 2.93924C16.6262 3.09439 17.0304 3.4605 17.6126 4.35223C18.1891 5.23542 18.8458 6.47938 19.7644 8.22251L21.5337 7.29015ZM10.2363 8.22252C11.1548 6.47938 11.8115 5.23543 12.3881 4.35223C12.9702 3.4605 13.3745 3.09439 13.7193 2.93924L12.8985 1.11542C12.0131 1.51386 11.3478 2.28712 10.7134 3.25892C10.0734 4.23927 9.36648 5.58302 8.46692 7.29016L10.2363 8.22252ZM17.1022 1.11542C15.7707 0.516214 14.23 0.516214 12.8985 1.11542L13.7193 2.93924C14.5288 2.57494 15.4719 2.57494 16.2814 2.93924L17.1022 1.11542ZM20.5703 27.9993C22.2436 27.9993 23.564 28.0002 24.5907 27.9111C25.6139 27.8222 26.496 27.6353 27.2176 27.1564L26.1116 25.4899C25.8144 25.6872 25.341 25.8384 24.4177 25.9186C23.498 25.9985 22.2807 25.9993 20.5703 25.9993V27.9993ZM25.3344 18.793C26.1004 20.2468 26.6407 21.2743 26.9739 22.084C27.3082 22.896 27.3671 23.3385 27.319 23.6476L29.2952 23.9553C29.4288 23.0972 29.2003 22.2382 28.8234 21.3226C28.4455 20.4046 27.8509 19.2785 27.1037 17.8606L25.3344 18.793ZM27.2176 27.1564C28.3319 26.4168 29.0916 25.2628 29.2952 23.9553L27.319 23.6476C27.2052 24.3783 26.7767 25.0486 26.1116 25.4899L27.2176 27.1564ZM9.43031 25.9993C7.72 25.9993 6.50268 25.9985 5.58295 25.9186C4.65962 25.8384 4.1863 25.6872 3.88901 25.4899L2.78309 27.1564C3.5047 27.6353 4.38672 27.8222 5.40991 27.9111C6.43668 28.0002 7.75705 27.9993 9.43031 27.9993V25.9993ZM2.8969 17.8606C2.14978 19.2785 1.55516 20.4047 1.17727 21.3227C0.800394 22.2382 0.57186 23.0972 0.705464 23.9553L2.68165 23.6476C2.63352 23.3385 2.69242 22.896 3.0267 22.084C3.35997 21.2744 3.90023 20.2468 4.66629 18.793L2.8969 17.8606ZM3.88901 25.4899C3.22396 25.0486 2.79543 24.3783 2.68165 23.6476L0.705464 23.9553C0.909061 25.2628 1.66873 26.4168 2.78309 27.1564L3.88901 25.4899ZM14.0003 11.0038L14.0302 17.6704L16.0302 17.6614L16.0003 10.9949L14.0003 11.0038ZM14.0003 21.666V21.6793H16.0003V21.666H14.0003Z" fill="#F04438"/>
</svg>
