<svg xmlns="http://www.w3.org/2000/svg" width="32" height="32" viewBox="0 0 32 32" fill="none">
  <path d="M27.2191 19.3268L26.3344 19.793H26.3344L27.2191 19.3268ZM21.649 8.75633L22.5337 8.29015V8.29015L21.649 8.75633ZM10.3516 8.75634L9.46692 8.29016L10.3516 8.75634ZM4.7816 19.3268L5.66629 19.793L4.7816 19.3268ZM17.6918 3.02733L18.1022 2.11542V2.11542L17.6918 3.02733ZM14.3089 3.02733L14.7193 3.93924V3.93924L14.3089 3.02733ZM27.6646 27.3232L28.2176 28.1564H28.2176L27.6646 27.3232ZM29.3071 24.8014L28.319 24.6476L29.3071 24.8014ZM4.33605 27.3232L3.78309 28.1564H3.78309L4.33605 27.3232ZM2.69356 24.8014L3.68165 24.6476L2.69356 24.8014ZM17.0003 11.9949C16.9978 11.4426 16.5481 10.9969 15.9958 10.9994C15.4436 11.0018 14.9979 11.4516 15.0003 12.0038L17.0003 11.9949ZM15.0302 18.6704C15.0327 19.2227 15.4824 19.6684 16.0347 19.6659C16.587 19.6634 17.0327 19.2137 17.0302 18.6614L15.0302 18.6704ZM17.0003 22.666C17.0003 22.1137 16.5526 21.666 16.0003 21.666C15.448 21.666 15.0003 22.1137 15.0003 22.666H17.0003ZM15.0003 22.6793C15.0003 23.2316 15.448 23.6793 16.0003 23.6793C16.5526 23.6793 17.0003 23.2316 17.0003 22.6793H15.0003ZM10.4303 28.9993H21.5703V26.9993H10.4303V28.9993ZM28.1037 18.8606L22.5337 8.29015L20.7644 9.22251L26.3344 19.793L28.1037 18.8606ZM9.46692 8.29016L3.8969 18.8606L5.66629 19.793L11.2363 9.22252L9.46692 8.29016ZM22.5337 8.29015C21.6342 6.58302 20.9273 5.23926 20.2873 4.25892C19.6529 3.28712 18.9875 2.51386 18.1022 2.11542L17.2814 3.93924C17.6262 4.09439 18.0304 4.4605 18.6126 5.35223C19.1891 6.23542 19.8458 7.47938 20.7644 9.22251L22.5337 8.29015ZM11.2363 9.22252C12.1548 7.47938 12.8115 6.23543 13.3881 5.35223C13.9702 4.4605 14.3745 4.09439 14.7193 3.93924L13.8985 2.11542C13.0131 2.51386 12.3478 3.28712 11.7134 4.25892C11.0734 5.23927 10.3665 6.58302 9.46692 8.29016L11.2363 9.22252ZM18.1022 2.11542C16.7707 1.51621 15.23 1.51621 13.8985 2.11542L14.7193 3.93924C15.5288 3.57494 16.4719 3.57494 17.2814 3.93924L18.1022 2.11542ZM21.5703 28.9993C23.2436 28.9993 24.564 29.0002 25.5907 28.9111C26.6139 28.8222 27.496 28.6353 28.2176 28.1564L27.1116 26.4899C26.8144 26.6872 26.341 26.8384 25.4177 26.9186C24.498 26.9985 23.2807 26.9993 21.5703 26.9993V28.9993ZM26.3344 19.793C27.1004 21.2468 27.6407 22.2743 27.9739 23.084C28.3082 23.896 28.3671 24.3385 28.319 24.6476L30.2952 24.9553C30.4288 24.0972 30.2003 23.2382 29.8234 22.3226C29.4455 21.4046 28.8509 20.2785 28.1037 18.8606L26.3344 19.793ZM28.2176 28.1564C29.3319 27.4168 30.0916 26.2628 30.2952 24.9553L28.319 24.6476C28.2052 25.3783 27.7767 26.0486 27.1116 26.4899L28.2176 28.1564ZM10.4303 26.9993C8.72 26.9993 7.50268 26.9985 6.58295 26.9186C5.65962 26.8384 5.1863 26.6872 4.88901 26.4899L3.78309 28.1564C4.5047 28.6353 5.38672 28.8222 6.40991 28.9111C7.43668 29.0002 8.75705 28.9993 10.4303 28.9993V26.9993ZM3.8969 18.8606C3.14978 20.2785 2.55516 21.4047 2.17727 22.3227C1.80039 23.2382 1.57186 24.0972 1.70546 24.9553L3.68165 24.6476C3.63352 24.3385 3.69242 23.896 4.0267 23.084C4.35997 22.2744 4.90023 21.2468 5.66629 19.793L3.8969 18.8606ZM4.88901 26.4899C4.22396 26.0486 3.79543 25.3783 3.68165 24.6476L1.70546 24.9553C1.90906 26.2628 2.66873 27.4168 3.78309 28.1564L4.88901 26.4899ZM15.0003 12.0038L15.0302 18.6704L17.0302 18.6614L17.0003 11.9949L15.0003 12.0038ZM15.0003 22.666V22.6793H17.0003V22.666H15.0003Z" fill="#F04438"/>
</svg>