<svg width="32" height="32" viewBox="0 0 32 32" fill="none" xmlns="http://www.w3.org/2000/svg">
<path d="M7.99967 9.33333H6.66634C5.92996 9.33333 5.33301 9.93029 5.33301 10.6667C5.33301 11.403 5.92996 12 6.66634 12H7.99967M7.99967 20H6.66634C5.92996 20 5.33301 20.597 5.33301 21.3333C5.33301 22.0697 5.92996 22.6667 6.66634 22.6667H7.99967M26.6663 24.1653C24.8467 20.8861 21.349 18.6667 17.333 18.6667C13.317 18.6667 9.81931 20.8861 7.99967 24.1653M12.2663 28H22.3997C23.8931 28 24.6399 28 25.2103 27.7094C25.7121 27.4537 26.12 27.0457 26.3757 26.544C26.6663 25.9735 26.6663 25.2268 26.6663 23.7333V8.26667C26.6663 6.77319 26.6663 6.02646 26.3757 5.45603C26.12 4.95426 25.7121 4.54631 25.2103 4.29065C24.6399 4 23.8931 4 22.3997 4H12.2663C10.7729 4 10.0261 4 9.4557 4.29065C8.95393 4.54631 8.54599 4.95426 8.29032 5.45603C7.99967 6.02646 7.99967 6.77319 7.99967 8.26667V23.7333C7.99967 25.2268 7.99967 25.9735 8.29032 26.544C8.54599 27.0457 8.95393 27.4537 9.4557 27.7094C10.0261 28 10.7729 28 12.2663 28ZM21.3831 13.3836C21.3831 15.6205 19.5697 17.4338 17.3329 17.4338C15.096 17.4338 13.2826 15.6205 13.2826 13.3836C13.2826 11.1467 15.096 9.33333 17.3329 9.33333C19.5697 9.33333 21.3831 11.1467 21.3831 13.3836Z" stroke="#272D37" stroke-width="2"/>
</svg>
