<svg width="32" height="32" viewBox="0 0 32 32" fill="none" xmlns="http://www.w3.org/2000/svg">
<g clip-path="url(#clip0_10086_20713)">
<path d="M26.1438 25.5912C25.615 24.5551 24.917 23.583 24.05 22.716C19.6043 18.2703 12.3962 18.2703 7.95046 22.716C7.08346 23.583 6.38554 24.5551 5.8567 25.5912M1.3335 15.9997C1.3335 7.8995 7.89999 1.33301 16.0002 1.33301C24.1003 1.33301 30.6668 7.8995 30.6668 15.9997C30.6668 24.0999 24.1003 30.6663 16.0002 30.6663C7.89999 30.6663 1.3335 24.0998 1.3335 15.9997ZM21.3335 13.333C21.3335 16.2785 18.9457 18.6663 16.0002 18.6663C13.0546 18.6663 10.6668 16.2785 10.6668 13.333C10.6668 10.3875 13.0546 7.99967 16.0002 7.99967C18.9457 7.99967 21.3335 10.3875 21.3335 13.333Z" stroke="#272D37" stroke-width="2"/>
</g>
<defs>
<clipPath id="clip0_10086_20713">
<rect width="32" height="32" fill="white"/>
</clipPath>
</defs>
</svg>
