<svg width="16" height="16" viewBox="0 0 16 16" fill="" xmlns="http://www.w3.org/2000/svg">
<g style="mix-blend-mode:exclusion">
<path d="M3.45603 2.29077L3.79652 2.95903L3.79652 2.95903L3.45603 2.29077ZM2.29065 3.45615L1.62239 3.11565L1.62239 3.11565L2.29065 3.45615ZM12.544 13.7095L12.8845 14.3777L12.544 13.7095ZM13.7094 12.5441L13.0411 12.2036L13.7094 12.5441ZM3.45603 13.7095L3.79652 13.0412L3.45603 13.7095ZM2.29065 12.5441L2.9589 12.2036H2.9589L2.29065 12.5441ZM14.75 8.00012C14.75 7.58591 14.4142 7.25012 14 7.25012C13.5858 7.25012 13.25 7.58591 13.25 8.00012H14.75ZM8 2.75012C8.41421 2.75012 8.75 2.41434 8.75 2.00012C8.75 1.58591 8.41421 1.25012 8 1.25012V2.75012ZM8.16882 6.99785L8.88033 7.23502V7.23502L8.16882 6.99785ZM8.47734 6.07226L7.76583 5.83509L7.76583 5.83509L8.47734 6.07226ZM8.7957 5.55716L9.32603 6.08749L9.32603 6.08749L8.7957 5.55716ZM11.8703 2.4826L11.3399 1.95226L11.3399 1.95227L11.8703 2.4826ZM13.5175 4.12986L14.0479 4.66019V4.66019L13.5175 4.12986ZM10.443 7.20443L9.91264 6.6741L9.91263 6.6741L10.443 7.20443ZM9.92786 7.52278L10.165 8.23429H10.165L9.92786 7.52278ZM9.00227 7.83131L9.23944 8.54282L9.23945 8.54282L9.00227 7.83131ZM10.2741 7.36204L10.7258 7.96077L10.7258 7.96077L10.2741 7.36204ZM10.1444 7.44223L9.81082 6.77047L9.81082 6.77047L10.1444 7.44223ZM13.5175 2.4826L12.9872 3.01293V3.01293L13.5175 2.4826ZM13.9144 2.94052L14.5864 2.60751V2.60751L13.9144 2.94052ZM13.9144 3.67194L14.5864 4.00495V4.00495L13.9144 3.67194ZM12.3282 2.08576L12.6612 2.75778V2.75778L12.3282 2.08576ZM13.0596 2.08576L12.7266 2.75778L12.7266 2.75778L13.0596 2.08576ZM8.55789 5.85577L9.22965 6.1893V6.1893L8.55789 5.85577ZM8.63808 5.72602L8.03935 5.27434V5.27434L8.63808 5.72602ZM8.01533 7.73522L8.72176 7.48331L8.01533 7.73522ZM8.2649 7.98479L8.013 8.69122L8.2649 7.98479ZM6.26667 14.7501H9.73333V13.2501H6.26667V14.7501ZM1.25 6.26679V9.73346H2.75V6.26679H1.25ZM6.26667 1.25012C5.53231 1.25012 4.93643 1.24954 4.45413 1.28894C3.96308 1.32906 3.5241 1.41434 3.11553 1.62252L3.79652 2.95903C3.95838 2.87655 4.17799 2.8165 4.57628 2.78396C4.98333 2.75071 5.50755 2.75012 6.26667 2.75012V1.25012ZM2.75 6.26679C2.75 5.50768 2.75058 4.98345 2.78384 4.5764C2.81638 4.17811 2.87643 3.95851 2.9589 3.79664L1.62239 3.11565C1.41422 3.52422 1.32894 3.9632 1.28882 4.45425C1.24942 4.93655 1.25 5.53243 1.25 6.26679H2.75ZM3.11553 1.62252C2.47264 1.95008 1.94996 2.47277 1.62239 3.11565L2.9589 3.79664C3.14266 3.436 3.43587 3.14278 3.79652 2.95903L3.11553 1.62252ZM9.73333 14.7501C10.4677 14.7501 11.0636 14.7507 11.5459 14.7113C12.0369 14.6712 12.4759 14.5859 12.8845 14.3777L12.2035 13.0412C12.0416 13.1237 11.822 13.1837 11.4237 13.2163C11.0167 13.2495 10.4924 13.2501 9.73333 13.2501V14.7501ZM13.25 9.73346C13.25 10.4926 13.2494 11.0168 13.2162 11.4238C13.1836 11.8221 13.1236 12.0417 13.0411 12.2036L14.3776 12.8846C14.5858 12.476 14.6711 12.037 14.7112 11.546C14.7506 11.0637 14.75 10.4678 14.75 9.73346H13.25ZM12.8845 14.3777C13.5274 14.0502 14.05 13.5275 14.3776 12.8846L13.0411 12.2036C12.8573 12.5642 12.5641 12.8575 12.2035 13.0412L12.8845 14.3777ZM6.26667 13.2501C5.50755 13.2501 4.98333 13.2495 4.57628 13.2163C4.17799 13.1837 3.95838 13.1237 3.79652 13.0412L3.11553 14.3777C3.5241 14.5859 3.96308 14.6712 4.45413 14.7113C4.93643 14.7507 5.53231 14.7501 6.26667 14.7501V13.2501ZM1.25 9.73346C1.25 10.4678 1.24942 11.0637 1.28882 11.546C1.32894 12.037 1.41422 12.476 1.62239 12.8846L2.9589 12.2036C2.87643 12.0417 2.81638 11.8221 2.78384 11.4238C2.75058 11.0168 2.75 10.4926 2.75 9.73346H1.25ZM3.79652 13.0412C3.43587 12.8575 3.14266 12.5642 2.9589 12.2036L1.62239 12.8846C1.94996 13.5275 2.47265 14.0502 3.11553 14.3777L3.79652 13.0412ZM14.75 9.73346V8.00012H13.25V9.73346H14.75ZM6.26667 2.75012H8V1.25012H6.26667V2.75012ZM8.88033 7.23502L9.18886 6.30943L7.76583 5.83509L7.4573 6.76068L8.88033 7.23502ZM9.32603 6.08749L12.4006 3.01293L11.3399 1.95227L8.26537 5.02683L9.32603 6.08749ZM12.9872 3.59953L9.91264 6.6741L10.9733 7.73476L14.0479 4.66019L12.9872 3.59953ZM9.69069 6.81127L8.7651 7.11979L9.23945 8.54282L10.165 8.23429L9.69069 6.81127ZM9.91263 6.6741C9.86887 6.71786 9.84645 6.74019 9.82941 6.75631C9.81547 6.76951 9.81574 6.76834 9.82242 6.7633L10.7258 7.96077C10.8228 7.88756 10.9054 7.80264 10.9733 7.73476L9.91263 6.6741ZM10.165 8.23429C10.2561 8.20393 10.369 8.16805 10.4779 8.11399L9.81082 6.77047C9.81832 6.76675 9.81948 6.76703 9.80144 6.7736C9.77941 6.78162 9.7494 6.79169 9.69069 6.81127L10.165 8.23429ZM9.82242 6.7633C9.81879 6.76604 9.81491 6.76844 9.81082 6.77047L10.4779 8.11399C10.5651 8.0707 10.6481 8.01941 10.7258 7.96077L9.82242 6.7633ZM12.9872 3.01293C13.1055 3.13119 13.172 3.19809 13.2182 3.24986C13.2609 3.2977 13.2548 3.29866 13.2423 3.27354L14.5864 2.60751C14.4579 2.34831 14.2296 2.13399 14.0479 1.95227L12.9872 3.01293ZM14.0479 4.66019C14.2296 4.47847 14.4579 4.26415 14.5864 4.00495L13.2423 3.33892C13.2548 3.3138 13.2609 3.31476 13.2182 3.3626C13.172 3.41437 13.1055 3.48127 12.9872 3.59953L14.0479 4.66019ZM13.2423 3.27354C13.2526 3.29414 13.2526 3.31832 13.2423 3.33893L14.5864 4.00495C14.8045 3.56468 14.8045 3.04778 14.5864 2.60751L13.2423 3.27354ZM12.4006 3.01293C12.5188 2.89467 12.5857 2.82816 12.6375 2.78194C12.6854 2.73922 12.6863 2.74533 12.6612 2.75778L11.9952 1.41375C11.736 1.54219 11.5216 1.77055 11.3399 1.95226L12.4006 3.01293ZM14.0479 1.95227C13.8661 1.77054 13.6518 1.54219 13.3926 1.41375L12.7266 2.75778C12.7015 2.74533 12.7024 2.73922 12.7503 2.78194C12.802 2.82816 12.8689 2.89467 12.9872 3.01293L14.0479 1.95227ZM12.6612 2.75778C12.6818 2.74757 12.706 2.74757 12.7266 2.75778L13.3926 1.41375C12.9523 1.19558 12.4354 1.19558 11.9952 1.41375L12.6612 2.75778ZM9.18886 6.30943C9.20843 6.25072 9.2185 6.22072 9.22652 6.19868C9.23309 6.18064 9.23337 6.1818 9.22965 6.1893L7.88614 5.52224C7.83207 5.63112 7.79619 5.74402 7.76583 5.83509L9.18886 6.30943ZM8.26537 5.02683C8.19748 5.09471 8.11256 5.17729 8.03935 5.27434L9.23682 6.1777C9.23178 6.18438 9.23061 6.18465 9.24381 6.17071C9.25993 6.15368 9.28226 6.13125 9.32603 6.08749L8.26537 5.02683ZM9.22965 6.1893C9.23168 6.18522 9.23408 6.18134 9.23682 6.1777L8.03935 5.27434C7.98072 5.35206 7.92943 5.43505 7.88613 5.52224L9.22965 6.1893ZM7.4573 6.76068C7.39497 6.94769 7.33104 7.1371 7.29377 7.29569C7.25912 7.44315 7.20897 7.70688 7.3089 7.98713L8.72176 7.48331C8.74946 7.56097 8.75077 7.62272 8.74978 7.64868C8.74893 7.67104 8.74612 7.67233 8.754 7.63882C8.76155 7.60668 8.77467 7.55994 8.79694 7.48916C8.81906 7.41889 8.8462 7.3374 8.88033 7.23502L7.4573 6.76068ZM8.76511 7.11979C8.66273 7.15392 8.58123 7.18106 8.51096 7.20318C8.44018 7.22545 8.39345 7.23857 8.3613 7.24612C8.32779 7.254 8.32908 7.25119 8.35144 7.25034C8.37739 7.24935 8.43915 7.25066 8.51681 7.27836L8.013 8.69122C8.29325 8.79115 8.55698 8.741 8.70443 8.70635C8.86302 8.66908 9.05244 8.60515 9.23944 8.54282L8.76511 7.11979ZM7.3089 7.98713C7.42604 8.3156 7.68452 8.57409 8.013 8.69122L8.51681 7.27836C8.61243 7.31246 8.68767 7.3877 8.72176 7.48331L7.3089 7.98713Z" fill="black"/>
</g>
</svg>
