<svg xmlns="http://www.w3.org/2000/svg" width="25" height="24" viewBox="0 0 25 24" fill="none">
    <path d="M5.67848 16.9639L6.62717 17.2801H6.62717L5.67848 16.9639ZM6.42767 14.7163L5.47899 14.4001H5.47899L6.42767 14.7163ZM7.20071 13.4655L7.90782 14.1726L7.90782 14.1726L7.20071 13.4655ZM14.6666 5.9997L13.9594 5.29259V5.29259L14.6666 5.9997ZM18.6666 9.9997L19.3737 10.7068H19.3737L18.6666 9.9997ZM11.2007 17.4655L10.4936 16.7584L10.4936 16.7584L11.2007 17.4655ZM9.9499 18.2386L10.2661 19.1873H10.2661L9.9499 18.2386ZM7.70234 18.9878L8.01857 19.9365L8.01857 19.9365L7.70234 18.9878ZM10.7907 17.8483L10.1884 17.0499L10.1884 17.05L10.7907 17.8483ZM10.4756 18.043L10.0309 17.1473L10.4756 18.043ZM19.6302 7.11167L18.7341 7.55568V7.55568L19.6302 7.11167ZM19.6302 8.88773L18.7341 8.44371V8.44371L19.6302 8.88773ZM15.7785 5.03609L16.2225 5.93211V5.93211L15.7785 5.03609ZM17.5546 5.03609L17.1106 5.93211V5.93211L17.5546 5.03609ZM6.62326 14.1907L7.51894 14.6354L7.51894 14.6354L6.62326 14.1907ZM6.81799 13.8756L6.01967 13.2733L6.01967 13.2733L6.81799 13.8756ZM5.30579 18.7544L4.36388 19.0903L5.30579 18.7544ZM5.91181 19.3605L5.57593 20.3024L5.57593 20.3024L5.91181 19.3605ZM14.3737 6.29262C13.9831 5.9021 13.35 5.9021 12.9594 6.29262C12.5689 6.68315 12.5689 7.31631 12.9594 7.70684L14.3737 6.29262ZM16.9594 11.7068C17.35 12.0974 17.9831 12.0974 18.3737 11.7068C18.7642 11.3163 18.7642 10.6831 18.3737 10.2926L16.9594 11.7068ZM12.6666 18.9997C12.1143 18.9997 11.6666 19.4474 11.6666 19.9997C11.6666 20.552 12.1143 20.9997 12.6666 20.9997V18.9997ZM19.6666 20.9997C20.2188 20.9997 20.6666 20.552 20.6666 19.9997C20.6666 19.4474 20.2188 18.9997 19.6666 18.9997V20.9997ZM6.62717 17.2801L7.37635 15.0326L5.47899 14.4001L4.7298 16.6477L6.62717 17.2801ZM7.90782 14.1726L15.3737 6.7068L13.9594 5.29259L6.49361 12.7584L7.90782 14.1726ZM17.9594 9.29259L10.4936 16.7584L11.9078 18.1726L19.3737 10.7068L17.9594 9.29259ZM9.63367 17.2899L7.38611 18.0391L8.01857 19.9365L10.2661 19.1873L9.63367 17.2899ZM10.4936 16.7584C10.2755 16.9765 10.2313 17.0176 10.1884 17.0499L11.3929 18.6466C11.5725 18.5111 11.7275 18.353 11.9078 18.1726L10.4936 16.7584ZM10.2661 19.1873C10.5081 19.1066 10.7189 19.0387 10.9203 18.9387L10.0309 17.1473C9.98277 17.1712 9.92627 17.1924 9.63367 17.2899L10.2661 19.1873ZM10.1884 17.05C10.139 17.0872 10.0863 17.1198 10.0309 17.1473L10.9203 18.9387C11.0865 18.8561 11.2447 18.7584 11.3929 18.6466L10.1884 17.05ZM17.9594 6.7068C18.5618 7.30915 18.6796 7.4457 18.7341 7.55568L20.5262 6.66765C20.2892 6.18944 19.8618 5.78075 19.3737 5.29259L17.9594 6.7068ZM19.3737 10.7068C19.8618 10.2186 20.2892 9.80995 20.5262 9.33174L18.7341 8.44371C18.6796 8.55369 18.5618 8.69025 17.9594 9.29259L19.3737 10.7068ZM18.7341 7.55568C18.8728 7.83546 18.8728 8.16394 18.7341 8.44371L20.5262 9.33174C20.9421 8.49241 20.9421 7.50698 20.5262 6.66765L18.7341 7.55568ZM15.3737 6.7068C15.976 6.10447 16.1126 5.98661 16.2225 5.93211L15.3345 4.14007C14.8563 4.37704 14.4476 4.80444 13.9594 5.29259L15.3737 6.7068ZM19.3737 5.29259C18.8855 4.80443 18.4768 4.37704 17.9986 4.14007L17.1106 5.93211C17.2205 5.98661 17.3571 6.10446 17.9594 6.7068L19.3737 5.29259ZM16.2225 5.93211C16.5023 5.79346 16.8308 5.79346 17.1106 5.93211L17.9986 4.14007C17.1593 3.72414 16.1738 3.72414 15.3345 4.14007L16.2225 5.93211ZM7.37635 15.0326C7.47389 14.74 7.49505 14.6835 7.51894 14.6354L5.72759 13.7459C5.62757 13.9474 5.55964 14.1582 5.47899 14.4001L7.37635 15.0326ZM6.49361 12.7584C6.31327 12.9388 6.15512 13.0938 6.01967 13.2733L7.6163 14.4778C7.64866 14.4349 7.68974 14.3907 7.90782 14.1726L6.49361 12.7584ZM7.51894 14.6354C7.54645 14.5799 7.57905 14.5272 7.6163 14.4778L6.01967 13.2733C5.9079 13.4215 5.81012 13.5797 5.72759 13.7459L7.51894 14.6354ZM4.7298 16.6477C4.57325 17.1173 4.43294 17.5351 4.35307 17.875C4.27668 18.2001 4.20452 18.6434 4.36388 19.0903L6.24769 18.4186C6.29121 18.5406 6.24254 18.5772 6.30004 18.3325C6.35405 18.1026 6.45801 17.7876 6.62717 17.2801L4.7298 16.6477ZM7.38611 18.0391C6.87866 18.2082 6.56361 18.3122 6.33375 18.3662C6.08904 18.4237 6.12566 18.375 6.24769 18.4186L5.57593 20.3024C6.02285 20.4617 6.46618 20.3896 6.79125 20.3132C7.13115 20.2333 7.54893 20.093 8.01857 19.9365L7.38611 18.0391ZM4.36388 19.0903C4.56552 19.6558 5.01049 20.1007 5.57593 20.3024L6.24769 18.4186L6.24769 18.4186L4.36388 19.0903ZM12.9594 7.70684L16.9594 11.7068L18.3737 10.2926L14.3737 6.29262L12.9594 7.70684ZM12.6666 20.9997H19.6666V18.9997H12.6666V20.9997Z" fill="#919BA7"/>
</svg>