<svg width="24" height="24" viewBox="0 0 24 24" fill="none"
  xmlns="http://www.w3.org/2000/svg">
  <path d="M16.8 22V21.25V22ZM7.2 22V22.75V22ZM4 18.8H3.25H4ZM4 5.2H4.75H4ZM4.21799 3.09202L3.54973 2.75152L3.54973 2.75153L4.21799 3.09202ZM5.09202 2.21799L4.75153 1.54973L4.75153 1.54973L5.09202 2.21799ZM5.09202 21.782L4.75153 22.4503L5.09202 21.782ZM4.21799 20.908L4.88624 20.5675H4.88624L4.21799 20.908ZM18.908 21.782L18.5675 21.1138L18.908 21.782ZM20 18.8H20.75H20ZM19.782 20.908L19.1138 20.5675L19.782 20.908ZM20.75 8C20.75 7.58579 20.4142 7.25 20 7.25C19.5858 7.25 19.25 7.58579 19.25 8H20.75ZM14 2.75C14.4142 2.75 14.75 2.41421 14.75 2C14.75 1.58579 14.4142 1.25 14 1.25V2.75ZM19.8293 7.82929L20.3596 7.29896L19.8293 7.82929ZM14.1707 2.17071L13.6404 2.70104L14.1707 2.17071ZM19.7586 8V8.75V8ZM15 8V7.25V8ZM14 7H14.75H14ZM14 2.24142L13.25 2.24142V2.24142H14ZM8 16.25C7.58579 16.25 7.25 16.5858 7.25 17C7.25 17.4142 7.58579 17.75 8 17.75V16.25ZM10.6857 9.27428L10.4072 9.97064V9.97064L10.6857 9.27428ZM14.6857 10.8743L14.4072 11.5706H14.4072L14.6857 10.8743ZM13 17.25C12.5858 17.25 12.25 17.5858 12.25 18C12.25 18.4142 12.5858 18.75 13 18.75V17.25ZM16.8 21.25H7.2V22.75H16.8V21.25ZM4.75 18.8L4.75 5.2H3.25L3.25 18.8H4.75ZM4.75 5.2C4.75 4.62757 4.75058 4.24336 4.77476 3.94748C4.79822 3.66035 4.8401 3.52307 4.88624 3.43251L3.54973 2.75153C3.37789 3.08879 3.31078 3.44544 3.27974 3.82533C3.24942 4.19646 3.25 4.65232 3.25 5.2H4.75ZM7.2 1.25C6.65232 1.25 6.19646 1.24942 5.82533 1.27974C5.44545 1.31078 5.08879 1.37789 4.75153 1.54973L5.43251 2.88624C5.52307 2.8401 5.66036 2.79822 5.94748 2.77476C6.24336 2.75058 6.62757 2.75 7.2 2.75V1.25ZM4.88624 3.43251C5.00608 3.19731 5.19731 3.00608 5.43251 2.88624L4.75153 1.54973C4.23408 1.81338 3.81339 2.23408 3.54973 2.75152L4.88624 3.43251ZM7.2 21.25C6.62757 21.25 6.24336 21.2494 5.94748 21.2252C5.66035 21.2018 5.52307 21.1599 5.43251 21.1138L4.75153 22.4503C5.08879 22.6221 5.44544 22.6892 5.82533 22.7203C6.19646 22.7506 6.65232 22.75 7.2 22.75V21.25ZM3.25 18.8C3.25 19.3477 3.24942 19.8035 3.27974 20.1747C3.31078 20.5546 3.37789 20.9112 3.54973 21.2485L4.88624 20.5675C4.8401 20.4769 4.79822 20.3396 4.77476 20.0525C4.75058 19.7566 4.75 19.3724 4.75 18.8H3.25ZM5.43251 21.1138C5.19731 20.9939 5.00608 20.8027 4.88624 20.5675L3.54973 21.2485C3.81338 21.7659 4.23408 22.1866 4.75153 22.4503L5.43251 21.1138ZM16.8 22.75C17.3477 22.75 17.8035 22.7506 18.1747 22.7203C18.5546 22.6892 18.9112 22.6221 19.2485 22.4503L18.5675 21.1138C18.4769 21.1599 18.3396 21.2018 18.0525 21.2252C17.7566 21.2494 17.3724 21.25 16.8 21.25V22.75ZM19.25 18.8C19.25 19.3724 19.2494 19.7566 19.2252 20.0525C19.2018 20.3396 19.1599 20.4769 19.1138 20.5675L20.4503 21.2485C20.6221 20.9112 20.6892 20.5546 20.7203 20.1747C20.7506 19.8035 20.75 19.3477 20.75 18.8H19.25ZM19.2485 22.4503C19.7659 22.1866 20.1866 21.7659 20.4503 21.2485L19.1138 20.5675C18.9939 20.8027 18.8027 20.9939 18.5675 21.1138L19.2485 22.4503ZM19.25 8V18.8H20.75V8H19.25ZM7.2 2.75L14 2.75V1.25L7.2 1.25V2.75ZM20.3596 7.29896L14.701 1.64038L13.6404 2.70104L19.299 8.35962L20.3596 7.29896ZM19.7586 7.25L15 7.25V8.75L19.7586 8.75V7.25ZM14.75 7V2.24142H13.25V7H14.75ZM15 7.25C14.8619 7.25 14.75 7.13807 14.75 7H13.25C13.25 7.9665 14.0335 8.75 15 8.75V7.25ZM14.701 1.64038C14.1656 1.10491 13.25 1.48415 13.25 2.24142L14.75 2.24142C14.75 2.82051 14.0499 3.11052 13.6404 2.70104L14.701 1.64038ZM19.299 8.35962C18.8895 7.95014 19.1795 7.25 19.7586 7.25V8.75C20.5158 8.75 20.8951 7.83444 20.3596 7.29896L19.299 8.35962ZM8 17.75H9.5V16.25H8V17.75ZM10.75 16.5V9.73852H9.25V16.5H10.75ZM10.4072 9.97064L14.4072 11.5706L14.9642 10.1779L10.9642 8.57792L10.4072 9.97064ZM14.25 11.3385V17.5H15.75V11.3385H14.25ZM14.5 17.25H13V18.75H14.5V17.25ZM14.25 17.5C14.25 17.3619 14.3619 17.25 14.5 17.25V18.75C15.1904 18.75 15.75 18.1904 15.75 17.5H14.25ZM14.4072 11.5706C14.3122 11.5327 14.25 11.4407 14.25 11.3385H15.75C15.75 10.8274 15.4388 10.3678 14.9642 10.1779L14.4072 11.5706ZM10.75 9.73852C10.75 9.91538 10.5714 10.0363 10.4072 9.97064L10.9642 8.57792C10.1432 8.24949 9.25 8.85419 9.25 9.73852H10.75ZM9.5 17.75C10.1904 17.75 10.75 17.1904 10.75 16.5H9.25C9.25 16.3619 9.36193 16.25 9.5 16.25V17.75Z" fill="#736CFB"/>
</svg>
