<svg width="24" height="24" viewBox="0 0 24 24" fill="none"
  xmlns="http://www.w3.org/2000/svg">
  <path d="M4.41917 18.8338L4.07868 19.5021L4.41917 18.8338ZM1.91663 12.0001H2.66663H1.91663ZM2.41618 16.8309L1.74792 17.1713L1.74792 17.1713L2.41618 16.8309ZM21.5837 16.8309L20.9155 16.4904L21.5837 16.8309ZM19.5808 18.8338L19.2403 18.1656L19.5808 18.8338ZM19.5807 5.1663L19.2402 5.83456L19.2402 5.83456L19.5807 5.1663ZM21.5837 7.16929L20.9154 7.50978V7.50978L21.5837 7.16929ZM4.41913 5.1663L4.75962 5.83456L4.41913 5.1663ZM2.41614 7.16929L3.08439 7.50978L2.41614 7.16929ZM11.2191 15.4735L10.7666 14.8755H10.7666L11.2191 15.4735ZM14.842 12.7319L15.2946 13.33L14.842 12.7319ZM14.842 11.2682L14.3894 11.8662L14.842 11.2682ZM11.2191 8.52658L10.7666 9.12464L11.2191 8.52658ZM9.24992 5.41675H14.7499V3.91675H9.24992V5.41675ZM14.75 18.5834H9.24996V20.0834H14.75V18.5834ZM9.24996 18.5834C7.95413 18.5834 7.02737 18.5828 6.30071 18.5234C5.58281 18.4648 5.12652 18.3525 4.75966 18.1656L4.07868 19.5021C4.69224 19.8147 5.3679 19.9522 6.17856 20.0185C6.98047 20.084 7.97889 20.0834 9.24996 20.0834V18.5834ZM1.16663 12.0001C1.16663 13.2711 1.16604 14.2696 1.23156 15.0715C1.29779 15.8821 1.4353 16.5578 1.74792 17.1713L3.08443 16.4904C2.89751 16.1235 2.78523 15.6672 2.72658 14.9493C2.66721 14.2227 2.66663 13.2959 2.66663 12.0001H1.16663ZM4.75966 18.1656C4.03837 17.7981 3.45195 17.2116 3.08443 16.4904L1.74792 17.1713C2.25925 18.1749 3.07515 18.9908 4.07868 19.5021L4.75966 18.1656ZM21.3333 12.0001C21.3333 13.2959 21.3327 14.2227 21.2733 14.9493C21.2147 15.6672 21.1024 16.1235 20.9155 16.4904L22.252 17.1713C22.5646 16.5578 22.7021 15.8821 22.7684 15.0715C22.8339 14.2696 22.8333 13.2711 22.8333 12.0001H21.3333ZM14.75 20.0834C16.021 20.0834 17.0194 20.084 17.8214 20.0185C18.632 19.9522 19.3077 19.8147 19.9212 19.5021L19.2403 18.1656C18.8734 18.3525 18.4171 18.4648 17.6992 18.5234C16.9726 18.5828 16.0458 18.5834 14.75 18.5834V20.0834ZM20.9155 16.4904C20.548 17.2116 19.9615 17.7981 19.2403 18.1656L19.9212 19.5021C20.9248 18.9908 21.7407 18.1749 22.252 17.1713L20.9155 16.4904ZM14.7499 5.41675C16.0457 5.41675 16.9725 5.41733 17.6992 5.4767C18.4171 5.53536 18.8734 5.64763 19.2402 5.83456L19.9212 4.49805C19.3076 4.18542 18.632 4.04792 17.8213 3.98168C17.0194 3.91616 16.021 3.91675 14.7499 3.91675V5.41675ZM22.8333 12.0001C22.8333 10.729 22.8339 9.73057 22.7683 8.92866C22.7021 8.118 22.5646 7.44236 22.252 6.8288L20.9154 7.50978C21.1024 7.87666 21.2147 8.33294 21.2733 9.05083C21.3327 9.77748 21.3333 10.7042 21.3333 12.0001H22.8333ZM19.2402 5.83456C19.9615 6.20207 20.5479 6.7885 20.9154 7.50978L22.252 6.8288C21.7406 5.82527 20.9247 5.00937 19.9212 4.49805L19.2402 5.83456ZM9.24992 3.91675C7.97884 3.91675 6.98043 3.91616 6.17852 3.98168C5.36786 4.04792 4.6922 4.18542 4.07864 4.49805L4.75962 5.83456C5.12648 5.64763 5.58277 5.53536 6.30067 5.4767C7.02732 5.41733 7.95409 5.41675 9.24992 5.41675V3.91675ZM2.66663 12.0001C2.66663 10.7045 2.66721 9.77766 2.72657 9.05094C2.78523 8.33295 2.8975 7.87658 3.08439 7.50978L1.74788 6.8288C1.43526 7.44235 1.29778 8.11813 1.23155 8.92881C1.16604 9.73077 1.16663 10.7292 1.16663 12.0001H2.66663ZM4.07864 4.49805C3.0751 5.00937 2.25921 5.82527 1.74788 6.8288L3.08439 7.50978C3.45191 6.7885 4.03833 6.20207 4.75962 5.83456L4.07864 4.49805ZM8.95829 9.25846V14.7417H10.4583V9.25846H8.95829ZM11.6717 16.0716L15.2946 13.33L14.3894 12.1339L10.7666 14.8755L11.6717 16.0716ZM15.2946 10.6701L11.6717 7.92853L10.7666 9.12464L14.3894 11.8662L15.2946 10.6701ZM15.2946 13.33C16.1795 12.6603 16.1795 11.3398 15.2946 10.6701L14.3894 11.8662C14.4813 11.9358 14.4813 12.0644 14.3894 12.1339L15.2946 13.33ZM8.95829 14.7417C8.95829 16.1506 10.5791 16.8984 11.6717 16.0716L10.7666 14.8755C10.7025 14.924 10.6292 14.929 10.5592 14.8951C10.49 14.8616 10.4583 14.808 10.4583 14.7417H8.95829ZM10.4583 9.25846C10.4583 9.19209 10.49 9.13858 10.5592 9.10505C10.6292 9.07114 10.7025 9.07613 10.7666 9.12464L11.6717 7.92853C10.5791 7.1017 8.95829 7.84958 8.95829 9.25846H10.4583Z" fill="#736CFB"/>
</svg>
