<svg width="43" height="33" viewBox="0 0 43 33" fill="none" xmlns="http://www.w3.org/2000/svg">
<path fill-rule="evenodd" clip-rule="evenodd" d="M26.2282 14.5574C25.557 14.0465 24.8773 13.527 24.0192 13.1949C23.1865 12.8543 22.5068 12.6925 21.4873 12.6925C20.6546 12.6925 19.788 12.8543 18.9553 13.1949C18.2841 13.5355 17.443 14.0465 16.9332 14.5574C16.262 15.2301 15.7437 15.9113 15.4209 16.7628C15.0725 17.4355 14.9111 18.287 14.9111 19.3003C14.9111 20.1518 15.0725 20.9863 15.4209 21.8378C15.7437 22.5105 16.2535 23.362 16.9332 23.8644C17.443 24.5542 18.2841 25.0566 18.9553 25.3887C19.788 25.7293 20.6546 25.8996 21.4873 25.8996C22.5153 25.8996 23.1865 25.7208 24.0192 25.3887C24.8858 25.0481 25.557 24.5542 26.2282 23.8644C26.738 23.362 27.2563 22.5105 27.5791 21.8378C27.9275 20.9863 28.0889 20.1518 28.0889 19.3003C28.0889 18.287 27.9275 17.4355 27.5791 16.7628C27.2563 15.9113 26.7465 15.2386 26.2282 14.5574ZM6.09188 7.9496C7.11994 7.9496 7.79115 8.80111 7.79115 9.81442C7.79115 10.8277 7.11994 11.6792 6.09188 11.6792C4.90239 11.6792 4.23118 10.8277 4.23118 9.81442C4.23118 8.80111 4.90239 7.9496 6.09188 7.9496ZM21.4873 9.4653C22.8637 9.4653 24.0192 9.81442 25.2087 10.3168C26.3981 10.6574 27.5791 11.5089 28.4458 12.3434C29.2784 13.1949 30.1195 14.3871 30.4679 15.5707H30.6293C30.9777 16.584 31.3005 17.9379 31.3005 19.3003C31.3005 20.4754 30.9777 21.8378 30.6293 23.03H30.4679C30.1195 24.2221 29.2784 25.2354 28.4458 26.0869C27.5876 27.1002 26.3981 27.7729 25.2087 28.2753C24.0192 28.7862 22.8637 28.965 21.4873 28.965C20.1108 28.965 18.9553 28.7862 17.7659 28.2753C16.5764 27.7729 15.5823 27.1002 14.5542 26.0869C13.7216 25.2354 13.0164 24.2221 12.5321 23.03C12.0223 21.8378 11.8609 20.4754 11.8609 19.3003C11.8609 17.9379 12.0223 16.584 12.5321 15.5707C13.0164 14.3785 13.7216 13.1949 14.5542 12.3434C15.5823 11.5089 16.5764 10.6574 17.7659 10.3168C18.9553 9.81442 20.1363 9.4653 21.4873 9.4653ZM2.53191 5.92299C1.18099 5.92299 0 7.09808 0 8.45199V29.9698C0 31.5025 1.18949 32.6691 2.72733 32.6691H40.2812C41.7935 32.6691 43 31.5111 43 29.9698V8.45199C43 7.09808 41.9719 5.92299 40.604 5.92299H30.6293L29.9581 2.35513C29.7967 1.34183 28.9301 0.669128 27.936 0.669128H15.0725C14.2144 0.669128 13.3732 1.34183 13.2118 2.35513L12.3452 5.92299H2.53191Z" fill="white"/>
</svg>
