<svg width="146" height="146" viewBox="0 0 146 146" fill="none" xmlns="http://www.w3.org/2000/svg">
<g clip-path="url(#clip0_35344_351)">
<path d="M146 0H0V146H146V0Z" fill="#EBEBEB"/>
<path d="M73.0002 88.6948C87.5143 88.6948 99.2802 76.9288 99.2802 62.4148C99.2802 47.9007 87.5143 36.1348 73.0002 36.1348C58.4862 36.1348 46.7202 47.9007 46.7202 62.4148C46.7202 76.9288 58.4862 88.6948 73.0002 88.6948Z" fill="#D0D3D6"/>
<path d="M72.9985 95.2651C39.854 95.2651 12.7735 117.714 10.9502 146H135.05C133.223 117.714 106.143 95.2651 73.0019 95.2651H72.9985Z" fill="#D0D3D6"/>
<g clip-path="url(#clip1_35344_351)">
<path d="M96.4248 60.9829C96.4248 75.4853 84.7007 87.241 70.2371 87.241C66.5489 87.241 63.0433 86.4727 59.8599 85.0947C63.7426 87.3812 68.2638 88.6952 73.0921 88.6952C87.5557 88.6952 99.2799 76.9396 99.2799 62.4371C99.2799 51.6326 92.7702 42.3555 83.4693 38.3252C91.2195 42.886 96.4248 51.3216 96.4248 60.9829Z" fill="#BBC0C5"/>
<path d="M94.1699 98.5503C115.839 108.045 129.774 125.858 131.217 146H136.145C134.617 124.718 114.975 104.208 94.1699 98.5503Z" fill="#BBC0C5"/>
</g>
</g>
<defs>
<clipPath id="clip0_35344_351">
<rect width="146" height="146" rx="73" fill="white"/>
</clipPath>
<clipPath id="clip1_35344_351">
<rect width="76.285" height="107.675" fill="white" transform="translate(59.8599 38.3252)"/>
</clipPath>
</defs>
</svg>
