<svg width="22" height="21" viewBox="0 0 22 21" fill="none" xmlns="http://www.w3.org/2000/svg">
<g id="check/loading">
<path id="Icon" d="M15.1668 8.00016L9.80595 13.6721C9.60255 13.8873 9.27277 13.8873 9.06938 13.6721L6.8335 11.3065M6.41683 18.4405C5.16652 17.7172 4.10289 16.7071 3.31594 15.5002M6.41683 2.55983C5.16652 3.2831 4.10289 4.2932 3.31594 5.50016M2.07127 12.5835C1.91573 11.9142 1.8335 11.2168 1.8335 10.5002C1.8335 9.78354 1.91573 9.08612 2.07127 8.41683M9.3335 1.48464C9.87396 1.38537 10.431 1.3335 11.0002 1.3335C16.0628 1.3335 20.1668 5.43755 20.1668 10.5002C20.1668 15.5628 16.0628 19.6668 11.0002 19.6668C10.431 19.6668 9.87396 19.615 9.3335 19.5157" stroke="#7FD184" stroke-width="1.67" stroke-linecap="round"/>
</g>
</svg>
