<svg width="20" height="20" viewBox="0 0 20 20" fill="none" xmlns="http://www.w3.org/2000/svg">
<g id="Button">
<g clip-path="url(#clip0_1906_121921)">
<g id="copy">
<path id="Icon" d="M14.0002 15.0003C14.9336 15.0003 15.4003 15.0003 15.7568 14.8187C16.0704 14.6589 16.3254 14.4039 16.4852 14.0903C16.6668 13.7338 16.6668 13.2671 16.6668 12.3337V4.33366C16.6668 3.40024 16.6668 2.93353 16.4852 2.57701C16.3254 2.2634 16.0704 2.00844 15.7568 1.84865C15.4003 1.66699 14.9336 1.66699 14.0002 1.66699H9.3335C8.40008 1.66699 7.93336 1.66699 7.57685 1.84865C7.26324 2.00844 7.00827 2.2634 6.84849 2.57701C6.66683 2.93353 6.66683 3.40024 6.66683 4.33366M6.00016 18.3337H10.6668C11.6003 18.3337 12.067 18.3337 12.4235 18.152C12.7371 17.9922 12.9921 17.7372 13.1518 17.4236C13.3335 17.0671 13.3335 16.6004 13.3335 15.667V7.66699C13.3335 6.73357 13.3335 6.26686 13.1518 5.91034C12.9921 5.59674 12.7371 5.34177 12.4235 5.18198C12.067 5.00033 11.6003 5.00033 10.6668 5.00033H6.00016C5.06674 5.00033 4.60003 5.00033 4.24351 5.18198C3.92991 5.34177 3.67494 5.59674 3.51515 5.91034C3.3335 6.26686 3.3335 6.73357 3.3335 7.66699V15.667C3.3335 16.6004 3.3335 17.0671 3.51515 17.4236C3.67494 17.7372 3.92991 17.9922 4.24351 18.152C4.60003 18.3337 5.06674 18.3337 6.00016 18.3337Z" stroke="#919BA7" stroke-width="1.67"/>
</g>
</g>
</g>
<defs>
<clipPath id="clip0_1906_121921">
<rect width="20" height="20" rx="5" fill="white"/>
</clipPath>
</defs>
</svg>
