<svg width="20" height="20" viewBox="0 0 20 20" fill="none" xmlns="http://www.w3.org/2000/svg">
<g id="Button">
<g clip-path="url(#clip0_1906_121900)">
<g id="edit/2">
<path id="Icon" d="M4.17657 14.1366L4.96872 14.4006L4.17657 14.1366ZM4.80089 12.2636L4.00874 11.9996H4.00874L4.80089 12.2636ZM5.44509 11.2213L6.03553 11.8117L6.03553 11.8117L5.44509 11.2213ZM11.6666 4.99975L11.0762 4.40931L11.0762 4.40931L11.6666 4.99975ZM15 8.33308L15.5904 8.92352L15 8.33308ZM8.77843 14.5546L8.18799 13.9642L8.18799 13.9642L8.77843 14.5546ZM7.73608 15.1988L8.00013 15.991L8.00013 15.991L7.73608 15.1988ZM5.86312 15.8231L6.12717 16.6153H6.12717L5.86312 15.8231ZM8.43672 14.8736L7.93385 14.207L7.93385 14.207L8.43672 14.8736ZM8.17417 15.0358L7.80284 14.2879L8.17417 15.0358ZM15.803 5.92639L15.0548 6.29714V6.29714L15.803 5.92639ZM15.803 7.40644L15.0548 7.03569V7.03569L15.803 7.40644ZM12.5933 4.19674L12.964 4.94492V4.94491L12.5933 4.19674ZM14.0733 4.19674L13.7026 4.94491L13.7026 4.94492L14.0733 4.19674ZM4.96388 11.8255L5.71177 12.1969L5.71178 12.1969L4.96388 11.8255ZM5.12615 11.563L4.45956 11.0601L4.45956 11.0601L5.12615 11.563ZM3.86599 15.6287L3.0795 15.9092L3.86599 15.6287ZM4.37101 16.1337L4.09055 16.9202L4.09055 16.9202L4.37101 16.1337ZM11.4237 5.24268C11.0976 4.91659 10.5689 4.91659 10.2429 5.24268C9.91677 5.56876 9.91677 6.09746 10.2429 6.42354L11.4237 5.24268ZM13.5762 9.75688C13.9023 10.083 14.431 10.083 14.7571 9.75688C15.0831 9.43079 15.0831 8.9021 14.7571 8.57601L13.5762 9.75688ZM9.99996 15.8314C9.5388 15.8314 9.16496 16.2053 9.16496 16.6664C9.16496 17.1276 9.5388 17.5014 9.99996 17.5014V15.8314ZM15.8333 17.5014C16.2945 17.5014 16.6683 17.1276 16.6683 16.6664C16.6683 16.2053 16.2945 15.8314 15.8333 15.8314V17.5014ZM4.96872 14.4006L5.59304 12.5277L4.00874 11.9996L3.38442 13.8725L4.96872 14.4006ZM6.03553 11.8117L12.2571 5.59018L11.0762 4.40931L4.85466 10.6308L6.03553 11.8117ZM14.4095 7.74265L8.18799 13.9642L9.36886 15.145L15.5904 8.92352L14.4095 7.74265ZM7.47203 14.4067L5.59907 15.031L6.12717 16.6153L8.00013 15.991L7.47203 14.4067ZM8.18799 13.9642C8.00622 14.146 7.96948 14.1801 7.93385 14.207L8.93959 15.5401C9.08933 15.4272 9.21861 15.2953 9.36886 15.145L8.18799 13.9642ZM8.00013 15.991C8.20172 15.9238 8.37749 15.8671 8.54549 15.7837L7.80284 14.2879C7.76286 14.3078 7.71591 14.3254 7.47203 14.4067L8.00013 15.991ZM7.93385 14.207C7.89278 14.2379 7.84892 14.2651 7.80284 14.2879L8.54549 15.7837C8.68411 15.7149 8.81604 15.6334 8.9396 15.5401L7.93385 14.207ZM14.4095 5.59018C14.9116 6.09223 15.0095 6.2058 15.0548 6.29714L16.5511 5.55564C16.3535 5.15682 15.9971 4.81602 15.5904 4.40931L14.4095 5.59018ZM15.5904 8.92352C15.9971 8.51681 16.3535 8.17601 16.5511 7.77719L15.0548 7.03569C15.0095 7.12703 14.9116 7.2406 14.4095 7.74265L15.5904 8.92352ZM15.0548 6.29714C15.1701 6.52982 15.1701 6.80301 15.0548 7.03569L16.5511 7.77719C16.898 7.07729 16.898 6.25554 16.5511 5.55564L15.0548 6.29714ZM12.2571 5.59018C12.7591 5.08814 12.8727 4.99018 12.964 4.94492L12.2225 3.44856C11.8237 3.64619 11.4829 4.00261 11.0762 4.40931L12.2571 5.59018ZM15.5904 4.40931C15.1837 4.00261 14.8429 3.64619 14.4441 3.44856L13.7026 4.94492C13.7939 4.99018 13.9075 5.08814 14.4095 5.59018L15.5904 4.40931ZM12.964 4.94491C13.1967 4.82961 13.4699 4.82961 13.7026 4.94491L14.4441 3.44856C13.7442 3.10173 12.9224 3.10173 12.2225 3.44856L12.964 4.94491ZM5.59304 12.5277C5.67433 12.2838 5.69193 12.2368 5.71177 12.1969L4.21599 11.4542C4.13258 11.6222 4.07593 11.798 4.00874 11.9996L5.59304 12.5277ZM4.85466 10.6308C4.70441 10.7811 4.57252 10.9104 4.45956 11.0601L5.79275 12.0659C5.81963 12.0302 5.85376 11.9935 6.03553 11.8117L4.85466 10.6308ZM5.71178 12.1969C5.73466 12.1508 5.76176 12.1069 5.79275 12.0659L4.45956 11.0601C4.36636 11.1837 4.28482 11.3156 4.21599 11.4542L5.71178 12.1969ZM3.38442 13.8725C3.25397 14.2639 3.13701 14.6121 3.07043 14.8955C3.00676 15.1664 2.94652 15.5363 3.0795 15.9092L4.65248 15.3482C4.68891 15.4504 4.64825 15.4813 4.69615 15.2775C4.74114 15.086 4.82775 14.8236 4.96872 14.4006L3.38442 13.8725ZM5.59907 15.031C5.17615 15.172 4.9137 15.2586 4.72224 15.3036C4.51839 15.3515 4.5493 15.3108 4.65147 15.3472L4.09055 16.9202C4.46345 17.0532 4.8333 16.9929 5.10426 16.9293C5.3876 16.8627 5.73583 16.7457 6.12717 16.6153L5.59907 15.031ZM3.0795 15.9092C3.2477 16.3808 3.61887 16.752 4.09055 16.9202L4.65147 15.3472C4.65147 15.3472 4.65152 15.3472 4.65159 15.3473C4.65167 15.3473 4.65175 15.3474 4.65182 15.3474C4.65195 15.3475 4.65204 15.3476 4.65209 15.3476C4.65214 15.3477 4.65221 15.3478 4.6523 15.3479C4.65234 15.348 4.65239 15.348 4.65242 15.3481C4.65246 15.3482 4.65248 15.3482 4.65248 15.3482L3.0795 15.9092ZM10.2429 6.42354L13.5762 9.75688L14.7571 8.57601L11.4237 5.24268L10.2429 6.42354ZM9.99996 17.5014H15.8333V15.8314H9.99996V17.5014Z" fill="#919BA7"/>
</g>
</g>
</g>
<defs>
<clipPath id="clip0_1906_121900">
<rect width="20" height="20" rx="5" fill="white"/>
</clipPath>
</defs>
</svg>
