<svg width="40" height="40" viewBox="0 0 40 40" fill="none" xmlns="http://www.w3.org/2000/svg">
<path d="M21 10.25C21 9.69772 20.5523 9.25 20 9.25C19.4477 9.25 19 9.69772 19 10.25L21 10.25ZM19 22.1667C19 22.719 19.4477 23.1667 20 23.1667C20.5523 23.1667 21 22.719 21 22.1667L19 22.1667ZM25.0404 20.7071C25.431 20.3166 25.431 19.6834 25.0404 19.2929C24.6499 18.9024 24.0168 18.9024 23.6262 19.2929L25.0404 20.7071ZM20.766 23.5673L20.0589 22.8602L20.0589 22.8602L20.766 23.5673ZM19.234 23.5673L19.9411 22.8602L19.9411 22.8602L19.234 23.5673ZM16.3738 19.2929C15.9832 18.9024 15.3501 18.9024 14.9596 19.2929C14.569 19.6834 14.569 20.3166 14.9596 20.7071L16.3738 19.2929ZM11.25 24.3333C11.25 23.781 10.8023 23.3333 10.25 23.3333C9.69772 23.3333 9.25 23.781 9.25 24.3333H11.25ZM30.75 24.3333C30.75 23.781 30.3023 23.3333 29.75 23.3333C29.1977 23.3333 28.75 23.781 28.75 24.3333H30.75ZM27.9755 29.3958L27.5215 28.5048L27.5215 28.5048L27.9755 29.3958ZM29.3958 27.9755L30.2868 28.4295L30.2868 28.4295L29.3958 27.9755ZM10.6042 27.9755L9.71322 28.4295L10.6042 27.9755ZM12.0245 29.3958L11.5705 30.2868L11.5705 30.2868L12.0245 29.3958ZM19 10.25L19 22.1667L21 22.1667L21 10.25L19 10.25ZM23.6262 19.2929L20.0589 22.8602L21.4731 24.2744L25.0404 20.7071L23.6262 19.2929ZM19.9411 22.8602L16.3738 19.2929L14.9596 20.7071L18.5269 24.2744L19.9411 22.8602ZM20.0589 22.8602C20.0264 22.8927 19.9736 22.8927 19.9411 22.8602L18.5269 24.2744C19.3405 25.088 20.6595 25.088 21.4731 24.2744L20.0589 22.8602ZM9.25 24.3333V24.55H11.25V24.3333H9.25ZM15.45 30.75H24.55V28.75H15.45V30.75ZM30.75 24.55V24.3333H28.75V24.55H30.75ZM24.55 30.75C25.4436 30.75 26.1739 30.7508 26.766 30.7024C27.3698 30.6531 27.9174 30.5477 28.4295 30.2868L27.5215 28.5048C27.3383 28.5981 27.0833 28.6698 26.6032 28.709C26.1114 28.7492 25.4766 28.75 24.55 28.75V30.75ZM28.75 24.55C28.75 25.4766 28.7492 26.1114 28.709 26.6032C28.6698 27.0833 28.5981 27.3383 28.5048 27.5215L30.2868 28.4295C30.5477 27.9174 30.6531 27.3698 30.7024 26.766C30.7508 26.1739 30.75 25.4436 30.75 24.55H28.75ZM28.4295 30.2868C29.2291 29.8793 29.8793 29.2292 30.2868 28.4295L28.5048 27.5215C28.289 27.9448 27.9448 28.289 27.5215 28.5048L28.4295 30.2868ZM9.25 24.55C9.25 25.4436 9.24922 26.1739 9.2976 26.766C9.34693 27.3698 9.45231 27.9174 9.71322 28.4295L11.4952 27.5215C11.4019 27.3383 11.3302 27.0833 11.291 26.6032C11.2508 26.1114 11.25 25.4766 11.25 24.55H9.25ZM15.45 28.75C14.5234 28.75 13.8886 28.7492 13.3968 28.709C12.9167 28.6698 12.6617 28.5981 12.4785 28.5048L11.5705 30.2868C12.0826 30.5477 12.6302 30.6531 13.234 30.7024C13.8261 30.7508 14.5564 30.75 15.45 30.75V28.75ZM9.71322 28.4295C10.1207 29.2292 10.7709 29.8793 11.5705 30.2868L12.4785 28.5048C12.0552 28.289 11.7109 27.9448 11.4952 27.5215L9.71322 28.4295Z" fill="#5F6D7E"/>
</svg>
