<svg width="20" height="20" viewBox="0 0 20 20" fill="none" xmlns="http://www.w3.org/2000/svg">
<path d="M10.2516 0.949873L19.8182 0.960767L19.0649 4.84499L18.4373 4.39153L18.3552 4.33221L18.2695 4.3862L17.407 4.92952L16.4366 4.38245L16.365 4.34206L16.2924 4.38074L15.2519 4.93527L14.1426 4.37907L13.9665 4.29077L13.9283 4.48401L13.2368 7.97488L13.1844 8.23987L13.437 8.14433L14.626 7.69477L15.6139 8.23076L15.6778 8.26543L15.7446 8.23675L17.0014 7.69719L17.9852 8.24802L18.065 8.29269L18.1412 8.24224L18.7339 7.85014L18.1943 10.7649H12.8809H12.7612L12.7347 10.8817L10.6987 19.8498H1.26311L6.00601 16.4168L6.08957 16.3564L6.063 16.2567L5.28115 13.3245L7.257 11.2332L7.32321 11.1631L7.28697 11.0738L6.09781 8.14296L8.61155 6.00521L8.69536 5.93393L8.65255 5.83257L7.33659 2.7175L10.2516 0.949873Z" fill="url(#paint0_linear_7002_1629)" stroke="url(#paint1_linear_7002_1629)" stroke-width="0.3"/>
<path d="M12.6458 3.11223C12.6458 3.50842 12.3452 3.8142 11.9929 3.8142C11.6405 3.8142 11.3399 3.50842 11.3399 3.11223C11.3399 2.71603 11.6405 2.41025 11.9929 2.41025C12.3452 2.41025 12.6458 2.71603 12.6458 3.11223Z" fill="white" stroke="#7B3CE2" stroke-width="0.3"/>
<defs>
<linearGradient id="paint0_linear_7002_1629" x1="9.37714" y1="3.81282" x2="9.37714" y2="23.0128" gradientUnits="userSpaceOnUse">
<stop stop-color="#9B32EE"/>
<stop offset="1" stop-color="#3056C9"/>
</linearGradient>
<linearGradient id="paint1_linear_7002_1629" x1="10.4" y1="0.799805" x2="10.4" y2="19.9998" gradientUnits="userSpaceOnUse">
<stop stop-color="#9B31EE"/>
<stop offset="1" stop-color="#3C44BD"/>
</linearGradient>
</defs>
</svg>
