<svg width="33" height="32" viewBox="0 0 33 32" fill="none" xmlns="http://www.w3.org/2000/svg">
<g id="Icon" clip-path="url(#clip0_14820_4504)">
<path id="Icon_2" d="M5.64005 25.9401L5.18606 26.8311L5.64005 25.9401ZM1.99998 16H2.99998H1.99998ZM2.72661 23.0266L1.8356 23.4806H1.8356L2.72661 23.0266ZM30.6067 23.0266L29.7157 22.5726L30.6067 23.0266ZM27.6933 25.9401L27.2393 25.0491L27.6933 25.9401ZM27.6932 6.06L27.2392 6.951V6.951L27.6932 6.06ZM30.6066 8.97344L29.7156 9.42743V9.42743L30.6066 8.97344ZM5.63999 6.06L6.09398 6.951L5.63999 6.06ZM2.72655 8.97344L3.61755 9.42743H3.61755L2.72655 8.97344ZM15.5309 21.0524L14.9275 20.2549L15.5309 21.0524ZM20.8005 17.0646L21.4039 17.862L20.8005 17.0646ZM20.8005 14.9355L20.197 15.7329L20.8005 14.9355ZM15.5309 10.9477L14.9275 11.7451L15.5309 10.9477ZM12.6666 6.33337H20.6666V4.33337H12.6666V6.33337ZM20.6667 25.6667H12.6667V27.6667H20.6667V25.6667ZM12.6667 25.6667C10.7833 25.6667 9.43095 25.6659 8.36943 25.5792C7.31959 25.4934 6.64261 25.3286 6.09404 25.0491L5.18606 26.8311C6.06356 27.2782 7.03305 27.4767 8.20657 27.5725C9.36842 27.6675 10.8163 27.6667 12.6667 27.6667V25.6667ZM0.999985 16C0.999985 17.8504 0.999207 19.2983 1.09413 20.4601C1.19001 21.6336 1.38849 22.6031 1.8356 23.4806L3.61761 22.5726C3.3381 22.0241 3.17327 21.3471 3.08749 20.2972C3.00076 19.2357 2.99998 17.8834 2.99998 16H0.999985ZM6.09404 25.0491C5.02779 24.5058 4.1609 23.6389 3.61761 22.5726L1.8356 23.4806C2.57063 24.9232 3.74348 26.096 5.18606 26.8311L6.09404 25.0491ZM30.3333 16C30.3333 17.8834 30.3325 19.2357 30.2458 20.2972C30.16 21.3471 29.9952 22.0241 29.7157 22.5726L31.4977 23.4806C31.9448 22.6031 32.1433 21.6336 32.2392 20.4601C32.3341 19.2983 32.3333 17.8504 32.3333 16H30.3333ZM20.6667 27.6667C22.517 27.6667 23.9649 27.6675 25.1267 27.5725C26.3003 27.4767 27.2697 27.2782 28.1472 26.8311L27.2393 25.0491C26.6907 25.3286 26.0137 25.4934 24.9639 25.5792C23.9024 25.6659 22.55 25.6667 20.6667 25.6667V27.6667ZM29.7157 22.5726C29.1724 23.6389 28.3055 24.5058 27.2393 25.0491L28.1472 26.8311C29.5898 26.096 30.7627 24.9232 31.4977 23.4806L29.7157 22.5726ZM20.6666 6.33337C22.5499 6.33337 23.9023 6.33415 24.9638 6.42088C26.0137 6.50666 26.6906 6.67149 27.2392 6.951L28.1472 5.16899C27.2697 4.72188 26.3002 4.5234 25.1267 4.42752C23.9648 4.3326 22.5169 4.33337 20.6666 4.33337V6.33337ZM32.3333 16C32.3333 14.1497 32.3341 12.7018 32.2391 11.5399C32.1432 10.3664 31.9447 9.39694 31.4976 8.51945L29.7156 9.42743C29.9951 9.97601 30.16 10.653 30.2458 11.7028C30.3325 12.7643 30.3333 14.1167 30.3333 16H32.3333ZM27.2392 6.951C28.3055 7.49429 29.1723 8.36118 29.7156 9.42743L31.4976 8.51945C30.7626 7.07687 29.5898 5.90402 28.1472 5.16899L27.2392 6.951ZM12.6666 4.33337C10.8162 4.33337 9.36835 4.3326 8.20651 4.42752C7.03298 4.5234 6.0635 4.72188 5.186 5.16899L6.09398 6.951C6.64255 6.67149 7.31953 6.50666 8.36937 6.42088C9.43088 6.33415 10.7832 6.33337 12.6666 6.33337V4.33337ZM2.99998 16C2.99998 14.117 3.00076 12.7646 3.08749 11.703C3.17326 10.653 3.33809 9.9759 3.61755 9.42743L1.83554 8.51945C1.38844 9.39693 1.18999 10.3666 1.09413 11.5401C0.999207 12.7021 0.999985 14.15 0.999985 16H2.99998ZM5.186 5.16899C3.74342 5.90402 2.57057 7.07687 1.83554 8.51945L3.61755 9.42743C4.16084 8.36118 5.02773 7.49429 6.09398 6.951L5.186 5.16899ZM12.3333 12.0122V19.9878H14.3333V12.0122H12.3333ZM16.1344 21.8498L21.4039 17.862L20.197 16.2672L14.9275 20.2549L16.1344 21.8498ZM21.4039 14.1381L16.1344 10.1503L14.9275 11.7451L20.197 15.7329L21.4039 14.1381ZM21.4039 17.862C22.6431 16.9242 22.6431 15.0758 21.4039 14.1381L20.197 15.7329C20.3787 15.8704 20.3787 16.1297 20.197 16.2672L21.4039 17.862ZM12.3333 19.9878C12.3333 21.9592 14.6028 23.0088 16.1344 21.8498L14.9275 20.2549C14.8046 20.3479 14.6612 20.3556 14.5314 20.2928C14.4027 20.2304 14.3333 20.1227 14.3333 19.9878H12.3333ZM14.3333 12.0122C14.3333 11.8773 14.4027 11.7696 14.5314 11.7073C14.6612 11.6444 14.8046 11.6521 14.9275 11.7451L16.1344 10.1503C14.6028 8.99122 12.3333 10.0409 12.3333 12.0122H14.3333Z" fill="#574EFA"/>
</g>
<defs>
<clipPath id="clip0_14820_4504">
<rect width="32" height="32" fill="white" transform="translate(0.666656)"/>
</clipPath>
</defs>
</svg>
