<svg width="18" height="18" viewBox="0 0 18 18" fill="none" xmlns="http://www.w3.org/2000/svg">
<g id="download">
<path id="Icon" d="M9.835 2.25C9.835 1.78884 9.46116 1.415 9 1.415C8.53884 1.415 8.165 1.78884 8.165 2.25L9.835 2.25ZM8.165 10.5C8.165 10.9612 8.53884 11.335 9 11.335C9.46116 11.335 9.835 10.9612 9.835 10.5H8.165ZM12.5904 9.59043C12.9165 9.26435 12.9165 8.73565 12.5904 8.40957C12.2643 8.08348 11.7357 8.08348 11.4096 8.40957L12.5904 9.59043ZM9.53033 11.4697L8.9399 10.8792L9.53033 11.4697ZM8.46967 11.4697L9.0601 10.8792L8.46967 11.4697ZM6.59043 8.40957C6.26435 8.08348 5.73565 8.08348 5.40957 8.40957C5.08348 8.73565 5.08348 9.26435 5.40957 9.59043L6.59043 8.40957ZM3.085 12C3.085 11.5388 2.71116 11.165 2.25 11.165C1.78884 11.165 1.415 11.5388 1.415 12H3.085ZM16.585 12C16.585 11.5388 16.2112 11.165 15.75 11.165C15.2888 11.165 14.915 11.5388 14.915 12H16.585ZM14.5215 15.5048L14.1424 14.7608L14.1424 14.7608L14.5215 15.5048ZM15.5048 14.5215L16.2488 14.9006V14.9006L15.5048 14.5215ZM2.49524 14.5215L1.75124 14.9006L2.49524 14.5215ZM3.47852 15.5048L3.09944 16.2488H3.09944L3.47852 15.5048ZM8.165 2.25L8.165 10.5H9.835L9.835 2.25L8.165 2.25ZM11.4096 8.40957L8.9399 10.8792L10.1208 12.0601L12.5904 9.59043L11.4096 8.40957ZM9.0601 10.8792L6.59043 8.40957L5.40957 9.59043L7.87924 12.0601L9.0601 10.8792ZM8.9399 10.8792C8.97309 10.846 9.02691 10.846 9.0601 10.8792L7.87924 12.0601C8.49822 12.6791 9.50178 12.6791 10.1208 12.0601L8.9399 10.8792ZM1.415 12V12.15H3.085V12H1.415ZM5.85 16.585H12.15V14.915H5.85V16.585ZM16.585 12.15V12H14.915V12.15H16.585ZM12.15 16.585C12.7663 16.585 13.2787 16.5856 13.6958 16.5516C14.1226 16.5167 14.5226 16.4413 14.9006 16.2488L14.1424 14.7608C14.0391 14.8134 13.8834 14.8607 13.5598 14.8871C13.2265 14.9144 12.7938 14.915 12.15 14.915V16.585ZM14.915 12.15C14.915 12.7938 14.9144 13.2265 14.8871 13.5598C14.8607 13.8834 14.8134 14.0391 14.7608 14.1424L16.2488 14.9006C16.4413 14.5226 16.5167 14.1226 16.5516 13.6958C16.5856 13.2787 16.585 12.7663 16.585 12.15H14.915ZM14.9006 16.2488C15.481 15.953 15.953 15.481 16.2488 14.9006L14.7608 14.1424C14.6251 14.4086 14.4086 14.6251 14.1424 14.7608L14.9006 16.2488ZM1.415 12.15C1.415 12.7663 1.41435 13.2787 1.44843 13.6958C1.4833 14.1226 1.55865 14.5226 1.75124 14.9006L3.23923 14.1424C3.18658 14.0391 3.13932 13.8834 3.11288 13.5598C3.08565 13.2265 3.085 12.7938 3.085 12.15H1.415ZM5.85 14.915C5.20616 14.915 4.7735 14.9144 4.4402 14.8871C4.11665 14.8607 3.96092 14.8134 3.8576 14.7608L3.09944 16.2488C3.47742 16.4413 3.87738 16.5167 4.30421 16.5516C4.72129 16.5856 5.23372 16.585 5.85 16.585V14.915ZM1.75124 14.9006C2.04701 15.481 2.51896 15.953 3.09944 16.2488L3.8576 14.7608C3.59135 14.6251 3.37489 14.4086 3.23923 14.1424L1.75124 14.9006Z" fill="white"/>
</g>
</svg>
