<svg width="22" height="21" viewBox="0 0 22 21" fill="none" xmlns="http://www.w3.org/2000/svg">
<path d="M19.414 13.4956L18.5294 13.9618L18.5294 13.9618L19.414 13.4956ZM15.2365 5.56774L16.1212 5.10156V5.10156L15.2365 5.56774ZM6.76346 5.56774L5.87877 5.10156L6.76346 5.56774ZM2.58595 13.4956L3.47064 13.9618H3.47064L2.58595 13.4956ZM12.2686 1.27099L12.679 0.359075V0.359075L12.2686 1.27099ZM9.73141 1.27099L10.1418 2.1829L9.73141 1.27099ZM19.7482 19.4929L20.3012 20.3261H20.3012L19.7482 19.4929ZM20.9801 17.6015L19.992 17.4477L20.9801 17.6015ZM2.25179 19.4929L1.69883 20.3261H1.69883L2.25179 19.4929ZM1.01992 17.6015L2.00802 17.4477L1.01992 17.6015ZM12 7.99551C11.9975 7.44323 11.5478 6.99753 10.9955 7.00001C10.4432 7.00249 9.99753 7.45221 10 8.00449L12 7.99551ZM10.0224 13.0044C10.0249 13.5567 10.4746 14.0024 11.0269 13.9999C11.5792 13.9974 12.0249 13.5477 12.0224 12.9954L10.0224 13.0044ZM12 16C12 15.4477 11.5523 15 11 15C10.4477 15 10 15.4477 10 16H12ZM10 16.01C10 16.5623 10.4477 17.01 11 17.01C11.5523 17.01 12 16.5623 12 16.01H10ZM6.82249 21H15.1775V19H6.82249V21ZM20.2987 13.0294L16.1212 5.10156L14.3518 6.03392L18.5294 13.9618L20.2987 13.0294ZM5.87877 5.10156L1.70126 13.0294L3.47064 13.9618L7.64815 6.03392L5.87877 5.10156ZM16.1212 5.10156C15.4489 3.8257 14.9125 2.80542 14.4246 2.05802C13.9422 1.31916 13.4106 0.688317 12.679 0.359075L11.8582 2.1829C12.0492 2.26885 12.3198 2.49253 12.7498 3.15133C13.1743 3.80158 13.6606 4.72207 14.3518 6.03392L16.1212 5.10156ZM7.64815 6.03392C8.33942 4.72207 8.82565 3.80158 9.25016 3.15133C9.68024 2.49253 9.9508 2.26885 10.1418 2.1829L9.32102 0.359075C8.58942 0.688317 8.05779 1.31916 7.57544 2.05802C7.08752 2.80542 6.55107 3.82571 5.87877 5.10156L7.64815 6.03392ZM12.679 0.359075C11.6151 -0.119692 10.3849 -0.119692 9.32102 0.359075L10.1418 2.1829C10.6837 1.93903 11.3163 1.93903 11.8582 2.1829L12.679 0.359075ZM15.1775 21C16.4278 21 17.431 21.0009 18.2144 20.9329C18.9943 20.8651 19.7069 20.7204 20.3012 20.3261L19.1952 18.6596C19.0253 18.7724 18.7214 18.8813 18.0414 18.9404C17.365 18.9991 16.4649 19 15.1775 19V21ZM18.5294 13.9618C19.1063 15.0566 19.5047 15.815 19.749 16.4086C19.9944 17.0047 20.0174 17.2845 19.992 17.4477L21.9682 17.7554C22.0791 17.0433 21.8864 16.3469 21.5985 15.6473C21.3095 14.9453 20.8567 14.0883 20.2987 13.0294L18.5294 13.9618ZM20.3012 20.3261C21.1931 19.7341 21.8042 18.8082 21.9682 17.7554L19.992 17.4477C19.9179 17.9236 19.6379 18.3659 19.1952 18.6596L20.3012 20.3261ZM6.82249 19C5.53512 19 4.63502 18.9991 3.9586 18.9404C3.27858 18.8813 2.97468 18.7724 2.80476 18.6596L1.69883 20.3261C2.29308 20.7204 3.00568 20.8651 3.78555 20.9329C4.56902 21.0009 5.57217 21 6.82249 21V19ZM1.70126 13.0294C1.14329 14.0883 0.690521 14.9453 0.401527 15.6473C0.113548 16.3469 -0.079057 17.0433 0.0318306 17.7554L2.00802 17.4477C1.98261 17.2845 2.00557 17.0047 2.25096 16.4086C2.49533 15.815 2.89373 15.0566 3.47064 13.9618L1.70126 13.0294ZM2.80476 18.6596C2.36213 18.3659 2.08213 17.9237 2.00802 17.4477L0.0318305 17.7554C0.195755 18.8082 0.806901 19.7341 1.69883 20.3261L2.80476 18.6596ZM10 8.00449L10.0224 13.0044L12.0224 12.9954L12 7.99551L10 8.00449ZM10 16V16.01H12V16H10Z" fill="#F04438"/>
</svg>
